%TF.GenerationSoftware,KiCad,Pcbnew,7.0.9*%
%TF.CreationDate,2024-01-24T18:52:35+01:00*%
%TF.ProjectId,Kicad_Passage_A_niveau_Stockage,4b696361-645f-4506-9173-736167655f41,rev?*%
%TF.SameCoordinates,Original*%
%TF.FileFunction,AssemblyDrawing,Top*%
%FSLAX46Y46*%
G04 Gerber Fmt 4.6, Leading zero omitted, Abs format (unit mm)*
G04 Created by KiCad (PCBNEW 7.0.9) date 2024-01-24 18:52:35*
%MOMM*%
%LPD*%
G01*
G04 APERTURE LIST*
%ADD10C,0.150000*%
%ADD11C,0.200000*%
%ADD12C,0.015000*%
%ADD13C,0.100000*%
%ADD14C,0.127000*%
%ADD15C,0.120000*%
G04 APERTURE END LIST*
D10*
X138249142Y-69640819D02*
X137772952Y-69640819D01*
X137772952Y-69640819D02*
X137772952Y-68640819D01*
X138582476Y-69117009D02*
X138915809Y-69117009D01*
X139058666Y-69640819D02*
X138582476Y-69640819D01*
X138582476Y-69640819D02*
X138582476Y-68640819D01*
X138582476Y-68640819D02*
X139058666Y-68640819D01*
X139487238Y-69640819D02*
X139487238Y-68640819D01*
X139487238Y-68640819D02*
X139725333Y-68640819D01*
X139725333Y-68640819D02*
X139868190Y-68688438D01*
X139868190Y-68688438D02*
X139963428Y-68783676D01*
X139963428Y-68783676D02*
X140011047Y-68878914D01*
X140011047Y-68878914D02*
X140058666Y-69069390D01*
X140058666Y-69069390D02*
X140058666Y-69212247D01*
X140058666Y-69212247D02*
X140011047Y-69402723D01*
X140011047Y-69402723D02*
X139963428Y-69497961D01*
X139963428Y-69497961D02*
X139868190Y-69593200D01*
X139868190Y-69593200D02*
X139725333Y-69640819D01*
X139725333Y-69640819D02*
X139487238Y-69640819D01*
D11*
X138281524Y-65585695D02*
X138281524Y-64785695D01*
X138281524Y-64785695D02*
X138472000Y-64785695D01*
X138472000Y-64785695D02*
X138586286Y-64823790D01*
X138586286Y-64823790D02*
X138662476Y-64899980D01*
X138662476Y-64899980D02*
X138700571Y-64976171D01*
X138700571Y-64976171D02*
X138738667Y-65128552D01*
X138738667Y-65128552D02*
X138738667Y-65242838D01*
X138738667Y-65242838D02*
X138700571Y-65395219D01*
X138700571Y-65395219D02*
X138662476Y-65471409D01*
X138662476Y-65471409D02*
X138586286Y-65547600D01*
X138586286Y-65547600D02*
X138472000Y-65585695D01*
X138472000Y-65585695D02*
X138281524Y-65585695D01*
X139424381Y-65052361D02*
X139424381Y-65585695D01*
X139233905Y-64747600D02*
X139043428Y-65319028D01*
X139043428Y-65319028D02*
X139538667Y-65319028D01*
D12*
X155658904Y-103257600D02*
X155611285Y-103305220D01*
X155611285Y-103305220D02*
X155468428Y-103352839D01*
X155468428Y-103352839D02*
X155373190Y-103352839D01*
X155373190Y-103352839D02*
X155230333Y-103305220D01*
X155230333Y-103305220D02*
X155135095Y-103209981D01*
X155135095Y-103209981D02*
X155087476Y-103114743D01*
X155087476Y-103114743D02*
X155039857Y-102924267D01*
X155039857Y-102924267D02*
X155039857Y-102781410D01*
X155039857Y-102781410D02*
X155087476Y-102590934D01*
X155087476Y-102590934D02*
X155135095Y-102495696D01*
X155135095Y-102495696D02*
X155230333Y-102400458D01*
X155230333Y-102400458D02*
X155373190Y-102352839D01*
X155373190Y-102352839D02*
X155468428Y-102352839D01*
X155468428Y-102352839D02*
X155611285Y-102400458D01*
X155611285Y-102400458D02*
X155658904Y-102448077D01*
X156230333Y-103352839D02*
X156135095Y-103305220D01*
X156135095Y-103305220D02*
X156087476Y-103257600D01*
X156087476Y-103257600D02*
X156039857Y-103162362D01*
X156039857Y-103162362D02*
X156039857Y-102876648D01*
X156039857Y-102876648D02*
X156087476Y-102781410D01*
X156087476Y-102781410D02*
X156135095Y-102733791D01*
X156135095Y-102733791D02*
X156230333Y-102686172D01*
X156230333Y-102686172D02*
X156373190Y-102686172D01*
X156373190Y-102686172D02*
X156468428Y-102733791D01*
X156468428Y-102733791D02*
X156516047Y-102781410D01*
X156516047Y-102781410D02*
X156563666Y-102876648D01*
X156563666Y-102876648D02*
X156563666Y-103162362D01*
X156563666Y-103162362D02*
X156516047Y-103257600D01*
X156516047Y-103257600D02*
X156468428Y-103305220D01*
X156468428Y-103305220D02*
X156373190Y-103352839D01*
X156373190Y-103352839D02*
X156230333Y-103352839D01*
X156992238Y-102686172D02*
X156992238Y-103352839D01*
X156992238Y-102781410D02*
X157039857Y-102733791D01*
X157039857Y-102733791D02*
X157135095Y-102686172D01*
X157135095Y-102686172D02*
X157277952Y-102686172D01*
X157277952Y-102686172D02*
X157373190Y-102733791D01*
X157373190Y-102733791D02*
X157420809Y-102829029D01*
X157420809Y-102829029D02*
X157420809Y-103352839D01*
X157897000Y-102686172D02*
X157897000Y-103352839D01*
X157897000Y-102781410D02*
X157944619Y-102733791D01*
X157944619Y-102733791D02*
X158039857Y-102686172D01*
X158039857Y-102686172D02*
X158182714Y-102686172D01*
X158182714Y-102686172D02*
X158277952Y-102733791D01*
X158277952Y-102733791D02*
X158325571Y-102829029D01*
X158325571Y-102829029D02*
X158325571Y-103352839D01*
X158563667Y-103448077D02*
X159325571Y-103448077D01*
X159754143Y-102352839D02*
X159849381Y-102352839D01*
X159849381Y-102352839D02*
X159944619Y-102400458D01*
X159944619Y-102400458D02*
X159992238Y-102448077D01*
X159992238Y-102448077D02*
X160039857Y-102543315D01*
X160039857Y-102543315D02*
X160087476Y-102733791D01*
X160087476Y-102733791D02*
X160087476Y-102971886D01*
X160087476Y-102971886D02*
X160039857Y-103162362D01*
X160039857Y-103162362D02*
X159992238Y-103257600D01*
X159992238Y-103257600D02*
X159944619Y-103305220D01*
X159944619Y-103305220D02*
X159849381Y-103352839D01*
X159849381Y-103352839D02*
X159754143Y-103352839D01*
X159754143Y-103352839D02*
X159658905Y-103305220D01*
X159658905Y-103305220D02*
X159611286Y-103257600D01*
X159611286Y-103257600D02*
X159563667Y-103162362D01*
X159563667Y-103162362D02*
X159516048Y-102971886D01*
X159516048Y-102971886D02*
X159516048Y-102733791D01*
X159516048Y-102733791D02*
X159563667Y-102543315D01*
X159563667Y-102543315D02*
X159611286Y-102448077D01*
X159611286Y-102448077D02*
X159658905Y-102400458D01*
X159658905Y-102400458D02*
X159754143Y-102352839D01*
X161039857Y-103352839D02*
X160468429Y-103352839D01*
X160754143Y-103352839D02*
X160754143Y-102352839D01*
X160754143Y-102352839D02*
X160658905Y-102495696D01*
X160658905Y-102495696D02*
X160563667Y-102590934D01*
X160563667Y-102590934D02*
X160468429Y-102638553D01*
X161373191Y-103352839D02*
X161897000Y-102686172D01*
X161373191Y-102686172D02*
X161897000Y-103352839D01*
X162468429Y-102352839D02*
X162563667Y-102352839D01*
X162563667Y-102352839D02*
X162658905Y-102400458D01*
X162658905Y-102400458D02*
X162706524Y-102448077D01*
X162706524Y-102448077D02*
X162754143Y-102543315D01*
X162754143Y-102543315D02*
X162801762Y-102733791D01*
X162801762Y-102733791D02*
X162801762Y-102971886D01*
X162801762Y-102971886D02*
X162754143Y-103162362D01*
X162754143Y-103162362D02*
X162706524Y-103257600D01*
X162706524Y-103257600D02*
X162658905Y-103305220D01*
X162658905Y-103305220D02*
X162563667Y-103352839D01*
X162563667Y-103352839D02*
X162468429Y-103352839D01*
X162468429Y-103352839D02*
X162373191Y-103305220D01*
X162373191Y-103305220D02*
X162325572Y-103257600D01*
X162325572Y-103257600D02*
X162277953Y-103162362D01*
X162277953Y-103162362D02*
X162230334Y-102971886D01*
X162230334Y-102971886D02*
X162230334Y-102733791D01*
X162230334Y-102733791D02*
X162277953Y-102543315D01*
X162277953Y-102543315D02*
X162325572Y-102448077D01*
X162325572Y-102448077D02*
X162373191Y-102400458D01*
X162373191Y-102400458D02*
X162468429Y-102352839D01*
X163135096Y-102352839D02*
X163754143Y-102352839D01*
X163754143Y-102352839D02*
X163420810Y-102733791D01*
X163420810Y-102733791D02*
X163563667Y-102733791D01*
X163563667Y-102733791D02*
X163658905Y-102781410D01*
X163658905Y-102781410D02*
X163706524Y-102829029D01*
X163706524Y-102829029D02*
X163754143Y-102924267D01*
X163754143Y-102924267D02*
X163754143Y-103162362D01*
X163754143Y-103162362D02*
X163706524Y-103257600D01*
X163706524Y-103257600D02*
X163658905Y-103305220D01*
X163658905Y-103305220D02*
X163563667Y-103352839D01*
X163563667Y-103352839D02*
X163277953Y-103352839D01*
X163277953Y-103352839D02*
X163182715Y-103305220D01*
X163182715Y-103305220D02*
X163135096Y-103257600D01*
D10*
X77016047Y-87180819D02*
X76444619Y-87180819D01*
X76730333Y-87180819D02*
X76730333Y-86180819D01*
X76730333Y-86180819D02*
X76635095Y-86323676D01*
X76635095Y-86323676D02*
X76539857Y-86418914D01*
X76539857Y-86418914D02*
X76444619Y-86466533D01*
X77635095Y-86180819D02*
X77730333Y-86180819D01*
X77730333Y-86180819D02*
X77825571Y-86228438D01*
X77825571Y-86228438D02*
X77873190Y-86276057D01*
X77873190Y-86276057D02*
X77920809Y-86371295D01*
X77920809Y-86371295D02*
X77968428Y-86561771D01*
X77968428Y-86561771D02*
X77968428Y-86799866D01*
X77968428Y-86799866D02*
X77920809Y-86990342D01*
X77920809Y-86990342D02*
X77873190Y-87085580D01*
X77873190Y-87085580D02*
X77825571Y-87133200D01*
X77825571Y-87133200D02*
X77730333Y-87180819D01*
X77730333Y-87180819D02*
X77635095Y-87180819D01*
X77635095Y-87180819D02*
X77539857Y-87133200D01*
X77539857Y-87133200D02*
X77492238Y-87085580D01*
X77492238Y-87085580D02*
X77444619Y-86990342D01*
X77444619Y-86990342D02*
X77397000Y-86799866D01*
X77397000Y-86799866D02*
X77397000Y-86561771D01*
X77397000Y-86561771D02*
X77444619Y-86371295D01*
X77444619Y-86371295D02*
X77492238Y-86276057D01*
X77492238Y-86276057D02*
X77539857Y-86228438D01*
X77539857Y-86228438D02*
X77635095Y-86180819D01*
X78825571Y-86514152D02*
X78825571Y-87180819D01*
X78397000Y-86514152D02*
X78397000Y-87037961D01*
X78397000Y-87037961D02*
X78444619Y-87133200D01*
X78444619Y-87133200D02*
X78539857Y-87180819D01*
X78539857Y-87180819D02*
X78682714Y-87180819D01*
X78682714Y-87180819D02*
X78777952Y-87133200D01*
X78777952Y-87133200D02*
X78825571Y-87085580D01*
X79158905Y-86514152D02*
X79539857Y-86514152D01*
X79301762Y-87180819D02*
X79301762Y-86323676D01*
X79301762Y-86323676D02*
X79349381Y-86228438D01*
X79349381Y-86228438D02*
X79444619Y-86180819D01*
X79444619Y-86180819D02*
X79539857Y-86180819D01*
X79873191Y-86799866D02*
X80635096Y-86799866D01*
X81063667Y-86276057D02*
X81111286Y-86228438D01*
X81111286Y-86228438D02*
X81206524Y-86180819D01*
X81206524Y-86180819D02*
X81444619Y-86180819D01*
X81444619Y-86180819D02*
X81539857Y-86228438D01*
X81539857Y-86228438D02*
X81587476Y-86276057D01*
X81587476Y-86276057D02*
X81635095Y-86371295D01*
X81635095Y-86371295D02*
X81635095Y-86466533D01*
X81635095Y-86466533D02*
X81587476Y-86609390D01*
X81587476Y-86609390D02*
X81016048Y-87180819D01*
X81016048Y-87180819D02*
X81635095Y-87180819D01*
X82539857Y-86180819D02*
X82063667Y-86180819D01*
X82063667Y-86180819D02*
X82016048Y-86657009D01*
X82016048Y-86657009D02*
X82063667Y-86609390D01*
X82063667Y-86609390D02*
X82158905Y-86561771D01*
X82158905Y-86561771D02*
X82397000Y-86561771D01*
X82397000Y-86561771D02*
X82492238Y-86609390D01*
X82492238Y-86609390D02*
X82539857Y-86657009D01*
X82539857Y-86657009D02*
X82587476Y-86752247D01*
X82587476Y-86752247D02*
X82587476Y-86990342D01*
X82587476Y-86990342D02*
X82539857Y-87085580D01*
X82539857Y-87085580D02*
X82492238Y-87133200D01*
X82492238Y-87133200D02*
X82397000Y-87180819D01*
X82397000Y-87180819D02*
X82158905Y-87180819D01*
X82158905Y-87180819D02*
X82063667Y-87133200D01*
X82063667Y-87133200D02*
X82016048Y-87085580D01*
X82920810Y-86514152D02*
X83158905Y-87180819D01*
X83158905Y-87180819D02*
X83397000Y-86514152D01*
X88230333Y-89585580D02*
X88182714Y-89633200D01*
X88182714Y-89633200D02*
X88039857Y-89680819D01*
X88039857Y-89680819D02*
X87944619Y-89680819D01*
X87944619Y-89680819D02*
X87801762Y-89633200D01*
X87801762Y-89633200D02*
X87706524Y-89537961D01*
X87706524Y-89537961D02*
X87658905Y-89442723D01*
X87658905Y-89442723D02*
X87611286Y-89252247D01*
X87611286Y-89252247D02*
X87611286Y-89109390D01*
X87611286Y-89109390D02*
X87658905Y-88918914D01*
X87658905Y-88918914D02*
X87706524Y-88823676D01*
X87706524Y-88823676D02*
X87801762Y-88728438D01*
X87801762Y-88728438D02*
X87944619Y-88680819D01*
X87944619Y-88680819D02*
X88039857Y-88680819D01*
X88039857Y-88680819D02*
X88182714Y-88728438D01*
X88182714Y-88728438D02*
X88230333Y-88776057D01*
X89087476Y-89014152D02*
X89087476Y-89680819D01*
X88849381Y-88633200D02*
X88611286Y-89347485D01*
X88611286Y-89347485D02*
X89230333Y-89347485D01*
X83873190Y-68657009D02*
X84016047Y-68704628D01*
X84016047Y-68704628D02*
X84063666Y-68752247D01*
X84063666Y-68752247D02*
X84111285Y-68847485D01*
X84111285Y-68847485D02*
X84111285Y-68990342D01*
X84111285Y-68990342D02*
X84063666Y-69085580D01*
X84063666Y-69085580D02*
X84016047Y-69133200D01*
X84016047Y-69133200D02*
X83920809Y-69180819D01*
X83920809Y-69180819D02*
X83539857Y-69180819D01*
X83539857Y-69180819D02*
X83539857Y-68180819D01*
X83539857Y-68180819D02*
X83873190Y-68180819D01*
X83873190Y-68180819D02*
X83968428Y-68228438D01*
X83968428Y-68228438D02*
X84016047Y-68276057D01*
X84016047Y-68276057D02*
X84063666Y-68371295D01*
X84063666Y-68371295D02*
X84063666Y-68466533D01*
X84063666Y-68466533D02*
X84016047Y-68561771D01*
X84016047Y-68561771D02*
X83968428Y-68609390D01*
X83968428Y-68609390D02*
X83873190Y-68657009D01*
X83873190Y-68657009D02*
X83539857Y-68657009D01*
X84397000Y-68180819D02*
X84730333Y-69180819D01*
X84730333Y-69180819D02*
X85063666Y-68180819D01*
X86158905Y-68657009D02*
X86492238Y-68657009D01*
X86635095Y-69180819D02*
X86158905Y-69180819D01*
X86158905Y-69180819D02*
X86158905Y-68180819D01*
X86158905Y-68180819D02*
X86635095Y-68180819D01*
X87063667Y-69180819D02*
X87063667Y-68180819D01*
X88206524Y-68180819D02*
X88825571Y-68180819D01*
X88825571Y-68180819D02*
X88492238Y-68561771D01*
X88492238Y-68561771D02*
X88635095Y-68561771D01*
X88635095Y-68561771D02*
X88730333Y-68609390D01*
X88730333Y-68609390D02*
X88777952Y-68657009D01*
X88777952Y-68657009D02*
X88825571Y-68752247D01*
X88825571Y-68752247D02*
X88825571Y-68990342D01*
X88825571Y-68990342D02*
X88777952Y-69085580D01*
X88777952Y-69085580D02*
X88730333Y-69133200D01*
X88730333Y-69133200D02*
X88635095Y-69180819D01*
X88635095Y-69180819D02*
X88349381Y-69180819D01*
X88349381Y-69180819D02*
X88254143Y-69133200D01*
X88254143Y-69133200D02*
X88206524Y-69085580D01*
X89444619Y-68180819D02*
X89539857Y-68180819D01*
X89539857Y-68180819D02*
X89635095Y-68228438D01*
X89635095Y-68228438D02*
X89682714Y-68276057D01*
X89682714Y-68276057D02*
X89730333Y-68371295D01*
X89730333Y-68371295D02*
X89777952Y-68561771D01*
X89777952Y-68561771D02*
X89777952Y-68799866D01*
X89777952Y-68799866D02*
X89730333Y-68990342D01*
X89730333Y-68990342D02*
X89682714Y-69085580D01*
X89682714Y-69085580D02*
X89635095Y-69133200D01*
X89635095Y-69133200D02*
X89539857Y-69180819D01*
X89539857Y-69180819D02*
X89444619Y-69180819D01*
X89444619Y-69180819D02*
X89349381Y-69133200D01*
X89349381Y-69133200D02*
X89301762Y-69085580D01*
X89301762Y-69085580D02*
X89254143Y-68990342D01*
X89254143Y-68990342D02*
X89206524Y-68799866D01*
X89206524Y-68799866D02*
X89206524Y-68561771D01*
X89206524Y-68561771D02*
X89254143Y-68371295D01*
X89254143Y-68371295D02*
X89301762Y-68276057D01*
X89301762Y-68276057D02*
X89349381Y-68228438D01*
X89349381Y-68228438D02*
X89444619Y-68180819D01*
X90682714Y-68180819D02*
X90206524Y-68180819D01*
X90206524Y-68180819D02*
X90158905Y-68657009D01*
X90158905Y-68657009D02*
X90206524Y-68609390D01*
X90206524Y-68609390D02*
X90301762Y-68561771D01*
X90301762Y-68561771D02*
X90539857Y-68561771D01*
X90539857Y-68561771D02*
X90635095Y-68609390D01*
X90635095Y-68609390D02*
X90682714Y-68657009D01*
X90682714Y-68657009D02*
X90730333Y-68752247D01*
X90730333Y-68752247D02*
X90730333Y-68990342D01*
X90730333Y-68990342D02*
X90682714Y-69085580D01*
X90682714Y-69085580D02*
X90635095Y-69133200D01*
X90635095Y-69133200D02*
X90539857Y-69180819D01*
X90539857Y-69180819D02*
X90301762Y-69180819D01*
X90301762Y-69180819D02*
X90206524Y-69133200D01*
X90206524Y-69133200D02*
X90158905Y-69085580D01*
X91873191Y-68276057D02*
X91920810Y-68228438D01*
X91920810Y-68228438D02*
X92016048Y-68180819D01*
X92016048Y-68180819D02*
X92254143Y-68180819D01*
X92254143Y-68180819D02*
X92349381Y-68228438D01*
X92349381Y-68228438D02*
X92397000Y-68276057D01*
X92397000Y-68276057D02*
X92444619Y-68371295D01*
X92444619Y-68371295D02*
X92444619Y-68466533D01*
X92444619Y-68466533D02*
X92397000Y-68609390D01*
X92397000Y-68609390D02*
X91825572Y-69180819D01*
X91825572Y-69180819D02*
X92444619Y-69180819D01*
X93063667Y-68180819D02*
X93158905Y-68180819D01*
X93158905Y-68180819D02*
X93254143Y-68228438D01*
X93254143Y-68228438D02*
X93301762Y-68276057D01*
X93301762Y-68276057D02*
X93349381Y-68371295D01*
X93349381Y-68371295D02*
X93397000Y-68561771D01*
X93397000Y-68561771D02*
X93397000Y-68799866D01*
X93397000Y-68799866D02*
X93349381Y-68990342D01*
X93349381Y-68990342D02*
X93301762Y-69085580D01*
X93301762Y-69085580D02*
X93254143Y-69133200D01*
X93254143Y-69133200D02*
X93158905Y-69180819D01*
X93158905Y-69180819D02*
X93063667Y-69180819D01*
X93063667Y-69180819D02*
X92968429Y-69133200D01*
X92968429Y-69133200D02*
X92920810Y-69085580D01*
X92920810Y-69085580D02*
X92873191Y-68990342D01*
X92873191Y-68990342D02*
X92825572Y-68799866D01*
X92825572Y-68799866D02*
X92825572Y-68561771D01*
X92825572Y-68561771D02*
X92873191Y-68371295D01*
X92873191Y-68371295D02*
X92920810Y-68276057D01*
X92920810Y-68276057D02*
X92968429Y-68228438D01*
X92968429Y-68228438D02*
X93063667Y-68180819D01*
X94301762Y-68180819D02*
X93825572Y-68180819D01*
X93825572Y-68180819D02*
X93777953Y-68657009D01*
X93777953Y-68657009D02*
X93825572Y-68609390D01*
X93825572Y-68609390D02*
X93920810Y-68561771D01*
X93920810Y-68561771D02*
X94158905Y-68561771D01*
X94158905Y-68561771D02*
X94254143Y-68609390D01*
X94254143Y-68609390D02*
X94301762Y-68657009D01*
X94301762Y-68657009D02*
X94349381Y-68752247D01*
X94349381Y-68752247D02*
X94349381Y-68990342D01*
X94349381Y-68990342D02*
X94301762Y-69085580D01*
X94301762Y-69085580D02*
X94254143Y-69133200D01*
X94254143Y-69133200D02*
X94158905Y-69180819D01*
X94158905Y-69180819D02*
X93920810Y-69180819D01*
X93920810Y-69180819D02*
X93825572Y-69133200D01*
X93825572Y-69133200D02*
X93777953Y-69085580D01*
X94730334Y-68276057D02*
X94777953Y-68228438D01*
X94777953Y-68228438D02*
X94873191Y-68180819D01*
X94873191Y-68180819D02*
X95111286Y-68180819D01*
X95111286Y-68180819D02*
X95206524Y-68228438D01*
X95206524Y-68228438D02*
X95254143Y-68276057D01*
X95254143Y-68276057D02*
X95301762Y-68371295D01*
X95301762Y-68371295D02*
X95301762Y-68466533D01*
X95301762Y-68466533D02*
X95254143Y-68609390D01*
X95254143Y-68609390D02*
X94682715Y-69180819D01*
X94682715Y-69180819D02*
X95301762Y-69180819D01*
X88135095Y-69680819D02*
X88706523Y-69680819D01*
X88420809Y-70680819D02*
X88420809Y-69680819D01*
X89611285Y-70680819D02*
X89277952Y-70204628D01*
X89039857Y-70680819D02*
X89039857Y-69680819D01*
X89039857Y-69680819D02*
X89420809Y-69680819D01*
X89420809Y-69680819D02*
X89516047Y-69728438D01*
X89516047Y-69728438D02*
X89563666Y-69776057D01*
X89563666Y-69776057D02*
X89611285Y-69871295D01*
X89611285Y-69871295D02*
X89611285Y-70014152D01*
X89611285Y-70014152D02*
X89563666Y-70109390D01*
X89563666Y-70109390D02*
X89516047Y-70157009D01*
X89516047Y-70157009D02*
X89420809Y-70204628D01*
X89420809Y-70204628D02*
X89039857Y-70204628D01*
X90563666Y-70680819D02*
X89992238Y-70680819D01*
X90277952Y-70680819D02*
X90277952Y-69680819D01*
X90277952Y-69680819D02*
X90182714Y-69823676D01*
X90182714Y-69823676D02*
X90087476Y-69918914D01*
X90087476Y-69918914D02*
X89992238Y-69966533D01*
X142221819Y-36345047D02*
X142221819Y-36916475D01*
X142221819Y-36630761D02*
X141221819Y-36630761D01*
X141221819Y-36630761D02*
X141364676Y-36725999D01*
X141364676Y-36725999D02*
X141459914Y-36821237D01*
X141459914Y-36821237D02*
X141507533Y-36916475D01*
X142221819Y-35916475D02*
X141221819Y-35916475D01*
X141840866Y-35821237D02*
X142221819Y-35535523D01*
X141555152Y-35535523D02*
X141936104Y-35916475D01*
X139851819Y-36392666D02*
X139375628Y-36725999D01*
X139851819Y-36964094D02*
X138851819Y-36964094D01*
X138851819Y-36964094D02*
X138851819Y-36583142D01*
X138851819Y-36583142D02*
X138899438Y-36487904D01*
X138899438Y-36487904D02*
X138947057Y-36440285D01*
X138947057Y-36440285D02*
X139042295Y-36392666D01*
X139042295Y-36392666D02*
X139185152Y-36392666D01*
X139185152Y-36392666D02*
X139280390Y-36440285D01*
X139280390Y-36440285D02*
X139328009Y-36487904D01*
X139328009Y-36487904D02*
X139375628Y-36583142D01*
X139375628Y-36583142D02*
X139375628Y-36964094D01*
X139851819Y-35440285D02*
X139851819Y-36011713D01*
X139851819Y-35725999D02*
X138851819Y-35725999D01*
X138851819Y-35725999D02*
X138994676Y-35821237D01*
X138994676Y-35821237D02*
X139089914Y-35916475D01*
X139089914Y-35916475D02*
X139137533Y-36011713D01*
X96756580Y-103495524D02*
X96804200Y-103543143D01*
X96804200Y-103543143D02*
X96851819Y-103686000D01*
X96851819Y-103686000D02*
X96851819Y-103781238D01*
X96851819Y-103781238D02*
X96804200Y-103924095D01*
X96804200Y-103924095D02*
X96708961Y-104019333D01*
X96708961Y-104019333D02*
X96613723Y-104066952D01*
X96613723Y-104066952D02*
X96423247Y-104114571D01*
X96423247Y-104114571D02*
X96280390Y-104114571D01*
X96280390Y-104114571D02*
X96089914Y-104066952D01*
X96089914Y-104066952D02*
X95994676Y-104019333D01*
X95994676Y-104019333D02*
X95899438Y-103924095D01*
X95899438Y-103924095D02*
X95851819Y-103781238D01*
X95851819Y-103781238D02*
X95851819Y-103686000D01*
X95851819Y-103686000D02*
X95899438Y-103543143D01*
X95899438Y-103543143D02*
X95947057Y-103495524D01*
X96851819Y-102924095D02*
X96804200Y-103019333D01*
X96804200Y-103019333D02*
X96756580Y-103066952D01*
X96756580Y-103066952D02*
X96661342Y-103114571D01*
X96661342Y-103114571D02*
X96375628Y-103114571D01*
X96375628Y-103114571D02*
X96280390Y-103066952D01*
X96280390Y-103066952D02*
X96232771Y-103019333D01*
X96232771Y-103019333D02*
X96185152Y-102924095D01*
X96185152Y-102924095D02*
X96185152Y-102781238D01*
X96185152Y-102781238D02*
X96232771Y-102686000D01*
X96232771Y-102686000D02*
X96280390Y-102638381D01*
X96280390Y-102638381D02*
X96375628Y-102590762D01*
X96375628Y-102590762D02*
X96661342Y-102590762D01*
X96661342Y-102590762D02*
X96756580Y-102638381D01*
X96756580Y-102638381D02*
X96804200Y-102686000D01*
X96804200Y-102686000D02*
X96851819Y-102781238D01*
X96851819Y-102781238D02*
X96851819Y-102924095D01*
X96185152Y-102162190D02*
X96851819Y-102162190D01*
X96280390Y-102162190D02*
X96232771Y-102114571D01*
X96232771Y-102114571D02*
X96185152Y-102019333D01*
X96185152Y-102019333D02*
X96185152Y-101876476D01*
X96185152Y-101876476D02*
X96232771Y-101781238D01*
X96232771Y-101781238D02*
X96328009Y-101733619D01*
X96328009Y-101733619D02*
X96851819Y-101733619D01*
X96185152Y-101257428D02*
X96851819Y-101257428D01*
X96280390Y-101257428D02*
X96232771Y-101209809D01*
X96232771Y-101209809D02*
X96185152Y-101114571D01*
X96185152Y-101114571D02*
X96185152Y-100971714D01*
X96185152Y-100971714D02*
X96232771Y-100876476D01*
X96232771Y-100876476D02*
X96328009Y-100828857D01*
X96328009Y-100828857D02*
X96851819Y-100828857D01*
X96947057Y-100590762D02*
X96947057Y-99828857D01*
X95851819Y-99400285D02*
X95851819Y-99305047D01*
X95851819Y-99305047D02*
X95899438Y-99209809D01*
X95899438Y-99209809D02*
X95947057Y-99162190D01*
X95947057Y-99162190D02*
X96042295Y-99114571D01*
X96042295Y-99114571D02*
X96232771Y-99066952D01*
X96232771Y-99066952D02*
X96470866Y-99066952D01*
X96470866Y-99066952D02*
X96661342Y-99114571D01*
X96661342Y-99114571D02*
X96756580Y-99162190D01*
X96756580Y-99162190D02*
X96804200Y-99209809D01*
X96804200Y-99209809D02*
X96851819Y-99305047D01*
X96851819Y-99305047D02*
X96851819Y-99400285D01*
X96851819Y-99400285D02*
X96804200Y-99495523D01*
X96804200Y-99495523D02*
X96756580Y-99543142D01*
X96756580Y-99543142D02*
X96661342Y-99590761D01*
X96661342Y-99590761D02*
X96470866Y-99638380D01*
X96470866Y-99638380D02*
X96232771Y-99638380D01*
X96232771Y-99638380D02*
X96042295Y-99590761D01*
X96042295Y-99590761D02*
X95947057Y-99543142D01*
X95947057Y-99543142D02*
X95899438Y-99495523D01*
X95899438Y-99495523D02*
X95851819Y-99400285D01*
X96851819Y-98114571D02*
X96851819Y-98685999D01*
X96851819Y-98400285D02*
X95851819Y-98400285D01*
X95851819Y-98400285D02*
X95994676Y-98495523D01*
X95994676Y-98495523D02*
X96089914Y-98590761D01*
X96089914Y-98590761D02*
X96137533Y-98685999D01*
X96851819Y-97781237D02*
X96185152Y-97257428D01*
X96185152Y-97781237D02*
X96851819Y-97257428D01*
X95851819Y-96685999D02*
X95851819Y-96590761D01*
X95851819Y-96590761D02*
X95899438Y-96495523D01*
X95899438Y-96495523D02*
X95947057Y-96447904D01*
X95947057Y-96447904D02*
X96042295Y-96400285D01*
X96042295Y-96400285D02*
X96232771Y-96352666D01*
X96232771Y-96352666D02*
X96470866Y-96352666D01*
X96470866Y-96352666D02*
X96661342Y-96400285D01*
X96661342Y-96400285D02*
X96756580Y-96447904D01*
X96756580Y-96447904D02*
X96804200Y-96495523D01*
X96804200Y-96495523D02*
X96851819Y-96590761D01*
X96851819Y-96590761D02*
X96851819Y-96685999D01*
X96851819Y-96685999D02*
X96804200Y-96781237D01*
X96804200Y-96781237D02*
X96756580Y-96828856D01*
X96756580Y-96828856D02*
X96661342Y-96876475D01*
X96661342Y-96876475D02*
X96470866Y-96924094D01*
X96470866Y-96924094D02*
X96232771Y-96924094D01*
X96232771Y-96924094D02*
X96042295Y-96876475D01*
X96042295Y-96876475D02*
X95947057Y-96828856D01*
X95947057Y-96828856D02*
X95899438Y-96781237D01*
X95899438Y-96781237D02*
X95851819Y-96685999D01*
X95851819Y-96019332D02*
X95851819Y-95400285D01*
X95851819Y-95400285D02*
X96232771Y-95733618D01*
X96232771Y-95733618D02*
X96232771Y-95590761D01*
X96232771Y-95590761D02*
X96280390Y-95495523D01*
X96280390Y-95495523D02*
X96328009Y-95447904D01*
X96328009Y-95447904D02*
X96423247Y-95400285D01*
X96423247Y-95400285D02*
X96661342Y-95400285D01*
X96661342Y-95400285D02*
X96756580Y-95447904D01*
X96756580Y-95447904D02*
X96804200Y-95495523D01*
X96804200Y-95495523D02*
X96851819Y-95590761D01*
X96851819Y-95590761D02*
X96851819Y-95876475D01*
X96851819Y-95876475D02*
X96804200Y-95971713D01*
X96804200Y-95971713D02*
X96756580Y-96019332D01*
X96947057Y-95209809D02*
X96947057Y-94447904D01*
X96851819Y-94209808D02*
X95851819Y-94209808D01*
X95851819Y-94209808D02*
X95851819Y-93828856D01*
X95851819Y-93828856D02*
X95899438Y-93733618D01*
X95899438Y-93733618D02*
X95947057Y-93685999D01*
X95947057Y-93685999D02*
X96042295Y-93638380D01*
X96042295Y-93638380D02*
X96185152Y-93638380D01*
X96185152Y-93638380D02*
X96280390Y-93685999D01*
X96280390Y-93685999D02*
X96328009Y-93733618D01*
X96328009Y-93733618D02*
X96375628Y-93828856D01*
X96375628Y-93828856D02*
X96375628Y-94209808D01*
X96851819Y-93209808D02*
X96185152Y-93209808D01*
X95851819Y-93209808D02*
X95899438Y-93257427D01*
X95899438Y-93257427D02*
X95947057Y-93209808D01*
X95947057Y-93209808D02*
X95899438Y-93162189D01*
X95899438Y-93162189D02*
X95851819Y-93209808D01*
X95851819Y-93209808D02*
X95947057Y-93209808D01*
X96185152Y-92733618D02*
X96851819Y-92733618D01*
X96280390Y-92733618D02*
X96232771Y-92685999D01*
X96232771Y-92685999D02*
X96185152Y-92590761D01*
X96185152Y-92590761D02*
X96185152Y-92447904D01*
X96185152Y-92447904D02*
X96232771Y-92352666D01*
X96232771Y-92352666D02*
X96328009Y-92305047D01*
X96328009Y-92305047D02*
X96851819Y-92305047D01*
X92851819Y-99059333D02*
X93566104Y-99059333D01*
X93566104Y-99059333D02*
X93708961Y-99106952D01*
X93708961Y-99106952D02*
X93804200Y-99202190D01*
X93804200Y-99202190D02*
X93851819Y-99345047D01*
X93851819Y-99345047D02*
X93851819Y-99440285D01*
X93280390Y-98440285D02*
X93232771Y-98535523D01*
X93232771Y-98535523D02*
X93185152Y-98583142D01*
X93185152Y-98583142D02*
X93089914Y-98630761D01*
X93089914Y-98630761D02*
X93042295Y-98630761D01*
X93042295Y-98630761D02*
X92947057Y-98583142D01*
X92947057Y-98583142D02*
X92899438Y-98535523D01*
X92899438Y-98535523D02*
X92851819Y-98440285D01*
X92851819Y-98440285D02*
X92851819Y-98249809D01*
X92851819Y-98249809D02*
X92899438Y-98154571D01*
X92899438Y-98154571D02*
X92947057Y-98106952D01*
X92947057Y-98106952D02*
X93042295Y-98059333D01*
X93042295Y-98059333D02*
X93089914Y-98059333D01*
X93089914Y-98059333D02*
X93185152Y-98106952D01*
X93185152Y-98106952D02*
X93232771Y-98154571D01*
X93232771Y-98154571D02*
X93280390Y-98249809D01*
X93280390Y-98249809D02*
X93280390Y-98440285D01*
X93280390Y-98440285D02*
X93328009Y-98535523D01*
X93328009Y-98535523D02*
X93375628Y-98583142D01*
X93375628Y-98583142D02*
X93470866Y-98630761D01*
X93470866Y-98630761D02*
X93661342Y-98630761D01*
X93661342Y-98630761D02*
X93756580Y-98583142D01*
X93756580Y-98583142D02*
X93804200Y-98535523D01*
X93804200Y-98535523D02*
X93851819Y-98440285D01*
X93851819Y-98440285D02*
X93851819Y-98249809D01*
X93851819Y-98249809D02*
X93804200Y-98154571D01*
X93804200Y-98154571D02*
X93756580Y-98106952D01*
X93756580Y-98106952D02*
X93661342Y-98059333D01*
X93661342Y-98059333D02*
X93470866Y-98059333D01*
X93470866Y-98059333D02*
X93375628Y-98106952D01*
X93375628Y-98106952D02*
X93328009Y-98154571D01*
X93328009Y-98154571D02*
X93280390Y-98249809D01*
X143489142Y-49180819D02*
X143012952Y-49180819D01*
X143012952Y-49180819D02*
X143012952Y-48180819D01*
X143822476Y-48657009D02*
X144155809Y-48657009D01*
X144298666Y-49180819D02*
X143822476Y-49180819D01*
X143822476Y-49180819D02*
X143822476Y-48180819D01*
X143822476Y-48180819D02*
X144298666Y-48180819D01*
X144727238Y-49180819D02*
X144727238Y-48180819D01*
X144727238Y-48180819D02*
X144965333Y-48180819D01*
X144965333Y-48180819D02*
X145108190Y-48228438D01*
X145108190Y-48228438D02*
X145203428Y-48323676D01*
X145203428Y-48323676D02*
X145251047Y-48418914D01*
X145251047Y-48418914D02*
X145298666Y-48609390D01*
X145298666Y-48609390D02*
X145298666Y-48752247D01*
X145298666Y-48752247D02*
X145251047Y-48942723D01*
X145251047Y-48942723D02*
X145203428Y-49037961D01*
X145203428Y-49037961D02*
X145108190Y-49133200D01*
X145108190Y-49133200D02*
X144965333Y-49180819D01*
X144965333Y-49180819D02*
X144727238Y-49180819D01*
D11*
X138541524Y-47585695D02*
X138541524Y-46785695D01*
X138541524Y-46785695D02*
X138732000Y-46785695D01*
X138732000Y-46785695D02*
X138846286Y-46823790D01*
X138846286Y-46823790D02*
X138922476Y-46899980D01*
X138922476Y-46899980D02*
X138960571Y-46976171D01*
X138960571Y-46976171D02*
X138998667Y-47128552D01*
X138998667Y-47128552D02*
X138998667Y-47242838D01*
X138998667Y-47242838D02*
X138960571Y-47395219D01*
X138960571Y-47395219D02*
X138922476Y-47471409D01*
X138922476Y-47471409D02*
X138846286Y-47547600D01*
X138846286Y-47547600D02*
X138732000Y-47585695D01*
X138732000Y-47585695D02*
X138541524Y-47585695D01*
X139265333Y-46785695D02*
X139760571Y-46785695D01*
X139760571Y-46785695D02*
X139493905Y-47090457D01*
X139493905Y-47090457D02*
X139608190Y-47090457D01*
X139608190Y-47090457D02*
X139684381Y-47128552D01*
X139684381Y-47128552D02*
X139722476Y-47166647D01*
X139722476Y-47166647D02*
X139760571Y-47242838D01*
X139760571Y-47242838D02*
X139760571Y-47433314D01*
X139760571Y-47433314D02*
X139722476Y-47509504D01*
X139722476Y-47509504D02*
X139684381Y-47547600D01*
X139684381Y-47547600D02*
X139608190Y-47585695D01*
X139608190Y-47585695D02*
X139379619Y-47585695D01*
X139379619Y-47585695D02*
X139303428Y-47547600D01*
X139303428Y-47547600D02*
X139265333Y-47509504D01*
D10*
X90256580Y-103995524D02*
X90304200Y-104043143D01*
X90304200Y-104043143D02*
X90351819Y-104186000D01*
X90351819Y-104186000D02*
X90351819Y-104281238D01*
X90351819Y-104281238D02*
X90304200Y-104424095D01*
X90304200Y-104424095D02*
X90208961Y-104519333D01*
X90208961Y-104519333D02*
X90113723Y-104566952D01*
X90113723Y-104566952D02*
X89923247Y-104614571D01*
X89923247Y-104614571D02*
X89780390Y-104614571D01*
X89780390Y-104614571D02*
X89589914Y-104566952D01*
X89589914Y-104566952D02*
X89494676Y-104519333D01*
X89494676Y-104519333D02*
X89399438Y-104424095D01*
X89399438Y-104424095D02*
X89351819Y-104281238D01*
X89351819Y-104281238D02*
X89351819Y-104186000D01*
X89351819Y-104186000D02*
X89399438Y-104043143D01*
X89399438Y-104043143D02*
X89447057Y-103995524D01*
X90351819Y-103424095D02*
X90304200Y-103519333D01*
X90304200Y-103519333D02*
X90256580Y-103566952D01*
X90256580Y-103566952D02*
X90161342Y-103614571D01*
X90161342Y-103614571D02*
X89875628Y-103614571D01*
X89875628Y-103614571D02*
X89780390Y-103566952D01*
X89780390Y-103566952D02*
X89732771Y-103519333D01*
X89732771Y-103519333D02*
X89685152Y-103424095D01*
X89685152Y-103424095D02*
X89685152Y-103281238D01*
X89685152Y-103281238D02*
X89732771Y-103186000D01*
X89732771Y-103186000D02*
X89780390Y-103138381D01*
X89780390Y-103138381D02*
X89875628Y-103090762D01*
X89875628Y-103090762D02*
X90161342Y-103090762D01*
X90161342Y-103090762D02*
X90256580Y-103138381D01*
X90256580Y-103138381D02*
X90304200Y-103186000D01*
X90304200Y-103186000D02*
X90351819Y-103281238D01*
X90351819Y-103281238D02*
X90351819Y-103424095D01*
X89685152Y-102662190D02*
X90351819Y-102662190D01*
X89780390Y-102662190D02*
X89732771Y-102614571D01*
X89732771Y-102614571D02*
X89685152Y-102519333D01*
X89685152Y-102519333D02*
X89685152Y-102376476D01*
X89685152Y-102376476D02*
X89732771Y-102281238D01*
X89732771Y-102281238D02*
X89828009Y-102233619D01*
X89828009Y-102233619D02*
X90351819Y-102233619D01*
X89685152Y-101757428D02*
X90351819Y-101757428D01*
X89780390Y-101757428D02*
X89732771Y-101709809D01*
X89732771Y-101709809D02*
X89685152Y-101614571D01*
X89685152Y-101614571D02*
X89685152Y-101471714D01*
X89685152Y-101471714D02*
X89732771Y-101376476D01*
X89732771Y-101376476D02*
X89828009Y-101328857D01*
X89828009Y-101328857D02*
X90351819Y-101328857D01*
X90447057Y-101090762D02*
X90447057Y-100328857D01*
X89351819Y-99900285D02*
X89351819Y-99805047D01*
X89351819Y-99805047D02*
X89399438Y-99709809D01*
X89399438Y-99709809D02*
X89447057Y-99662190D01*
X89447057Y-99662190D02*
X89542295Y-99614571D01*
X89542295Y-99614571D02*
X89732771Y-99566952D01*
X89732771Y-99566952D02*
X89970866Y-99566952D01*
X89970866Y-99566952D02*
X90161342Y-99614571D01*
X90161342Y-99614571D02*
X90256580Y-99662190D01*
X90256580Y-99662190D02*
X90304200Y-99709809D01*
X90304200Y-99709809D02*
X90351819Y-99805047D01*
X90351819Y-99805047D02*
X90351819Y-99900285D01*
X90351819Y-99900285D02*
X90304200Y-99995523D01*
X90304200Y-99995523D02*
X90256580Y-100043142D01*
X90256580Y-100043142D02*
X90161342Y-100090761D01*
X90161342Y-100090761D02*
X89970866Y-100138380D01*
X89970866Y-100138380D02*
X89732771Y-100138380D01*
X89732771Y-100138380D02*
X89542295Y-100090761D01*
X89542295Y-100090761D02*
X89447057Y-100043142D01*
X89447057Y-100043142D02*
X89399438Y-99995523D01*
X89399438Y-99995523D02*
X89351819Y-99900285D01*
X90351819Y-98614571D02*
X90351819Y-99185999D01*
X90351819Y-98900285D02*
X89351819Y-98900285D01*
X89351819Y-98900285D02*
X89494676Y-98995523D01*
X89494676Y-98995523D02*
X89589914Y-99090761D01*
X89589914Y-99090761D02*
X89637533Y-99185999D01*
X90351819Y-98281237D02*
X89685152Y-97757428D01*
X89685152Y-98281237D02*
X90351819Y-97757428D01*
X89351819Y-97185999D02*
X89351819Y-97090761D01*
X89351819Y-97090761D02*
X89399438Y-96995523D01*
X89399438Y-96995523D02*
X89447057Y-96947904D01*
X89447057Y-96947904D02*
X89542295Y-96900285D01*
X89542295Y-96900285D02*
X89732771Y-96852666D01*
X89732771Y-96852666D02*
X89970866Y-96852666D01*
X89970866Y-96852666D02*
X90161342Y-96900285D01*
X90161342Y-96900285D02*
X90256580Y-96947904D01*
X90256580Y-96947904D02*
X90304200Y-96995523D01*
X90304200Y-96995523D02*
X90351819Y-97090761D01*
X90351819Y-97090761D02*
X90351819Y-97185999D01*
X90351819Y-97185999D02*
X90304200Y-97281237D01*
X90304200Y-97281237D02*
X90256580Y-97328856D01*
X90256580Y-97328856D02*
X90161342Y-97376475D01*
X90161342Y-97376475D02*
X89970866Y-97424094D01*
X89970866Y-97424094D02*
X89732771Y-97424094D01*
X89732771Y-97424094D02*
X89542295Y-97376475D01*
X89542295Y-97376475D02*
X89447057Y-97328856D01*
X89447057Y-97328856D02*
X89399438Y-97281237D01*
X89399438Y-97281237D02*
X89351819Y-97185999D01*
X89351819Y-96519332D02*
X89351819Y-95900285D01*
X89351819Y-95900285D02*
X89732771Y-96233618D01*
X89732771Y-96233618D02*
X89732771Y-96090761D01*
X89732771Y-96090761D02*
X89780390Y-95995523D01*
X89780390Y-95995523D02*
X89828009Y-95947904D01*
X89828009Y-95947904D02*
X89923247Y-95900285D01*
X89923247Y-95900285D02*
X90161342Y-95900285D01*
X90161342Y-95900285D02*
X90256580Y-95947904D01*
X90256580Y-95947904D02*
X90304200Y-95995523D01*
X90304200Y-95995523D02*
X90351819Y-96090761D01*
X90351819Y-96090761D02*
X90351819Y-96376475D01*
X90351819Y-96376475D02*
X90304200Y-96471713D01*
X90304200Y-96471713D02*
X90256580Y-96519332D01*
X90447057Y-95709809D02*
X90447057Y-94947904D01*
X90351819Y-94709808D02*
X89351819Y-94709808D01*
X89351819Y-94709808D02*
X89351819Y-94328856D01*
X89351819Y-94328856D02*
X89399438Y-94233618D01*
X89399438Y-94233618D02*
X89447057Y-94185999D01*
X89447057Y-94185999D02*
X89542295Y-94138380D01*
X89542295Y-94138380D02*
X89685152Y-94138380D01*
X89685152Y-94138380D02*
X89780390Y-94185999D01*
X89780390Y-94185999D02*
X89828009Y-94233618D01*
X89828009Y-94233618D02*
X89875628Y-94328856D01*
X89875628Y-94328856D02*
X89875628Y-94709808D01*
X90351819Y-93709808D02*
X89685152Y-93709808D01*
X89351819Y-93709808D02*
X89399438Y-93757427D01*
X89399438Y-93757427D02*
X89447057Y-93709808D01*
X89447057Y-93709808D02*
X89399438Y-93662189D01*
X89399438Y-93662189D02*
X89351819Y-93709808D01*
X89351819Y-93709808D02*
X89447057Y-93709808D01*
X89685152Y-93233618D02*
X90351819Y-93233618D01*
X89780390Y-93233618D02*
X89732771Y-93185999D01*
X89732771Y-93185999D02*
X89685152Y-93090761D01*
X89685152Y-93090761D02*
X89685152Y-92947904D01*
X89685152Y-92947904D02*
X89732771Y-92852666D01*
X89732771Y-92852666D02*
X89828009Y-92805047D01*
X89828009Y-92805047D02*
X90351819Y-92805047D01*
X86351819Y-99059333D02*
X87066104Y-99059333D01*
X87066104Y-99059333D02*
X87208961Y-99106952D01*
X87208961Y-99106952D02*
X87304200Y-99202190D01*
X87304200Y-99202190D02*
X87351819Y-99345047D01*
X87351819Y-99345047D02*
X87351819Y-99440285D01*
X86351819Y-98678380D02*
X86351819Y-98011714D01*
X86351819Y-98011714D02*
X87351819Y-98440285D01*
X122742238Y-49526057D02*
X122789857Y-49478438D01*
X122789857Y-49478438D02*
X122885095Y-49430819D01*
X122885095Y-49430819D02*
X123123190Y-49430819D01*
X123123190Y-49430819D02*
X123218428Y-49478438D01*
X123218428Y-49478438D02*
X123266047Y-49526057D01*
X123266047Y-49526057D02*
X123313666Y-49621295D01*
X123313666Y-49621295D02*
X123313666Y-49716533D01*
X123313666Y-49716533D02*
X123266047Y-49859390D01*
X123266047Y-49859390D02*
X122694619Y-50430819D01*
X122694619Y-50430819D02*
X123313666Y-50430819D01*
X123694619Y-49526057D02*
X123742238Y-49478438D01*
X123742238Y-49478438D02*
X123837476Y-49430819D01*
X123837476Y-49430819D02*
X124075571Y-49430819D01*
X124075571Y-49430819D02*
X124170809Y-49478438D01*
X124170809Y-49478438D02*
X124218428Y-49526057D01*
X124218428Y-49526057D02*
X124266047Y-49621295D01*
X124266047Y-49621295D02*
X124266047Y-49716533D01*
X124266047Y-49716533D02*
X124218428Y-49859390D01*
X124218428Y-49859390D02*
X123647000Y-50430819D01*
X123647000Y-50430819D02*
X124266047Y-50430819D01*
X124885095Y-49430819D02*
X124980333Y-49430819D01*
X124980333Y-49430819D02*
X125075571Y-49478438D01*
X125075571Y-49478438D02*
X125123190Y-49526057D01*
X125123190Y-49526057D02*
X125170809Y-49621295D01*
X125170809Y-49621295D02*
X125218428Y-49811771D01*
X125218428Y-49811771D02*
X125218428Y-50049866D01*
X125218428Y-50049866D02*
X125170809Y-50240342D01*
X125170809Y-50240342D02*
X125123190Y-50335580D01*
X125123190Y-50335580D02*
X125075571Y-50383200D01*
X125075571Y-50383200D02*
X124980333Y-50430819D01*
X124980333Y-50430819D02*
X124885095Y-50430819D01*
X124885095Y-50430819D02*
X124789857Y-50383200D01*
X124789857Y-50383200D02*
X124742238Y-50335580D01*
X124742238Y-50335580D02*
X124694619Y-50240342D01*
X124694619Y-50240342D02*
X124647000Y-50049866D01*
X124647000Y-50049866D02*
X124647000Y-49811771D01*
X124647000Y-49811771D02*
X124694619Y-49621295D01*
X124694619Y-49621295D02*
X124742238Y-49526057D01*
X124742238Y-49526057D02*
X124789857Y-49478438D01*
X124789857Y-49478438D02*
X124885095Y-49430819D01*
X125837476Y-49430819D02*
X125932714Y-49430819D01*
X125932714Y-49430819D02*
X126027952Y-49478438D01*
X126027952Y-49478438D02*
X126075571Y-49526057D01*
X126075571Y-49526057D02*
X126123190Y-49621295D01*
X126123190Y-49621295D02*
X126170809Y-49811771D01*
X126170809Y-49811771D02*
X126170809Y-50049866D01*
X126170809Y-50049866D02*
X126123190Y-50240342D01*
X126123190Y-50240342D02*
X126075571Y-50335580D01*
X126075571Y-50335580D02*
X126027952Y-50383200D01*
X126027952Y-50383200D02*
X125932714Y-50430819D01*
X125932714Y-50430819D02*
X125837476Y-50430819D01*
X125837476Y-50430819D02*
X125742238Y-50383200D01*
X125742238Y-50383200D02*
X125694619Y-50335580D01*
X125694619Y-50335580D02*
X125647000Y-50240342D01*
X125647000Y-50240342D02*
X125599381Y-50049866D01*
X125599381Y-50049866D02*
X125599381Y-49811771D01*
X125599381Y-49811771D02*
X125647000Y-49621295D01*
X125647000Y-49621295D02*
X125694619Y-49526057D01*
X125694619Y-49526057D02*
X125742238Y-49478438D01*
X125742238Y-49478438D02*
X125837476Y-49430819D01*
X127027952Y-49764152D02*
X127027952Y-50430819D01*
X126599381Y-49764152D02*
X126599381Y-50287961D01*
X126599381Y-50287961D02*
X126647000Y-50383200D01*
X126647000Y-50383200D02*
X126742238Y-50430819D01*
X126742238Y-50430819D02*
X126885095Y-50430819D01*
X126885095Y-50430819D02*
X126980333Y-50383200D01*
X126980333Y-50383200D02*
X127027952Y-50335580D01*
X127361286Y-49764152D02*
X127742238Y-49764152D01*
X127504143Y-50430819D02*
X127504143Y-49573676D01*
X127504143Y-49573676D02*
X127551762Y-49478438D01*
X127551762Y-49478438D02*
X127647000Y-49430819D01*
X127647000Y-49430819D02*
X127742238Y-49430819D01*
X128075572Y-50049866D02*
X128837477Y-50049866D01*
X129266048Y-49526057D02*
X129313667Y-49478438D01*
X129313667Y-49478438D02*
X129408905Y-49430819D01*
X129408905Y-49430819D02*
X129647000Y-49430819D01*
X129647000Y-49430819D02*
X129742238Y-49478438D01*
X129742238Y-49478438D02*
X129789857Y-49526057D01*
X129789857Y-49526057D02*
X129837476Y-49621295D01*
X129837476Y-49621295D02*
X129837476Y-49716533D01*
X129837476Y-49716533D02*
X129789857Y-49859390D01*
X129789857Y-49859390D02*
X129218429Y-50430819D01*
X129218429Y-50430819D02*
X129837476Y-50430819D01*
X130742238Y-49430819D02*
X130266048Y-49430819D01*
X130266048Y-49430819D02*
X130218429Y-49907009D01*
X130218429Y-49907009D02*
X130266048Y-49859390D01*
X130266048Y-49859390D02*
X130361286Y-49811771D01*
X130361286Y-49811771D02*
X130599381Y-49811771D01*
X130599381Y-49811771D02*
X130694619Y-49859390D01*
X130694619Y-49859390D02*
X130742238Y-49907009D01*
X130742238Y-49907009D02*
X130789857Y-50002247D01*
X130789857Y-50002247D02*
X130789857Y-50240342D01*
X130789857Y-50240342D02*
X130742238Y-50335580D01*
X130742238Y-50335580D02*
X130694619Y-50383200D01*
X130694619Y-50383200D02*
X130599381Y-50430819D01*
X130599381Y-50430819D02*
X130361286Y-50430819D01*
X130361286Y-50430819D02*
X130266048Y-50383200D01*
X130266048Y-50383200D02*
X130218429Y-50335580D01*
X131123191Y-49764152D02*
X131361286Y-50430819D01*
X131361286Y-50430819D02*
X131599381Y-49764152D01*
X126980333Y-40585580D02*
X126932714Y-40633200D01*
X126932714Y-40633200D02*
X126789857Y-40680819D01*
X126789857Y-40680819D02*
X126694619Y-40680819D01*
X126694619Y-40680819D02*
X126551762Y-40633200D01*
X126551762Y-40633200D02*
X126456524Y-40537961D01*
X126456524Y-40537961D02*
X126408905Y-40442723D01*
X126408905Y-40442723D02*
X126361286Y-40252247D01*
X126361286Y-40252247D02*
X126361286Y-40109390D01*
X126361286Y-40109390D02*
X126408905Y-39918914D01*
X126408905Y-39918914D02*
X126456524Y-39823676D01*
X126456524Y-39823676D02*
X126551762Y-39728438D01*
X126551762Y-39728438D02*
X126694619Y-39680819D01*
X126694619Y-39680819D02*
X126789857Y-39680819D01*
X126789857Y-39680819D02*
X126932714Y-39728438D01*
X126932714Y-39728438D02*
X126980333Y-39776057D01*
X127932714Y-40680819D02*
X127361286Y-40680819D01*
X127647000Y-40680819D02*
X127647000Y-39680819D01*
X127647000Y-39680819D02*
X127551762Y-39823676D01*
X127551762Y-39823676D02*
X127456524Y-39918914D01*
X127456524Y-39918914D02*
X127361286Y-39966533D01*
X165849380Y-105680819D02*
X165516047Y-105204628D01*
X165277952Y-105680819D02*
X165277952Y-104680819D01*
X165277952Y-104680819D02*
X165658904Y-104680819D01*
X165658904Y-104680819D02*
X165754142Y-104728438D01*
X165754142Y-104728438D02*
X165801761Y-104776057D01*
X165801761Y-104776057D02*
X165849380Y-104871295D01*
X165849380Y-104871295D02*
X165849380Y-105014152D01*
X165849380Y-105014152D02*
X165801761Y-105109390D01*
X165801761Y-105109390D02*
X165754142Y-105157009D01*
X165754142Y-105157009D02*
X165658904Y-105204628D01*
X165658904Y-105204628D02*
X165277952Y-105204628D01*
X166277952Y-105157009D02*
X166611285Y-105157009D01*
X166754142Y-105680819D02*
X166277952Y-105680819D01*
X166277952Y-105680819D02*
X166277952Y-104680819D01*
X166277952Y-104680819D02*
X166754142Y-104680819D01*
X167516047Y-105157009D02*
X167182714Y-105157009D01*
X167182714Y-105680819D02*
X167182714Y-104680819D01*
X167182714Y-104680819D02*
X167658904Y-104680819D01*
X167944619Y-104680819D02*
X168563666Y-104680819D01*
X168563666Y-104680819D02*
X168230333Y-105061771D01*
X168230333Y-105061771D02*
X168373190Y-105061771D01*
X168373190Y-105061771D02*
X168468428Y-105109390D01*
X168468428Y-105109390D02*
X168516047Y-105157009D01*
X168516047Y-105157009D02*
X168563666Y-105252247D01*
X168563666Y-105252247D02*
X168563666Y-105490342D01*
X168563666Y-105490342D02*
X168516047Y-105585580D01*
X168516047Y-105585580D02*
X168468428Y-105633200D01*
X168468428Y-105633200D02*
X168373190Y-105680819D01*
X168373190Y-105680819D02*
X168087476Y-105680819D01*
X168087476Y-105680819D02*
X167992238Y-105633200D01*
X167992238Y-105633200D02*
X167944619Y-105585580D01*
X67659380Y-34236819D02*
X67326047Y-33760628D01*
X67087952Y-34236819D02*
X67087952Y-33236819D01*
X67087952Y-33236819D02*
X67468904Y-33236819D01*
X67468904Y-33236819D02*
X67564142Y-33284438D01*
X67564142Y-33284438D02*
X67611761Y-33332057D01*
X67611761Y-33332057D02*
X67659380Y-33427295D01*
X67659380Y-33427295D02*
X67659380Y-33570152D01*
X67659380Y-33570152D02*
X67611761Y-33665390D01*
X67611761Y-33665390D02*
X67564142Y-33713009D01*
X67564142Y-33713009D02*
X67468904Y-33760628D01*
X67468904Y-33760628D02*
X67087952Y-33760628D01*
X68087952Y-33713009D02*
X68421285Y-33713009D01*
X68564142Y-34236819D02*
X68087952Y-34236819D01*
X68087952Y-34236819D02*
X68087952Y-33236819D01*
X68087952Y-33236819D02*
X68564142Y-33236819D01*
X69326047Y-33713009D02*
X68992714Y-33713009D01*
X68992714Y-34236819D02*
X68992714Y-33236819D01*
X68992714Y-33236819D02*
X69468904Y-33236819D01*
X70373666Y-34236819D02*
X69802238Y-34236819D01*
X70087952Y-34236819D02*
X70087952Y-33236819D01*
X70087952Y-33236819D02*
X69992714Y-33379676D01*
X69992714Y-33379676D02*
X69897476Y-33474914D01*
X69897476Y-33474914D02*
X69802238Y-33522533D01*
D12*
X120658904Y-103092600D02*
X120611285Y-103140220D01*
X120611285Y-103140220D02*
X120468428Y-103187839D01*
X120468428Y-103187839D02*
X120373190Y-103187839D01*
X120373190Y-103187839D02*
X120230333Y-103140220D01*
X120230333Y-103140220D02*
X120135095Y-103044981D01*
X120135095Y-103044981D02*
X120087476Y-102949743D01*
X120087476Y-102949743D02*
X120039857Y-102759267D01*
X120039857Y-102759267D02*
X120039857Y-102616410D01*
X120039857Y-102616410D02*
X120087476Y-102425934D01*
X120087476Y-102425934D02*
X120135095Y-102330696D01*
X120135095Y-102330696D02*
X120230333Y-102235458D01*
X120230333Y-102235458D02*
X120373190Y-102187839D01*
X120373190Y-102187839D02*
X120468428Y-102187839D01*
X120468428Y-102187839D02*
X120611285Y-102235458D01*
X120611285Y-102235458D02*
X120658904Y-102283077D01*
X121230333Y-103187839D02*
X121135095Y-103140220D01*
X121135095Y-103140220D02*
X121087476Y-103092600D01*
X121087476Y-103092600D02*
X121039857Y-102997362D01*
X121039857Y-102997362D02*
X121039857Y-102711648D01*
X121039857Y-102711648D02*
X121087476Y-102616410D01*
X121087476Y-102616410D02*
X121135095Y-102568791D01*
X121135095Y-102568791D02*
X121230333Y-102521172D01*
X121230333Y-102521172D02*
X121373190Y-102521172D01*
X121373190Y-102521172D02*
X121468428Y-102568791D01*
X121468428Y-102568791D02*
X121516047Y-102616410D01*
X121516047Y-102616410D02*
X121563666Y-102711648D01*
X121563666Y-102711648D02*
X121563666Y-102997362D01*
X121563666Y-102997362D02*
X121516047Y-103092600D01*
X121516047Y-103092600D02*
X121468428Y-103140220D01*
X121468428Y-103140220D02*
X121373190Y-103187839D01*
X121373190Y-103187839D02*
X121230333Y-103187839D01*
X121992238Y-102521172D02*
X121992238Y-103187839D01*
X121992238Y-102616410D02*
X122039857Y-102568791D01*
X122039857Y-102568791D02*
X122135095Y-102521172D01*
X122135095Y-102521172D02*
X122277952Y-102521172D01*
X122277952Y-102521172D02*
X122373190Y-102568791D01*
X122373190Y-102568791D02*
X122420809Y-102664029D01*
X122420809Y-102664029D02*
X122420809Y-103187839D01*
X122897000Y-102521172D02*
X122897000Y-103187839D01*
X122897000Y-102616410D02*
X122944619Y-102568791D01*
X122944619Y-102568791D02*
X123039857Y-102521172D01*
X123039857Y-102521172D02*
X123182714Y-102521172D01*
X123182714Y-102521172D02*
X123277952Y-102568791D01*
X123277952Y-102568791D02*
X123325571Y-102664029D01*
X123325571Y-102664029D02*
X123325571Y-103187839D01*
X123563667Y-103283077D02*
X124325571Y-103283077D01*
X124754143Y-102187839D02*
X124849381Y-102187839D01*
X124849381Y-102187839D02*
X124944619Y-102235458D01*
X124944619Y-102235458D02*
X124992238Y-102283077D01*
X124992238Y-102283077D02*
X125039857Y-102378315D01*
X125039857Y-102378315D02*
X125087476Y-102568791D01*
X125087476Y-102568791D02*
X125087476Y-102806886D01*
X125087476Y-102806886D02*
X125039857Y-102997362D01*
X125039857Y-102997362D02*
X124992238Y-103092600D01*
X124992238Y-103092600D02*
X124944619Y-103140220D01*
X124944619Y-103140220D02*
X124849381Y-103187839D01*
X124849381Y-103187839D02*
X124754143Y-103187839D01*
X124754143Y-103187839D02*
X124658905Y-103140220D01*
X124658905Y-103140220D02*
X124611286Y-103092600D01*
X124611286Y-103092600D02*
X124563667Y-102997362D01*
X124563667Y-102997362D02*
X124516048Y-102806886D01*
X124516048Y-102806886D02*
X124516048Y-102568791D01*
X124516048Y-102568791D02*
X124563667Y-102378315D01*
X124563667Y-102378315D02*
X124611286Y-102283077D01*
X124611286Y-102283077D02*
X124658905Y-102235458D01*
X124658905Y-102235458D02*
X124754143Y-102187839D01*
X126039857Y-103187839D02*
X125468429Y-103187839D01*
X125754143Y-103187839D02*
X125754143Y-102187839D01*
X125754143Y-102187839D02*
X125658905Y-102330696D01*
X125658905Y-102330696D02*
X125563667Y-102425934D01*
X125563667Y-102425934D02*
X125468429Y-102473553D01*
X126373191Y-103187839D02*
X126897000Y-102521172D01*
X126373191Y-102521172D02*
X126897000Y-103187839D01*
X127468429Y-102187839D02*
X127563667Y-102187839D01*
X127563667Y-102187839D02*
X127658905Y-102235458D01*
X127658905Y-102235458D02*
X127706524Y-102283077D01*
X127706524Y-102283077D02*
X127754143Y-102378315D01*
X127754143Y-102378315D02*
X127801762Y-102568791D01*
X127801762Y-102568791D02*
X127801762Y-102806886D01*
X127801762Y-102806886D02*
X127754143Y-102997362D01*
X127754143Y-102997362D02*
X127706524Y-103092600D01*
X127706524Y-103092600D02*
X127658905Y-103140220D01*
X127658905Y-103140220D02*
X127563667Y-103187839D01*
X127563667Y-103187839D02*
X127468429Y-103187839D01*
X127468429Y-103187839D02*
X127373191Y-103140220D01*
X127373191Y-103140220D02*
X127325572Y-103092600D01*
X127325572Y-103092600D02*
X127277953Y-102997362D01*
X127277953Y-102997362D02*
X127230334Y-102806886D01*
X127230334Y-102806886D02*
X127230334Y-102568791D01*
X127230334Y-102568791D02*
X127277953Y-102378315D01*
X127277953Y-102378315D02*
X127325572Y-102283077D01*
X127325572Y-102283077D02*
X127373191Y-102235458D01*
X127373191Y-102235458D02*
X127468429Y-102187839D01*
X128135096Y-102187839D02*
X128754143Y-102187839D01*
X128754143Y-102187839D02*
X128420810Y-102568791D01*
X128420810Y-102568791D02*
X128563667Y-102568791D01*
X128563667Y-102568791D02*
X128658905Y-102616410D01*
X128658905Y-102616410D02*
X128706524Y-102664029D01*
X128706524Y-102664029D02*
X128754143Y-102759267D01*
X128754143Y-102759267D02*
X128754143Y-102997362D01*
X128754143Y-102997362D02*
X128706524Y-103092600D01*
X128706524Y-103092600D02*
X128658905Y-103140220D01*
X128658905Y-103140220D02*
X128563667Y-103187839D01*
X128563667Y-103187839D02*
X128277953Y-103187839D01*
X128277953Y-103187839D02*
X128182715Y-103140220D01*
X128182715Y-103140220D02*
X128135096Y-103092600D01*
D10*
X67849380Y-105680819D02*
X67516047Y-105204628D01*
X67277952Y-105680819D02*
X67277952Y-104680819D01*
X67277952Y-104680819D02*
X67658904Y-104680819D01*
X67658904Y-104680819D02*
X67754142Y-104728438D01*
X67754142Y-104728438D02*
X67801761Y-104776057D01*
X67801761Y-104776057D02*
X67849380Y-104871295D01*
X67849380Y-104871295D02*
X67849380Y-105014152D01*
X67849380Y-105014152D02*
X67801761Y-105109390D01*
X67801761Y-105109390D02*
X67754142Y-105157009D01*
X67754142Y-105157009D02*
X67658904Y-105204628D01*
X67658904Y-105204628D02*
X67277952Y-105204628D01*
X68277952Y-105157009D02*
X68611285Y-105157009D01*
X68754142Y-105680819D02*
X68277952Y-105680819D01*
X68277952Y-105680819D02*
X68277952Y-104680819D01*
X68277952Y-104680819D02*
X68754142Y-104680819D01*
X69516047Y-105157009D02*
X69182714Y-105157009D01*
X69182714Y-105680819D02*
X69182714Y-104680819D01*
X69182714Y-104680819D02*
X69658904Y-104680819D01*
X70468428Y-105014152D02*
X70468428Y-105680819D01*
X70230333Y-104633200D02*
X69992238Y-105347485D01*
X69992238Y-105347485D02*
X70611285Y-105347485D01*
D12*
X72658904Y-102592600D02*
X72611285Y-102640220D01*
X72611285Y-102640220D02*
X72468428Y-102687839D01*
X72468428Y-102687839D02*
X72373190Y-102687839D01*
X72373190Y-102687839D02*
X72230333Y-102640220D01*
X72230333Y-102640220D02*
X72135095Y-102544981D01*
X72135095Y-102544981D02*
X72087476Y-102449743D01*
X72087476Y-102449743D02*
X72039857Y-102259267D01*
X72039857Y-102259267D02*
X72039857Y-102116410D01*
X72039857Y-102116410D02*
X72087476Y-101925934D01*
X72087476Y-101925934D02*
X72135095Y-101830696D01*
X72135095Y-101830696D02*
X72230333Y-101735458D01*
X72230333Y-101735458D02*
X72373190Y-101687839D01*
X72373190Y-101687839D02*
X72468428Y-101687839D01*
X72468428Y-101687839D02*
X72611285Y-101735458D01*
X72611285Y-101735458D02*
X72658904Y-101783077D01*
X73230333Y-102687839D02*
X73135095Y-102640220D01*
X73135095Y-102640220D02*
X73087476Y-102592600D01*
X73087476Y-102592600D02*
X73039857Y-102497362D01*
X73039857Y-102497362D02*
X73039857Y-102211648D01*
X73039857Y-102211648D02*
X73087476Y-102116410D01*
X73087476Y-102116410D02*
X73135095Y-102068791D01*
X73135095Y-102068791D02*
X73230333Y-102021172D01*
X73230333Y-102021172D02*
X73373190Y-102021172D01*
X73373190Y-102021172D02*
X73468428Y-102068791D01*
X73468428Y-102068791D02*
X73516047Y-102116410D01*
X73516047Y-102116410D02*
X73563666Y-102211648D01*
X73563666Y-102211648D02*
X73563666Y-102497362D01*
X73563666Y-102497362D02*
X73516047Y-102592600D01*
X73516047Y-102592600D02*
X73468428Y-102640220D01*
X73468428Y-102640220D02*
X73373190Y-102687839D01*
X73373190Y-102687839D02*
X73230333Y-102687839D01*
X73992238Y-102021172D02*
X73992238Y-102687839D01*
X73992238Y-102116410D02*
X74039857Y-102068791D01*
X74039857Y-102068791D02*
X74135095Y-102021172D01*
X74135095Y-102021172D02*
X74277952Y-102021172D01*
X74277952Y-102021172D02*
X74373190Y-102068791D01*
X74373190Y-102068791D02*
X74420809Y-102164029D01*
X74420809Y-102164029D02*
X74420809Y-102687839D01*
X74897000Y-102021172D02*
X74897000Y-102687839D01*
X74897000Y-102116410D02*
X74944619Y-102068791D01*
X74944619Y-102068791D02*
X75039857Y-102021172D01*
X75039857Y-102021172D02*
X75182714Y-102021172D01*
X75182714Y-102021172D02*
X75277952Y-102068791D01*
X75277952Y-102068791D02*
X75325571Y-102164029D01*
X75325571Y-102164029D02*
X75325571Y-102687839D01*
X75563667Y-102783077D02*
X76325571Y-102783077D01*
X76754143Y-101687839D02*
X76849381Y-101687839D01*
X76849381Y-101687839D02*
X76944619Y-101735458D01*
X76944619Y-101735458D02*
X76992238Y-101783077D01*
X76992238Y-101783077D02*
X77039857Y-101878315D01*
X77039857Y-101878315D02*
X77087476Y-102068791D01*
X77087476Y-102068791D02*
X77087476Y-102306886D01*
X77087476Y-102306886D02*
X77039857Y-102497362D01*
X77039857Y-102497362D02*
X76992238Y-102592600D01*
X76992238Y-102592600D02*
X76944619Y-102640220D01*
X76944619Y-102640220D02*
X76849381Y-102687839D01*
X76849381Y-102687839D02*
X76754143Y-102687839D01*
X76754143Y-102687839D02*
X76658905Y-102640220D01*
X76658905Y-102640220D02*
X76611286Y-102592600D01*
X76611286Y-102592600D02*
X76563667Y-102497362D01*
X76563667Y-102497362D02*
X76516048Y-102306886D01*
X76516048Y-102306886D02*
X76516048Y-102068791D01*
X76516048Y-102068791D02*
X76563667Y-101878315D01*
X76563667Y-101878315D02*
X76611286Y-101783077D01*
X76611286Y-101783077D02*
X76658905Y-101735458D01*
X76658905Y-101735458D02*
X76754143Y-101687839D01*
X78039857Y-102687839D02*
X77468429Y-102687839D01*
X77754143Y-102687839D02*
X77754143Y-101687839D01*
X77754143Y-101687839D02*
X77658905Y-101830696D01*
X77658905Y-101830696D02*
X77563667Y-101925934D01*
X77563667Y-101925934D02*
X77468429Y-101973553D01*
X78373191Y-102687839D02*
X78897000Y-102021172D01*
X78373191Y-102021172D02*
X78897000Y-102687839D01*
X79468429Y-101687839D02*
X79563667Y-101687839D01*
X79563667Y-101687839D02*
X79658905Y-101735458D01*
X79658905Y-101735458D02*
X79706524Y-101783077D01*
X79706524Y-101783077D02*
X79754143Y-101878315D01*
X79754143Y-101878315D02*
X79801762Y-102068791D01*
X79801762Y-102068791D02*
X79801762Y-102306886D01*
X79801762Y-102306886D02*
X79754143Y-102497362D01*
X79754143Y-102497362D02*
X79706524Y-102592600D01*
X79706524Y-102592600D02*
X79658905Y-102640220D01*
X79658905Y-102640220D02*
X79563667Y-102687839D01*
X79563667Y-102687839D02*
X79468429Y-102687839D01*
X79468429Y-102687839D02*
X79373191Y-102640220D01*
X79373191Y-102640220D02*
X79325572Y-102592600D01*
X79325572Y-102592600D02*
X79277953Y-102497362D01*
X79277953Y-102497362D02*
X79230334Y-102306886D01*
X79230334Y-102306886D02*
X79230334Y-102068791D01*
X79230334Y-102068791D02*
X79277953Y-101878315D01*
X79277953Y-101878315D02*
X79325572Y-101783077D01*
X79325572Y-101783077D02*
X79373191Y-101735458D01*
X79373191Y-101735458D02*
X79468429Y-101687839D01*
X80135096Y-101687839D02*
X80754143Y-101687839D01*
X80754143Y-101687839D02*
X80420810Y-102068791D01*
X80420810Y-102068791D02*
X80563667Y-102068791D01*
X80563667Y-102068791D02*
X80658905Y-102116410D01*
X80658905Y-102116410D02*
X80706524Y-102164029D01*
X80706524Y-102164029D02*
X80754143Y-102259267D01*
X80754143Y-102259267D02*
X80754143Y-102497362D01*
X80754143Y-102497362D02*
X80706524Y-102592600D01*
X80706524Y-102592600D02*
X80658905Y-102640220D01*
X80658905Y-102640220D02*
X80563667Y-102687839D01*
X80563667Y-102687839D02*
X80277953Y-102687839D01*
X80277953Y-102687839D02*
X80182715Y-102640220D01*
X80182715Y-102640220D02*
X80135096Y-102592600D01*
D10*
X73778428Y-91680819D02*
X73207000Y-91680819D01*
X73492714Y-91680819D02*
X73492714Y-90680819D01*
X73492714Y-90680819D02*
X73397476Y-90823676D01*
X73397476Y-90823676D02*
X73302238Y-90918914D01*
X73302238Y-90918914D02*
X73207000Y-90966533D01*
X74207000Y-91585580D02*
X74254619Y-91633200D01*
X74254619Y-91633200D02*
X74207000Y-91680819D01*
X74207000Y-91680819D02*
X74159381Y-91633200D01*
X74159381Y-91633200D02*
X74207000Y-91585580D01*
X74207000Y-91585580D02*
X74207000Y-91680819D01*
X75159380Y-90680819D02*
X74683190Y-90680819D01*
X74683190Y-90680819D02*
X74635571Y-91157009D01*
X74635571Y-91157009D02*
X74683190Y-91109390D01*
X74683190Y-91109390D02*
X74778428Y-91061771D01*
X74778428Y-91061771D02*
X75016523Y-91061771D01*
X75016523Y-91061771D02*
X75111761Y-91109390D01*
X75111761Y-91109390D02*
X75159380Y-91157009D01*
X75159380Y-91157009D02*
X75206999Y-91252247D01*
X75206999Y-91252247D02*
X75206999Y-91490342D01*
X75206999Y-91490342D02*
X75159380Y-91585580D01*
X75159380Y-91585580D02*
X75111761Y-91633200D01*
X75111761Y-91633200D02*
X75016523Y-91680819D01*
X75016523Y-91680819D02*
X74778428Y-91680819D01*
X74778428Y-91680819D02*
X74683190Y-91633200D01*
X74683190Y-91633200D02*
X74635571Y-91585580D01*
X75635571Y-91680819D02*
X75635571Y-90680819D01*
X76206999Y-91680819D02*
X75778428Y-91109390D01*
X76206999Y-90680819D02*
X75635571Y-91252247D01*
X74540333Y-89680819D02*
X74207000Y-89204628D01*
X73968905Y-89680819D02*
X73968905Y-88680819D01*
X73968905Y-88680819D02*
X74349857Y-88680819D01*
X74349857Y-88680819D02*
X74445095Y-88728438D01*
X74445095Y-88728438D02*
X74492714Y-88776057D01*
X74492714Y-88776057D02*
X74540333Y-88871295D01*
X74540333Y-88871295D02*
X74540333Y-89014152D01*
X74540333Y-89014152D02*
X74492714Y-89109390D01*
X74492714Y-89109390D02*
X74445095Y-89157009D01*
X74445095Y-89157009D02*
X74349857Y-89204628D01*
X74349857Y-89204628D02*
X73968905Y-89204628D01*
X75445095Y-88680819D02*
X74968905Y-88680819D01*
X74968905Y-88680819D02*
X74921286Y-89157009D01*
X74921286Y-89157009D02*
X74968905Y-89109390D01*
X74968905Y-89109390D02*
X75064143Y-89061771D01*
X75064143Y-89061771D02*
X75302238Y-89061771D01*
X75302238Y-89061771D02*
X75397476Y-89109390D01*
X75397476Y-89109390D02*
X75445095Y-89157009D01*
X75445095Y-89157009D02*
X75492714Y-89252247D01*
X75492714Y-89252247D02*
X75492714Y-89490342D01*
X75492714Y-89490342D02*
X75445095Y-89585580D01*
X75445095Y-89585580D02*
X75397476Y-89633200D01*
X75397476Y-89633200D02*
X75302238Y-89680819D01*
X75302238Y-89680819D02*
X75064143Y-89680819D01*
X75064143Y-89680819D02*
X74968905Y-89633200D01*
X74968905Y-89633200D02*
X74921286Y-89585580D01*
D12*
X103158904Y-102757600D02*
X103111285Y-102805220D01*
X103111285Y-102805220D02*
X102968428Y-102852839D01*
X102968428Y-102852839D02*
X102873190Y-102852839D01*
X102873190Y-102852839D02*
X102730333Y-102805220D01*
X102730333Y-102805220D02*
X102635095Y-102709981D01*
X102635095Y-102709981D02*
X102587476Y-102614743D01*
X102587476Y-102614743D02*
X102539857Y-102424267D01*
X102539857Y-102424267D02*
X102539857Y-102281410D01*
X102539857Y-102281410D02*
X102587476Y-102090934D01*
X102587476Y-102090934D02*
X102635095Y-101995696D01*
X102635095Y-101995696D02*
X102730333Y-101900458D01*
X102730333Y-101900458D02*
X102873190Y-101852839D01*
X102873190Y-101852839D02*
X102968428Y-101852839D01*
X102968428Y-101852839D02*
X103111285Y-101900458D01*
X103111285Y-101900458D02*
X103158904Y-101948077D01*
X103730333Y-102852839D02*
X103635095Y-102805220D01*
X103635095Y-102805220D02*
X103587476Y-102757600D01*
X103587476Y-102757600D02*
X103539857Y-102662362D01*
X103539857Y-102662362D02*
X103539857Y-102376648D01*
X103539857Y-102376648D02*
X103587476Y-102281410D01*
X103587476Y-102281410D02*
X103635095Y-102233791D01*
X103635095Y-102233791D02*
X103730333Y-102186172D01*
X103730333Y-102186172D02*
X103873190Y-102186172D01*
X103873190Y-102186172D02*
X103968428Y-102233791D01*
X103968428Y-102233791D02*
X104016047Y-102281410D01*
X104016047Y-102281410D02*
X104063666Y-102376648D01*
X104063666Y-102376648D02*
X104063666Y-102662362D01*
X104063666Y-102662362D02*
X104016047Y-102757600D01*
X104016047Y-102757600D02*
X103968428Y-102805220D01*
X103968428Y-102805220D02*
X103873190Y-102852839D01*
X103873190Y-102852839D02*
X103730333Y-102852839D01*
X104492238Y-102186172D02*
X104492238Y-102852839D01*
X104492238Y-102281410D02*
X104539857Y-102233791D01*
X104539857Y-102233791D02*
X104635095Y-102186172D01*
X104635095Y-102186172D02*
X104777952Y-102186172D01*
X104777952Y-102186172D02*
X104873190Y-102233791D01*
X104873190Y-102233791D02*
X104920809Y-102329029D01*
X104920809Y-102329029D02*
X104920809Y-102852839D01*
X105397000Y-102186172D02*
X105397000Y-102852839D01*
X105397000Y-102281410D02*
X105444619Y-102233791D01*
X105444619Y-102233791D02*
X105539857Y-102186172D01*
X105539857Y-102186172D02*
X105682714Y-102186172D01*
X105682714Y-102186172D02*
X105777952Y-102233791D01*
X105777952Y-102233791D02*
X105825571Y-102329029D01*
X105825571Y-102329029D02*
X105825571Y-102852839D01*
X106063667Y-102948077D02*
X106825571Y-102948077D01*
X107254143Y-101852839D02*
X107349381Y-101852839D01*
X107349381Y-101852839D02*
X107444619Y-101900458D01*
X107444619Y-101900458D02*
X107492238Y-101948077D01*
X107492238Y-101948077D02*
X107539857Y-102043315D01*
X107539857Y-102043315D02*
X107587476Y-102233791D01*
X107587476Y-102233791D02*
X107587476Y-102471886D01*
X107587476Y-102471886D02*
X107539857Y-102662362D01*
X107539857Y-102662362D02*
X107492238Y-102757600D01*
X107492238Y-102757600D02*
X107444619Y-102805220D01*
X107444619Y-102805220D02*
X107349381Y-102852839D01*
X107349381Y-102852839D02*
X107254143Y-102852839D01*
X107254143Y-102852839D02*
X107158905Y-102805220D01*
X107158905Y-102805220D02*
X107111286Y-102757600D01*
X107111286Y-102757600D02*
X107063667Y-102662362D01*
X107063667Y-102662362D02*
X107016048Y-102471886D01*
X107016048Y-102471886D02*
X107016048Y-102233791D01*
X107016048Y-102233791D02*
X107063667Y-102043315D01*
X107063667Y-102043315D02*
X107111286Y-101948077D01*
X107111286Y-101948077D02*
X107158905Y-101900458D01*
X107158905Y-101900458D02*
X107254143Y-101852839D01*
X108539857Y-102852839D02*
X107968429Y-102852839D01*
X108254143Y-102852839D02*
X108254143Y-101852839D01*
X108254143Y-101852839D02*
X108158905Y-101995696D01*
X108158905Y-101995696D02*
X108063667Y-102090934D01*
X108063667Y-102090934D02*
X107968429Y-102138553D01*
X108873191Y-102852839D02*
X109397000Y-102186172D01*
X108873191Y-102186172D02*
X109397000Y-102852839D01*
X109968429Y-101852839D02*
X110063667Y-101852839D01*
X110063667Y-101852839D02*
X110158905Y-101900458D01*
X110158905Y-101900458D02*
X110206524Y-101948077D01*
X110206524Y-101948077D02*
X110254143Y-102043315D01*
X110254143Y-102043315D02*
X110301762Y-102233791D01*
X110301762Y-102233791D02*
X110301762Y-102471886D01*
X110301762Y-102471886D02*
X110254143Y-102662362D01*
X110254143Y-102662362D02*
X110206524Y-102757600D01*
X110206524Y-102757600D02*
X110158905Y-102805220D01*
X110158905Y-102805220D02*
X110063667Y-102852839D01*
X110063667Y-102852839D02*
X109968429Y-102852839D01*
X109968429Y-102852839D02*
X109873191Y-102805220D01*
X109873191Y-102805220D02*
X109825572Y-102757600D01*
X109825572Y-102757600D02*
X109777953Y-102662362D01*
X109777953Y-102662362D02*
X109730334Y-102471886D01*
X109730334Y-102471886D02*
X109730334Y-102233791D01*
X109730334Y-102233791D02*
X109777953Y-102043315D01*
X109777953Y-102043315D02*
X109825572Y-101948077D01*
X109825572Y-101948077D02*
X109873191Y-101900458D01*
X109873191Y-101900458D02*
X109968429Y-101852839D01*
X110635096Y-101852839D02*
X111254143Y-101852839D01*
X111254143Y-101852839D02*
X110920810Y-102233791D01*
X110920810Y-102233791D02*
X111063667Y-102233791D01*
X111063667Y-102233791D02*
X111158905Y-102281410D01*
X111158905Y-102281410D02*
X111206524Y-102329029D01*
X111206524Y-102329029D02*
X111254143Y-102424267D01*
X111254143Y-102424267D02*
X111254143Y-102662362D01*
X111254143Y-102662362D02*
X111206524Y-102757600D01*
X111206524Y-102757600D02*
X111158905Y-102805220D01*
X111158905Y-102805220D02*
X111063667Y-102852839D01*
X111063667Y-102852839D02*
X110777953Y-102852839D01*
X110777953Y-102852839D02*
X110682715Y-102805220D01*
X110682715Y-102805220D02*
X110635096Y-102757600D01*
D10*
X157158428Y-90384152D02*
X157158428Y-91050819D01*
X156920333Y-90003200D02*
X156682238Y-90717485D01*
X156682238Y-90717485D02*
X157301285Y-90717485D01*
X157682238Y-90955580D02*
X157729857Y-91003200D01*
X157729857Y-91003200D02*
X157682238Y-91050819D01*
X157682238Y-91050819D02*
X157634619Y-91003200D01*
X157634619Y-91003200D02*
X157682238Y-90955580D01*
X157682238Y-90955580D02*
X157682238Y-91050819D01*
X158063190Y-90050819D02*
X158729856Y-90050819D01*
X158729856Y-90050819D02*
X158301285Y-91050819D01*
X159110809Y-91050819D02*
X159110809Y-90050819D01*
X159206047Y-90669866D02*
X159491761Y-91050819D01*
X159491761Y-90384152D02*
X159110809Y-90765104D01*
X157920333Y-88680819D02*
X157587000Y-88204628D01*
X157348905Y-88680819D02*
X157348905Y-87680819D01*
X157348905Y-87680819D02*
X157729857Y-87680819D01*
X157729857Y-87680819D02*
X157825095Y-87728438D01*
X157825095Y-87728438D02*
X157872714Y-87776057D01*
X157872714Y-87776057D02*
X157920333Y-87871295D01*
X157920333Y-87871295D02*
X157920333Y-88014152D01*
X157920333Y-88014152D02*
X157872714Y-88109390D01*
X157872714Y-88109390D02*
X157825095Y-88157009D01*
X157825095Y-88157009D02*
X157729857Y-88204628D01*
X157729857Y-88204628D02*
X157348905Y-88204628D01*
X158301286Y-87776057D02*
X158348905Y-87728438D01*
X158348905Y-87728438D02*
X158444143Y-87680819D01*
X158444143Y-87680819D02*
X158682238Y-87680819D01*
X158682238Y-87680819D02*
X158777476Y-87728438D01*
X158777476Y-87728438D02*
X158825095Y-87776057D01*
X158825095Y-87776057D02*
X158872714Y-87871295D01*
X158872714Y-87871295D02*
X158872714Y-87966533D01*
X158872714Y-87966533D02*
X158825095Y-88109390D01*
X158825095Y-88109390D02*
X158253667Y-88680819D01*
X158253667Y-88680819D02*
X158872714Y-88680819D01*
X108689785Y-44121009D02*
X108832642Y-44168628D01*
X108832642Y-44168628D02*
X108880261Y-44216247D01*
X108880261Y-44216247D02*
X108927880Y-44311485D01*
X108927880Y-44311485D02*
X108927880Y-44454342D01*
X108927880Y-44454342D02*
X108880261Y-44549580D01*
X108880261Y-44549580D02*
X108832642Y-44597200D01*
X108832642Y-44597200D02*
X108737404Y-44644819D01*
X108737404Y-44644819D02*
X108356452Y-44644819D01*
X108356452Y-44644819D02*
X108356452Y-43644819D01*
X108356452Y-43644819D02*
X108689785Y-43644819D01*
X108689785Y-43644819D02*
X108785023Y-43692438D01*
X108785023Y-43692438D02*
X108832642Y-43740057D01*
X108832642Y-43740057D02*
X108880261Y-43835295D01*
X108880261Y-43835295D02*
X108880261Y-43930533D01*
X108880261Y-43930533D02*
X108832642Y-44025771D01*
X108832642Y-44025771D02*
X108785023Y-44073390D01*
X108785023Y-44073390D02*
X108689785Y-44121009D01*
X108689785Y-44121009D02*
X108356452Y-44121009D01*
X109785023Y-43978152D02*
X109785023Y-44644819D01*
X109546928Y-43597200D02*
X109308833Y-44311485D01*
X109308833Y-44311485D02*
X109927880Y-44311485D01*
X110499309Y-43644819D02*
X110594547Y-43644819D01*
X110594547Y-43644819D02*
X110689785Y-43692438D01*
X110689785Y-43692438D02*
X110737404Y-43740057D01*
X110737404Y-43740057D02*
X110785023Y-43835295D01*
X110785023Y-43835295D02*
X110832642Y-44025771D01*
X110832642Y-44025771D02*
X110832642Y-44263866D01*
X110832642Y-44263866D02*
X110785023Y-44454342D01*
X110785023Y-44454342D02*
X110737404Y-44549580D01*
X110737404Y-44549580D02*
X110689785Y-44597200D01*
X110689785Y-44597200D02*
X110594547Y-44644819D01*
X110594547Y-44644819D02*
X110499309Y-44644819D01*
X110499309Y-44644819D02*
X110404071Y-44597200D01*
X110404071Y-44597200D02*
X110356452Y-44549580D01*
X110356452Y-44549580D02*
X110308833Y-44454342D01*
X110308833Y-44454342D02*
X110261214Y-44263866D01*
X110261214Y-44263866D02*
X110261214Y-44025771D01*
X110261214Y-44025771D02*
X110308833Y-43835295D01*
X110308833Y-43835295D02*
X110356452Y-43740057D01*
X110356452Y-43740057D02*
X110404071Y-43692438D01*
X110404071Y-43692438D02*
X110499309Y-43644819D01*
X111832642Y-44549580D02*
X111785023Y-44597200D01*
X111785023Y-44597200D02*
X111642166Y-44644819D01*
X111642166Y-44644819D02*
X111546928Y-44644819D01*
X111546928Y-44644819D02*
X111404071Y-44597200D01*
X111404071Y-44597200D02*
X111308833Y-44501961D01*
X111308833Y-44501961D02*
X111261214Y-44406723D01*
X111261214Y-44406723D02*
X111213595Y-44216247D01*
X111213595Y-44216247D02*
X111213595Y-44073390D01*
X111213595Y-44073390D02*
X111261214Y-43882914D01*
X111261214Y-43882914D02*
X111308833Y-43787676D01*
X111308833Y-43787676D02*
X111404071Y-43692438D01*
X111404071Y-43692438D02*
X111546928Y-43644819D01*
X111546928Y-43644819D02*
X111642166Y-43644819D01*
X111642166Y-43644819D02*
X111785023Y-43692438D01*
X111785023Y-43692438D02*
X111832642Y-43740057D01*
X112785023Y-44644819D02*
X112213595Y-44644819D01*
X112499309Y-44644819D02*
X112499309Y-43644819D01*
X112499309Y-43644819D02*
X112404071Y-43787676D01*
X112404071Y-43787676D02*
X112308833Y-43882914D01*
X112308833Y-43882914D02*
X112213595Y-43930533D01*
X113689785Y-43644819D02*
X113213595Y-43644819D01*
X113213595Y-43644819D02*
X113165976Y-44121009D01*
X113165976Y-44121009D02*
X113213595Y-44073390D01*
X113213595Y-44073390D02*
X113308833Y-44025771D01*
X113308833Y-44025771D02*
X113546928Y-44025771D01*
X113546928Y-44025771D02*
X113642166Y-44073390D01*
X113642166Y-44073390D02*
X113689785Y-44121009D01*
X113689785Y-44121009D02*
X113737404Y-44216247D01*
X113737404Y-44216247D02*
X113737404Y-44454342D01*
X113737404Y-44454342D02*
X113689785Y-44549580D01*
X113689785Y-44549580D02*
X113642166Y-44597200D01*
X113642166Y-44597200D02*
X113546928Y-44644819D01*
X113546928Y-44644819D02*
X113308833Y-44644819D01*
X113308833Y-44644819D02*
X113213595Y-44597200D01*
X113213595Y-44597200D02*
X113165976Y-44549580D01*
X114356452Y-43644819D02*
X114451690Y-43644819D01*
X114451690Y-43644819D02*
X114546928Y-43692438D01*
X114546928Y-43692438D02*
X114594547Y-43740057D01*
X114594547Y-43740057D02*
X114642166Y-43835295D01*
X114642166Y-43835295D02*
X114689785Y-44025771D01*
X114689785Y-44025771D02*
X114689785Y-44263866D01*
X114689785Y-44263866D02*
X114642166Y-44454342D01*
X114642166Y-44454342D02*
X114594547Y-44549580D01*
X114594547Y-44549580D02*
X114546928Y-44597200D01*
X114546928Y-44597200D02*
X114451690Y-44644819D01*
X114451690Y-44644819D02*
X114356452Y-44644819D01*
X114356452Y-44644819D02*
X114261214Y-44597200D01*
X114261214Y-44597200D02*
X114213595Y-44549580D01*
X114213595Y-44549580D02*
X114165976Y-44454342D01*
X114165976Y-44454342D02*
X114118357Y-44263866D01*
X114118357Y-44263866D02*
X114118357Y-44025771D01*
X114118357Y-44025771D02*
X114165976Y-43835295D01*
X114165976Y-43835295D02*
X114213595Y-43740057D01*
X114213595Y-43740057D02*
X114261214Y-43692438D01*
X114261214Y-43692438D02*
X114356452Y-43644819D01*
X115308833Y-43644819D02*
X115404071Y-43644819D01*
X115404071Y-43644819D02*
X115499309Y-43692438D01*
X115499309Y-43692438D02*
X115546928Y-43740057D01*
X115546928Y-43740057D02*
X115594547Y-43835295D01*
X115594547Y-43835295D02*
X115642166Y-44025771D01*
X115642166Y-44025771D02*
X115642166Y-44263866D01*
X115642166Y-44263866D02*
X115594547Y-44454342D01*
X115594547Y-44454342D02*
X115546928Y-44549580D01*
X115546928Y-44549580D02*
X115499309Y-44597200D01*
X115499309Y-44597200D02*
X115404071Y-44644819D01*
X115404071Y-44644819D02*
X115308833Y-44644819D01*
X115308833Y-44644819D02*
X115213595Y-44597200D01*
X115213595Y-44597200D02*
X115165976Y-44549580D01*
X115165976Y-44549580D02*
X115118357Y-44454342D01*
X115118357Y-44454342D02*
X115070738Y-44263866D01*
X115070738Y-44263866D02*
X115070738Y-44025771D01*
X115070738Y-44025771D02*
X115118357Y-43835295D01*
X115118357Y-43835295D02*
X115165976Y-43740057D01*
X115165976Y-43740057D02*
X115213595Y-43692438D01*
X115213595Y-43692438D02*
X115308833Y-43644819D01*
X116594547Y-43692438D02*
X116499309Y-43644819D01*
X116499309Y-43644819D02*
X116356452Y-43644819D01*
X116356452Y-43644819D02*
X116213595Y-43692438D01*
X116213595Y-43692438D02*
X116118357Y-43787676D01*
X116118357Y-43787676D02*
X116070738Y-43882914D01*
X116070738Y-43882914D02*
X116023119Y-44073390D01*
X116023119Y-44073390D02*
X116023119Y-44216247D01*
X116023119Y-44216247D02*
X116070738Y-44406723D01*
X116070738Y-44406723D02*
X116118357Y-44501961D01*
X116118357Y-44501961D02*
X116213595Y-44597200D01*
X116213595Y-44597200D02*
X116356452Y-44644819D01*
X116356452Y-44644819D02*
X116451690Y-44644819D01*
X116451690Y-44644819D02*
X116594547Y-44597200D01*
X116594547Y-44597200D02*
X116642166Y-44549580D01*
X116642166Y-44549580D02*
X116642166Y-44216247D01*
X116642166Y-44216247D02*
X116451690Y-44216247D01*
X111673905Y-38675819D02*
X111673905Y-37675819D01*
X111673905Y-37675819D02*
X111912000Y-37675819D01*
X111912000Y-37675819D02*
X112054857Y-37723438D01*
X112054857Y-37723438D02*
X112150095Y-37818676D01*
X112150095Y-37818676D02*
X112197714Y-37913914D01*
X112197714Y-37913914D02*
X112245333Y-38104390D01*
X112245333Y-38104390D02*
X112245333Y-38247247D01*
X112245333Y-38247247D02*
X112197714Y-38437723D01*
X112197714Y-38437723D02*
X112150095Y-38532961D01*
X112150095Y-38532961D02*
X112054857Y-38628200D01*
X112054857Y-38628200D02*
X111912000Y-38675819D01*
X111912000Y-38675819D02*
X111673905Y-38675819D01*
X113197714Y-38675819D02*
X112626286Y-38675819D01*
X112912000Y-38675819D02*
X112912000Y-37675819D01*
X112912000Y-37675819D02*
X112816762Y-37818676D01*
X112816762Y-37818676D02*
X112721524Y-37913914D01*
X112721524Y-37913914D02*
X112626286Y-37961533D01*
X87539857Y-49276057D02*
X87587476Y-49228438D01*
X87587476Y-49228438D02*
X87682714Y-49180819D01*
X87682714Y-49180819D02*
X87920809Y-49180819D01*
X87920809Y-49180819D02*
X88016047Y-49228438D01*
X88016047Y-49228438D02*
X88063666Y-49276057D01*
X88063666Y-49276057D02*
X88111285Y-49371295D01*
X88111285Y-49371295D02*
X88111285Y-49466533D01*
X88111285Y-49466533D02*
X88063666Y-49609390D01*
X88063666Y-49609390D02*
X87492238Y-50180819D01*
X87492238Y-50180819D02*
X88111285Y-50180819D01*
X89016047Y-49180819D02*
X88539857Y-49180819D01*
X88539857Y-49180819D02*
X88492238Y-49657009D01*
X88492238Y-49657009D02*
X88539857Y-49609390D01*
X88539857Y-49609390D02*
X88635095Y-49561771D01*
X88635095Y-49561771D02*
X88873190Y-49561771D01*
X88873190Y-49561771D02*
X88968428Y-49609390D01*
X88968428Y-49609390D02*
X89016047Y-49657009D01*
X89016047Y-49657009D02*
X89063666Y-49752247D01*
X89063666Y-49752247D02*
X89063666Y-49990342D01*
X89063666Y-49990342D02*
X89016047Y-50085580D01*
X89016047Y-50085580D02*
X88968428Y-50133200D01*
X88968428Y-50133200D02*
X88873190Y-50180819D01*
X88873190Y-50180819D02*
X88635095Y-50180819D01*
X88635095Y-50180819D02*
X88539857Y-50133200D01*
X88539857Y-50133200D02*
X88492238Y-50085580D01*
X89682714Y-49180819D02*
X89777952Y-49180819D01*
X89777952Y-49180819D02*
X89873190Y-49228438D01*
X89873190Y-49228438D02*
X89920809Y-49276057D01*
X89920809Y-49276057D02*
X89968428Y-49371295D01*
X89968428Y-49371295D02*
X90016047Y-49561771D01*
X90016047Y-49561771D02*
X90016047Y-49799866D01*
X90016047Y-49799866D02*
X89968428Y-49990342D01*
X89968428Y-49990342D02*
X89920809Y-50085580D01*
X89920809Y-50085580D02*
X89873190Y-50133200D01*
X89873190Y-50133200D02*
X89777952Y-50180819D01*
X89777952Y-50180819D02*
X89682714Y-50180819D01*
X89682714Y-50180819D02*
X89587476Y-50133200D01*
X89587476Y-50133200D02*
X89539857Y-50085580D01*
X89539857Y-50085580D02*
X89492238Y-49990342D01*
X89492238Y-49990342D02*
X89444619Y-49799866D01*
X89444619Y-49799866D02*
X89444619Y-49561771D01*
X89444619Y-49561771D02*
X89492238Y-49371295D01*
X89492238Y-49371295D02*
X89539857Y-49276057D01*
X89539857Y-49276057D02*
X89587476Y-49228438D01*
X89587476Y-49228438D02*
X89682714Y-49180819D01*
X90444619Y-50180819D02*
X90444619Y-49514152D01*
X90444619Y-49609390D02*
X90492238Y-49561771D01*
X90492238Y-49561771D02*
X90587476Y-49514152D01*
X90587476Y-49514152D02*
X90730333Y-49514152D01*
X90730333Y-49514152D02*
X90825571Y-49561771D01*
X90825571Y-49561771D02*
X90873190Y-49657009D01*
X90873190Y-49657009D02*
X90873190Y-50180819D01*
X90873190Y-49657009D02*
X90920809Y-49561771D01*
X90920809Y-49561771D02*
X91016047Y-49514152D01*
X91016047Y-49514152D02*
X91158904Y-49514152D01*
X91158904Y-49514152D02*
X91254143Y-49561771D01*
X91254143Y-49561771D02*
X91301762Y-49657009D01*
X91301762Y-49657009D02*
X91301762Y-50180819D01*
X92206523Y-50180819D02*
X92206523Y-49657009D01*
X92206523Y-49657009D02*
X92158904Y-49561771D01*
X92158904Y-49561771D02*
X92063666Y-49514152D01*
X92063666Y-49514152D02*
X91873190Y-49514152D01*
X91873190Y-49514152D02*
X91777952Y-49561771D01*
X92206523Y-50133200D02*
X92111285Y-50180819D01*
X92111285Y-50180819D02*
X91873190Y-50180819D01*
X91873190Y-50180819D02*
X91777952Y-50133200D01*
X91777952Y-50133200D02*
X91730333Y-50037961D01*
X91730333Y-50037961D02*
X91730333Y-49942723D01*
X91730333Y-49942723D02*
X91777952Y-49847485D01*
X91777952Y-49847485D02*
X91873190Y-49799866D01*
X91873190Y-49799866D02*
X92111285Y-49799866D01*
X92111285Y-49799866D02*
X92206523Y-49752247D01*
X89063666Y-53657009D02*
X88730333Y-53657009D01*
X88730333Y-54180819D02*
X88730333Y-53180819D01*
X88730333Y-53180819D02*
X89206523Y-53180819D01*
X90111285Y-54180819D02*
X89539857Y-54180819D01*
X89825571Y-54180819D02*
X89825571Y-53180819D01*
X89825571Y-53180819D02*
X89730333Y-53323676D01*
X89730333Y-53323676D02*
X89635095Y-53418914D01*
X89635095Y-53418914D02*
X89539857Y-53466533D01*
X165849380Y-34180819D02*
X165516047Y-33704628D01*
X165277952Y-34180819D02*
X165277952Y-33180819D01*
X165277952Y-33180819D02*
X165658904Y-33180819D01*
X165658904Y-33180819D02*
X165754142Y-33228438D01*
X165754142Y-33228438D02*
X165801761Y-33276057D01*
X165801761Y-33276057D02*
X165849380Y-33371295D01*
X165849380Y-33371295D02*
X165849380Y-33514152D01*
X165849380Y-33514152D02*
X165801761Y-33609390D01*
X165801761Y-33609390D02*
X165754142Y-33657009D01*
X165754142Y-33657009D02*
X165658904Y-33704628D01*
X165658904Y-33704628D02*
X165277952Y-33704628D01*
X166277952Y-33657009D02*
X166611285Y-33657009D01*
X166754142Y-34180819D02*
X166277952Y-34180819D01*
X166277952Y-34180819D02*
X166277952Y-33180819D01*
X166277952Y-33180819D02*
X166754142Y-33180819D01*
X167516047Y-33657009D02*
X167182714Y-33657009D01*
X167182714Y-34180819D02*
X167182714Y-33180819D01*
X167182714Y-33180819D02*
X167658904Y-33180819D01*
X167992238Y-33276057D02*
X168039857Y-33228438D01*
X168039857Y-33228438D02*
X168135095Y-33180819D01*
X168135095Y-33180819D02*
X168373190Y-33180819D01*
X168373190Y-33180819D02*
X168468428Y-33228438D01*
X168468428Y-33228438D02*
X168516047Y-33276057D01*
X168516047Y-33276057D02*
X168563666Y-33371295D01*
X168563666Y-33371295D02*
X168563666Y-33466533D01*
X168563666Y-33466533D02*
X168516047Y-33609390D01*
X168516047Y-33609390D02*
X167944619Y-34180819D01*
X167944619Y-34180819D02*
X168563666Y-34180819D01*
D12*
X138658904Y-103592600D02*
X138611285Y-103640220D01*
X138611285Y-103640220D02*
X138468428Y-103687839D01*
X138468428Y-103687839D02*
X138373190Y-103687839D01*
X138373190Y-103687839D02*
X138230333Y-103640220D01*
X138230333Y-103640220D02*
X138135095Y-103544981D01*
X138135095Y-103544981D02*
X138087476Y-103449743D01*
X138087476Y-103449743D02*
X138039857Y-103259267D01*
X138039857Y-103259267D02*
X138039857Y-103116410D01*
X138039857Y-103116410D02*
X138087476Y-102925934D01*
X138087476Y-102925934D02*
X138135095Y-102830696D01*
X138135095Y-102830696D02*
X138230333Y-102735458D01*
X138230333Y-102735458D02*
X138373190Y-102687839D01*
X138373190Y-102687839D02*
X138468428Y-102687839D01*
X138468428Y-102687839D02*
X138611285Y-102735458D01*
X138611285Y-102735458D02*
X138658904Y-102783077D01*
X139230333Y-103687839D02*
X139135095Y-103640220D01*
X139135095Y-103640220D02*
X139087476Y-103592600D01*
X139087476Y-103592600D02*
X139039857Y-103497362D01*
X139039857Y-103497362D02*
X139039857Y-103211648D01*
X139039857Y-103211648D02*
X139087476Y-103116410D01*
X139087476Y-103116410D02*
X139135095Y-103068791D01*
X139135095Y-103068791D02*
X139230333Y-103021172D01*
X139230333Y-103021172D02*
X139373190Y-103021172D01*
X139373190Y-103021172D02*
X139468428Y-103068791D01*
X139468428Y-103068791D02*
X139516047Y-103116410D01*
X139516047Y-103116410D02*
X139563666Y-103211648D01*
X139563666Y-103211648D02*
X139563666Y-103497362D01*
X139563666Y-103497362D02*
X139516047Y-103592600D01*
X139516047Y-103592600D02*
X139468428Y-103640220D01*
X139468428Y-103640220D02*
X139373190Y-103687839D01*
X139373190Y-103687839D02*
X139230333Y-103687839D01*
X139992238Y-103021172D02*
X139992238Y-103687839D01*
X139992238Y-103116410D02*
X140039857Y-103068791D01*
X140039857Y-103068791D02*
X140135095Y-103021172D01*
X140135095Y-103021172D02*
X140277952Y-103021172D01*
X140277952Y-103021172D02*
X140373190Y-103068791D01*
X140373190Y-103068791D02*
X140420809Y-103164029D01*
X140420809Y-103164029D02*
X140420809Y-103687839D01*
X140897000Y-103021172D02*
X140897000Y-103687839D01*
X140897000Y-103116410D02*
X140944619Y-103068791D01*
X140944619Y-103068791D02*
X141039857Y-103021172D01*
X141039857Y-103021172D02*
X141182714Y-103021172D01*
X141182714Y-103021172D02*
X141277952Y-103068791D01*
X141277952Y-103068791D02*
X141325571Y-103164029D01*
X141325571Y-103164029D02*
X141325571Y-103687839D01*
X141563667Y-103783077D02*
X142325571Y-103783077D01*
X142754143Y-102687839D02*
X142849381Y-102687839D01*
X142849381Y-102687839D02*
X142944619Y-102735458D01*
X142944619Y-102735458D02*
X142992238Y-102783077D01*
X142992238Y-102783077D02*
X143039857Y-102878315D01*
X143039857Y-102878315D02*
X143087476Y-103068791D01*
X143087476Y-103068791D02*
X143087476Y-103306886D01*
X143087476Y-103306886D02*
X143039857Y-103497362D01*
X143039857Y-103497362D02*
X142992238Y-103592600D01*
X142992238Y-103592600D02*
X142944619Y-103640220D01*
X142944619Y-103640220D02*
X142849381Y-103687839D01*
X142849381Y-103687839D02*
X142754143Y-103687839D01*
X142754143Y-103687839D02*
X142658905Y-103640220D01*
X142658905Y-103640220D02*
X142611286Y-103592600D01*
X142611286Y-103592600D02*
X142563667Y-103497362D01*
X142563667Y-103497362D02*
X142516048Y-103306886D01*
X142516048Y-103306886D02*
X142516048Y-103068791D01*
X142516048Y-103068791D02*
X142563667Y-102878315D01*
X142563667Y-102878315D02*
X142611286Y-102783077D01*
X142611286Y-102783077D02*
X142658905Y-102735458D01*
X142658905Y-102735458D02*
X142754143Y-102687839D01*
X144039857Y-103687839D02*
X143468429Y-103687839D01*
X143754143Y-103687839D02*
X143754143Y-102687839D01*
X143754143Y-102687839D02*
X143658905Y-102830696D01*
X143658905Y-102830696D02*
X143563667Y-102925934D01*
X143563667Y-102925934D02*
X143468429Y-102973553D01*
X144373191Y-103687839D02*
X144897000Y-103021172D01*
X144373191Y-103021172D02*
X144897000Y-103687839D01*
X145468429Y-102687839D02*
X145563667Y-102687839D01*
X145563667Y-102687839D02*
X145658905Y-102735458D01*
X145658905Y-102735458D02*
X145706524Y-102783077D01*
X145706524Y-102783077D02*
X145754143Y-102878315D01*
X145754143Y-102878315D02*
X145801762Y-103068791D01*
X145801762Y-103068791D02*
X145801762Y-103306886D01*
X145801762Y-103306886D02*
X145754143Y-103497362D01*
X145754143Y-103497362D02*
X145706524Y-103592600D01*
X145706524Y-103592600D02*
X145658905Y-103640220D01*
X145658905Y-103640220D02*
X145563667Y-103687839D01*
X145563667Y-103687839D02*
X145468429Y-103687839D01*
X145468429Y-103687839D02*
X145373191Y-103640220D01*
X145373191Y-103640220D02*
X145325572Y-103592600D01*
X145325572Y-103592600D02*
X145277953Y-103497362D01*
X145277953Y-103497362D02*
X145230334Y-103306886D01*
X145230334Y-103306886D02*
X145230334Y-103068791D01*
X145230334Y-103068791D02*
X145277953Y-102878315D01*
X145277953Y-102878315D02*
X145325572Y-102783077D01*
X145325572Y-102783077D02*
X145373191Y-102735458D01*
X145373191Y-102735458D02*
X145468429Y-102687839D01*
X146135096Y-102687839D02*
X146754143Y-102687839D01*
X146754143Y-102687839D02*
X146420810Y-103068791D01*
X146420810Y-103068791D02*
X146563667Y-103068791D01*
X146563667Y-103068791D02*
X146658905Y-103116410D01*
X146658905Y-103116410D02*
X146706524Y-103164029D01*
X146706524Y-103164029D02*
X146754143Y-103259267D01*
X146754143Y-103259267D02*
X146754143Y-103497362D01*
X146754143Y-103497362D02*
X146706524Y-103592600D01*
X146706524Y-103592600D02*
X146658905Y-103640220D01*
X146658905Y-103640220D02*
X146563667Y-103687839D01*
X146563667Y-103687839D02*
X146277953Y-103687839D01*
X146277953Y-103687839D02*
X146182715Y-103640220D01*
X146182715Y-103640220D02*
X146135096Y-103592600D01*
X96158904Y-41592600D02*
X96111285Y-41640220D01*
X96111285Y-41640220D02*
X95968428Y-41687839D01*
X95968428Y-41687839D02*
X95873190Y-41687839D01*
X95873190Y-41687839D02*
X95730333Y-41640220D01*
X95730333Y-41640220D02*
X95635095Y-41544981D01*
X95635095Y-41544981D02*
X95587476Y-41449743D01*
X95587476Y-41449743D02*
X95539857Y-41259267D01*
X95539857Y-41259267D02*
X95539857Y-41116410D01*
X95539857Y-41116410D02*
X95587476Y-40925934D01*
X95587476Y-40925934D02*
X95635095Y-40830696D01*
X95635095Y-40830696D02*
X95730333Y-40735458D01*
X95730333Y-40735458D02*
X95873190Y-40687839D01*
X95873190Y-40687839D02*
X95968428Y-40687839D01*
X95968428Y-40687839D02*
X96111285Y-40735458D01*
X96111285Y-40735458D02*
X96158904Y-40783077D01*
X96730333Y-41687839D02*
X96635095Y-41640220D01*
X96635095Y-41640220D02*
X96587476Y-41592600D01*
X96587476Y-41592600D02*
X96539857Y-41497362D01*
X96539857Y-41497362D02*
X96539857Y-41211648D01*
X96539857Y-41211648D02*
X96587476Y-41116410D01*
X96587476Y-41116410D02*
X96635095Y-41068791D01*
X96635095Y-41068791D02*
X96730333Y-41021172D01*
X96730333Y-41021172D02*
X96873190Y-41021172D01*
X96873190Y-41021172D02*
X96968428Y-41068791D01*
X96968428Y-41068791D02*
X97016047Y-41116410D01*
X97016047Y-41116410D02*
X97063666Y-41211648D01*
X97063666Y-41211648D02*
X97063666Y-41497362D01*
X97063666Y-41497362D02*
X97016047Y-41592600D01*
X97016047Y-41592600D02*
X96968428Y-41640220D01*
X96968428Y-41640220D02*
X96873190Y-41687839D01*
X96873190Y-41687839D02*
X96730333Y-41687839D01*
X97492238Y-41021172D02*
X97492238Y-41687839D01*
X97492238Y-41116410D02*
X97539857Y-41068791D01*
X97539857Y-41068791D02*
X97635095Y-41021172D01*
X97635095Y-41021172D02*
X97777952Y-41021172D01*
X97777952Y-41021172D02*
X97873190Y-41068791D01*
X97873190Y-41068791D02*
X97920809Y-41164029D01*
X97920809Y-41164029D02*
X97920809Y-41687839D01*
X98397000Y-41021172D02*
X98397000Y-41687839D01*
X98397000Y-41116410D02*
X98444619Y-41068791D01*
X98444619Y-41068791D02*
X98539857Y-41021172D01*
X98539857Y-41021172D02*
X98682714Y-41021172D01*
X98682714Y-41021172D02*
X98777952Y-41068791D01*
X98777952Y-41068791D02*
X98825571Y-41164029D01*
X98825571Y-41164029D02*
X98825571Y-41687839D01*
X99063667Y-41783077D02*
X99825571Y-41783077D01*
X100254143Y-40687839D02*
X100349381Y-40687839D01*
X100349381Y-40687839D02*
X100444619Y-40735458D01*
X100444619Y-40735458D02*
X100492238Y-40783077D01*
X100492238Y-40783077D02*
X100539857Y-40878315D01*
X100539857Y-40878315D02*
X100587476Y-41068791D01*
X100587476Y-41068791D02*
X100587476Y-41306886D01*
X100587476Y-41306886D02*
X100539857Y-41497362D01*
X100539857Y-41497362D02*
X100492238Y-41592600D01*
X100492238Y-41592600D02*
X100444619Y-41640220D01*
X100444619Y-41640220D02*
X100349381Y-41687839D01*
X100349381Y-41687839D02*
X100254143Y-41687839D01*
X100254143Y-41687839D02*
X100158905Y-41640220D01*
X100158905Y-41640220D02*
X100111286Y-41592600D01*
X100111286Y-41592600D02*
X100063667Y-41497362D01*
X100063667Y-41497362D02*
X100016048Y-41306886D01*
X100016048Y-41306886D02*
X100016048Y-41068791D01*
X100016048Y-41068791D02*
X100063667Y-40878315D01*
X100063667Y-40878315D02*
X100111286Y-40783077D01*
X100111286Y-40783077D02*
X100158905Y-40735458D01*
X100158905Y-40735458D02*
X100254143Y-40687839D01*
X101539857Y-41687839D02*
X100968429Y-41687839D01*
X101254143Y-41687839D02*
X101254143Y-40687839D01*
X101254143Y-40687839D02*
X101158905Y-40830696D01*
X101158905Y-40830696D02*
X101063667Y-40925934D01*
X101063667Y-40925934D02*
X100968429Y-40973553D01*
X101873191Y-41687839D02*
X102397000Y-41021172D01*
X101873191Y-41021172D02*
X102397000Y-41687839D01*
X102968429Y-40687839D02*
X103063667Y-40687839D01*
X103063667Y-40687839D02*
X103158905Y-40735458D01*
X103158905Y-40735458D02*
X103206524Y-40783077D01*
X103206524Y-40783077D02*
X103254143Y-40878315D01*
X103254143Y-40878315D02*
X103301762Y-41068791D01*
X103301762Y-41068791D02*
X103301762Y-41306886D01*
X103301762Y-41306886D02*
X103254143Y-41497362D01*
X103254143Y-41497362D02*
X103206524Y-41592600D01*
X103206524Y-41592600D02*
X103158905Y-41640220D01*
X103158905Y-41640220D02*
X103063667Y-41687839D01*
X103063667Y-41687839D02*
X102968429Y-41687839D01*
X102968429Y-41687839D02*
X102873191Y-41640220D01*
X102873191Y-41640220D02*
X102825572Y-41592600D01*
X102825572Y-41592600D02*
X102777953Y-41497362D01*
X102777953Y-41497362D02*
X102730334Y-41306886D01*
X102730334Y-41306886D02*
X102730334Y-41068791D01*
X102730334Y-41068791D02*
X102777953Y-40878315D01*
X102777953Y-40878315D02*
X102825572Y-40783077D01*
X102825572Y-40783077D02*
X102873191Y-40735458D01*
X102873191Y-40735458D02*
X102968429Y-40687839D01*
X103635096Y-40687839D02*
X104254143Y-40687839D01*
X104254143Y-40687839D02*
X103920810Y-41068791D01*
X103920810Y-41068791D02*
X104063667Y-41068791D01*
X104063667Y-41068791D02*
X104158905Y-41116410D01*
X104158905Y-41116410D02*
X104206524Y-41164029D01*
X104206524Y-41164029D02*
X104254143Y-41259267D01*
X104254143Y-41259267D02*
X104254143Y-41497362D01*
X104254143Y-41497362D02*
X104206524Y-41592600D01*
X104206524Y-41592600D02*
X104158905Y-41640220D01*
X104158905Y-41640220D02*
X104063667Y-41687839D01*
X104063667Y-41687839D02*
X103777953Y-41687839D01*
X103777953Y-41687839D02*
X103682715Y-41640220D01*
X103682715Y-41640220D02*
X103635096Y-41592600D01*
D10*
X108920809Y-50180819D02*
X109539856Y-50180819D01*
X109539856Y-50180819D02*
X109206523Y-50561771D01*
X109206523Y-50561771D02*
X109349380Y-50561771D01*
X109349380Y-50561771D02*
X109444618Y-50609390D01*
X109444618Y-50609390D02*
X109492237Y-50657009D01*
X109492237Y-50657009D02*
X109539856Y-50752247D01*
X109539856Y-50752247D02*
X109539856Y-50990342D01*
X109539856Y-50990342D02*
X109492237Y-51085580D01*
X109492237Y-51085580D02*
X109444618Y-51133200D01*
X109444618Y-51133200D02*
X109349380Y-51180819D01*
X109349380Y-51180819D02*
X109063666Y-51180819D01*
X109063666Y-51180819D02*
X108968428Y-51133200D01*
X108968428Y-51133200D02*
X108920809Y-51085580D01*
X109873190Y-50180819D02*
X110492237Y-50180819D01*
X110492237Y-50180819D02*
X110158904Y-50561771D01*
X110158904Y-50561771D02*
X110301761Y-50561771D01*
X110301761Y-50561771D02*
X110396999Y-50609390D01*
X110396999Y-50609390D02*
X110444618Y-50657009D01*
X110444618Y-50657009D02*
X110492237Y-50752247D01*
X110492237Y-50752247D02*
X110492237Y-50990342D01*
X110492237Y-50990342D02*
X110444618Y-51085580D01*
X110444618Y-51085580D02*
X110396999Y-51133200D01*
X110396999Y-51133200D02*
X110301761Y-51180819D01*
X110301761Y-51180819D02*
X110016047Y-51180819D01*
X110016047Y-51180819D02*
X109920809Y-51133200D01*
X109920809Y-51133200D02*
X109873190Y-51085580D01*
X111111285Y-50180819D02*
X111206523Y-50180819D01*
X111206523Y-50180819D02*
X111301761Y-50228438D01*
X111301761Y-50228438D02*
X111349380Y-50276057D01*
X111349380Y-50276057D02*
X111396999Y-50371295D01*
X111396999Y-50371295D02*
X111444618Y-50561771D01*
X111444618Y-50561771D02*
X111444618Y-50799866D01*
X111444618Y-50799866D02*
X111396999Y-50990342D01*
X111396999Y-50990342D02*
X111349380Y-51085580D01*
X111349380Y-51085580D02*
X111301761Y-51133200D01*
X111301761Y-51133200D02*
X111206523Y-51180819D01*
X111206523Y-51180819D02*
X111111285Y-51180819D01*
X111111285Y-51180819D02*
X111016047Y-51133200D01*
X111016047Y-51133200D02*
X110968428Y-51085580D01*
X110968428Y-51085580D02*
X110920809Y-50990342D01*
X110920809Y-50990342D02*
X110873190Y-50799866D01*
X110873190Y-50799866D02*
X110873190Y-50561771D01*
X110873190Y-50561771D02*
X110920809Y-50371295D01*
X110920809Y-50371295D02*
X110968428Y-50276057D01*
X110968428Y-50276057D02*
X111016047Y-50228438D01*
X111016047Y-50228438D02*
X111111285Y-50180819D01*
X111873190Y-50514152D02*
X111873190Y-51180819D01*
X111873190Y-50609390D02*
X111920809Y-50561771D01*
X111920809Y-50561771D02*
X112016047Y-50514152D01*
X112016047Y-50514152D02*
X112158904Y-50514152D01*
X112158904Y-50514152D02*
X112254142Y-50561771D01*
X112254142Y-50561771D02*
X112301761Y-50657009D01*
X112301761Y-50657009D02*
X112301761Y-51180819D01*
X112635095Y-50514152D02*
X113016047Y-50514152D01*
X112777952Y-51180819D02*
X112777952Y-50323676D01*
X112777952Y-50323676D02*
X112825571Y-50228438D01*
X112825571Y-50228438D02*
X112920809Y-50180819D01*
X112920809Y-50180819D02*
X113016047Y-50180819D01*
X113349381Y-50799866D02*
X114111286Y-50799866D01*
X114539857Y-50276057D02*
X114587476Y-50228438D01*
X114587476Y-50228438D02*
X114682714Y-50180819D01*
X114682714Y-50180819D02*
X114920809Y-50180819D01*
X114920809Y-50180819D02*
X115016047Y-50228438D01*
X115016047Y-50228438D02*
X115063666Y-50276057D01*
X115063666Y-50276057D02*
X115111285Y-50371295D01*
X115111285Y-50371295D02*
X115111285Y-50466533D01*
X115111285Y-50466533D02*
X115063666Y-50609390D01*
X115063666Y-50609390D02*
X114492238Y-51180819D01*
X114492238Y-51180819D02*
X115111285Y-51180819D01*
X116016047Y-50180819D02*
X115539857Y-50180819D01*
X115539857Y-50180819D02*
X115492238Y-50657009D01*
X115492238Y-50657009D02*
X115539857Y-50609390D01*
X115539857Y-50609390D02*
X115635095Y-50561771D01*
X115635095Y-50561771D02*
X115873190Y-50561771D01*
X115873190Y-50561771D02*
X115968428Y-50609390D01*
X115968428Y-50609390D02*
X116016047Y-50657009D01*
X116016047Y-50657009D02*
X116063666Y-50752247D01*
X116063666Y-50752247D02*
X116063666Y-50990342D01*
X116063666Y-50990342D02*
X116016047Y-51085580D01*
X116016047Y-51085580D02*
X115968428Y-51133200D01*
X115968428Y-51133200D02*
X115873190Y-51180819D01*
X115873190Y-51180819D02*
X115635095Y-51180819D01*
X115635095Y-51180819D02*
X115539857Y-51133200D01*
X115539857Y-51133200D02*
X115492238Y-51085580D01*
X116397000Y-50514152D02*
X116635095Y-51180819D01*
X116635095Y-51180819D02*
X116873190Y-50514152D01*
X112730333Y-48585580D02*
X112682714Y-48633200D01*
X112682714Y-48633200D02*
X112539857Y-48680819D01*
X112539857Y-48680819D02*
X112444619Y-48680819D01*
X112444619Y-48680819D02*
X112301762Y-48633200D01*
X112301762Y-48633200D02*
X112206524Y-48537961D01*
X112206524Y-48537961D02*
X112158905Y-48442723D01*
X112158905Y-48442723D02*
X112111286Y-48252247D01*
X112111286Y-48252247D02*
X112111286Y-48109390D01*
X112111286Y-48109390D02*
X112158905Y-47918914D01*
X112158905Y-47918914D02*
X112206524Y-47823676D01*
X112206524Y-47823676D02*
X112301762Y-47728438D01*
X112301762Y-47728438D02*
X112444619Y-47680819D01*
X112444619Y-47680819D02*
X112539857Y-47680819D01*
X112539857Y-47680819D02*
X112682714Y-47728438D01*
X112682714Y-47728438D02*
X112730333Y-47776057D01*
X113111286Y-47776057D02*
X113158905Y-47728438D01*
X113158905Y-47728438D02*
X113254143Y-47680819D01*
X113254143Y-47680819D02*
X113492238Y-47680819D01*
X113492238Y-47680819D02*
X113587476Y-47728438D01*
X113587476Y-47728438D02*
X113635095Y-47776057D01*
X113635095Y-47776057D02*
X113682714Y-47871295D01*
X113682714Y-47871295D02*
X113682714Y-47966533D01*
X113682714Y-47966533D02*
X113635095Y-48109390D01*
X113635095Y-48109390D02*
X113063667Y-48680819D01*
X113063667Y-48680819D02*
X113682714Y-48680819D01*
X140821819Y-82368857D02*
X140821819Y-82940285D01*
X140821819Y-82654571D02*
X139821819Y-82654571D01*
X139821819Y-82654571D02*
X139964676Y-82749809D01*
X139964676Y-82749809D02*
X140059914Y-82845047D01*
X140059914Y-82845047D02*
X140107533Y-82940285D01*
X140821819Y-81940285D02*
X139821819Y-81940285D01*
X139821819Y-81940285D02*
X140821819Y-81368857D01*
X140821819Y-81368857D02*
X139821819Y-81368857D01*
X140155152Y-80464095D02*
X140821819Y-80464095D01*
X139774200Y-80702190D02*
X140488485Y-80940285D01*
X140488485Y-80940285D02*
X140488485Y-80321238D01*
X139821819Y-79749809D02*
X139821819Y-79654571D01*
X139821819Y-79654571D02*
X139869438Y-79559333D01*
X139869438Y-79559333D02*
X139917057Y-79511714D01*
X139917057Y-79511714D02*
X140012295Y-79464095D01*
X140012295Y-79464095D02*
X140202771Y-79416476D01*
X140202771Y-79416476D02*
X140440866Y-79416476D01*
X140440866Y-79416476D02*
X140631342Y-79464095D01*
X140631342Y-79464095D02*
X140726580Y-79511714D01*
X140726580Y-79511714D02*
X140774200Y-79559333D01*
X140774200Y-79559333D02*
X140821819Y-79654571D01*
X140821819Y-79654571D02*
X140821819Y-79749809D01*
X140821819Y-79749809D02*
X140774200Y-79845047D01*
X140774200Y-79845047D02*
X140726580Y-79892666D01*
X140726580Y-79892666D02*
X140631342Y-79940285D01*
X140631342Y-79940285D02*
X140440866Y-79987904D01*
X140440866Y-79987904D02*
X140202771Y-79987904D01*
X140202771Y-79987904D02*
X140012295Y-79940285D01*
X140012295Y-79940285D02*
X139917057Y-79892666D01*
X139917057Y-79892666D02*
X139869438Y-79845047D01*
X139869438Y-79845047D02*
X139821819Y-79749809D01*
X139821819Y-78797428D02*
X139821819Y-78702190D01*
X139821819Y-78702190D02*
X139869438Y-78606952D01*
X139869438Y-78606952D02*
X139917057Y-78559333D01*
X139917057Y-78559333D02*
X140012295Y-78511714D01*
X140012295Y-78511714D02*
X140202771Y-78464095D01*
X140202771Y-78464095D02*
X140440866Y-78464095D01*
X140440866Y-78464095D02*
X140631342Y-78511714D01*
X140631342Y-78511714D02*
X140726580Y-78559333D01*
X140726580Y-78559333D02*
X140774200Y-78606952D01*
X140774200Y-78606952D02*
X140821819Y-78702190D01*
X140821819Y-78702190D02*
X140821819Y-78797428D01*
X140821819Y-78797428D02*
X140774200Y-78892666D01*
X140774200Y-78892666D02*
X140726580Y-78940285D01*
X140726580Y-78940285D02*
X140631342Y-78987904D01*
X140631342Y-78987904D02*
X140440866Y-79035523D01*
X140440866Y-79035523D02*
X140202771Y-79035523D01*
X140202771Y-79035523D02*
X140012295Y-78987904D01*
X140012295Y-78987904D02*
X139917057Y-78940285D01*
X139917057Y-78940285D02*
X139869438Y-78892666D01*
X139869438Y-78892666D02*
X139821819Y-78797428D01*
X139821819Y-78130761D02*
X139821819Y-77464095D01*
X139821819Y-77464095D02*
X140821819Y-77892666D01*
X138351819Y-80574094D02*
X137351819Y-80574094D01*
X137351819Y-80574094D02*
X137351819Y-80335999D01*
X137351819Y-80335999D02*
X137399438Y-80193142D01*
X137399438Y-80193142D02*
X137494676Y-80097904D01*
X137494676Y-80097904D02*
X137589914Y-80050285D01*
X137589914Y-80050285D02*
X137780390Y-80002666D01*
X137780390Y-80002666D02*
X137923247Y-80002666D01*
X137923247Y-80002666D02*
X138113723Y-80050285D01*
X138113723Y-80050285D02*
X138208961Y-80097904D01*
X138208961Y-80097904D02*
X138304200Y-80193142D01*
X138304200Y-80193142D02*
X138351819Y-80335999D01*
X138351819Y-80335999D02*
X138351819Y-80574094D01*
X137447057Y-79621713D02*
X137399438Y-79574094D01*
X137399438Y-79574094D02*
X137351819Y-79478856D01*
X137351819Y-79478856D02*
X137351819Y-79240761D01*
X137351819Y-79240761D02*
X137399438Y-79145523D01*
X137399438Y-79145523D02*
X137447057Y-79097904D01*
X137447057Y-79097904D02*
X137542295Y-79050285D01*
X137542295Y-79050285D02*
X137637533Y-79050285D01*
X137637533Y-79050285D02*
X137780390Y-79097904D01*
X137780390Y-79097904D02*
X138351819Y-79669332D01*
X138351819Y-79669332D02*
X138351819Y-79050285D01*
X136251819Y-85567904D02*
X135251819Y-85567904D01*
X136251819Y-84996476D02*
X135680390Y-85425047D01*
X135251819Y-84996476D02*
X135823247Y-85567904D01*
D12*
X78658904Y-41592600D02*
X78611285Y-41640220D01*
X78611285Y-41640220D02*
X78468428Y-41687839D01*
X78468428Y-41687839D02*
X78373190Y-41687839D01*
X78373190Y-41687839D02*
X78230333Y-41640220D01*
X78230333Y-41640220D02*
X78135095Y-41544981D01*
X78135095Y-41544981D02*
X78087476Y-41449743D01*
X78087476Y-41449743D02*
X78039857Y-41259267D01*
X78039857Y-41259267D02*
X78039857Y-41116410D01*
X78039857Y-41116410D02*
X78087476Y-40925934D01*
X78087476Y-40925934D02*
X78135095Y-40830696D01*
X78135095Y-40830696D02*
X78230333Y-40735458D01*
X78230333Y-40735458D02*
X78373190Y-40687839D01*
X78373190Y-40687839D02*
X78468428Y-40687839D01*
X78468428Y-40687839D02*
X78611285Y-40735458D01*
X78611285Y-40735458D02*
X78658904Y-40783077D01*
X79230333Y-41687839D02*
X79135095Y-41640220D01*
X79135095Y-41640220D02*
X79087476Y-41592600D01*
X79087476Y-41592600D02*
X79039857Y-41497362D01*
X79039857Y-41497362D02*
X79039857Y-41211648D01*
X79039857Y-41211648D02*
X79087476Y-41116410D01*
X79087476Y-41116410D02*
X79135095Y-41068791D01*
X79135095Y-41068791D02*
X79230333Y-41021172D01*
X79230333Y-41021172D02*
X79373190Y-41021172D01*
X79373190Y-41021172D02*
X79468428Y-41068791D01*
X79468428Y-41068791D02*
X79516047Y-41116410D01*
X79516047Y-41116410D02*
X79563666Y-41211648D01*
X79563666Y-41211648D02*
X79563666Y-41497362D01*
X79563666Y-41497362D02*
X79516047Y-41592600D01*
X79516047Y-41592600D02*
X79468428Y-41640220D01*
X79468428Y-41640220D02*
X79373190Y-41687839D01*
X79373190Y-41687839D02*
X79230333Y-41687839D01*
X79992238Y-41021172D02*
X79992238Y-41687839D01*
X79992238Y-41116410D02*
X80039857Y-41068791D01*
X80039857Y-41068791D02*
X80135095Y-41021172D01*
X80135095Y-41021172D02*
X80277952Y-41021172D01*
X80277952Y-41021172D02*
X80373190Y-41068791D01*
X80373190Y-41068791D02*
X80420809Y-41164029D01*
X80420809Y-41164029D02*
X80420809Y-41687839D01*
X80897000Y-41021172D02*
X80897000Y-41687839D01*
X80897000Y-41116410D02*
X80944619Y-41068791D01*
X80944619Y-41068791D02*
X81039857Y-41021172D01*
X81039857Y-41021172D02*
X81182714Y-41021172D01*
X81182714Y-41021172D02*
X81277952Y-41068791D01*
X81277952Y-41068791D02*
X81325571Y-41164029D01*
X81325571Y-41164029D02*
X81325571Y-41687839D01*
X81563667Y-41783077D02*
X82325571Y-41783077D01*
X82754143Y-40687839D02*
X82849381Y-40687839D01*
X82849381Y-40687839D02*
X82944619Y-40735458D01*
X82944619Y-40735458D02*
X82992238Y-40783077D01*
X82992238Y-40783077D02*
X83039857Y-40878315D01*
X83039857Y-40878315D02*
X83087476Y-41068791D01*
X83087476Y-41068791D02*
X83087476Y-41306886D01*
X83087476Y-41306886D02*
X83039857Y-41497362D01*
X83039857Y-41497362D02*
X82992238Y-41592600D01*
X82992238Y-41592600D02*
X82944619Y-41640220D01*
X82944619Y-41640220D02*
X82849381Y-41687839D01*
X82849381Y-41687839D02*
X82754143Y-41687839D01*
X82754143Y-41687839D02*
X82658905Y-41640220D01*
X82658905Y-41640220D02*
X82611286Y-41592600D01*
X82611286Y-41592600D02*
X82563667Y-41497362D01*
X82563667Y-41497362D02*
X82516048Y-41306886D01*
X82516048Y-41306886D02*
X82516048Y-41068791D01*
X82516048Y-41068791D02*
X82563667Y-40878315D01*
X82563667Y-40878315D02*
X82611286Y-40783077D01*
X82611286Y-40783077D02*
X82658905Y-40735458D01*
X82658905Y-40735458D02*
X82754143Y-40687839D01*
X84039857Y-41687839D02*
X83468429Y-41687839D01*
X83754143Y-41687839D02*
X83754143Y-40687839D01*
X83754143Y-40687839D02*
X83658905Y-40830696D01*
X83658905Y-40830696D02*
X83563667Y-40925934D01*
X83563667Y-40925934D02*
X83468429Y-40973553D01*
X84373191Y-41687839D02*
X84897000Y-41021172D01*
X84373191Y-41021172D02*
X84897000Y-41687839D01*
X85468429Y-40687839D02*
X85563667Y-40687839D01*
X85563667Y-40687839D02*
X85658905Y-40735458D01*
X85658905Y-40735458D02*
X85706524Y-40783077D01*
X85706524Y-40783077D02*
X85754143Y-40878315D01*
X85754143Y-40878315D02*
X85801762Y-41068791D01*
X85801762Y-41068791D02*
X85801762Y-41306886D01*
X85801762Y-41306886D02*
X85754143Y-41497362D01*
X85754143Y-41497362D02*
X85706524Y-41592600D01*
X85706524Y-41592600D02*
X85658905Y-41640220D01*
X85658905Y-41640220D02*
X85563667Y-41687839D01*
X85563667Y-41687839D02*
X85468429Y-41687839D01*
X85468429Y-41687839D02*
X85373191Y-41640220D01*
X85373191Y-41640220D02*
X85325572Y-41592600D01*
X85325572Y-41592600D02*
X85277953Y-41497362D01*
X85277953Y-41497362D02*
X85230334Y-41306886D01*
X85230334Y-41306886D02*
X85230334Y-41068791D01*
X85230334Y-41068791D02*
X85277953Y-40878315D01*
X85277953Y-40878315D02*
X85325572Y-40783077D01*
X85325572Y-40783077D02*
X85373191Y-40735458D01*
X85373191Y-40735458D02*
X85468429Y-40687839D01*
X86135096Y-40687839D02*
X86754143Y-40687839D01*
X86754143Y-40687839D02*
X86420810Y-41068791D01*
X86420810Y-41068791D02*
X86563667Y-41068791D01*
X86563667Y-41068791D02*
X86658905Y-41116410D01*
X86658905Y-41116410D02*
X86706524Y-41164029D01*
X86706524Y-41164029D02*
X86754143Y-41259267D01*
X86754143Y-41259267D02*
X86754143Y-41497362D01*
X86754143Y-41497362D02*
X86706524Y-41592600D01*
X86706524Y-41592600D02*
X86658905Y-41640220D01*
X86658905Y-41640220D02*
X86563667Y-41687839D01*
X86563667Y-41687839D02*
X86277953Y-41687839D01*
X86277953Y-41687839D02*
X86182715Y-41640220D01*
X86182715Y-41640220D02*
X86135096Y-41592600D01*
D10*
X115016047Y-89680819D02*
X114539857Y-89680819D01*
X114539857Y-89680819D02*
X114539857Y-88680819D01*
X115349381Y-89680819D02*
X115349381Y-88680819D01*
X115349381Y-88680819D02*
X115682714Y-89395104D01*
X115682714Y-89395104D02*
X116016047Y-88680819D01*
X116016047Y-88680819D02*
X116016047Y-89680819D01*
X116397000Y-88680819D02*
X117063666Y-88680819D01*
X117063666Y-88680819D02*
X116635095Y-89680819D01*
X117587476Y-89109390D02*
X117492238Y-89061771D01*
X117492238Y-89061771D02*
X117444619Y-89014152D01*
X117444619Y-89014152D02*
X117397000Y-88918914D01*
X117397000Y-88918914D02*
X117397000Y-88871295D01*
X117397000Y-88871295D02*
X117444619Y-88776057D01*
X117444619Y-88776057D02*
X117492238Y-88728438D01*
X117492238Y-88728438D02*
X117587476Y-88680819D01*
X117587476Y-88680819D02*
X117777952Y-88680819D01*
X117777952Y-88680819D02*
X117873190Y-88728438D01*
X117873190Y-88728438D02*
X117920809Y-88776057D01*
X117920809Y-88776057D02*
X117968428Y-88871295D01*
X117968428Y-88871295D02*
X117968428Y-88918914D01*
X117968428Y-88918914D02*
X117920809Y-89014152D01*
X117920809Y-89014152D02*
X117873190Y-89061771D01*
X117873190Y-89061771D02*
X117777952Y-89109390D01*
X117777952Y-89109390D02*
X117587476Y-89109390D01*
X117587476Y-89109390D02*
X117492238Y-89157009D01*
X117492238Y-89157009D02*
X117444619Y-89204628D01*
X117444619Y-89204628D02*
X117397000Y-89299866D01*
X117397000Y-89299866D02*
X117397000Y-89490342D01*
X117397000Y-89490342D02*
X117444619Y-89585580D01*
X117444619Y-89585580D02*
X117492238Y-89633200D01*
X117492238Y-89633200D02*
X117587476Y-89680819D01*
X117587476Y-89680819D02*
X117777952Y-89680819D01*
X117777952Y-89680819D02*
X117873190Y-89633200D01*
X117873190Y-89633200D02*
X117920809Y-89585580D01*
X117920809Y-89585580D02*
X117968428Y-89490342D01*
X117968428Y-89490342D02*
X117968428Y-89299866D01*
X117968428Y-89299866D02*
X117920809Y-89204628D01*
X117920809Y-89204628D02*
X117873190Y-89157009D01*
X117873190Y-89157009D02*
X117777952Y-89109390D01*
X118587476Y-88680819D02*
X118682714Y-88680819D01*
X118682714Y-88680819D02*
X118777952Y-88728438D01*
X118777952Y-88728438D02*
X118825571Y-88776057D01*
X118825571Y-88776057D02*
X118873190Y-88871295D01*
X118873190Y-88871295D02*
X118920809Y-89061771D01*
X118920809Y-89061771D02*
X118920809Y-89299866D01*
X118920809Y-89299866D02*
X118873190Y-89490342D01*
X118873190Y-89490342D02*
X118825571Y-89585580D01*
X118825571Y-89585580D02*
X118777952Y-89633200D01*
X118777952Y-89633200D02*
X118682714Y-89680819D01*
X118682714Y-89680819D02*
X118587476Y-89680819D01*
X118587476Y-89680819D02*
X118492238Y-89633200D01*
X118492238Y-89633200D02*
X118444619Y-89585580D01*
X118444619Y-89585580D02*
X118397000Y-89490342D01*
X118397000Y-89490342D02*
X118349381Y-89299866D01*
X118349381Y-89299866D02*
X118349381Y-89061771D01*
X118349381Y-89061771D02*
X118397000Y-88871295D01*
X118397000Y-88871295D02*
X118444619Y-88776057D01*
X118444619Y-88776057D02*
X118492238Y-88728438D01*
X118492238Y-88728438D02*
X118587476Y-88680819D01*
X119397000Y-89680819D02*
X119587476Y-89680819D01*
X119587476Y-89680819D02*
X119682714Y-89633200D01*
X119682714Y-89633200D02*
X119730333Y-89585580D01*
X119730333Y-89585580D02*
X119825571Y-89442723D01*
X119825571Y-89442723D02*
X119873190Y-89252247D01*
X119873190Y-89252247D02*
X119873190Y-88871295D01*
X119873190Y-88871295D02*
X119825571Y-88776057D01*
X119825571Y-88776057D02*
X119777952Y-88728438D01*
X119777952Y-88728438D02*
X119682714Y-88680819D01*
X119682714Y-88680819D02*
X119492238Y-88680819D01*
X119492238Y-88680819D02*
X119397000Y-88728438D01*
X119397000Y-88728438D02*
X119349381Y-88776057D01*
X119349381Y-88776057D02*
X119301762Y-88871295D01*
X119301762Y-88871295D02*
X119301762Y-89109390D01*
X119301762Y-89109390D02*
X119349381Y-89204628D01*
X119349381Y-89204628D02*
X119397000Y-89252247D01*
X119397000Y-89252247D02*
X119492238Y-89299866D01*
X119492238Y-89299866D02*
X119682714Y-89299866D01*
X119682714Y-89299866D02*
X119777952Y-89252247D01*
X119777952Y-89252247D02*
X119825571Y-89204628D01*
X119825571Y-89204628D02*
X119873190Y-89109390D01*
X120063667Y-89776057D02*
X120825571Y-89776057D01*
X120920810Y-88680819D02*
X121492238Y-88680819D01*
X121206524Y-89680819D02*
X121206524Y-88680819D01*
X122016048Y-88680819D02*
X122206524Y-88680819D01*
X122206524Y-88680819D02*
X122301762Y-88728438D01*
X122301762Y-88728438D02*
X122397000Y-88823676D01*
X122397000Y-88823676D02*
X122444619Y-89014152D01*
X122444619Y-89014152D02*
X122444619Y-89347485D01*
X122444619Y-89347485D02*
X122397000Y-89537961D01*
X122397000Y-89537961D02*
X122301762Y-89633200D01*
X122301762Y-89633200D02*
X122206524Y-89680819D01*
X122206524Y-89680819D02*
X122016048Y-89680819D01*
X122016048Y-89680819D02*
X121920810Y-89633200D01*
X121920810Y-89633200D02*
X121825572Y-89537961D01*
X121825572Y-89537961D02*
X121777953Y-89347485D01*
X121777953Y-89347485D02*
X121777953Y-89014152D01*
X121777953Y-89014152D02*
X121825572Y-88823676D01*
X121825572Y-88823676D02*
X121920810Y-88728438D01*
X121920810Y-88728438D02*
X122016048Y-88680819D01*
X122825572Y-88776057D02*
X122873191Y-88728438D01*
X122873191Y-88728438D02*
X122968429Y-88680819D01*
X122968429Y-88680819D02*
X123206524Y-88680819D01*
X123206524Y-88680819D02*
X123301762Y-88728438D01*
X123301762Y-88728438D02*
X123349381Y-88776057D01*
X123349381Y-88776057D02*
X123397000Y-88871295D01*
X123397000Y-88871295D02*
X123397000Y-88966533D01*
X123397000Y-88966533D02*
X123349381Y-89109390D01*
X123349381Y-89109390D02*
X122777953Y-89680819D01*
X122777953Y-89680819D02*
X123397000Y-89680819D01*
X123777953Y-88776057D02*
X123825572Y-88728438D01*
X123825572Y-88728438D02*
X123920810Y-88680819D01*
X123920810Y-88680819D02*
X124158905Y-88680819D01*
X124158905Y-88680819D02*
X124254143Y-88728438D01*
X124254143Y-88728438D02*
X124301762Y-88776057D01*
X124301762Y-88776057D02*
X124349381Y-88871295D01*
X124349381Y-88871295D02*
X124349381Y-88966533D01*
X124349381Y-88966533D02*
X124301762Y-89109390D01*
X124301762Y-89109390D02*
X123730334Y-89680819D01*
X123730334Y-89680819D02*
X124349381Y-89680819D01*
X124968429Y-88680819D02*
X125063667Y-88680819D01*
X125063667Y-88680819D02*
X125158905Y-88728438D01*
X125158905Y-88728438D02*
X125206524Y-88776057D01*
X125206524Y-88776057D02*
X125254143Y-88871295D01*
X125254143Y-88871295D02*
X125301762Y-89061771D01*
X125301762Y-89061771D02*
X125301762Y-89299866D01*
X125301762Y-89299866D02*
X125254143Y-89490342D01*
X125254143Y-89490342D02*
X125206524Y-89585580D01*
X125206524Y-89585580D02*
X125158905Y-89633200D01*
X125158905Y-89633200D02*
X125063667Y-89680819D01*
X125063667Y-89680819D02*
X124968429Y-89680819D01*
X124968429Y-89680819D02*
X124873191Y-89633200D01*
X124873191Y-89633200D02*
X124825572Y-89585580D01*
X124825572Y-89585580D02*
X124777953Y-89490342D01*
X124777953Y-89490342D02*
X124730334Y-89299866D01*
X124730334Y-89299866D02*
X124730334Y-89061771D01*
X124730334Y-89061771D02*
X124777953Y-88871295D01*
X124777953Y-88871295D02*
X124825572Y-88776057D01*
X124825572Y-88776057D02*
X124873191Y-88728438D01*
X124873191Y-88728438D02*
X124968429Y-88680819D01*
X120610095Y-64610819D02*
X120610095Y-65420342D01*
X120610095Y-65420342D02*
X120657714Y-65515580D01*
X120657714Y-65515580D02*
X120705333Y-65563200D01*
X120705333Y-65563200D02*
X120800571Y-65610819D01*
X120800571Y-65610819D02*
X120991047Y-65610819D01*
X120991047Y-65610819D02*
X121086285Y-65563200D01*
X121086285Y-65563200D02*
X121133904Y-65515580D01*
X121133904Y-65515580D02*
X121181523Y-65420342D01*
X121181523Y-65420342D02*
X121181523Y-64610819D01*
X122181523Y-65610819D02*
X121610095Y-65610819D01*
X121895809Y-65610819D02*
X121895809Y-64610819D01*
X121895809Y-64610819D02*
X121800571Y-64753676D01*
X121800571Y-64753676D02*
X121705333Y-64848914D01*
X121705333Y-64848914D02*
X121610095Y-64896533D01*
X141721819Y-55440285D02*
X141721819Y-56011713D01*
X141721819Y-55725999D02*
X140721819Y-55725999D01*
X140721819Y-55725999D02*
X140864676Y-55821237D01*
X140864676Y-55821237D02*
X140959914Y-55916475D01*
X140959914Y-55916475D02*
X141007533Y-56011713D01*
X141721819Y-55011713D02*
X140721819Y-55011713D01*
X141721819Y-54440285D02*
X141150390Y-54868856D01*
X140721819Y-54440285D02*
X141293247Y-55011713D01*
X139351819Y-55392666D02*
X138875628Y-55725999D01*
X139351819Y-55964094D02*
X138351819Y-55964094D01*
X138351819Y-55964094D02*
X138351819Y-55583142D01*
X138351819Y-55583142D02*
X138399438Y-55487904D01*
X138399438Y-55487904D02*
X138447057Y-55440285D01*
X138447057Y-55440285D02*
X138542295Y-55392666D01*
X138542295Y-55392666D02*
X138685152Y-55392666D01*
X138685152Y-55392666D02*
X138780390Y-55440285D01*
X138780390Y-55440285D02*
X138828009Y-55487904D01*
X138828009Y-55487904D02*
X138875628Y-55583142D01*
X138875628Y-55583142D02*
X138875628Y-55964094D01*
X138685152Y-54535523D02*
X139351819Y-54535523D01*
X138304200Y-54773618D02*
X139018485Y-55011713D01*
X139018485Y-55011713D02*
X139018485Y-54392666D01*
X127539856Y-89180819D02*
X126968428Y-89180819D01*
X127254142Y-89180819D02*
X127254142Y-88180819D01*
X127254142Y-88180819D02*
X127158904Y-88323676D01*
X127158904Y-88323676D02*
X127063666Y-88418914D01*
X127063666Y-88418914D02*
X126968428Y-88466533D01*
X128158904Y-88180819D02*
X128254142Y-88180819D01*
X128254142Y-88180819D02*
X128349380Y-88228438D01*
X128349380Y-88228438D02*
X128396999Y-88276057D01*
X128396999Y-88276057D02*
X128444618Y-88371295D01*
X128444618Y-88371295D02*
X128492237Y-88561771D01*
X128492237Y-88561771D02*
X128492237Y-88799866D01*
X128492237Y-88799866D02*
X128444618Y-88990342D01*
X128444618Y-88990342D02*
X128396999Y-89085580D01*
X128396999Y-89085580D02*
X128349380Y-89133200D01*
X128349380Y-89133200D02*
X128254142Y-89180819D01*
X128254142Y-89180819D02*
X128158904Y-89180819D01*
X128158904Y-89180819D02*
X128063666Y-89133200D01*
X128063666Y-89133200D02*
X128016047Y-89085580D01*
X128016047Y-89085580D02*
X127968428Y-88990342D01*
X127968428Y-88990342D02*
X127920809Y-88799866D01*
X127920809Y-88799866D02*
X127920809Y-88561771D01*
X127920809Y-88561771D02*
X127968428Y-88371295D01*
X127968428Y-88371295D02*
X128016047Y-88276057D01*
X128016047Y-88276057D02*
X128063666Y-88228438D01*
X128063666Y-88228438D02*
X128158904Y-88180819D01*
X129111285Y-88180819D02*
X129206523Y-88180819D01*
X129206523Y-88180819D02*
X129301761Y-88228438D01*
X129301761Y-88228438D02*
X129349380Y-88276057D01*
X129349380Y-88276057D02*
X129396999Y-88371295D01*
X129396999Y-88371295D02*
X129444618Y-88561771D01*
X129444618Y-88561771D02*
X129444618Y-88799866D01*
X129444618Y-88799866D02*
X129396999Y-88990342D01*
X129396999Y-88990342D02*
X129349380Y-89085580D01*
X129349380Y-89085580D02*
X129301761Y-89133200D01*
X129301761Y-89133200D02*
X129206523Y-89180819D01*
X129206523Y-89180819D02*
X129111285Y-89180819D01*
X129111285Y-89180819D02*
X129016047Y-89133200D01*
X129016047Y-89133200D02*
X128968428Y-89085580D01*
X128968428Y-89085580D02*
X128920809Y-88990342D01*
X128920809Y-88990342D02*
X128873190Y-88799866D01*
X128873190Y-88799866D02*
X128873190Y-88561771D01*
X128873190Y-88561771D02*
X128920809Y-88371295D01*
X128920809Y-88371295D02*
X128968428Y-88276057D01*
X128968428Y-88276057D02*
X129016047Y-88228438D01*
X129016047Y-88228438D02*
X129111285Y-88180819D01*
X129873190Y-88514152D02*
X129873190Y-89180819D01*
X129873190Y-88609390D02*
X129920809Y-88561771D01*
X129920809Y-88561771D02*
X130016047Y-88514152D01*
X130016047Y-88514152D02*
X130158904Y-88514152D01*
X130158904Y-88514152D02*
X130254142Y-88561771D01*
X130254142Y-88561771D02*
X130301761Y-88657009D01*
X130301761Y-88657009D02*
X130301761Y-89180819D01*
X130635095Y-88514152D02*
X131016047Y-88514152D01*
X130777952Y-89180819D02*
X130777952Y-88323676D01*
X130777952Y-88323676D02*
X130825571Y-88228438D01*
X130825571Y-88228438D02*
X130920809Y-88180819D01*
X130920809Y-88180819D02*
X131016047Y-88180819D01*
X131349381Y-88799866D02*
X132111286Y-88799866D01*
X132539857Y-88276057D02*
X132587476Y-88228438D01*
X132587476Y-88228438D02*
X132682714Y-88180819D01*
X132682714Y-88180819D02*
X132920809Y-88180819D01*
X132920809Y-88180819D02*
X133016047Y-88228438D01*
X133016047Y-88228438D02*
X133063666Y-88276057D01*
X133063666Y-88276057D02*
X133111285Y-88371295D01*
X133111285Y-88371295D02*
X133111285Y-88466533D01*
X133111285Y-88466533D02*
X133063666Y-88609390D01*
X133063666Y-88609390D02*
X132492238Y-89180819D01*
X132492238Y-89180819D02*
X133111285Y-89180819D01*
X134016047Y-88180819D02*
X133539857Y-88180819D01*
X133539857Y-88180819D02*
X133492238Y-88657009D01*
X133492238Y-88657009D02*
X133539857Y-88609390D01*
X133539857Y-88609390D02*
X133635095Y-88561771D01*
X133635095Y-88561771D02*
X133873190Y-88561771D01*
X133873190Y-88561771D02*
X133968428Y-88609390D01*
X133968428Y-88609390D02*
X134016047Y-88657009D01*
X134016047Y-88657009D02*
X134063666Y-88752247D01*
X134063666Y-88752247D02*
X134063666Y-88990342D01*
X134063666Y-88990342D02*
X134016047Y-89085580D01*
X134016047Y-89085580D02*
X133968428Y-89133200D01*
X133968428Y-89133200D02*
X133873190Y-89180819D01*
X133873190Y-89180819D02*
X133635095Y-89180819D01*
X133635095Y-89180819D02*
X133539857Y-89133200D01*
X133539857Y-89133200D02*
X133492238Y-89085580D01*
X134397000Y-88514152D02*
X134635095Y-89180819D01*
X134635095Y-89180819D02*
X134873190Y-88514152D01*
X132730333Y-84585580D02*
X132682714Y-84633200D01*
X132682714Y-84633200D02*
X132539857Y-84680819D01*
X132539857Y-84680819D02*
X132444619Y-84680819D01*
X132444619Y-84680819D02*
X132301762Y-84633200D01*
X132301762Y-84633200D02*
X132206524Y-84537961D01*
X132206524Y-84537961D02*
X132158905Y-84442723D01*
X132158905Y-84442723D02*
X132111286Y-84252247D01*
X132111286Y-84252247D02*
X132111286Y-84109390D01*
X132111286Y-84109390D02*
X132158905Y-83918914D01*
X132158905Y-83918914D02*
X132206524Y-83823676D01*
X132206524Y-83823676D02*
X132301762Y-83728438D01*
X132301762Y-83728438D02*
X132444619Y-83680819D01*
X132444619Y-83680819D02*
X132539857Y-83680819D01*
X132539857Y-83680819D02*
X132682714Y-83728438D01*
X132682714Y-83728438D02*
X132730333Y-83776057D01*
X133063667Y-83680819D02*
X133682714Y-83680819D01*
X133682714Y-83680819D02*
X133349381Y-84061771D01*
X133349381Y-84061771D02*
X133492238Y-84061771D01*
X133492238Y-84061771D02*
X133587476Y-84109390D01*
X133587476Y-84109390D02*
X133635095Y-84157009D01*
X133635095Y-84157009D02*
X133682714Y-84252247D01*
X133682714Y-84252247D02*
X133682714Y-84490342D01*
X133682714Y-84490342D02*
X133635095Y-84585580D01*
X133635095Y-84585580D02*
X133587476Y-84633200D01*
X133587476Y-84633200D02*
X133492238Y-84680819D01*
X133492238Y-84680819D02*
X133206524Y-84680819D01*
X133206524Y-84680819D02*
X133111286Y-84633200D01*
X133111286Y-84633200D02*
X133063667Y-84585580D01*
X155456104Y-64514095D02*
X155456104Y-64037905D01*
X155741819Y-64609333D02*
X154741819Y-64276000D01*
X154741819Y-64276000D02*
X155741819Y-63942667D01*
X155741819Y-63609333D02*
X155075152Y-63609333D01*
X155265628Y-63609333D02*
X155170390Y-63561714D01*
X155170390Y-63561714D02*
X155122771Y-63514095D01*
X155122771Y-63514095D02*
X155075152Y-63418857D01*
X155075152Y-63418857D02*
X155075152Y-63323619D01*
X155741819Y-62561714D02*
X154741819Y-62561714D01*
X155694200Y-62561714D02*
X155741819Y-62656952D01*
X155741819Y-62656952D02*
X155741819Y-62847428D01*
X155741819Y-62847428D02*
X155694200Y-62942666D01*
X155694200Y-62942666D02*
X155646580Y-62990285D01*
X155646580Y-62990285D02*
X155551342Y-63037904D01*
X155551342Y-63037904D02*
X155265628Y-63037904D01*
X155265628Y-63037904D02*
X155170390Y-62990285D01*
X155170390Y-62990285D02*
X155122771Y-62942666D01*
X155122771Y-62942666D02*
X155075152Y-62847428D01*
X155075152Y-62847428D02*
X155075152Y-62656952D01*
X155075152Y-62656952D02*
X155122771Y-62561714D01*
X155075152Y-61656952D02*
X155741819Y-61656952D01*
X155075152Y-62085523D02*
X155598961Y-62085523D01*
X155598961Y-62085523D02*
X155694200Y-62037904D01*
X155694200Y-62037904D02*
X155741819Y-61942666D01*
X155741819Y-61942666D02*
X155741819Y-61799809D01*
X155741819Y-61799809D02*
X155694200Y-61704571D01*
X155694200Y-61704571D02*
X155646580Y-61656952D01*
X155741819Y-61180761D02*
X155075152Y-61180761D01*
X154741819Y-61180761D02*
X154789438Y-61228380D01*
X154789438Y-61228380D02*
X154837057Y-61180761D01*
X154837057Y-61180761D02*
X154789438Y-61133142D01*
X154789438Y-61133142D02*
X154741819Y-61180761D01*
X154741819Y-61180761D02*
X154837057Y-61180761D01*
X155075152Y-60704571D02*
X155741819Y-60704571D01*
X155170390Y-60704571D02*
X155122771Y-60656952D01*
X155122771Y-60656952D02*
X155075152Y-60561714D01*
X155075152Y-60561714D02*
X155075152Y-60418857D01*
X155075152Y-60418857D02*
X155122771Y-60323619D01*
X155122771Y-60323619D02*
X155218009Y-60276000D01*
X155218009Y-60276000D02*
X155741819Y-60276000D01*
X155741819Y-59656952D02*
X155694200Y-59752190D01*
X155694200Y-59752190D02*
X155646580Y-59799809D01*
X155646580Y-59799809D02*
X155551342Y-59847428D01*
X155551342Y-59847428D02*
X155265628Y-59847428D01*
X155265628Y-59847428D02*
X155170390Y-59799809D01*
X155170390Y-59799809D02*
X155122771Y-59752190D01*
X155122771Y-59752190D02*
X155075152Y-59656952D01*
X155075152Y-59656952D02*
X155075152Y-59514095D01*
X155075152Y-59514095D02*
X155122771Y-59418857D01*
X155122771Y-59418857D02*
X155170390Y-59371238D01*
X155170390Y-59371238D02*
X155265628Y-59323619D01*
X155265628Y-59323619D02*
X155551342Y-59323619D01*
X155551342Y-59323619D02*
X155646580Y-59371238D01*
X155646580Y-59371238D02*
X155694200Y-59418857D01*
X155694200Y-59418857D02*
X155741819Y-59514095D01*
X155741819Y-59514095D02*
X155741819Y-59656952D01*
X155837057Y-59133143D02*
X155837057Y-58371238D01*
X155741819Y-58133142D02*
X154741819Y-58133142D01*
X154741819Y-58133142D02*
X155741819Y-57561714D01*
X155741819Y-57561714D02*
X154741819Y-57561714D01*
X155741819Y-56656952D02*
X155218009Y-56656952D01*
X155218009Y-56656952D02*
X155122771Y-56704571D01*
X155122771Y-56704571D02*
X155075152Y-56799809D01*
X155075152Y-56799809D02*
X155075152Y-56990285D01*
X155075152Y-56990285D02*
X155122771Y-57085523D01*
X155694200Y-56656952D02*
X155741819Y-56752190D01*
X155741819Y-56752190D02*
X155741819Y-56990285D01*
X155741819Y-56990285D02*
X155694200Y-57085523D01*
X155694200Y-57085523D02*
X155598961Y-57133142D01*
X155598961Y-57133142D02*
X155503723Y-57133142D01*
X155503723Y-57133142D02*
X155408485Y-57085523D01*
X155408485Y-57085523D02*
X155360866Y-56990285D01*
X155360866Y-56990285D02*
X155360866Y-56752190D01*
X155360866Y-56752190D02*
X155313247Y-56656952D01*
X155075152Y-56180761D02*
X155741819Y-56180761D01*
X155170390Y-56180761D02*
X155122771Y-56133142D01*
X155122771Y-56133142D02*
X155075152Y-56037904D01*
X155075152Y-56037904D02*
X155075152Y-55895047D01*
X155075152Y-55895047D02*
X155122771Y-55799809D01*
X155122771Y-55799809D02*
X155218009Y-55752190D01*
X155218009Y-55752190D02*
X155741819Y-55752190D01*
X155741819Y-55133142D02*
X155694200Y-55228380D01*
X155694200Y-55228380D02*
X155646580Y-55275999D01*
X155646580Y-55275999D02*
X155551342Y-55323618D01*
X155551342Y-55323618D02*
X155265628Y-55323618D01*
X155265628Y-55323618D02*
X155170390Y-55275999D01*
X155170390Y-55275999D02*
X155122771Y-55228380D01*
X155122771Y-55228380D02*
X155075152Y-55133142D01*
X155075152Y-55133142D02*
X155075152Y-54990285D01*
X155075152Y-54990285D02*
X155122771Y-54895047D01*
X155122771Y-54895047D02*
X155170390Y-54847428D01*
X155170390Y-54847428D02*
X155265628Y-54799809D01*
X155265628Y-54799809D02*
X155551342Y-54799809D01*
X155551342Y-54799809D02*
X155646580Y-54847428D01*
X155646580Y-54847428D02*
X155694200Y-54895047D01*
X155694200Y-54895047D02*
X155741819Y-54990285D01*
X155741819Y-54990285D02*
X155741819Y-55133142D01*
X155837057Y-54609333D02*
X155837057Y-53847428D01*
X155075152Y-53704570D02*
X155741819Y-53466475D01*
X155741819Y-53466475D02*
X155075152Y-53228380D01*
X154741819Y-52942665D02*
X154741819Y-52323618D01*
X154741819Y-52323618D02*
X155122771Y-52656951D01*
X155122771Y-52656951D02*
X155122771Y-52514094D01*
X155122771Y-52514094D02*
X155170390Y-52418856D01*
X155170390Y-52418856D02*
X155218009Y-52371237D01*
X155218009Y-52371237D02*
X155313247Y-52323618D01*
X155313247Y-52323618D02*
X155551342Y-52323618D01*
X155551342Y-52323618D02*
X155646580Y-52371237D01*
X155646580Y-52371237D02*
X155694200Y-52418856D01*
X155694200Y-52418856D02*
X155741819Y-52514094D01*
X155741819Y-52514094D02*
X155741819Y-52799808D01*
X155741819Y-52799808D02*
X155694200Y-52895046D01*
X155694200Y-52895046D02*
X155646580Y-52942665D01*
X155646580Y-51895046D02*
X155694200Y-51847427D01*
X155694200Y-51847427D02*
X155741819Y-51895046D01*
X155741819Y-51895046D02*
X155694200Y-51942665D01*
X155694200Y-51942665D02*
X155646580Y-51895046D01*
X155646580Y-51895046D02*
X155741819Y-51895046D01*
X155741819Y-51514094D02*
X155075152Y-50990285D01*
X155075152Y-51514094D02*
X155741819Y-50990285D01*
X152916104Y-58490285D02*
X152916104Y-58014095D01*
X153201819Y-58585523D02*
X152201819Y-58252190D01*
X152201819Y-58252190D02*
X153201819Y-57918857D01*
X153201819Y-57061714D02*
X153201819Y-57633142D01*
X153201819Y-57347428D02*
X152201819Y-57347428D01*
X152201819Y-57347428D02*
X152344676Y-57442666D01*
X152344676Y-57442666D02*
X152439914Y-57537904D01*
X152439914Y-57537904D02*
X152487533Y-57633142D01*
X98516047Y-87180819D02*
X97944619Y-87180819D01*
X98230333Y-87180819D02*
X98230333Y-86180819D01*
X98230333Y-86180819D02*
X98135095Y-86323676D01*
X98135095Y-86323676D02*
X98039857Y-86418914D01*
X98039857Y-86418914D02*
X97944619Y-86466533D01*
X99135095Y-86180819D02*
X99230333Y-86180819D01*
X99230333Y-86180819D02*
X99325571Y-86228438D01*
X99325571Y-86228438D02*
X99373190Y-86276057D01*
X99373190Y-86276057D02*
X99420809Y-86371295D01*
X99420809Y-86371295D02*
X99468428Y-86561771D01*
X99468428Y-86561771D02*
X99468428Y-86799866D01*
X99468428Y-86799866D02*
X99420809Y-86990342D01*
X99420809Y-86990342D02*
X99373190Y-87085580D01*
X99373190Y-87085580D02*
X99325571Y-87133200D01*
X99325571Y-87133200D02*
X99230333Y-87180819D01*
X99230333Y-87180819D02*
X99135095Y-87180819D01*
X99135095Y-87180819D02*
X99039857Y-87133200D01*
X99039857Y-87133200D02*
X98992238Y-87085580D01*
X98992238Y-87085580D02*
X98944619Y-86990342D01*
X98944619Y-86990342D02*
X98897000Y-86799866D01*
X98897000Y-86799866D02*
X98897000Y-86561771D01*
X98897000Y-86561771D02*
X98944619Y-86371295D01*
X98944619Y-86371295D02*
X98992238Y-86276057D01*
X98992238Y-86276057D02*
X99039857Y-86228438D01*
X99039857Y-86228438D02*
X99135095Y-86180819D01*
X100325571Y-86514152D02*
X100325571Y-87180819D01*
X99897000Y-86514152D02*
X99897000Y-87037961D01*
X99897000Y-87037961D02*
X99944619Y-87133200D01*
X99944619Y-87133200D02*
X100039857Y-87180819D01*
X100039857Y-87180819D02*
X100182714Y-87180819D01*
X100182714Y-87180819D02*
X100277952Y-87133200D01*
X100277952Y-87133200D02*
X100325571Y-87085580D01*
X100658905Y-86514152D02*
X101039857Y-86514152D01*
X100801762Y-87180819D02*
X100801762Y-86323676D01*
X100801762Y-86323676D02*
X100849381Y-86228438D01*
X100849381Y-86228438D02*
X100944619Y-86180819D01*
X100944619Y-86180819D02*
X101039857Y-86180819D01*
X101373191Y-86799866D02*
X102135096Y-86799866D01*
X102563667Y-86276057D02*
X102611286Y-86228438D01*
X102611286Y-86228438D02*
X102706524Y-86180819D01*
X102706524Y-86180819D02*
X102944619Y-86180819D01*
X102944619Y-86180819D02*
X103039857Y-86228438D01*
X103039857Y-86228438D02*
X103087476Y-86276057D01*
X103087476Y-86276057D02*
X103135095Y-86371295D01*
X103135095Y-86371295D02*
X103135095Y-86466533D01*
X103135095Y-86466533D02*
X103087476Y-86609390D01*
X103087476Y-86609390D02*
X102516048Y-87180819D01*
X102516048Y-87180819D02*
X103135095Y-87180819D01*
X104039857Y-86180819D02*
X103563667Y-86180819D01*
X103563667Y-86180819D02*
X103516048Y-86657009D01*
X103516048Y-86657009D02*
X103563667Y-86609390D01*
X103563667Y-86609390D02*
X103658905Y-86561771D01*
X103658905Y-86561771D02*
X103897000Y-86561771D01*
X103897000Y-86561771D02*
X103992238Y-86609390D01*
X103992238Y-86609390D02*
X104039857Y-86657009D01*
X104039857Y-86657009D02*
X104087476Y-86752247D01*
X104087476Y-86752247D02*
X104087476Y-86990342D01*
X104087476Y-86990342D02*
X104039857Y-87085580D01*
X104039857Y-87085580D02*
X103992238Y-87133200D01*
X103992238Y-87133200D02*
X103897000Y-87180819D01*
X103897000Y-87180819D02*
X103658905Y-87180819D01*
X103658905Y-87180819D02*
X103563667Y-87133200D01*
X103563667Y-87133200D02*
X103516048Y-87085580D01*
X104420810Y-86514152D02*
X104658905Y-87180819D01*
X104658905Y-87180819D02*
X104897000Y-86514152D01*
X94230333Y-89585580D02*
X94182714Y-89633200D01*
X94182714Y-89633200D02*
X94039857Y-89680819D01*
X94039857Y-89680819D02*
X93944619Y-89680819D01*
X93944619Y-89680819D02*
X93801762Y-89633200D01*
X93801762Y-89633200D02*
X93706524Y-89537961D01*
X93706524Y-89537961D02*
X93658905Y-89442723D01*
X93658905Y-89442723D02*
X93611286Y-89252247D01*
X93611286Y-89252247D02*
X93611286Y-89109390D01*
X93611286Y-89109390D02*
X93658905Y-88918914D01*
X93658905Y-88918914D02*
X93706524Y-88823676D01*
X93706524Y-88823676D02*
X93801762Y-88728438D01*
X93801762Y-88728438D02*
X93944619Y-88680819D01*
X93944619Y-88680819D02*
X94039857Y-88680819D01*
X94039857Y-88680819D02*
X94182714Y-88728438D01*
X94182714Y-88728438D02*
X94230333Y-88776057D01*
X95135095Y-88680819D02*
X94658905Y-88680819D01*
X94658905Y-88680819D02*
X94611286Y-89157009D01*
X94611286Y-89157009D02*
X94658905Y-89109390D01*
X94658905Y-89109390D02*
X94754143Y-89061771D01*
X94754143Y-89061771D02*
X94992238Y-89061771D01*
X94992238Y-89061771D02*
X95087476Y-89109390D01*
X95087476Y-89109390D02*
X95135095Y-89157009D01*
X95135095Y-89157009D02*
X95182714Y-89252247D01*
X95182714Y-89252247D02*
X95182714Y-89490342D01*
X95182714Y-89490342D02*
X95135095Y-89585580D01*
X95135095Y-89585580D02*
X95087476Y-89633200D01*
X95087476Y-89633200D02*
X94992238Y-89680819D01*
X94992238Y-89680819D02*
X94754143Y-89680819D01*
X94754143Y-89680819D02*
X94658905Y-89633200D01*
X94658905Y-89633200D02*
X94611286Y-89585580D01*
X145468428Y-90514152D02*
X145468428Y-91180819D01*
X145230333Y-90133200D02*
X144992238Y-90847485D01*
X144992238Y-90847485D02*
X145611285Y-90847485D01*
X145992238Y-91085580D02*
X146039857Y-91133200D01*
X146039857Y-91133200D02*
X145992238Y-91180819D01*
X145992238Y-91180819D02*
X145944619Y-91133200D01*
X145944619Y-91133200D02*
X145992238Y-91085580D01*
X145992238Y-91085580D02*
X145992238Y-91180819D01*
X146373190Y-90180819D02*
X147039856Y-90180819D01*
X147039856Y-90180819D02*
X146611285Y-91180819D01*
X147420809Y-91180819D02*
X147420809Y-90180819D01*
X147516047Y-90799866D02*
X147801761Y-91180819D01*
X147801761Y-90514152D02*
X147420809Y-90895104D01*
X146230333Y-88680819D02*
X145897000Y-88204628D01*
X145658905Y-88680819D02*
X145658905Y-87680819D01*
X145658905Y-87680819D02*
X146039857Y-87680819D01*
X146039857Y-87680819D02*
X146135095Y-87728438D01*
X146135095Y-87728438D02*
X146182714Y-87776057D01*
X146182714Y-87776057D02*
X146230333Y-87871295D01*
X146230333Y-87871295D02*
X146230333Y-88014152D01*
X146230333Y-88014152D02*
X146182714Y-88109390D01*
X146182714Y-88109390D02*
X146135095Y-88157009D01*
X146135095Y-88157009D02*
X146039857Y-88204628D01*
X146039857Y-88204628D02*
X145658905Y-88204628D01*
X146563667Y-87680819D02*
X147182714Y-87680819D01*
X147182714Y-87680819D02*
X146849381Y-88061771D01*
X146849381Y-88061771D02*
X146992238Y-88061771D01*
X146992238Y-88061771D02*
X147087476Y-88109390D01*
X147087476Y-88109390D02*
X147135095Y-88157009D01*
X147135095Y-88157009D02*
X147182714Y-88252247D01*
X147182714Y-88252247D02*
X147182714Y-88490342D01*
X147182714Y-88490342D02*
X147135095Y-88585580D01*
X147135095Y-88585580D02*
X147087476Y-88633200D01*
X147087476Y-88633200D02*
X146992238Y-88680819D01*
X146992238Y-88680819D02*
X146706524Y-88680819D01*
X146706524Y-88680819D02*
X146611286Y-88633200D01*
X146611286Y-88633200D02*
X146563667Y-88585580D01*
D13*
%TO.C,D4*%
X136392000Y-63756306D02*
X136392000Y-66695694D01*
X136391984Y-66695666D02*
G75*
G03*
X136392000Y-63756306I2500016J1469666D01*
G01*
X141392000Y-65226000D02*
G75*
G03*
X141392000Y-65226000I-2500000J0D01*
G01*
D14*
%TO.C,J9*%
X150257000Y-92476000D02*
X150257000Y-101976000D01*
X150257000Y-101976000D02*
X150857000Y-101976000D01*
X150857000Y-92476000D02*
X150257000Y-92476000D01*
X150857000Y-92476000D02*
X166097000Y-92476000D01*
X150857000Y-101976000D02*
X150857000Y-92476000D01*
X166097000Y-92476000D02*
X166097000Y-101976000D01*
X166097000Y-101976000D02*
X150857000Y-101976000D01*
D13*
%TO.C,C4*%
X86263395Y-88138500D02*
X86763395Y-88138500D01*
X86513395Y-87888500D02*
X86513395Y-88388500D01*
X90897000Y-89226000D02*
G75*
G03*
X90897000Y-89226000I-2500000J0D01*
G01*
%TO.C,TR1*%
X104897000Y-84226000D02*
X73897000Y-84226000D01*
X104897000Y-56226000D02*
X104897000Y-84226000D01*
X100897000Y-81226000D02*
X100897000Y-59226000D01*
X100897000Y-59226000D02*
X77897000Y-59226000D01*
X77897000Y-81226000D02*
X100897000Y-81226000D01*
X77897000Y-59226000D02*
X77897000Y-81226000D01*
X73897000Y-84226000D02*
X73897000Y-56226000D01*
X73897000Y-56226000D02*
X104897000Y-56226000D01*
%TO.C,R1*%
X139397000Y-40036000D02*
X139397000Y-39376000D01*
X138147000Y-39376000D02*
X140647000Y-39376000D01*
X140647000Y-39376000D02*
X140647000Y-33076000D01*
X138147000Y-33076000D02*
X138147000Y-39376000D01*
X140647000Y-33076000D02*
X138147000Y-33076000D01*
X139397000Y-32416000D02*
X139397000Y-33076000D01*
%TO.C,J8*%
X94667000Y-101901000D02*
X94032000Y-102536000D01*
X94667000Y-94916000D02*
X94667000Y-101901000D01*
X94032000Y-102536000D02*
X92127000Y-102536000D01*
X92127000Y-102536000D02*
X92127000Y-94916000D01*
X92127000Y-94916000D02*
X94667000Y-94916000D01*
%TO.C,D3*%
X136627000Y-43756306D02*
X136627000Y-46695694D01*
X136626984Y-46695666D02*
G75*
G03*
X136627000Y-43756306I2500016J1469666D01*
G01*
X141627000Y-45226000D02*
G75*
G03*
X141627000Y-45226000I-2500000J0D01*
G01*
%TO.C,J7*%
X88167000Y-101901000D02*
X87532000Y-102536000D01*
X88167000Y-94916000D02*
X88167000Y-101901000D01*
X87532000Y-102536000D02*
X85627000Y-102536000D01*
X85627000Y-102536000D02*
X85627000Y-94916000D01*
X85627000Y-94916000D02*
X88167000Y-94916000D01*
%TO.C,C1*%
X119840781Y-36498500D02*
X121540781Y-36498500D01*
X120690781Y-35648500D02*
X120690781Y-37348500D01*
X135647000Y-40226000D02*
G75*
G03*
X135647000Y-40226000I-8500000J0D01*
G01*
D14*
%TO.C,J6*%
X115177000Y-91976000D02*
X115177000Y-101476000D01*
X115177000Y-101476000D02*
X115777000Y-101476000D01*
X115777000Y-91976000D02*
X115177000Y-91976000D01*
X115777000Y-91976000D02*
X131017000Y-91976000D01*
X115777000Y-101476000D02*
X115777000Y-91976000D01*
X131017000Y-91976000D02*
X131017000Y-101476000D01*
X131017000Y-101476000D02*
X115777000Y-101476000D01*
%TO.C,J2*%
X66257000Y-91476000D02*
X66257000Y-100976000D01*
X66257000Y-100976000D02*
X66857000Y-100976000D01*
X66857000Y-91476000D02*
X66257000Y-91476000D01*
X66857000Y-91476000D02*
X82097000Y-91476000D01*
X66857000Y-100976000D02*
X66857000Y-91476000D01*
X82097000Y-91476000D02*
X82097000Y-100976000D01*
X82097000Y-100976000D02*
X66857000Y-100976000D01*
D13*
%TO.C,R5*%
X70897000Y-89226000D02*
X71557000Y-89226000D01*
X71557000Y-87976000D02*
X71557000Y-90476000D01*
X71557000Y-90476000D02*
X77857000Y-90476000D01*
X77857000Y-87976000D02*
X71557000Y-87976000D01*
X77857000Y-90476000D02*
X77857000Y-87976000D01*
X78517000Y-89226000D02*
X77857000Y-89226000D01*
D14*
%TO.C,J5*%
X97677000Y-91976000D02*
X97677000Y-101476000D01*
X97677000Y-101476000D02*
X98277000Y-101476000D01*
X98277000Y-91976000D02*
X97677000Y-91976000D01*
X98277000Y-91976000D02*
X113517000Y-91976000D01*
X98277000Y-101476000D02*
X98277000Y-91976000D01*
X113517000Y-91976000D02*
X113517000Y-101476000D01*
X113517000Y-101476000D02*
X98277000Y-101476000D01*
D13*
%TO.C,R2*%
X154277000Y-88226000D02*
X154937000Y-88226000D01*
X154937000Y-86976000D02*
X154937000Y-89476000D01*
X154937000Y-89476000D02*
X161237000Y-89476000D01*
X161237000Y-86976000D02*
X154937000Y-86976000D01*
X161237000Y-89476000D02*
X161237000Y-86976000D01*
X161897000Y-88226000D02*
X161237000Y-88226000D01*
D15*
%TO.C,D1*%
X108475000Y-41142000D02*
X108475000Y-35300000D01*
X108467646Y-41135115D02*
G75*
G03*
X108472001Y-35301001I3944354J2914115D01*
G01*
D13*
%TO.C,F1*%
X78147000Y-44926000D02*
X78147000Y-54526000D01*
X78147000Y-54526000D02*
X100647000Y-54526000D01*
X100647000Y-44926000D02*
X78147000Y-44926000D01*
X100647000Y-54526000D02*
X100647000Y-44926000D01*
D14*
%TO.C,J3*%
X132757000Y-92476000D02*
X132757000Y-101976000D01*
X132757000Y-101976000D02*
X133357000Y-101976000D01*
X133357000Y-92476000D02*
X132757000Y-92476000D01*
X133357000Y-92476000D02*
X148597000Y-92476000D01*
X133357000Y-101976000D02*
X133357000Y-92476000D01*
X148597000Y-92476000D02*
X148597000Y-101976000D01*
X148597000Y-101976000D02*
X133357000Y-101976000D01*
%TO.C,J4*%
X90757000Y-33476000D02*
X90757000Y-42976000D01*
X90757000Y-42976000D02*
X91357000Y-42976000D01*
X91357000Y-33476000D02*
X90757000Y-33476000D01*
X91357000Y-33476000D02*
X106597000Y-33476000D01*
X91357000Y-42976000D02*
X91357000Y-33476000D01*
X106597000Y-33476000D02*
X106597000Y-42976000D01*
X106597000Y-42976000D02*
X91357000Y-42976000D01*
D13*
%TO.C,C2*%
X109397000Y-46976000D02*
X109397000Y-49476000D01*
X109397000Y-49476000D02*
X116397000Y-49476000D01*
X116397000Y-46976000D02*
X109397000Y-46976000D01*
X116397000Y-49476000D02*
X116397000Y-46976000D01*
%TO.C,D2*%
X137897000Y-85306000D02*
X137897000Y-82826000D01*
X136547000Y-82826000D02*
X139247000Y-82826000D01*
X139247000Y-82826000D02*
X139247000Y-77626000D01*
X136547000Y-82146000D02*
X139247000Y-82146000D01*
X136547000Y-82046000D02*
X139247000Y-82046000D01*
X136547000Y-81946000D02*
X139247000Y-81946000D01*
X136547000Y-77626000D02*
X136547000Y-82826000D01*
X139247000Y-77626000D02*
X136547000Y-77626000D01*
X137897000Y-75146000D02*
X137897000Y-77626000D01*
D14*
%TO.C,J1*%
X73177000Y-33476000D02*
X73177000Y-42976000D01*
X73177000Y-42976000D02*
X73777000Y-42976000D01*
X73777000Y-33476000D02*
X73177000Y-33476000D01*
X73777000Y-33476000D02*
X89017000Y-33476000D01*
X73777000Y-42976000D02*
X73777000Y-33476000D01*
X89017000Y-33476000D02*
X89017000Y-42976000D01*
X89017000Y-42976000D02*
X73777000Y-42976000D01*
D15*
%TO.C,U1*%
X115747000Y-66781000D02*
X115747000Y-81656000D01*
X115747000Y-66781000D02*
X125797000Y-66781000D01*
X115747000Y-81656000D02*
X125797000Y-81656000D01*
X125797000Y-66781000D02*
X125797000Y-81656000D01*
D13*
X122732000Y-69656000D02*
G75*
G03*
X122732000Y-69656000I-1850000J0D01*
G01*
%TO.C,R4*%
X138897000Y-59036000D02*
X138897000Y-58376000D01*
X137647000Y-58376000D02*
X140147000Y-58376000D01*
X140147000Y-58376000D02*
X140147000Y-52076000D01*
X137647000Y-52076000D02*
X137647000Y-58376000D01*
X140147000Y-52076000D02*
X137647000Y-52076000D01*
X138897000Y-51416000D02*
X138897000Y-52076000D01*
%TO.C,C3*%
X128397000Y-84976000D02*
X128397000Y-87476000D01*
X128397000Y-87476000D02*
X133397000Y-87476000D01*
X133397000Y-84976000D02*
X128397000Y-84976000D01*
X133397000Y-87476000D02*
X133397000Y-84976000D01*
%TO.C,A1*%
X145127000Y-36186000D02*
X146397000Y-34916000D01*
X145127000Y-78096000D02*
X145127000Y-36186000D01*
X146397000Y-34916000D02*
X162907000Y-34916000D01*
X150207000Y-70476000D02*
X157827000Y-70476000D01*
X150207000Y-80636000D02*
X150207000Y-70476000D01*
X157827000Y-70476000D02*
X157827000Y-80636000D01*
X157827000Y-80636000D02*
X150207000Y-80636000D01*
X162907000Y-34916000D02*
X162907000Y-78096000D01*
X162907000Y-78096000D02*
X145127000Y-78096000D01*
%TO.C,C5*%
X92263395Y-88138500D02*
X92763395Y-88138500D01*
X92513395Y-87888500D02*
X92513395Y-88388500D01*
X96897000Y-89226000D02*
G75*
G03*
X96897000Y-89226000I-2500000J0D01*
G01*
%TO.C,R3*%
X150207000Y-88226000D02*
X149547000Y-88226000D01*
X149547000Y-89476000D02*
X149547000Y-86976000D01*
X149547000Y-86976000D02*
X143247000Y-86976000D01*
X143247000Y-89476000D02*
X149547000Y-89476000D01*
X143247000Y-86976000D02*
X143247000Y-89476000D01*
X142587000Y-88226000D02*
X143247000Y-88226000D01*
%TD*%
M02*
