%TF.GenerationSoftware,KiCad,Pcbnew,7.0.9*%
%TF.CreationDate,2024-05-06T10:06:53+02:00*%
%TF.ProjectId,Kicad_Passage_A_niveau_Stockage,4b696361-645f-4506-9173-736167655f41,rev?*%
%TF.SameCoordinates,Original*%
%TF.FileFunction,Drillmap*%
%TF.FilePolarity,Positive*%
%FSLAX45Y45*%
G04 Gerber Fmt 4.5, Leading zero omitted, Abs format (unit mm)*
G04 Created by KiCad (PCBNEW 7.0.9) date 2024-05-06 10:06:53*
%MOMM*%
%LPD*%
G01*
G04 APERTURE LIST*
%ADD10C,0.100000*%
%ADD11C,0.200000*%
%ADD12C,0.350000*%
G04 APERTURE END LIST*
D10*
X17039700Y-10872600D02*
X6489700Y-10872600D01*
X6489700Y-3072600D01*
X17039700Y-3072600D01*
X17039700Y-10872600D01*
D11*
D12*
X11914700Y-6793100D02*
X12264700Y-7143100D01*
X12264700Y-6793100D02*
X11914700Y-7143100D01*
D11*
X6745477Y-11189084D02*
X6745477Y-10989084D01*
X6745477Y-10989084D02*
X6793096Y-10989084D01*
X6793096Y-10989084D02*
X6821667Y-10998608D01*
X6821667Y-10998608D02*
X6840715Y-11017655D01*
X6840715Y-11017655D02*
X6850239Y-11036703D01*
X6850239Y-11036703D02*
X6859762Y-11074798D01*
X6859762Y-11074798D02*
X6859762Y-11103370D01*
X6859762Y-11103370D02*
X6850239Y-11141465D01*
X6850239Y-11141465D02*
X6840715Y-11160512D01*
X6840715Y-11160512D02*
X6821667Y-11179560D01*
X6821667Y-11179560D02*
X6793096Y-11189084D01*
X6793096Y-11189084D02*
X6745477Y-11189084D01*
X6945477Y-11189084D02*
X6945477Y-11055750D01*
X6945477Y-11093846D02*
X6955001Y-11074798D01*
X6955001Y-11074798D02*
X6964524Y-11065274D01*
X6964524Y-11065274D02*
X6983572Y-11055750D01*
X6983572Y-11055750D02*
X7002620Y-11055750D01*
X7069286Y-11189084D02*
X7069286Y-11055750D01*
X7069286Y-10989084D02*
X7059762Y-10998608D01*
X7059762Y-10998608D02*
X7069286Y-11008131D01*
X7069286Y-11008131D02*
X7078810Y-10998608D01*
X7078810Y-10998608D02*
X7069286Y-10989084D01*
X7069286Y-10989084D02*
X7069286Y-11008131D01*
X7193096Y-11189084D02*
X7174048Y-11179560D01*
X7174048Y-11179560D02*
X7164524Y-11160512D01*
X7164524Y-11160512D02*
X7164524Y-10989084D01*
X7297858Y-11189084D02*
X7278810Y-11179560D01*
X7278810Y-11179560D02*
X7269286Y-11160512D01*
X7269286Y-11160512D02*
X7269286Y-10989084D01*
X7526429Y-11189084D02*
X7526429Y-10989084D01*
X7526429Y-10989084D02*
X7593096Y-11131941D01*
X7593096Y-11131941D02*
X7659762Y-10989084D01*
X7659762Y-10989084D02*
X7659762Y-11189084D01*
X7840715Y-11189084D02*
X7840715Y-11084322D01*
X7840715Y-11084322D02*
X7831191Y-11065274D01*
X7831191Y-11065274D02*
X7812143Y-11055750D01*
X7812143Y-11055750D02*
X7774048Y-11055750D01*
X7774048Y-11055750D02*
X7755001Y-11065274D01*
X7840715Y-11179560D02*
X7821667Y-11189084D01*
X7821667Y-11189084D02*
X7774048Y-11189084D01*
X7774048Y-11189084D02*
X7755001Y-11179560D01*
X7755001Y-11179560D02*
X7745477Y-11160512D01*
X7745477Y-11160512D02*
X7745477Y-11141465D01*
X7745477Y-11141465D02*
X7755001Y-11122417D01*
X7755001Y-11122417D02*
X7774048Y-11112893D01*
X7774048Y-11112893D02*
X7821667Y-11112893D01*
X7821667Y-11112893D02*
X7840715Y-11103370D01*
X7935953Y-11055750D02*
X7935953Y-11255750D01*
X7935953Y-11065274D02*
X7955001Y-11055750D01*
X7955001Y-11055750D02*
X7993096Y-11055750D01*
X7993096Y-11055750D02*
X8012143Y-11065274D01*
X8012143Y-11065274D02*
X8021667Y-11074798D01*
X8021667Y-11074798D02*
X8031191Y-11093846D01*
X8031191Y-11093846D02*
X8031191Y-11150989D01*
X8031191Y-11150989D02*
X8021667Y-11170036D01*
X8021667Y-11170036D02*
X8012143Y-11179560D01*
X8012143Y-11179560D02*
X7993096Y-11189084D01*
X7993096Y-11189084D02*
X7955001Y-11189084D01*
X7955001Y-11189084D02*
X7935953Y-11179560D01*
X8116905Y-11170036D02*
X8126429Y-11179560D01*
X8126429Y-11179560D02*
X8116905Y-11189084D01*
X8116905Y-11189084D02*
X8107382Y-11179560D01*
X8107382Y-11179560D02*
X8116905Y-11170036D01*
X8116905Y-11170036D02*
X8116905Y-11189084D01*
X8116905Y-11065274D02*
X8126429Y-11074798D01*
X8126429Y-11074798D02*
X8116905Y-11084322D01*
X8116905Y-11084322D02*
X8107382Y-11074798D01*
X8107382Y-11074798D02*
X8116905Y-11065274D01*
X8116905Y-11065274D02*
X8116905Y-11084322D01*
X6284700Y-11417600D02*
X6484700Y-11617600D01*
X6484700Y-11417600D02*
X6284700Y-11617600D01*
X6726429Y-11409084D02*
X6850239Y-11409084D01*
X6850239Y-11409084D02*
X6783572Y-11485274D01*
X6783572Y-11485274D02*
X6812143Y-11485274D01*
X6812143Y-11485274D02*
X6831191Y-11494798D01*
X6831191Y-11494798D02*
X6840715Y-11504322D01*
X6840715Y-11504322D02*
X6850239Y-11523369D01*
X6850239Y-11523369D02*
X6850239Y-11570988D01*
X6850239Y-11570988D02*
X6840715Y-11590036D01*
X6840715Y-11590036D02*
X6831191Y-11599560D01*
X6831191Y-11599560D02*
X6812143Y-11609084D01*
X6812143Y-11609084D02*
X6755001Y-11609084D01*
X6755001Y-11609084D02*
X6735953Y-11599560D01*
X6735953Y-11599560D02*
X6726429Y-11590036D01*
X6935953Y-11590036D02*
X6945477Y-11599560D01*
X6945477Y-11599560D02*
X6935953Y-11609084D01*
X6935953Y-11609084D02*
X6926429Y-11599560D01*
X6926429Y-11599560D02*
X6935953Y-11590036D01*
X6935953Y-11590036D02*
X6935953Y-11609084D01*
X7126429Y-11409084D02*
X7031191Y-11409084D01*
X7031191Y-11409084D02*
X7021667Y-11504322D01*
X7021667Y-11504322D02*
X7031191Y-11494798D01*
X7031191Y-11494798D02*
X7050239Y-11485274D01*
X7050239Y-11485274D02*
X7097858Y-11485274D01*
X7097858Y-11485274D02*
X7116905Y-11494798D01*
X7116905Y-11494798D02*
X7126429Y-11504322D01*
X7126429Y-11504322D02*
X7135953Y-11523369D01*
X7135953Y-11523369D02*
X7135953Y-11570988D01*
X7135953Y-11570988D02*
X7126429Y-11590036D01*
X7126429Y-11590036D02*
X7116905Y-11599560D01*
X7116905Y-11599560D02*
X7097858Y-11609084D01*
X7097858Y-11609084D02*
X7050239Y-11609084D01*
X7050239Y-11609084D02*
X7031191Y-11599560D01*
X7031191Y-11599560D02*
X7021667Y-11590036D01*
X7259762Y-11409084D02*
X7278810Y-11409084D01*
X7278810Y-11409084D02*
X7297858Y-11418608D01*
X7297858Y-11418608D02*
X7307382Y-11428131D01*
X7307382Y-11428131D02*
X7316905Y-11447179D01*
X7316905Y-11447179D02*
X7326429Y-11485274D01*
X7326429Y-11485274D02*
X7326429Y-11532893D01*
X7326429Y-11532893D02*
X7316905Y-11570988D01*
X7316905Y-11570988D02*
X7307382Y-11590036D01*
X7307382Y-11590036D02*
X7297858Y-11599560D01*
X7297858Y-11599560D02*
X7278810Y-11609084D01*
X7278810Y-11609084D02*
X7259762Y-11609084D01*
X7259762Y-11609084D02*
X7240715Y-11599560D01*
X7240715Y-11599560D02*
X7231191Y-11590036D01*
X7231191Y-11590036D02*
X7221667Y-11570988D01*
X7221667Y-11570988D02*
X7212143Y-11532893D01*
X7212143Y-11532893D02*
X7212143Y-11485274D01*
X7212143Y-11485274D02*
X7221667Y-11447179D01*
X7221667Y-11447179D02*
X7231191Y-11428131D01*
X7231191Y-11428131D02*
X7240715Y-11418608D01*
X7240715Y-11418608D02*
X7259762Y-11409084D01*
X7450239Y-11409084D02*
X7469286Y-11409084D01*
X7469286Y-11409084D02*
X7488334Y-11418608D01*
X7488334Y-11418608D02*
X7497858Y-11428131D01*
X7497858Y-11428131D02*
X7507382Y-11447179D01*
X7507382Y-11447179D02*
X7516905Y-11485274D01*
X7516905Y-11485274D02*
X7516905Y-11532893D01*
X7516905Y-11532893D02*
X7507382Y-11570988D01*
X7507382Y-11570988D02*
X7497858Y-11590036D01*
X7497858Y-11590036D02*
X7488334Y-11599560D01*
X7488334Y-11599560D02*
X7469286Y-11609084D01*
X7469286Y-11609084D02*
X7450239Y-11609084D01*
X7450239Y-11609084D02*
X7431191Y-11599560D01*
X7431191Y-11599560D02*
X7421667Y-11590036D01*
X7421667Y-11590036D02*
X7412143Y-11570988D01*
X7412143Y-11570988D02*
X7402620Y-11532893D01*
X7402620Y-11532893D02*
X7402620Y-11485274D01*
X7402620Y-11485274D02*
X7412143Y-11447179D01*
X7412143Y-11447179D02*
X7421667Y-11428131D01*
X7421667Y-11428131D02*
X7431191Y-11418608D01*
X7431191Y-11418608D02*
X7450239Y-11409084D01*
X7602620Y-11609084D02*
X7602620Y-11475750D01*
X7602620Y-11494798D02*
X7612143Y-11485274D01*
X7612143Y-11485274D02*
X7631191Y-11475750D01*
X7631191Y-11475750D02*
X7659763Y-11475750D01*
X7659763Y-11475750D02*
X7678810Y-11485274D01*
X7678810Y-11485274D02*
X7688334Y-11504322D01*
X7688334Y-11504322D02*
X7688334Y-11609084D01*
X7688334Y-11504322D02*
X7697858Y-11485274D01*
X7697858Y-11485274D02*
X7716905Y-11475750D01*
X7716905Y-11475750D02*
X7745477Y-11475750D01*
X7745477Y-11475750D02*
X7764524Y-11485274D01*
X7764524Y-11485274D02*
X7774048Y-11504322D01*
X7774048Y-11504322D02*
X7774048Y-11609084D01*
X7869286Y-11609084D02*
X7869286Y-11475750D01*
X7869286Y-11494798D02*
X7878810Y-11485274D01*
X7878810Y-11485274D02*
X7897858Y-11475750D01*
X7897858Y-11475750D02*
X7926429Y-11475750D01*
X7926429Y-11475750D02*
X7945477Y-11485274D01*
X7945477Y-11485274D02*
X7955001Y-11504322D01*
X7955001Y-11504322D02*
X7955001Y-11609084D01*
X7955001Y-11504322D02*
X7964524Y-11485274D01*
X7964524Y-11485274D02*
X7983572Y-11475750D01*
X7983572Y-11475750D02*
X8012143Y-11475750D01*
X8012143Y-11475750D02*
X8031191Y-11485274D01*
X8031191Y-11485274D02*
X8040715Y-11504322D01*
X8040715Y-11504322D02*
X8040715Y-11609084D01*
X8431191Y-11399560D02*
X8259763Y-11656703D01*
X8688334Y-11409084D02*
X8707382Y-11409084D01*
X8707382Y-11409084D02*
X8726429Y-11418608D01*
X8726429Y-11418608D02*
X8735953Y-11428131D01*
X8735953Y-11428131D02*
X8745477Y-11447179D01*
X8745477Y-11447179D02*
X8755001Y-11485274D01*
X8755001Y-11485274D02*
X8755001Y-11532893D01*
X8755001Y-11532893D02*
X8745477Y-11570988D01*
X8745477Y-11570988D02*
X8735953Y-11590036D01*
X8735953Y-11590036D02*
X8726429Y-11599560D01*
X8726429Y-11599560D02*
X8707382Y-11609084D01*
X8707382Y-11609084D02*
X8688334Y-11609084D01*
X8688334Y-11609084D02*
X8669287Y-11599560D01*
X8669287Y-11599560D02*
X8659763Y-11590036D01*
X8659763Y-11590036D02*
X8650239Y-11570988D01*
X8650239Y-11570988D02*
X8640715Y-11532893D01*
X8640715Y-11532893D02*
X8640715Y-11485274D01*
X8640715Y-11485274D02*
X8650239Y-11447179D01*
X8650239Y-11447179D02*
X8659763Y-11428131D01*
X8659763Y-11428131D02*
X8669287Y-11418608D01*
X8669287Y-11418608D02*
X8688334Y-11409084D01*
X8840715Y-11590036D02*
X8850239Y-11599560D01*
X8850239Y-11599560D02*
X8840715Y-11609084D01*
X8840715Y-11609084D02*
X8831191Y-11599560D01*
X8831191Y-11599560D02*
X8840715Y-11590036D01*
X8840715Y-11590036D02*
X8840715Y-11609084D01*
X9040715Y-11609084D02*
X8926429Y-11609084D01*
X8983572Y-11609084D02*
X8983572Y-11409084D01*
X8983572Y-11409084D02*
X8964525Y-11437655D01*
X8964525Y-11437655D02*
X8945477Y-11456703D01*
X8945477Y-11456703D02*
X8926429Y-11466227D01*
X9107382Y-11409084D02*
X9231191Y-11409084D01*
X9231191Y-11409084D02*
X9164525Y-11485274D01*
X9164525Y-11485274D02*
X9193096Y-11485274D01*
X9193096Y-11485274D02*
X9212144Y-11494798D01*
X9212144Y-11494798D02*
X9221668Y-11504322D01*
X9221668Y-11504322D02*
X9231191Y-11523369D01*
X9231191Y-11523369D02*
X9231191Y-11570988D01*
X9231191Y-11570988D02*
X9221668Y-11590036D01*
X9221668Y-11590036D02*
X9212144Y-11599560D01*
X9212144Y-11599560D02*
X9193096Y-11609084D01*
X9193096Y-11609084D02*
X9135953Y-11609084D01*
X9135953Y-11609084D02*
X9116906Y-11599560D01*
X9116906Y-11599560D02*
X9107382Y-11590036D01*
X9297858Y-11409084D02*
X9431191Y-11409084D01*
X9431191Y-11409084D02*
X9345477Y-11609084D01*
X9535953Y-11494798D02*
X9516906Y-11485274D01*
X9516906Y-11485274D02*
X9507382Y-11475750D01*
X9507382Y-11475750D02*
X9497858Y-11456703D01*
X9497858Y-11456703D02*
X9497858Y-11447179D01*
X9497858Y-11447179D02*
X9507382Y-11428131D01*
X9507382Y-11428131D02*
X9516906Y-11418608D01*
X9516906Y-11418608D02*
X9535953Y-11409084D01*
X9535953Y-11409084D02*
X9574049Y-11409084D01*
X9574049Y-11409084D02*
X9593096Y-11418608D01*
X9593096Y-11418608D02*
X9602620Y-11428131D01*
X9602620Y-11428131D02*
X9612144Y-11447179D01*
X9612144Y-11447179D02*
X9612144Y-11456703D01*
X9612144Y-11456703D02*
X9602620Y-11475750D01*
X9602620Y-11475750D02*
X9593096Y-11485274D01*
X9593096Y-11485274D02*
X9574049Y-11494798D01*
X9574049Y-11494798D02*
X9535953Y-11494798D01*
X9535953Y-11494798D02*
X9516906Y-11504322D01*
X9516906Y-11504322D02*
X9507382Y-11513846D01*
X9507382Y-11513846D02*
X9497858Y-11532893D01*
X9497858Y-11532893D02*
X9497858Y-11570988D01*
X9497858Y-11570988D02*
X9507382Y-11590036D01*
X9507382Y-11590036D02*
X9516906Y-11599560D01*
X9516906Y-11599560D02*
X9535953Y-11609084D01*
X9535953Y-11609084D02*
X9574049Y-11609084D01*
X9574049Y-11609084D02*
X9593096Y-11599560D01*
X9593096Y-11599560D02*
X9602620Y-11590036D01*
X9602620Y-11590036D02*
X9612144Y-11570988D01*
X9612144Y-11570988D02*
X9612144Y-11532893D01*
X9612144Y-11532893D02*
X9602620Y-11513846D01*
X9602620Y-11513846D02*
X9593096Y-11504322D01*
X9593096Y-11504322D02*
X9574049Y-11494798D01*
X9688334Y-11409084D02*
X9688334Y-11447179D01*
X9764525Y-11409084D02*
X9764525Y-11447179D01*
X10059763Y-11685274D02*
X10050239Y-11675750D01*
X10050239Y-11675750D02*
X10031191Y-11647179D01*
X10031191Y-11647179D02*
X10021668Y-11628131D01*
X10021668Y-11628131D02*
X10012144Y-11599560D01*
X10012144Y-11599560D02*
X10002620Y-11551941D01*
X10002620Y-11551941D02*
X10002620Y-11513846D01*
X10002620Y-11513846D02*
X10012144Y-11466227D01*
X10012144Y-11466227D02*
X10021668Y-11437655D01*
X10021668Y-11437655D02*
X10031191Y-11418608D01*
X10031191Y-11418608D02*
X10050239Y-11390036D01*
X10050239Y-11390036D02*
X10059763Y-11380512D01*
X10240715Y-11609084D02*
X10126430Y-11609084D01*
X10183572Y-11609084D02*
X10183572Y-11409084D01*
X10183572Y-11409084D02*
X10164525Y-11437655D01*
X10164525Y-11437655D02*
X10145477Y-11456703D01*
X10145477Y-11456703D02*
X10126430Y-11466227D01*
X10478811Y-11609084D02*
X10478811Y-11409084D01*
X10564525Y-11609084D02*
X10564525Y-11504322D01*
X10564525Y-11504322D02*
X10555001Y-11485274D01*
X10555001Y-11485274D02*
X10535953Y-11475750D01*
X10535953Y-11475750D02*
X10507382Y-11475750D01*
X10507382Y-11475750D02*
X10488334Y-11485274D01*
X10488334Y-11485274D02*
X10478811Y-11494798D01*
X10688334Y-11609084D02*
X10669287Y-11599560D01*
X10669287Y-11599560D02*
X10659763Y-11590036D01*
X10659763Y-11590036D02*
X10650239Y-11570988D01*
X10650239Y-11570988D02*
X10650239Y-11513846D01*
X10650239Y-11513846D02*
X10659763Y-11494798D01*
X10659763Y-11494798D02*
X10669287Y-11485274D01*
X10669287Y-11485274D02*
X10688334Y-11475750D01*
X10688334Y-11475750D02*
X10716906Y-11475750D01*
X10716906Y-11475750D02*
X10735953Y-11485274D01*
X10735953Y-11485274D02*
X10745477Y-11494798D01*
X10745477Y-11494798D02*
X10755001Y-11513846D01*
X10755001Y-11513846D02*
X10755001Y-11570988D01*
X10755001Y-11570988D02*
X10745477Y-11590036D01*
X10745477Y-11590036D02*
X10735953Y-11599560D01*
X10735953Y-11599560D02*
X10716906Y-11609084D01*
X10716906Y-11609084D02*
X10688334Y-11609084D01*
X10869287Y-11609084D02*
X10850239Y-11599560D01*
X10850239Y-11599560D02*
X10840715Y-11580512D01*
X10840715Y-11580512D02*
X10840715Y-11409084D01*
X11021668Y-11599560D02*
X11002620Y-11609084D01*
X11002620Y-11609084D02*
X10964525Y-11609084D01*
X10964525Y-11609084D02*
X10945477Y-11599560D01*
X10945477Y-11599560D02*
X10935953Y-11580512D01*
X10935953Y-11580512D02*
X10935953Y-11504322D01*
X10935953Y-11504322D02*
X10945477Y-11485274D01*
X10945477Y-11485274D02*
X10964525Y-11475750D01*
X10964525Y-11475750D02*
X11002620Y-11475750D01*
X11002620Y-11475750D02*
X11021668Y-11485274D01*
X11021668Y-11485274D02*
X11031192Y-11504322D01*
X11031192Y-11504322D02*
X11031192Y-11523369D01*
X11031192Y-11523369D02*
X10935953Y-11542417D01*
X11097858Y-11685274D02*
X11107382Y-11675750D01*
X11107382Y-11675750D02*
X11126430Y-11647179D01*
X11126430Y-11647179D02*
X11135953Y-11628131D01*
X11135953Y-11628131D02*
X11145477Y-11599560D01*
X11145477Y-11599560D02*
X11155001Y-11551941D01*
X11155001Y-11551941D02*
X11155001Y-11513846D01*
X11155001Y-11513846D02*
X11145477Y-11466227D01*
X11145477Y-11466227D02*
X11135953Y-11437655D01*
X11135953Y-11437655D02*
X11126430Y-11418608D01*
X11126430Y-11418608D02*
X11107382Y-11390036D01*
X11107382Y-11390036D02*
X11097858Y-11380512D01*
X11459763Y-11685274D02*
X11450239Y-11675750D01*
X11450239Y-11675750D02*
X11431191Y-11647179D01*
X11431191Y-11647179D02*
X11421668Y-11628131D01*
X11421668Y-11628131D02*
X11412144Y-11599560D01*
X11412144Y-11599560D02*
X11402620Y-11551941D01*
X11402620Y-11551941D02*
X11402620Y-11513846D01*
X11402620Y-11513846D02*
X11412144Y-11466227D01*
X11412144Y-11466227D02*
X11421668Y-11437655D01*
X11421668Y-11437655D02*
X11431191Y-11418608D01*
X11431191Y-11418608D02*
X11450239Y-11390036D01*
X11450239Y-11390036D02*
X11459763Y-11380512D01*
X11535953Y-11475750D02*
X11535953Y-11609084D01*
X11535953Y-11494798D02*
X11545477Y-11485274D01*
X11545477Y-11485274D02*
X11564525Y-11475750D01*
X11564525Y-11475750D02*
X11593096Y-11475750D01*
X11593096Y-11475750D02*
X11612144Y-11485274D01*
X11612144Y-11485274D02*
X11621668Y-11504322D01*
X11621668Y-11504322D02*
X11621668Y-11609084D01*
X11745477Y-11609084D02*
X11726430Y-11599560D01*
X11726430Y-11599560D02*
X11716906Y-11590036D01*
X11716906Y-11590036D02*
X11707382Y-11570988D01*
X11707382Y-11570988D02*
X11707382Y-11513846D01*
X11707382Y-11513846D02*
X11716906Y-11494798D01*
X11716906Y-11494798D02*
X11726430Y-11485274D01*
X11726430Y-11485274D02*
X11745477Y-11475750D01*
X11745477Y-11475750D02*
X11774049Y-11475750D01*
X11774049Y-11475750D02*
X11793096Y-11485274D01*
X11793096Y-11485274D02*
X11802620Y-11494798D01*
X11802620Y-11494798D02*
X11812144Y-11513846D01*
X11812144Y-11513846D02*
X11812144Y-11570988D01*
X11812144Y-11570988D02*
X11802620Y-11590036D01*
X11802620Y-11590036D02*
X11793096Y-11599560D01*
X11793096Y-11599560D02*
X11774049Y-11609084D01*
X11774049Y-11609084D02*
X11745477Y-11609084D01*
X11869287Y-11475750D02*
X11945477Y-11475750D01*
X11897858Y-11409084D02*
X11897858Y-11580512D01*
X11897858Y-11580512D02*
X11907382Y-11599560D01*
X11907382Y-11599560D02*
X11926430Y-11609084D01*
X11926430Y-11609084D02*
X11945477Y-11609084D01*
X12164525Y-11475750D02*
X12164525Y-11675750D01*
X12164525Y-11485274D02*
X12183572Y-11475750D01*
X12183572Y-11475750D02*
X12221668Y-11475750D01*
X12221668Y-11475750D02*
X12240715Y-11485274D01*
X12240715Y-11485274D02*
X12250239Y-11494798D01*
X12250239Y-11494798D02*
X12259763Y-11513846D01*
X12259763Y-11513846D02*
X12259763Y-11570988D01*
X12259763Y-11570988D02*
X12250239Y-11590036D01*
X12250239Y-11590036D02*
X12240715Y-11599560D01*
X12240715Y-11599560D02*
X12221668Y-11609084D01*
X12221668Y-11609084D02*
X12183572Y-11609084D01*
X12183572Y-11609084D02*
X12164525Y-11599560D01*
X12374049Y-11609084D02*
X12355001Y-11599560D01*
X12355001Y-11599560D02*
X12345477Y-11580512D01*
X12345477Y-11580512D02*
X12345477Y-11409084D01*
X12535953Y-11609084D02*
X12535953Y-11504322D01*
X12535953Y-11504322D02*
X12526430Y-11485274D01*
X12526430Y-11485274D02*
X12507382Y-11475750D01*
X12507382Y-11475750D02*
X12469287Y-11475750D01*
X12469287Y-11475750D02*
X12450239Y-11485274D01*
X12535953Y-11599560D02*
X12516906Y-11609084D01*
X12516906Y-11609084D02*
X12469287Y-11609084D01*
X12469287Y-11609084D02*
X12450239Y-11599560D01*
X12450239Y-11599560D02*
X12440715Y-11580512D01*
X12440715Y-11580512D02*
X12440715Y-11561465D01*
X12440715Y-11561465D02*
X12450239Y-11542417D01*
X12450239Y-11542417D02*
X12469287Y-11532893D01*
X12469287Y-11532893D02*
X12516906Y-11532893D01*
X12516906Y-11532893D02*
X12535953Y-11523369D01*
X12602620Y-11475750D02*
X12678811Y-11475750D01*
X12631192Y-11409084D02*
X12631192Y-11580512D01*
X12631192Y-11580512D02*
X12640715Y-11599560D01*
X12640715Y-11599560D02*
X12659763Y-11609084D01*
X12659763Y-11609084D02*
X12678811Y-11609084D01*
X12821668Y-11599560D02*
X12802620Y-11609084D01*
X12802620Y-11609084D02*
X12764525Y-11609084D01*
X12764525Y-11609084D02*
X12745477Y-11599560D01*
X12745477Y-11599560D02*
X12735953Y-11580512D01*
X12735953Y-11580512D02*
X12735953Y-11504322D01*
X12735953Y-11504322D02*
X12745477Y-11485274D01*
X12745477Y-11485274D02*
X12764525Y-11475750D01*
X12764525Y-11475750D02*
X12802620Y-11475750D01*
X12802620Y-11475750D02*
X12821668Y-11485274D01*
X12821668Y-11485274D02*
X12831192Y-11504322D01*
X12831192Y-11504322D02*
X12831192Y-11523369D01*
X12831192Y-11523369D02*
X12735953Y-11542417D01*
X13002620Y-11609084D02*
X13002620Y-11409084D01*
X13002620Y-11599560D02*
X12983573Y-11609084D01*
X12983573Y-11609084D02*
X12945477Y-11609084D01*
X12945477Y-11609084D02*
X12926430Y-11599560D01*
X12926430Y-11599560D02*
X12916906Y-11590036D01*
X12916906Y-11590036D02*
X12907382Y-11570988D01*
X12907382Y-11570988D02*
X12907382Y-11513846D01*
X12907382Y-11513846D02*
X12916906Y-11494798D01*
X12916906Y-11494798D02*
X12926430Y-11485274D01*
X12926430Y-11485274D02*
X12945477Y-11475750D01*
X12945477Y-11475750D02*
X12983573Y-11475750D01*
X12983573Y-11475750D02*
X13002620Y-11485274D01*
X13078811Y-11685274D02*
X13088334Y-11675750D01*
X13088334Y-11675750D02*
X13107382Y-11647179D01*
X13107382Y-11647179D02*
X13116906Y-11628131D01*
X13116906Y-11628131D02*
X13126430Y-11599560D01*
X13126430Y-11599560D02*
X13135953Y-11551941D01*
X13135953Y-11551941D02*
X13135953Y-11513846D01*
X13135953Y-11513846D02*
X13126430Y-11466227D01*
X13126430Y-11466227D02*
X13116906Y-11437655D01*
X13116906Y-11437655D02*
X13107382Y-11418608D01*
X13107382Y-11418608D02*
X13088334Y-11390036D01*
X13088334Y-11390036D02*
X13078811Y-11380512D01*
M02*
