M48
; DRILL file {KiCad 7.0.9} date Mon May  6 10:06:52 2024
; FORMAT={-:-/ absolute / inch / decimal}
; #@! TF.CreationDate,2024-05-06T10:06:52+02:00
; #@! TF.GenerationSoftware,Kicad,Pcbnew,7.0.9
; #@! TF.FileFunction,Plated,1,2,PTH
FMAT,2
INCH
; #@! TA.AperFunction,Plated,PTH,ComponentDrill
T1C0.0315
; #@! TA.AperFunction,Plated,PTH,ComponentDrill
T2C0.0354
; #@! TA.AperFunction,Plated,PTH,ComponentDrill
T3C0.0394
; #@! TA.AperFunction,Plated,PTH,ComponentDrill
T4C0.0433
; #@! TA.AperFunction,Plated,PTH,ComponentDrill
T5C0.0472
; #@! TA.AperFunction,Plated,PTH,ComponentDrill
T6C0.0512
; #@! TA.AperFunction,Plated,PTH,ComponentDrill
T7C0.0866
%
G90
G05
T1
X2.7912Y-3.5128
X3.0912Y-3.5128
X3.4408Y-3.5128
X3.5196Y-3.5128
X3.677Y-3.5128
X3.7558Y-3.5128
X4.3463Y-1.8987
X4.5432Y-1.8987
X4.8581Y-1.5837
X5.1042Y-3.3947
X5.1534Y-1.5837
X5.2026Y-3.3947
X5.4684Y-2.0243
X5.4684Y-2.3243
X5.4881Y-1.2762
X5.4881Y-1.5762
X5.6137Y-3.4735
X5.9137Y-3.4735
X6.0739Y-3.4735
X6.3739Y-3.4735
T2
X3.1259Y-2.3711
X3.1259Y-3.1585
X3.3227Y-2.3711
X3.3227Y-3.1585
X3.5196Y-3.1585
X3.7164Y-2.3711
X3.7164Y-3.1585
X3.9133Y-2.3711
X3.9133Y-3.1585
X5.4182Y-2.568
X5.4274Y-1.7806
X5.5182Y-2.568
X5.5274Y-1.7806
T3
X3.4211Y-3.7869
X3.4211Y-3.8869
X3.4211Y-3.9869
X3.677Y-3.7869
X3.677Y-3.8869
X3.677Y-3.9869
X4.3257Y-1.4048
X4.3257Y-1.6048
X4.5257Y-1.4048
X4.5257Y-1.6048
X4.6597Y-3.3811
X4.7597Y-3.3811
X4.8597Y-3.3811
X5.7637Y-1.5246
X5.7637Y-1.6246
X5.7637Y-1.7246
X5.7637Y-1.8246
X5.7637Y-1.9246
X5.7637Y-2.0246
X5.7637Y-2.1246
X5.7637Y-2.2246
X5.7637Y-2.3246
X5.7637Y-2.4246
X5.7637Y-2.5246
X5.7637Y-2.6246
X5.7637Y-2.7246
X5.7637Y-2.8246
X5.7637Y-2.9246
X6.3637Y-1.5246
X6.3637Y-1.6246
X6.3637Y-1.7246
X6.3637Y-1.8246
X6.3637Y-1.9246
X6.3637Y-2.0246
X6.3637Y-2.1246
X6.3637Y-2.2246
X6.3637Y-2.3246
X6.3637Y-2.4246
X6.3637Y-2.5246
X6.3637Y-2.6246
X6.3637Y-2.7246
X6.3637Y-2.8246
X6.3637Y-2.9246
T4
X5.429Y-2.9585
X5.429Y-3.3585
T5
X3.0767Y-1.9577
X3.9625Y-1.9577
T6
X2.7322Y-3.7884
X2.9322Y-3.7884
X3.0046Y-1.505
X3.1322Y-3.7884
X3.2046Y-1.505
X3.4046Y-1.505
X3.6967Y-1.505
X3.8967Y-1.505
X3.9692Y-3.8081
X4.0967Y-1.505
X4.1692Y-3.8081
X4.3692Y-3.8081
X4.6581Y-3.8081
X4.8581Y-3.8081
X5.0581Y-3.8081
X5.3503Y-3.8278
X5.5503Y-3.8278
X5.7503Y-3.8278
X6.0393Y-3.8278
X6.2393Y-3.8278
X6.4393Y-3.8278
T7
X2.705Y-1.33
X2.7125Y-4.1428
X6.5707Y-1.3278
X6.5707Y-4.1428
T0
M30
