%TF.GenerationSoftware,KiCad,Pcbnew,7.0.9*%
%TF.CreationDate,2024-05-06T10:06:48+02:00*%
%TF.ProjectId,Kicad_Passage_A_niveau_Stockage,4b696361-645f-4506-9173-736167655f41,rev?*%
%TF.SameCoordinates,Original*%
%TF.FileFunction,Other,User*%
%FSLAX46Y46*%
G04 Gerber Fmt 4.6, Leading zero omitted, Abs format (unit mm)*
G04 Created by KiCad (PCBNEW 7.0.9) date 2024-05-06 10:06:48*
%MOMM*%
%LPD*%
G01*
G04 APERTURE LIST*
%ADD10C,0.050000*%
%ADD11C,0.120000*%
G04 APERTURE END LIST*
D10*
%TO.C,D4*%
X135672000Y-61976000D02*
X135672000Y-68476000D01*
X135672000Y-68476000D02*
X142122000Y-68476000D01*
X142122000Y-61976000D02*
X135672000Y-61976000D01*
X142122000Y-68476000D02*
X142122000Y-61976000D01*
%TO.C,J9*%
X150007000Y-92226000D02*
X166347000Y-92226000D01*
X150007000Y-102226000D02*
X150007000Y-92226000D01*
X166347000Y-92226000D02*
X166347000Y-102226000D01*
X166347000Y-102226000D02*
X150007000Y-102226000D01*
%TO.C,C4*%
X91147000Y-89226000D02*
G75*
G03*
X91147000Y-89226000I-2750000J0D01*
G01*
%TO.C,TR1*%
X105147000Y-84476000D02*
X105147000Y-55976000D01*
X105147000Y-84476000D02*
X73647000Y-84476000D01*
X73647000Y-55976000D02*
X105147000Y-55976000D01*
X73647000Y-55976000D02*
X73647000Y-84476000D01*
%TO.C,R1*%
X137897000Y-41086000D02*
X140897000Y-41086000D01*
X140897000Y-41086000D02*
X140897000Y-31366000D01*
X137897000Y-31366000D02*
X137897000Y-41086000D01*
X140897000Y-31366000D02*
X137897000Y-31366000D01*
%TO.C,J8*%
X95197000Y-103066000D02*
X95197000Y-94416000D01*
X95197000Y-94416000D02*
X91597000Y-94416000D01*
X91597000Y-103066000D02*
X95197000Y-103066000D01*
X91597000Y-94416000D02*
X91597000Y-103066000D01*
%TO.C,D3*%
X135907000Y-41976000D02*
X135907000Y-48476000D01*
X135907000Y-48476000D02*
X142357000Y-48476000D01*
X142357000Y-41976000D02*
X135907000Y-41976000D01*
X142357000Y-48476000D02*
X142357000Y-41976000D01*
%TO.C,J7*%
X88697000Y-103066000D02*
X88697000Y-94416000D01*
X88697000Y-94416000D02*
X85097000Y-94416000D01*
X85097000Y-103066000D02*
X88697000Y-103066000D01*
X85097000Y-94416000D02*
X85097000Y-103066000D01*
%TO.C,C1*%
X135897000Y-40226000D02*
G75*
G03*
X135897000Y-40226000I-8750000J0D01*
G01*
%TO.C,REF3*%
X169347000Y-105226000D02*
G75*
G03*
X169347000Y-105226000I-2450000J0D01*
G01*
%TO.C,REF1*%
X71157000Y-33782000D02*
G75*
G03*
X71157000Y-33782000I-2450000J0D01*
G01*
%TO.C,J6*%
X114927000Y-91726000D02*
X131267000Y-91726000D01*
X114927000Y-101726000D02*
X114927000Y-91726000D01*
X131267000Y-91726000D02*
X131267000Y-101726000D01*
X131267000Y-101726000D02*
X114927000Y-101726000D01*
%TO.C,REF4*%
X71347000Y-105226000D02*
G75*
G03*
X71347000Y-105226000I-2450000J0D01*
G01*
%TO.C,J2*%
X66007000Y-91226000D02*
X82347000Y-91226000D01*
X66007000Y-101226000D02*
X66007000Y-91226000D01*
X82347000Y-91226000D02*
X82347000Y-101226000D01*
X82347000Y-101226000D02*
X66007000Y-101226000D01*
%TO.C,R5*%
X69847000Y-87726000D02*
X69847000Y-90726000D01*
X69847000Y-90726000D02*
X79567000Y-90726000D01*
X79567000Y-87726000D02*
X69847000Y-87726000D01*
X79567000Y-90726000D02*
X79567000Y-87726000D01*
%TO.C,J5*%
X97427000Y-91726000D02*
X113767000Y-91726000D01*
X97427000Y-101726000D02*
X97427000Y-91726000D01*
X113767000Y-91726000D02*
X113767000Y-101726000D01*
X113767000Y-101726000D02*
X97427000Y-101726000D01*
%TO.C,R2*%
X153227000Y-86726000D02*
X153227000Y-89726000D01*
X153227000Y-89726000D02*
X162947000Y-89726000D01*
X162947000Y-86726000D02*
X153227000Y-86726000D01*
X162947000Y-89726000D02*
X162947000Y-86726000D01*
%TO.C,D1*%
X108222000Y-33071000D02*
X108222000Y-43381000D01*
X108222000Y-33071000D02*
X117572000Y-33071000D01*
X117572000Y-43381000D02*
X108222000Y-43381000D01*
X117572000Y-43381000D02*
X117572000Y-33071000D01*
%TO.C,F1*%
X76397000Y-44676000D02*
X102397000Y-44676000D01*
X76397000Y-54776000D02*
X76397000Y-44676000D01*
X102397000Y-44676000D02*
X102397000Y-54776000D01*
X102397000Y-54776000D02*
X76397000Y-54776000D01*
%TO.C,REF2*%
X169347000Y-33726000D02*
G75*
G03*
X169347000Y-33726000I-2450000J0D01*
G01*
%TO.C,J3*%
X132507000Y-92226000D02*
X148847000Y-92226000D01*
X132507000Y-102226000D02*
X132507000Y-92226000D01*
X148847000Y-92226000D02*
X148847000Y-102226000D01*
X148847000Y-102226000D02*
X132507000Y-102226000D01*
%TO.C,J4*%
X90507000Y-33226000D02*
X106847000Y-33226000D01*
X90507000Y-43226000D02*
X90507000Y-33226000D01*
X106847000Y-33226000D02*
X106847000Y-43226000D01*
X106847000Y-43226000D02*
X90507000Y-43226000D01*
%TO.C,C2*%
X109147000Y-46726000D02*
X109147000Y-49726000D01*
X109147000Y-49726000D02*
X116647000Y-49726000D01*
X116647000Y-46726000D02*
X109147000Y-46726000D01*
X116647000Y-49726000D02*
X116647000Y-46726000D01*
%TO.C,D2*%
X136297000Y-86656000D02*
X139497000Y-86656000D01*
X139497000Y-86656000D02*
X139497000Y-73796000D01*
X136297000Y-73796000D02*
X136297000Y-86656000D01*
X139497000Y-73796000D02*
X136297000Y-73796000D01*
%TO.C,J1*%
X72927000Y-33226000D02*
X89267000Y-33226000D01*
X72927000Y-43226000D02*
X72927000Y-33226000D01*
X89267000Y-33226000D02*
X89267000Y-43226000D01*
X89267000Y-43226000D02*
X72927000Y-43226000D01*
D11*
%TO.C,U1*%
X108147000Y-82381000D02*
X108147000Y-52381000D01*
X115497000Y-66481000D02*
X126097000Y-66481000D01*
X115497000Y-81981000D02*
X115497000Y-66481000D01*
X115497000Y-81981000D02*
X126097000Y-81981000D01*
X126097000Y-81981000D02*
X126097000Y-66481000D01*
X133647000Y-52381000D02*
X108147000Y-52381000D01*
X133647000Y-82381000D02*
X108147000Y-82381000D01*
X133647000Y-82381000D02*
X133647000Y-52381000D01*
D10*
%TO.C,R4*%
X137397000Y-60086000D02*
X140397000Y-60086000D01*
X140397000Y-60086000D02*
X140397000Y-50366000D01*
X137397000Y-50366000D02*
X137397000Y-60086000D01*
X140397000Y-50366000D02*
X137397000Y-50366000D01*
%TO.C,C3*%
X128147000Y-84726000D02*
X128147000Y-87726000D01*
X128147000Y-87726000D02*
X133647000Y-87726000D01*
X133647000Y-84726000D02*
X128147000Y-84726000D01*
X133647000Y-87726000D02*
X133647000Y-84726000D01*
%TO.C,A1*%
X144867000Y-34666000D02*
X144867000Y-80886000D01*
X144867000Y-34666000D02*
X163147000Y-34666000D01*
X163147000Y-80886000D02*
X144867000Y-80886000D01*
X163147000Y-80886000D02*
X163147000Y-34666000D01*
%TO.C,C5*%
X97147000Y-89226000D02*
G75*
G03*
X97147000Y-89226000I-2750000J0D01*
G01*
%TO.C,R3*%
X151257000Y-89726000D02*
X151257000Y-86726000D01*
X151257000Y-86726000D02*
X141537000Y-86726000D01*
X141537000Y-89726000D02*
X151257000Y-89726000D01*
X141537000Y-86726000D02*
X141537000Y-89726000D01*
%TD*%
M02*
