%TF.GenerationSoftware,KiCad,Pcbnew,7.0.9*%
%TF.CreationDate,2024-05-06T10:06:48+02:00*%
%TF.ProjectId,Kicad_Passage_A_niveau_Stockage,4b696361-645f-4506-9173-736167655f41,rev?*%
%TF.SameCoordinates,Original*%
%TF.FileFunction,Copper,L1,Top*%
%TF.FilePolarity,Positive*%
%FSLAX46Y46*%
G04 Gerber Fmt 4.6, Leading zero omitted, Abs format (unit mm)*
G04 Created by KiCad (PCBNEW 7.0.9) date 2024-05-06 10:06:48*
%MOMM*%
%LPD*%
G01*
G04 APERTURE LIST*
%TA.AperFunction,ComponentPad*%
%ADD10R,1.800000X1.800000*%
%TD*%
%TA.AperFunction,ComponentPad*%
%ADD11C,1.800000*%
%TD*%
%TA.AperFunction,ComponentPad*%
%ADD12R,1.950000X1.950000*%
%TD*%
%TA.AperFunction,ComponentPad*%
%ADD13C,1.950000*%
%TD*%
%TA.AperFunction,ComponentPad*%
%ADD14R,1.600000X1.600000*%
%TD*%
%TA.AperFunction,ComponentPad*%
%ADD15C,1.600000*%
%TD*%
%TA.AperFunction,ComponentPad*%
%ADD16R,2.000000X2.000000*%
%TD*%
%TA.AperFunction,ComponentPad*%
%ADD17C,2.000000*%
%TD*%
%TA.AperFunction,ComponentPad*%
%ADD18R,1.700000X1.700000*%
%TD*%
%TA.AperFunction,ComponentPad*%
%ADD19O,1.700000X1.700000*%
%TD*%
%TA.AperFunction,ComponentPad*%
%ADD20C,4.400000*%
%TD*%
%TA.AperFunction,ComponentPad*%
%ADD21O,2.000000X2.000000*%
%TD*%
%TA.AperFunction,ComponentPad*%
%ADD22O,2.500000X3.500000*%
%TD*%
%TA.AperFunction,ComponentPad*%
%ADD23R,2.200000X2.200000*%
%TD*%
%TA.AperFunction,ComponentPad*%
%ADD24O,2.200000X2.200000*%
%TD*%
%TA.AperFunction,ComponentPad*%
%ADD25R,1.900000X2.500000*%
%TD*%
%TA.AperFunction,ComponentPad*%
%ADD26O,1.900000X2.500000*%
%TD*%
%TA.AperFunction,ComponentPad*%
%ADD27O,1.600000X1.600000*%
%TD*%
%TA.AperFunction,Conductor*%
%ADD28C,0.250000*%
%TD*%
G04 APERTURE END LIST*
D10*
%TO.P,D4,1,K*%
%TO.N,Net-(D4-K)*%
X137622000Y-65226000D03*
D11*
%TO.P,D4,2,A*%
%TO.N,+5V*%
X140162000Y-65226000D03*
%TD*%
D12*
%TO.P,J9,1,Pin_1*%
%TO.N,GND*%
X153397000Y-97226000D03*
D13*
%TO.P,J9,2,Pin_2*%
%TO.N,+5V*%
X158477000Y-97226000D03*
%TO.P,J9,3,Pin_3*%
%TO.N,Net-(A1-D12)*%
X163557000Y-97226000D03*
%TD*%
D14*
%TO.P,C4,1*%
%TO.N,+5V*%
X87397000Y-89226000D03*
D15*
%TO.P,C4,2*%
%TO.N,GND*%
X89397000Y-89226000D03*
%TD*%
D16*
%TO.P,TR1,1*%
%TO.N,Net-(J1-Pin_3)*%
X99397000Y-60226000D03*
D17*
%TO.P,TR1,2*%
%TO.N,N/C*%
X94397000Y-60226000D03*
%TO.P,TR1,4*%
X84397000Y-60226000D03*
%TO.P,TR1,5*%
%TO.N,Net-(F1-Pad1)*%
X79397000Y-60226000D03*
%TO.P,TR1,6*%
%TO.N,N/C*%
X79397000Y-80226000D03*
%TO.P,TR1,7*%
%TO.N,Net-(J4-Pin_3)*%
X84397000Y-80226000D03*
%TO.P,TR1,8*%
%TO.N,N/C*%
X89397000Y-80226000D03*
%TO.P,TR1,9*%
%TO.N,Net-(J4-Pin_1)*%
X94397000Y-80226000D03*
%TO.P,TR1,10*%
%TO.N,N/C*%
X99397000Y-80226000D03*
%TD*%
%TO.P,R1,1*%
%TO.N,Net-(D2-A)*%
X139397000Y-40036000D03*
%TO.P,R1,2*%
%TO.N,Net-(D3-A)*%
X139397000Y-32416000D03*
%TD*%
D18*
%TO.P,J8,1,Pin_1*%
%TO.N,GND*%
X93397000Y-101266000D03*
D19*
%TO.P,J8,2,Pin_2*%
%TO.N,+5V*%
X93397000Y-98726000D03*
%TO.P,J8,3,Pin_3*%
%TO.N,Net-(A1-D8)*%
X93397000Y-96186000D03*
%TD*%
D10*
%TO.P,D3,1,K*%
%TO.N,GND*%
X137857000Y-45226000D03*
D11*
%TO.P,D3,2,A*%
%TO.N,Net-(D3-A)*%
X140397000Y-45226000D03*
%TD*%
D18*
%TO.P,J7,1,Pin_1*%
%TO.N,GND*%
X86897000Y-101266000D03*
D19*
%TO.P,J7,2,Pin_2*%
%TO.N,+5V*%
X86897000Y-98726000D03*
%TO.P,J7,3,Pin_3*%
%TO.N,Net-(A1-D4)*%
X86897000Y-96186000D03*
%TD*%
D16*
%TO.P,C1,1*%
%TO.N,Net-(D1-+)*%
X123397000Y-40226000D03*
D17*
%TO.P,C1,2*%
%TO.N,GND*%
X130897000Y-40226000D03*
%TD*%
D20*
%TO.P,REF3,1*%
%TO.N,N/C*%
X166897000Y-105226000D03*
%TD*%
%TO.P,REF1,1*%
%TO.N,N/C*%
X68707000Y-33782000D03*
%TD*%
D12*
%TO.P,J6,1,Pin_1*%
%TO.N,GND*%
X118317000Y-96726000D03*
D13*
%TO.P,J6,2,Pin_2*%
%TO.N,+5V*%
X123397000Y-96726000D03*
%TO.P,J6,3,Pin_3*%
%TO.N,Net-(A1-D11)*%
X128477000Y-96726000D03*
%TD*%
D20*
%TO.P,REF4,1*%
%TO.N,N/C*%
X68897000Y-105226000D03*
%TD*%
D12*
%TO.P,J2,1,Pin_1*%
%TO.N,GND*%
X69397000Y-96226000D03*
D13*
%TO.P,J2,2,Pin_2*%
%TO.N,+5V*%
X74477000Y-96226000D03*
%TO.P,J2,3,Pin_3*%
%TO.N,Net-(J2-Pin_3)*%
X79557000Y-96226000D03*
%TD*%
D17*
%TO.P,R5,1*%
%TO.N,Net-(A1-D3)*%
X70897000Y-89226000D03*
%TO.P,R5,2*%
%TO.N,Net-(J2-Pin_3)*%
X78517000Y-89226000D03*
%TD*%
D12*
%TO.P,J5,1,Pin_1*%
%TO.N,GND*%
X100817000Y-96726000D03*
D13*
%TO.P,J5,2,Pin_2*%
%TO.N,+5V*%
X105897000Y-96726000D03*
%TO.P,J5,3,Pin_3*%
%TO.N,Net-(A1-A2)*%
X110977000Y-96726000D03*
%TD*%
D17*
%TO.P,R2,1*%
%TO.N,+5V*%
X154277000Y-88226000D03*
%TO.P,R2,2*%
%TO.N,Net-(A1-A1)*%
X161897000Y-88226000D03*
%TD*%
D16*
%TO.P,D1,1,+*%
%TO.N,Net-(D1-+)*%
X109872000Y-35681000D03*
D21*
%TO.P,D1,2*%
%TO.N,Net-(J4-Pin_1)*%
X109872000Y-40761000D03*
%TO.P,D1,3,-*%
%TO.N,GND*%
X114952000Y-40761000D03*
%TO.P,D1,4*%
%TO.N,Net-(J4-Pin_3)*%
X114952000Y-35681000D03*
%TD*%
D22*
%TO.P,F1,1*%
%TO.N,Net-(F1-Pad1)*%
X78147000Y-49726000D03*
%TO.P,F1,2*%
%TO.N,Net-(J1-Pin_1)*%
X100647000Y-49726000D03*
%TD*%
D20*
%TO.P,REF2,1*%
%TO.N,N/C*%
X166897000Y-33726000D03*
%TD*%
D12*
%TO.P,J3,1,Pin_1*%
%TO.N,GND*%
X135897000Y-97226000D03*
D13*
%TO.P,J3,2,Pin_2*%
%TO.N,Net-(A1-A0)*%
X140977000Y-97226000D03*
%TO.P,J3,3,Pin_3*%
%TO.N,Net-(A1-A1)*%
X146057000Y-97226000D03*
%TD*%
D12*
%TO.P,J4,1,Pin_1*%
%TO.N,Net-(J4-Pin_1)*%
X93897000Y-38226000D03*
D13*
%TO.P,J4,2,Pin_2*%
%TO.N,unconnected-(J4-Pin_2-Pad2)*%
X98977000Y-38226000D03*
%TO.P,J4,3,Pin_3*%
%TO.N,Net-(J4-Pin_3)*%
X104057000Y-38226000D03*
%TD*%
D15*
%TO.P,C2,1*%
%TO.N,Net-(D1-+)*%
X110397000Y-48226000D03*
%TO.P,C2,2*%
%TO.N,GND*%
X115397000Y-48226000D03*
%TD*%
D23*
%TO.P,D2,1,K*%
%TO.N,Net-(A1-VIN)*%
X137897000Y-85306000D03*
D24*
%TO.P,D2,2,A*%
%TO.N,Net-(D2-A)*%
X137897000Y-75146000D03*
%TD*%
D12*
%TO.P,J1,1,Pin_1*%
%TO.N,Net-(J1-Pin_1)*%
X76317000Y-38226000D03*
D13*
%TO.P,J1,2,Pin_2*%
%TO.N,unconnected-(J1-Pin_2-Pad2)*%
X81397000Y-38226000D03*
%TO.P,J1,3,Pin_3*%
%TO.N,Net-(J1-Pin_3)*%
X86477000Y-38226000D03*
%TD*%
D25*
%TO.P,U1,1,VI*%
%TO.N,Net-(D1-+)*%
X118357000Y-85881000D03*
D26*
%TO.P,U1,2,GND*%
%TO.N,GND*%
X120897000Y-85881000D03*
%TO.P,U1,3,VO*%
%TO.N,Net-(D2-A)*%
X123437000Y-85881000D03*
%TD*%
D17*
%TO.P,R4,1*%
%TO.N,Net-(A1-D2)*%
X138897000Y-59036000D03*
%TO.P,R4,2*%
%TO.N,Net-(D4-K)*%
X138897000Y-51416000D03*
%TD*%
D15*
%TO.P,C3,1*%
%TO.N,Net-(D2-A)*%
X129647000Y-86226000D03*
%TO.P,C3,2*%
%TO.N,GND*%
X132147000Y-86226000D03*
%TD*%
D14*
%TO.P,A1,1,D1/TX*%
%TO.N,unconnected-(A1-D1{slash}TX-Pad1)*%
X146397000Y-38726000D03*
D27*
%TO.P,A1,2,D0/RX*%
%TO.N,unconnected-(A1-D0{slash}RX-Pad2)*%
X146397000Y-41266000D03*
%TO.P,A1,3,~{RESET}*%
%TO.N,unconnected-(A1-~{RESET}-Pad3)*%
X146397000Y-43806000D03*
%TO.P,A1,4,GND*%
%TO.N,GND*%
X146397000Y-46346000D03*
%TO.P,A1,5,D2*%
%TO.N,Net-(A1-D2)*%
X146397000Y-48886000D03*
%TO.P,A1,6,D3*%
%TO.N,Net-(A1-D3)*%
X146397000Y-51426000D03*
%TO.P,A1,7,D4*%
%TO.N,Net-(A1-D4)*%
X146397000Y-53966000D03*
%TO.P,A1,8,D5*%
%TO.N,GND*%
X146397000Y-56506000D03*
%TO.P,A1,9,D6*%
X146397000Y-59046000D03*
%TO.P,A1,10,D7*%
X146397000Y-61586000D03*
%TO.P,A1,11,D8*%
%TO.N,Net-(A1-D8)*%
X146397000Y-64126000D03*
%TO.P,A1,12,D9*%
%TO.N,GND*%
X146397000Y-66666000D03*
%TO.P,A1,13,D10*%
X146397000Y-69206000D03*
%TO.P,A1,14,D11*%
%TO.N,Net-(A1-D11)*%
X146397000Y-71746000D03*
%TO.P,A1,15,D12*%
%TO.N,Net-(A1-D12)*%
X146397000Y-74286000D03*
%TO.P,A1,16,D13*%
%TO.N,unconnected-(A1-D13-Pad16)*%
X161637000Y-74286000D03*
%TO.P,A1,17,3V3*%
%TO.N,unconnected-(A1-3V3-Pad17)*%
X161637000Y-71746000D03*
%TO.P,A1,18,AREF*%
%TO.N,unconnected-(A1-AREF-Pad18)*%
X161637000Y-69206000D03*
%TO.P,A1,19,A0*%
%TO.N,Net-(A1-A0)*%
X161637000Y-66666000D03*
%TO.P,A1,20,A1*%
%TO.N,Net-(A1-A1)*%
X161637000Y-64126000D03*
%TO.P,A1,21,A2*%
%TO.N,Net-(A1-A2)*%
X161637000Y-61586000D03*
%TO.P,A1,22,A3*%
%TO.N,GND*%
X161637000Y-59046000D03*
%TO.P,A1,23,A4*%
X161637000Y-56506000D03*
%TO.P,A1,24,A5*%
X161637000Y-53966000D03*
%TO.P,A1,25,A6*%
X161637000Y-51426000D03*
%TO.P,A1,26,A7*%
X161637000Y-48886000D03*
%TO.P,A1,27,+5V*%
%TO.N,+5V*%
X161637000Y-46346000D03*
%TO.P,A1,28,~{RESET}*%
%TO.N,unconnected-(A1-~{RESET}-Pad28)*%
X161637000Y-43806000D03*
%TO.P,A1,29,GND*%
%TO.N,GND*%
X161637000Y-41266000D03*
%TO.P,A1,30,VIN*%
%TO.N,Net-(A1-VIN)*%
X161637000Y-38726000D03*
%TD*%
D14*
%TO.P,C5,1*%
%TO.N,+5V*%
X93397000Y-89226000D03*
D15*
%TO.P,C5,2*%
%TO.N,GND*%
X95397000Y-89226000D03*
%TD*%
D17*
%TO.P,R3,1*%
%TO.N,+5V*%
X150207000Y-88226000D03*
%TO.P,R3,2*%
%TO.N,Net-(A1-A0)*%
X142587000Y-88226000D03*
%TD*%
D28*
%TO.N,Net-(A1-D4)*%
X101395400Y-88726000D02*
X95895400Y-94226000D01*
X146397000Y-53966000D02*
X144397000Y-53966000D01*
X134897000Y-87226000D02*
X133397000Y-88726000D01*
X136897000Y-63226000D02*
X134897000Y-65226000D01*
X144397000Y-57726000D02*
X138897000Y-63226000D01*
X144397000Y-53966000D02*
X144397000Y-57726000D01*
X133397000Y-88726000D02*
X101395400Y-88726000D01*
X88857000Y-94226000D02*
X86897000Y-96186000D01*
X134897000Y-65226000D02*
X134897000Y-87226000D01*
X138897000Y-63226000D02*
X136897000Y-63226000D01*
X95895400Y-94226000D02*
X88857000Y-94226000D01*
%TO.N,Net-(A1-D8)*%
X123876804Y-89726000D02*
X136897000Y-89726000D01*
X140447000Y-86176000D02*
X140447000Y-70076000D01*
X93397000Y-96186000D02*
X94572300Y-96186000D01*
X140447000Y-70076000D02*
X146397000Y-64126000D01*
X100532300Y-90226000D02*
X123376804Y-90226000D01*
X136897000Y-89726000D02*
X140447000Y-86176000D01*
X94572300Y-96186000D02*
X100532300Y-90226000D01*
X123376804Y-90226000D02*
X123876804Y-89726000D01*
%TO.N,+5V*%
X93397000Y-98726000D02*
X103897000Y-98726000D01*
X129177100Y-90945900D02*
X123397000Y-96726000D01*
X160397000Y-46742000D02*
X146823000Y-60316000D01*
X160397000Y-46726000D02*
X160397000Y-46742000D01*
X160777000Y-46346000D02*
X160397000Y-46726000D01*
X107897000Y-98726000D02*
X105897000Y-96726000D01*
X103897000Y-98726000D02*
X105897000Y-96726000D01*
X146823000Y-60316000D02*
X145072000Y-60316000D01*
X123397000Y-96726000D02*
X121397000Y-98726000D01*
X150207000Y-88226000D02*
X154277000Y-88226000D01*
X150207000Y-88226000D02*
X147487100Y-90945900D01*
X147487100Y-90945900D02*
X129177100Y-90945900D01*
X161637000Y-46346000D02*
X160777000Y-46346000D01*
X145072000Y-60316000D02*
X140162000Y-65226000D01*
X121397000Y-98726000D02*
X107897000Y-98726000D01*
%TO.N,Net-(D3-A)*%
X139397000Y-32416000D02*
X141397000Y-34416000D01*
X141397000Y-44226000D02*
X140397000Y-45226000D01*
X141397000Y-34416000D02*
X141397000Y-44226000D01*
%TO.N,Net-(A1-D3)*%
X145271700Y-51426000D02*
X143936700Y-50091000D01*
X146397000Y-51426000D02*
X145271700Y-51426000D01*
X73749400Y-86373600D02*
X70897000Y-89226000D01*
X143936700Y-50091000D02*
X109532000Y-50091000D01*
X105397000Y-76099833D02*
X95123233Y-86373600D01*
X109532000Y-50091000D02*
X105397000Y-54226000D01*
X95123233Y-86373600D02*
X73749400Y-86373600D01*
X105397000Y-54226000D02*
X105397000Y-76099833D01*
%TO.N,Net-(A1-A0)*%
X142587000Y-88226000D02*
X142587000Y-86560000D01*
X160457000Y-66666000D02*
X161637000Y-66666000D01*
X159897000Y-67226000D02*
X160457000Y-66666000D01*
X142587000Y-86560000D02*
X159897000Y-69250000D01*
X159897000Y-69250000D02*
X159897000Y-67226000D01*
%TO.N,Net-(A1-A1)*%
X161897000Y-88226000D02*
X156487100Y-93635900D01*
X149647100Y-93635900D02*
X146057000Y-97226000D01*
X156487100Y-93635900D02*
X149647100Y-93635900D01*
%TO.N,Net-(A1-A2)*%
X137897000Y-90226000D02*
X127397000Y-90226000D01*
X159897000Y-63226000D02*
X141714000Y-81409000D01*
X161637000Y-61586000D02*
X159897000Y-61586000D01*
X127397000Y-90226000D02*
X124397000Y-93226000D01*
X124397000Y-93226000D02*
X114477000Y-93226000D01*
X141714000Y-86409000D02*
X137897000Y-90226000D01*
X141714000Y-81409000D02*
X141714000Y-86409000D01*
X114477000Y-93226000D02*
X110977000Y-96726000D01*
X159897000Y-61586000D02*
X159897000Y-63226000D01*
%TO.N,Net-(J4-Pin_1)*%
X103397000Y-62726000D02*
X94397000Y-71726000D01*
X108862000Y-40761000D02*
X103397000Y-46226000D01*
X103397000Y-46425700D02*
X103397000Y-62726000D01*
X103397000Y-46425700D02*
X95197300Y-38226000D01*
X109872000Y-40761000D02*
X108862000Y-40761000D01*
X103397000Y-46226000D02*
X103397000Y-46425700D01*
X95197300Y-38226000D02*
X93897000Y-38226000D01*
X94397000Y-71726000D02*
X94397000Y-80226000D01*
X103297150Y-46325850D02*
X103397000Y-46425700D01*
%TO.N,Net-(J4-Pin_3)*%
X114942000Y-35681000D02*
X112397000Y-38226000D01*
X86397000Y-82226000D02*
X84397000Y-80226000D01*
X114952000Y-35681000D02*
X114942000Y-35681000D01*
X104397000Y-49226000D02*
X104397000Y-73226000D01*
X104397000Y-73226000D02*
X95397000Y-82226000D01*
X112397000Y-38226000D02*
X112897000Y-38726000D01*
X112397000Y-38226000D02*
X111576300Y-38226000D01*
X95397000Y-82226000D02*
X86397000Y-82226000D01*
X112897000Y-40726000D02*
X104397000Y-49226000D01*
X112897000Y-38726000D02*
X112897000Y-40726000D01*
X111576300Y-38226000D02*
X104057000Y-38226000D01*
%TO.N,Net-(F1-Pad1)*%
X78147000Y-49726000D02*
X78147000Y-50976000D01*
X78147000Y-50976000D02*
X79397000Y-52226000D01*
X79397000Y-52226000D02*
X79397000Y-60226000D01*
%TO.N,Net-(J1-Pin_1)*%
X100647000Y-49726000D02*
X89117300Y-49726000D01*
X76317000Y-38226000D02*
X77617300Y-38226000D01*
X89117300Y-49726000D02*
X77617300Y-38226000D01*
%TO.N,Net-(J1-Pin_3)*%
X76897000Y-41726000D02*
X73397000Y-41726000D01*
X85897000Y-35726000D02*
X86477000Y-36306000D01*
X93397000Y-54226000D02*
X84897000Y-54226000D01*
X84897000Y-49726000D02*
X76897000Y-41726000D01*
X73397000Y-41726000D02*
X73397000Y-35726000D01*
X99397000Y-60226000D02*
X93397000Y-54226000D01*
X84897000Y-54226000D02*
X84897000Y-49726000D01*
X86477000Y-36306000D02*
X86477000Y-38226000D01*
X73397000Y-35726000D02*
X85897000Y-35726000D01*
%TD*%
M02*
