%TF.GenerationSoftware,KiCad,Pcbnew,7.0.9*%
%TF.CreationDate,2024-01-24T18:53:52+01:00*%
%TF.ProjectId,Kicad_Passage_A_niveau_Stockage,4b696361-645f-4506-9173-736167655f41,rev?*%
%TF.SameCoordinates,Original*%
%TF.FileFunction,Drillmap*%
%TF.FilePolarity,Positive*%
%FSLAX45Y45*%
G04 Gerber Fmt 4.5, Leading zero omitted, Abs format (unit mm)*
G04 Created by KiCad (PCBNEW 7.0.9) date 2024-01-24 18:53:52*
%MOMM*%
%LPD*%
G01*
G04 APERTURE LIST*
%ADD10C,0.100000*%
%ADD11C,0.200000*%
%ADD12C,0.110000*%
%ADD13C,0.120000*%
%ADD14C,0.130000*%
%ADD15C,0.220000*%
G04 APERTURE END LIST*
D10*
X17039700Y-10872600D02*
X6489700Y-10872600D01*
X6489700Y-3072600D01*
X17039700Y-3072600D01*
X17039700Y-10872600D01*
D11*
D10*
X7049700Y-8882600D02*
X7129700Y-8962600D01*
X7129700Y-8882600D02*
X7049700Y-8962600D01*
X7811700Y-8882600D02*
X7891700Y-8962600D01*
X7891700Y-8882600D02*
X7811700Y-8962600D01*
X8699700Y-8882600D02*
X8779700Y-8962600D01*
X8779700Y-8882600D02*
X8699700Y-8962600D01*
X8899700Y-8882600D02*
X8979700Y-8962600D01*
X8979700Y-8882600D02*
X8899700Y-8962600D01*
X9299700Y-8882600D02*
X9379700Y-8962600D01*
X9379700Y-8882600D02*
X9299700Y-8962600D01*
X9499700Y-8882600D02*
X9579700Y-8962600D01*
X9579700Y-8882600D02*
X9499700Y-8962600D01*
X10999700Y-4782600D02*
X11079700Y-4862600D01*
X11079700Y-4782600D02*
X10999700Y-4862600D01*
X11499700Y-4782600D02*
X11579700Y-4862600D01*
X11579700Y-4782600D02*
X11499700Y-4862600D01*
X12299700Y-3982600D02*
X12379700Y-4062600D01*
X12379700Y-3982600D02*
X12299700Y-4062600D01*
X12924700Y-8582600D02*
X13004700Y-8662600D01*
X13004700Y-8582600D02*
X12924700Y-8662600D01*
X13049700Y-3982600D02*
X13129700Y-4062600D01*
X13129700Y-3982600D02*
X13049700Y-4062600D01*
X13174700Y-8582600D02*
X13254700Y-8662600D01*
X13254700Y-8582600D02*
X13174700Y-8662600D01*
X13849700Y-5101600D02*
X13929700Y-5181600D01*
X13929700Y-5101600D02*
X13849700Y-5181600D01*
X13849700Y-5863600D02*
X13929700Y-5943600D01*
X13929700Y-5863600D02*
X13849700Y-5943600D01*
X13899700Y-3201600D02*
X13979700Y-3281600D01*
X13979700Y-3201600D02*
X13899700Y-3281600D01*
X13899700Y-3963600D02*
X13979700Y-4043600D01*
X13979700Y-3963600D02*
X13899700Y-4043600D01*
X14218700Y-8782600D02*
X14298700Y-8862600D01*
X14298700Y-8782600D02*
X14218700Y-8862600D01*
X14980700Y-8782600D02*
X15060700Y-8862600D01*
X15060700Y-8782600D02*
X14980700Y-8862600D01*
X15387700Y-8782600D02*
X15467700Y-8862600D01*
X15467700Y-8782600D02*
X15387700Y-8862600D01*
X16149700Y-8782600D02*
X16229700Y-8862600D01*
X16229700Y-8782600D02*
X16149700Y-8862600D01*
X7984700Y-6022600D02*
G75*
G03*
X7984700Y-6022600I-45000J0D01*
G01*
X7984700Y-8022600D02*
G75*
G03*
X7984700Y-8022600I-45000J0D01*
G01*
X8484700Y-6022600D02*
G75*
G03*
X8484700Y-6022600I-45000J0D01*
G01*
X8484700Y-8022600D02*
G75*
G03*
X8484700Y-8022600I-45000J0D01*
G01*
X8984700Y-8022600D02*
G75*
G03*
X8984700Y-8022600I-45000J0D01*
G01*
X9484700Y-6022600D02*
G75*
G03*
X9484700Y-6022600I-45000J0D01*
G01*
X9484700Y-8022600D02*
G75*
G03*
X9484700Y-8022600I-45000J0D01*
G01*
X9984700Y-6022600D02*
G75*
G03*
X9984700Y-6022600I-45000J0D01*
G01*
X9984700Y-8022600D02*
G75*
G03*
X9984700Y-8022600I-45000J0D01*
G01*
X13807200Y-6522600D02*
G75*
G03*
X13807200Y-6522600I-45000J0D01*
G01*
X13830700Y-4522600D02*
G75*
G03*
X13830700Y-4522600I-45000J0D01*
G01*
X14061200Y-6522600D02*
G75*
G03*
X14061200Y-6522600I-45000J0D01*
G01*
X14084700Y-4522600D02*
G75*
G03*
X14084700Y-4522600I-45000J0D01*
G01*
X8689700Y-9568600D02*
X8689700Y-9668600D01*
X8639700Y-9618600D02*
X8739700Y-9618600D01*
X8689700Y-9822600D02*
X8689700Y-9922600D01*
X8639700Y-9872600D02*
X8739700Y-9872600D01*
X8689700Y-10076600D02*
X8689700Y-10176600D01*
X8639700Y-10126600D02*
X8739700Y-10126600D01*
X9339700Y-9568600D02*
X9339700Y-9668600D01*
X9289700Y-9618600D02*
X9389700Y-9618600D01*
X9339700Y-9822600D02*
X9339700Y-9922600D01*
X9289700Y-9872600D02*
X9389700Y-9872600D01*
X9339700Y-10076600D02*
X9339700Y-10176600D01*
X9289700Y-10126600D02*
X9389700Y-10126600D01*
X10987200Y-3518100D02*
X10987200Y-3618100D01*
X10937200Y-3568100D02*
X11037200Y-3568100D01*
X10987200Y-4026100D02*
X10987200Y-4126100D01*
X10937200Y-4076100D02*
X11037200Y-4076100D01*
X11495200Y-3518100D02*
X11495200Y-3618100D01*
X11445200Y-3568100D02*
X11545200Y-3568100D01*
X11495200Y-4026100D02*
X11495200Y-4126100D01*
X11445200Y-4076100D02*
X11545200Y-4076100D01*
X11835700Y-8538100D02*
X11835700Y-8638100D01*
X11785700Y-8588100D02*
X11885700Y-8588100D01*
X12089700Y-8538100D02*
X12089700Y-8638100D01*
X12039700Y-8588100D02*
X12139700Y-8588100D01*
X12343700Y-8538100D02*
X12343700Y-8638100D01*
X12293700Y-8588100D02*
X12393700Y-8588100D01*
X14639700Y-3822600D02*
X14639700Y-3922600D01*
X14589700Y-3872600D02*
X14689700Y-3872600D01*
X14639700Y-4076600D02*
X14639700Y-4176600D01*
X14589700Y-4126600D02*
X14689700Y-4126600D01*
X14639700Y-4330600D02*
X14639700Y-4430600D01*
X14589700Y-4380600D02*
X14689700Y-4380600D01*
X14639700Y-4584600D02*
X14639700Y-4684600D01*
X14589700Y-4634600D02*
X14689700Y-4634600D01*
X14639700Y-4838600D02*
X14639700Y-4938600D01*
X14589700Y-4888600D02*
X14689700Y-4888600D01*
X14639700Y-5092600D02*
X14639700Y-5192600D01*
X14589700Y-5142600D02*
X14689700Y-5142600D01*
X14639700Y-5346600D02*
X14639700Y-5446600D01*
X14589700Y-5396600D02*
X14689700Y-5396600D01*
X14639700Y-5600600D02*
X14639700Y-5700600D01*
X14589700Y-5650600D02*
X14689700Y-5650600D01*
X14639700Y-5854600D02*
X14639700Y-5954600D01*
X14589700Y-5904600D02*
X14689700Y-5904600D01*
X14639700Y-6108600D02*
X14639700Y-6208600D01*
X14589700Y-6158600D02*
X14689700Y-6158600D01*
X14639700Y-6362600D02*
X14639700Y-6462600D01*
X14589700Y-6412600D02*
X14689700Y-6412600D01*
X14639700Y-6616600D02*
X14639700Y-6716600D01*
X14589700Y-6666600D02*
X14689700Y-6666600D01*
X14639700Y-6870600D02*
X14639700Y-6970600D01*
X14589700Y-6920600D02*
X14689700Y-6920600D01*
X14639700Y-7124600D02*
X14639700Y-7224600D01*
X14589700Y-7174600D02*
X14689700Y-7174600D01*
X14639700Y-7378600D02*
X14639700Y-7478600D01*
X14589700Y-7428600D02*
X14689700Y-7428600D01*
X16163700Y-3822600D02*
X16163700Y-3922600D01*
X16113700Y-3872600D02*
X16213700Y-3872600D01*
X16163700Y-4076600D02*
X16163700Y-4176600D01*
X16113700Y-4126600D02*
X16213700Y-4126600D01*
X16163700Y-4330600D02*
X16163700Y-4430600D01*
X16113700Y-4380600D02*
X16213700Y-4380600D01*
X16163700Y-4584600D02*
X16163700Y-4684600D01*
X16113700Y-4634600D02*
X16213700Y-4634600D01*
X16163700Y-4838600D02*
X16163700Y-4938600D01*
X16113700Y-4888600D02*
X16213700Y-4888600D01*
X16163700Y-5092600D02*
X16163700Y-5192600D01*
X16113700Y-5142600D02*
X16213700Y-5142600D01*
X16163700Y-5346600D02*
X16163700Y-5446600D01*
X16113700Y-5396600D02*
X16213700Y-5396600D01*
X16163700Y-5600600D02*
X16163700Y-5700600D01*
X16113700Y-5650600D02*
X16213700Y-5650600D01*
X16163700Y-5854600D02*
X16163700Y-5954600D01*
X16113700Y-5904600D02*
X16213700Y-5904600D01*
X16163700Y-6108600D02*
X16163700Y-6208600D01*
X16113700Y-6158600D02*
X16213700Y-6158600D01*
X16163700Y-6362600D02*
X16163700Y-6462600D01*
X16113700Y-6412600D02*
X16213700Y-6412600D01*
X16163700Y-6616600D02*
X16163700Y-6716600D01*
X16113700Y-6666600D02*
X16213700Y-6666600D01*
X16163700Y-6870600D02*
X16163700Y-6970600D01*
X16113700Y-6920600D02*
X16213700Y-6920600D01*
X16163700Y-7124600D02*
X16163700Y-7224600D01*
X16113700Y-7174600D02*
X16213700Y-7174600D01*
X16163700Y-7378600D02*
X16163700Y-7478600D01*
X16113700Y-7428600D02*
X16213700Y-7428600D01*
D12*
X13828591Y-7553491D02*
X13828591Y-7475709D01*
X13750809Y-7475709D01*
X13750809Y-7553491D01*
X13828591Y-7553491D01*
X13828591Y-8569491D02*
X13828591Y-8491709D01*
X13750809Y-8491709D01*
X13750809Y-8569491D01*
X13828591Y-8569491D01*
D13*
X7814700Y-5032600D02*
X7874700Y-4972600D01*
X7814700Y-4912600D01*
X7754700Y-4972600D01*
X7814700Y-5032600D01*
X10064700Y-5032600D02*
X10124700Y-4972600D01*
X10064700Y-4912600D01*
X10004700Y-4972600D01*
X10064700Y-5032600D01*
D14*
X6874700Y-9557600D02*
X7004700Y-9687600D01*
X7004700Y-9557600D02*
X6874700Y-9687600D01*
X7004700Y-9622600D02*
G75*
G03*
X7004700Y-9622600I-65000J0D01*
G01*
X7382700Y-9557600D02*
X7512700Y-9687600D01*
X7512700Y-9557600D02*
X7382700Y-9687600D01*
X7512700Y-9622600D02*
G75*
G03*
X7512700Y-9622600I-65000J0D01*
G01*
X7566700Y-3757600D02*
X7696700Y-3887600D01*
X7696700Y-3757600D02*
X7566700Y-3887600D01*
X7696700Y-3822600D02*
G75*
G03*
X7696700Y-3822600I-65000J0D01*
G01*
X7890700Y-9557600D02*
X8020700Y-9687600D01*
X8020700Y-9557600D02*
X7890700Y-9687600D01*
X8020700Y-9622600D02*
G75*
G03*
X8020700Y-9622600I-65000J0D01*
G01*
X8074700Y-3757600D02*
X8204700Y-3887600D01*
X8204700Y-3757600D02*
X8074700Y-3887600D01*
X8204700Y-3822600D02*
G75*
G03*
X8204700Y-3822600I-65000J0D01*
G01*
X8582700Y-3757600D02*
X8712700Y-3887600D01*
X8712700Y-3757600D02*
X8582700Y-3887600D01*
X8712700Y-3822600D02*
G75*
G03*
X8712700Y-3822600I-65000J0D01*
G01*
X9324700Y-3757600D02*
X9454700Y-3887600D01*
X9454700Y-3757600D02*
X9324700Y-3887600D01*
X9454700Y-3822600D02*
G75*
G03*
X9454700Y-3822600I-65000J0D01*
G01*
X9832700Y-3757600D02*
X9962700Y-3887600D01*
X9962700Y-3757600D02*
X9832700Y-3887600D01*
X9962700Y-3822600D02*
G75*
G03*
X9962700Y-3822600I-65000J0D01*
G01*
X10016700Y-9607600D02*
X10146700Y-9737600D01*
X10146700Y-9607600D02*
X10016700Y-9737600D01*
X10146700Y-9672600D02*
G75*
G03*
X10146700Y-9672600I-65000J0D01*
G01*
X10340700Y-3757600D02*
X10470700Y-3887600D01*
X10470700Y-3757600D02*
X10340700Y-3887600D01*
X10470700Y-3822600D02*
G75*
G03*
X10470700Y-3822600I-65000J0D01*
G01*
X10524700Y-9607600D02*
X10654700Y-9737600D01*
X10654700Y-9607600D02*
X10524700Y-9737600D01*
X10654700Y-9672600D02*
G75*
G03*
X10654700Y-9672600I-65000J0D01*
G01*
X11032700Y-9607600D02*
X11162700Y-9737600D01*
X11162700Y-9607600D02*
X11032700Y-9737600D01*
X11162700Y-9672600D02*
G75*
G03*
X11162700Y-9672600I-65000J0D01*
G01*
X11766700Y-9607600D02*
X11896700Y-9737600D01*
X11896700Y-9607600D02*
X11766700Y-9737600D01*
X11896700Y-9672600D02*
G75*
G03*
X11896700Y-9672600I-65000J0D01*
G01*
X12274700Y-9607600D02*
X12404700Y-9737600D01*
X12404700Y-9607600D02*
X12274700Y-9737600D01*
X12404700Y-9672600D02*
G75*
G03*
X12404700Y-9672600I-65000J0D01*
G01*
X12782700Y-9607600D02*
X12912700Y-9737600D01*
X12912700Y-9607600D02*
X12782700Y-9737600D01*
X12912700Y-9672600D02*
G75*
G03*
X12912700Y-9672600I-65000J0D01*
G01*
X13524700Y-9657600D02*
X13654700Y-9787600D01*
X13654700Y-9657600D02*
X13524700Y-9787600D01*
X13654700Y-9722600D02*
G75*
G03*
X13654700Y-9722600I-65000J0D01*
G01*
X14032700Y-9657600D02*
X14162700Y-9787600D01*
X14162700Y-9657600D02*
X14032700Y-9787600D01*
X14162700Y-9722600D02*
G75*
G03*
X14162700Y-9722600I-65000J0D01*
G01*
X14540700Y-9657600D02*
X14670700Y-9787600D01*
X14670700Y-9657600D02*
X14540700Y-9787600D01*
X14670700Y-9722600D02*
G75*
G03*
X14670700Y-9722600I-65000J0D01*
G01*
X15274700Y-9657600D02*
X15404700Y-9787600D01*
X15404700Y-9657600D02*
X15274700Y-9787600D01*
X15404700Y-9722600D02*
G75*
G03*
X15404700Y-9722600I-65000J0D01*
G01*
X15782700Y-9657600D02*
X15912700Y-9787600D01*
X15912700Y-9657600D02*
X15782700Y-9787600D01*
X15912700Y-9722600D02*
G75*
G03*
X15912700Y-9722600I-65000J0D01*
G01*
X16290700Y-9657600D02*
X16420700Y-9787600D01*
X16420700Y-9657600D02*
X16290700Y-9787600D01*
X16420700Y-9722600D02*
G75*
G03*
X16420700Y-9722600I-65000J0D01*
G01*
D15*
X6760700Y-3268200D02*
X6980700Y-3488200D01*
X6980700Y-3268200D02*
X6760700Y-3488200D01*
X6870700Y-3268200D02*
X6870700Y-3488200D01*
X6760700Y-3378200D02*
X6980700Y-3378200D01*
X6779700Y-10412600D02*
X6999700Y-10632600D01*
X6999700Y-10412600D02*
X6779700Y-10632600D01*
X6889700Y-10412600D02*
X6889700Y-10632600D01*
X6779700Y-10522600D02*
X6999700Y-10522600D01*
X16579700Y-3262600D02*
X16799700Y-3482600D01*
X16799700Y-3262600D02*
X16579700Y-3482600D01*
X16689700Y-3262600D02*
X16689700Y-3482600D01*
X16579700Y-3372600D02*
X16799700Y-3372600D01*
X16579700Y-10412600D02*
X16799700Y-10632600D01*
X16799700Y-10412600D02*
X16579700Y-10632600D01*
X16689700Y-10412600D02*
X16689700Y-10632600D01*
X16579700Y-10522600D02*
X16799700Y-10522600D01*
D11*
X6745477Y-11189084D02*
X6745477Y-10989084D01*
X6745477Y-10989084D02*
X6793096Y-10989084D01*
X6793096Y-10989084D02*
X6821667Y-10998608D01*
X6821667Y-10998608D02*
X6840715Y-11017655D01*
X6840715Y-11017655D02*
X6850239Y-11036703D01*
X6850239Y-11036703D02*
X6859762Y-11074798D01*
X6859762Y-11074798D02*
X6859762Y-11103370D01*
X6859762Y-11103370D02*
X6850239Y-11141465D01*
X6850239Y-11141465D02*
X6840715Y-11160512D01*
X6840715Y-11160512D02*
X6821667Y-11179560D01*
X6821667Y-11179560D02*
X6793096Y-11189084D01*
X6793096Y-11189084D02*
X6745477Y-11189084D01*
X6945477Y-11189084D02*
X6945477Y-11055750D01*
X6945477Y-11093846D02*
X6955001Y-11074798D01*
X6955001Y-11074798D02*
X6964524Y-11065274D01*
X6964524Y-11065274D02*
X6983572Y-11055750D01*
X6983572Y-11055750D02*
X7002620Y-11055750D01*
X7069286Y-11189084D02*
X7069286Y-11055750D01*
X7069286Y-10989084D02*
X7059762Y-10998608D01*
X7059762Y-10998608D02*
X7069286Y-11008131D01*
X7069286Y-11008131D02*
X7078810Y-10998608D01*
X7078810Y-10998608D02*
X7069286Y-10989084D01*
X7069286Y-10989084D02*
X7069286Y-11008131D01*
X7193096Y-11189084D02*
X7174048Y-11179560D01*
X7174048Y-11179560D02*
X7164524Y-11160512D01*
X7164524Y-11160512D02*
X7164524Y-10989084D01*
X7297858Y-11189084D02*
X7278810Y-11179560D01*
X7278810Y-11179560D02*
X7269286Y-11160512D01*
X7269286Y-11160512D02*
X7269286Y-10989084D01*
X7526429Y-11189084D02*
X7526429Y-10989084D01*
X7526429Y-10989084D02*
X7593096Y-11131941D01*
X7593096Y-11131941D02*
X7659762Y-10989084D01*
X7659762Y-10989084D02*
X7659762Y-11189084D01*
X7840715Y-11189084D02*
X7840715Y-11084322D01*
X7840715Y-11084322D02*
X7831191Y-11065274D01*
X7831191Y-11065274D02*
X7812143Y-11055750D01*
X7812143Y-11055750D02*
X7774048Y-11055750D01*
X7774048Y-11055750D02*
X7755001Y-11065274D01*
X7840715Y-11179560D02*
X7821667Y-11189084D01*
X7821667Y-11189084D02*
X7774048Y-11189084D01*
X7774048Y-11189084D02*
X7755001Y-11179560D01*
X7755001Y-11179560D02*
X7745477Y-11160512D01*
X7745477Y-11160512D02*
X7745477Y-11141465D01*
X7745477Y-11141465D02*
X7755001Y-11122417D01*
X7755001Y-11122417D02*
X7774048Y-11112893D01*
X7774048Y-11112893D02*
X7821667Y-11112893D01*
X7821667Y-11112893D02*
X7840715Y-11103370D01*
X7935953Y-11055750D02*
X7935953Y-11255750D01*
X7935953Y-11065274D02*
X7955001Y-11055750D01*
X7955001Y-11055750D02*
X7993096Y-11055750D01*
X7993096Y-11055750D02*
X8012143Y-11065274D01*
X8012143Y-11065274D02*
X8021667Y-11074798D01*
X8021667Y-11074798D02*
X8031191Y-11093846D01*
X8031191Y-11093846D02*
X8031191Y-11150989D01*
X8031191Y-11150989D02*
X8021667Y-11170036D01*
X8021667Y-11170036D02*
X8012143Y-11179560D01*
X8012143Y-11179560D02*
X7993096Y-11189084D01*
X7993096Y-11189084D02*
X7955001Y-11189084D01*
X7955001Y-11189084D02*
X7935953Y-11179560D01*
X8116905Y-11170036D02*
X8126429Y-11179560D01*
X8126429Y-11179560D02*
X8116905Y-11189084D01*
X8116905Y-11189084D02*
X8107382Y-11179560D01*
X8107382Y-11179560D02*
X8116905Y-11170036D01*
X8116905Y-11170036D02*
X8116905Y-11189084D01*
X8116905Y-11065274D02*
X8126429Y-11074798D01*
X8126429Y-11074798D02*
X8116905Y-11084322D01*
X8116905Y-11084322D02*
X8107382Y-11074798D01*
X8107382Y-11074798D02*
X8116905Y-11065274D01*
X8116905Y-11065274D02*
X8116905Y-11084322D01*
D10*
X6404700Y-11477600D02*
X6484700Y-11557600D01*
X6484700Y-11477600D02*
X6404700Y-11557600D01*
D11*
X6783572Y-11409084D02*
X6802620Y-11409084D01*
X6802620Y-11409084D02*
X6821667Y-11418608D01*
X6821667Y-11418608D02*
X6831191Y-11428131D01*
X6831191Y-11428131D02*
X6840715Y-11447179D01*
X6840715Y-11447179D02*
X6850239Y-11485274D01*
X6850239Y-11485274D02*
X6850239Y-11532893D01*
X6850239Y-11532893D02*
X6840715Y-11570988D01*
X6840715Y-11570988D02*
X6831191Y-11590036D01*
X6831191Y-11590036D02*
X6821667Y-11599560D01*
X6821667Y-11599560D02*
X6802620Y-11609084D01*
X6802620Y-11609084D02*
X6783572Y-11609084D01*
X6783572Y-11609084D02*
X6764524Y-11599560D01*
X6764524Y-11599560D02*
X6755001Y-11590036D01*
X6755001Y-11590036D02*
X6745477Y-11570988D01*
X6745477Y-11570988D02*
X6735953Y-11532893D01*
X6735953Y-11532893D02*
X6735953Y-11485274D01*
X6735953Y-11485274D02*
X6745477Y-11447179D01*
X6745477Y-11447179D02*
X6755001Y-11428131D01*
X6755001Y-11428131D02*
X6764524Y-11418608D01*
X6764524Y-11418608D02*
X6783572Y-11409084D01*
X6935953Y-11590036D02*
X6945477Y-11599560D01*
X6945477Y-11599560D02*
X6935953Y-11609084D01*
X6935953Y-11609084D02*
X6926429Y-11599560D01*
X6926429Y-11599560D02*
X6935953Y-11590036D01*
X6935953Y-11590036D02*
X6935953Y-11609084D01*
X7059762Y-11494798D02*
X7040715Y-11485274D01*
X7040715Y-11485274D02*
X7031191Y-11475750D01*
X7031191Y-11475750D02*
X7021667Y-11456703D01*
X7021667Y-11456703D02*
X7021667Y-11447179D01*
X7021667Y-11447179D02*
X7031191Y-11428131D01*
X7031191Y-11428131D02*
X7040715Y-11418608D01*
X7040715Y-11418608D02*
X7059762Y-11409084D01*
X7059762Y-11409084D02*
X7097858Y-11409084D01*
X7097858Y-11409084D02*
X7116905Y-11418608D01*
X7116905Y-11418608D02*
X7126429Y-11428131D01*
X7126429Y-11428131D02*
X7135953Y-11447179D01*
X7135953Y-11447179D02*
X7135953Y-11456703D01*
X7135953Y-11456703D02*
X7126429Y-11475750D01*
X7126429Y-11475750D02*
X7116905Y-11485274D01*
X7116905Y-11485274D02*
X7097858Y-11494798D01*
X7097858Y-11494798D02*
X7059762Y-11494798D01*
X7059762Y-11494798D02*
X7040715Y-11504322D01*
X7040715Y-11504322D02*
X7031191Y-11513846D01*
X7031191Y-11513846D02*
X7021667Y-11532893D01*
X7021667Y-11532893D02*
X7021667Y-11570988D01*
X7021667Y-11570988D02*
X7031191Y-11590036D01*
X7031191Y-11590036D02*
X7040715Y-11599560D01*
X7040715Y-11599560D02*
X7059762Y-11609084D01*
X7059762Y-11609084D02*
X7097858Y-11609084D01*
X7097858Y-11609084D02*
X7116905Y-11599560D01*
X7116905Y-11599560D02*
X7126429Y-11590036D01*
X7126429Y-11590036D02*
X7135953Y-11570988D01*
X7135953Y-11570988D02*
X7135953Y-11532893D01*
X7135953Y-11532893D02*
X7126429Y-11513846D01*
X7126429Y-11513846D02*
X7116905Y-11504322D01*
X7116905Y-11504322D02*
X7097858Y-11494798D01*
X7259762Y-11409084D02*
X7278810Y-11409084D01*
X7278810Y-11409084D02*
X7297858Y-11418608D01*
X7297858Y-11418608D02*
X7307382Y-11428131D01*
X7307382Y-11428131D02*
X7316905Y-11447179D01*
X7316905Y-11447179D02*
X7326429Y-11485274D01*
X7326429Y-11485274D02*
X7326429Y-11532893D01*
X7326429Y-11532893D02*
X7316905Y-11570988D01*
X7316905Y-11570988D02*
X7307382Y-11590036D01*
X7307382Y-11590036D02*
X7297858Y-11599560D01*
X7297858Y-11599560D02*
X7278810Y-11609084D01*
X7278810Y-11609084D02*
X7259762Y-11609084D01*
X7259762Y-11609084D02*
X7240715Y-11599560D01*
X7240715Y-11599560D02*
X7231191Y-11590036D01*
X7231191Y-11590036D02*
X7221667Y-11570988D01*
X7221667Y-11570988D02*
X7212143Y-11532893D01*
X7212143Y-11532893D02*
X7212143Y-11485274D01*
X7212143Y-11485274D02*
X7221667Y-11447179D01*
X7221667Y-11447179D02*
X7231191Y-11428131D01*
X7231191Y-11428131D02*
X7240715Y-11418608D01*
X7240715Y-11418608D02*
X7259762Y-11409084D01*
X7450239Y-11409084D02*
X7469286Y-11409084D01*
X7469286Y-11409084D02*
X7488334Y-11418608D01*
X7488334Y-11418608D02*
X7497858Y-11428131D01*
X7497858Y-11428131D02*
X7507382Y-11447179D01*
X7507382Y-11447179D02*
X7516905Y-11485274D01*
X7516905Y-11485274D02*
X7516905Y-11532893D01*
X7516905Y-11532893D02*
X7507382Y-11570988D01*
X7507382Y-11570988D02*
X7497858Y-11590036D01*
X7497858Y-11590036D02*
X7488334Y-11599560D01*
X7488334Y-11599560D02*
X7469286Y-11609084D01*
X7469286Y-11609084D02*
X7450239Y-11609084D01*
X7450239Y-11609084D02*
X7431191Y-11599560D01*
X7431191Y-11599560D02*
X7421667Y-11590036D01*
X7421667Y-11590036D02*
X7412143Y-11570988D01*
X7412143Y-11570988D02*
X7402620Y-11532893D01*
X7402620Y-11532893D02*
X7402620Y-11485274D01*
X7402620Y-11485274D02*
X7412143Y-11447179D01*
X7412143Y-11447179D02*
X7421667Y-11428131D01*
X7421667Y-11428131D02*
X7431191Y-11418608D01*
X7431191Y-11418608D02*
X7450239Y-11409084D01*
X7602620Y-11609084D02*
X7602620Y-11475750D01*
X7602620Y-11494798D02*
X7612143Y-11485274D01*
X7612143Y-11485274D02*
X7631191Y-11475750D01*
X7631191Y-11475750D02*
X7659763Y-11475750D01*
X7659763Y-11475750D02*
X7678810Y-11485274D01*
X7678810Y-11485274D02*
X7688334Y-11504322D01*
X7688334Y-11504322D02*
X7688334Y-11609084D01*
X7688334Y-11504322D02*
X7697858Y-11485274D01*
X7697858Y-11485274D02*
X7716905Y-11475750D01*
X7716905Y-11475750D02*
X7745477Y-11475750D01*
X7745477Y-11475750D02*
X7764524Y-11485274D01*
X7764524Y-11485274D02*
X7774048Y-11504322D01*
X7774048Y-11504322D02*
X7774048Y-11609084D01*
X7869286Y-11609084D02*
X7869286Y-11475750D01*
X7869286Y-11494798D02*
X7878810Y-11485274D01*
X7878810Y-11485274D02*
X7897858Y-11475750D01*
X7897858Y-11475750D02*
X7926429Y-11475750D01*
X7926429Y-11475750D02*
X7945477Y-11485274D01*
X7945477Y-11485274D02*
X7955001Y-11504322D01*
X7955001Y-11504322D02*
X7955001Y-11609084D01*
X7955001Y-11504322D02*
X7964524Y-11485274D01*
X7964524Y-11485274D02*
X7983572Y-11475750D01*
X7983572Y-11475750D02*
X8012143Y-11475750D01*
X8012143Y-11475750D02*
X8031191Y-11485274D01*
X8031191Y-11485274D02*
X8040715Y-11504322D01*
X8040715Y-11504322D02*
X8040715Y-11609084D01*
X8431191Y-11399560D02*
X8259763Y-11656703D01*
X8688334Y-11409084D02*
X8707382Y-11409084D01*
X8707382Y-11409084D02*
X8726429Y-11418608D01*
X8726429Y-11418608D02*
X8735953Y-11428131D01*
X8735953Y-11428131D02*
X8745477Y-11447179D01*
X8745477Y-11447179D02*
X8755001Y-11485274D01*
X8755001Y-11485274D02*
X8755001Y-11532893D01*
X8755001Y-11532893D02*
X8745477Y-11570988D01*
X8745477Y-11570988D02*
X8735953Y-11590036D01*
X8735953Y-11590036D02*
X8726429Y-11599560D01*
X8726429Y-11599560D02*
X8707382Y-11609084D01*
X8707382Y-11609084D02*
X8688334Y-11609084D01*
X8688334Y-11609084D02*
X8669287Y-11599560D01*
X8669287Y-11599560D02*
X8659763Y-11590036D01*
X8659763Y-11590036D02*
X8650239Y-11570988D01*
X8650239Y-11570988D02*
X8640715Y-11532893D01*
X8640715Y-11532893D02*
X8640715Y-11485274D01*
X8640715Y-11485274D02*
X8650239Y-11447179D01*
X8650239Y-11447179D02*
X8659763Y-11428131D01*
X8659763Y-11428131D02*
X8669287Y-11418608D01*
X8669287Y-11418608D02*
X8688334Y-11409084D01*
X8840715Y-11590036D02*
X8850239Y-11599560D01*
X8850239Y-11599560D02*
X8840715Y-11609084D01*
X8840715Y-11609084D02*
X8831191Y-11599560D01*
X8831191Y-11599560D02*
X8840715Y-11590036D01*
X8840715Y-11590036D02*
X8840715Y-11609084D01*
X8974048Y-11409084D02*
X8993096Y-11409084D01*
X8993096Y-11409084D02*
X9012144Y-11418608D01*
X9012144Y-11418608D02*
X9021668Y-11428131D01*
X9021668Y-11428131D02*
X9031191Y-11447179D01*
X9031191Y-11447179D02*
X9040715Y-11485274D01*
X9040715Y-11485274D02*
X9040715Y-11532893D01*
X9040715Y-11532893D02*
X9031191Y-11570988D01*
X9031191Y-11570988D02*
X9021668Y-11590036D01*
X9021668Y-11590036D02*
X9012144Y-11599560D01*
X9012144Y-11599560D02*
X8993096Y-11609084D01*
X8993096Y-11609084D02*
X8974048Y-11609084D01*
X8974048Y-11609084D02*
X8955001Y-11599560D01*
X8955001Y-11599560D02*
X8945477Y-11590036D01*
X8945477Y-11590036D02*
X8935953Y-11570988D01*
X8935953Y-11570988D02*
X8926429Y-11532893D01*
X8926429Y-11532893D02*
X8926429Y-11485274D01*
X8926429Y-11485274D02*
X8935953Y-11447179D01*
X8935953Y-11447179D02*
X8945477Y-11428131D01*
X8945477Y-11428131D02*
X8955001Y-11418608D01*
X8955001Y-11418608D02*
X8974048Y-11409084D01*
X9107382Y-11409084D02*
X9231191Y-11409084D01*
X9231191Y-11409084D02*
X9164525Y-11485274D01*
X9164525Y-11485274D02*
X9193096Y-11485274D01*
X9193096Y-11485274D02*
X9212144Y-11494798D01*
X9212144Y-11494798D02*
X9221668Y-11504322D01*
X9221668Y-11504322D02*
X9231191Y-11523369D01*
X9231191Y-11523369D02*
X9231191Y-11570988D01*
X9231191Y-11570988D02*
X9221668Y-11590036D01*
X9221668Y-11590036D02*
X9212144Y-11599560D01*
X9212144Y-11599560D02*
X9193096Y-11609084D01*
X9193096Y-11609084D02*
X9135953Y-11609084D01*
X9135953Y-11609084D02*
X9116906Y-11599560D01*
X9116906Y-11599560D02*
X9107382Y-11590036D01*
X9421668Y-11609084D02*
X9307382Y-11609084D01*
X9364525Y-11609084D02*
X9364525Y-11409084D01*
X9364525Y-11409084D02*
X9345477Y-11437655D01*
X9345477Y-11437655D02*
X9326429Y-11456703D01*
X9326429Y-11456703D02*
X9307382Y-11466227D01*
X9602620Y-11409084D02*
X9507382Y-11409084D01*
X9507382Y-11409084D02*
X9497858Y-11504322D01*
X9497858Y-11504322D02*
X9507382Y-11494798D01*
X9507382Y-11494798D02*
X9526429Y-11485274D01*
X9526429Y-11485274D02*
X9574049Y-11485274D01*
X9574049Y-11485274D02*
X9593096Y-11494798D01*
X9593096Y-11494798D02*
X9602620Y-11504322D01*
X9602620Y-11504322D02*
X9612144Y-11523369D01*
X9612144Y-11523369D02*
X9612144Y-11570988D01*
X9612144Y-11570988D02*
X9602620Y-11590036D01*
X9602620Y-11590036D02*
X9593096Y-11599560D01*
X9593096Y-11599560D02*
X9574049Y-11609084D01*
X9574049Y-11609084D02*
X9526429Y-11609084D01*
X9526429Y-11609084D02*
X9507382Y-11599560D01*
X9507382Y-11599560D02*
X9497858Y-11590036D01*
X9688334Y-11409084D02*
X9688334Y-11447179D01*
X9764525Y-11409084D02*
X9764525Y-11447179D01*
X10059763Y-11685274D02*
X10050239Y-11675750D01*
X10050239Y-11675750D02*
X10031191Y-11647179D01*
X10031191Y-11647179D02*
X10021668Y-11628131D01*
X10021668Y-11628131D02*
X10012144Y-11599560D01*
X10012144Y-11599560D02*
X10002620Y-11551941D01*
X10002620Y-11551941D02*
X10002620Y-11513846D01*
X10002620Y-11513846D02*
X10012144Y-11466227D01*
X10012144Y-11466227D02*
X10021668Y-11437655D01*
X10021668Y-11437655D02*
X10031191Y-11418608D01*
X10031191Y-11418608D02*
X10050239Y-11390036D01*
X10050239Y-11390036D02*
X10059763Y-11380512D01*
X10126430Y-11428131D02*
X10135953Y-11418608D01*
X10135953Y-11418608D02*
X10155001Y-11409084D01*
X10155001Y-11409084D02*
X10202620Y-11409084D01*
X10202620Y-11409084D02*
X10221668Y-11418608D01*
X10221668Y-11418608D02*
X10231191Y-11428131D01*
X10231191Y-11428131D02*
X10240715Y-11447179D01*
X10240715Y-11447179D02*
X10240715Y-11466227D01*
X10240715Y-11466227D02*
X10231191Y-11494798D01*
X10231191Y-11494798D02*
X10116906Y-11609084D01*
X10116906Y-11609084D02*
X10240715Y-11609084D01*
X10364525Y-11409084D02*
X10383572Y-11409084D01*
X10383572Y-11409084D02*
X10402620Y-11418608D01*
X10402620Y-11418608D02*
X10412144Y-11428131D01*
X10412144Y-11428131D02*
X10421668Y-11447179D01*
X10421668Y-11447179D02*
X10431191Y-11485274D01*
X10431191Y-11485274D02*
X10431191Y-11532893D01*
X10431191Y-11532893D02*
X10421668Y-11570988D01*
X10421668Y-11570988D02*
X10412144Y-11590036D01*
X10412144Y-11590036D02*
X10402620Y-11599560D01*
X10402620Y-11599560D02*
X10383572Y-11609084D01*
X10383572Y-11609084D02*
X10364525Y-11609084D01*
X10364525Y-11609084D02*
X10345477Y-11599560D01*
X10345477Y-11599560D02*
X10335953Y-11590036D01*
X10335953Y-11590036D02*
X10326430Y-11570988D01*
X10326430Y-11570988D02*
X10316906Y-11532893D01*
X10316906Y-11532893D02*
X10316906Y-11485274D01*
X10316906Y-11485274D02*
X10326430Y-11447179D01*
X10326430Y-11447179D02*
X10335953Y-11428131D01*
X10335953Y-11428131D02*
X10345477Y-11418608D01*
X10345477Y-11418608D02*
X10364525Y-11409084D01*
X10669287Y-11609084D02*
X10669287Y-11409084D01*
X10755001Y-11609084D02*
X10755001Y-11504322D01*
X10755001Y-11504322D02*
X10745477Y-11485274D01*
X10745477Y-11485274D02*
X10726430Y-11475750D01*
X10726430Y-11475750D02*
X10697858Y-11475750D01*
X10697858Y-11475750D02*
X10678811Y-11485274D01*
X10678811Y-11485274D02*
X10669287Y-11494798D01*
X10878811Y-11609084D02*
X10859763Y-11599560D01*
X10859763Y-11599560D02*
X10850239Y-11590036D01*
X10850239Y-11590036D02*
X10840715Y-11570988D01*
X10840715Y-11570988D02*
X10840715Y-11513846D01*
X10840715Y-11513846D02*
X10850239Y-11494798D01*
X10850239Y-11494798D02*
X10859763Y-11485274D01*
X10859763Y-11485274D02*
X10878811Y-11475750D01*
X10878811Y-11475750D02*
X10907382Y-11475750D01*
X10907382Y-11475750D02*
X10926430Y-11485274D01*
X10926430Y-11485274D02*
X10935953Y-11494798D01*
X10935953Y-11494798D02*
X10945477Y-11513846D01*
X10945477Y-11513846D02*
X10945477Y-11570988D01*
X10945477Y-11570988D02*
X10935953Y-11590036D01*
X10935953Y-11590036D02*
X10926430Y-11599560D01*
X10926430Y-11599560D02*
X10907382Y-11609084D01*
X10907382Y-11609084D02*
X10878811Y-11609084D01*
X11059763Y-11609084D02*
X11040715Y-11599560D01*
X11040715Y-11599560D02*
X11031192Y-11580512D01*
X11031192Y-11580512D02*
X11031192Y-11409084D01*
X11212144Y-11599560D02*
X11193096Y-11609084D01*
X11193096Y-11609084D02*
X11155001Y-11609084D01*
X11155001Y-11609084D02*
X11135953Y-11599560D01*
X11135953Y-11599560D02*
X11126430Y-11580512D01*
X11126430Y-11580512D02*
X11126430Y-11504322D01*
X11126430Y-11504322D02*
X11135953Y-11485274D01*
X11135953Y-11485274D02*
X11155001Y-11475750D01*
X11155001Y-11475750D02*
X11193096Y-11475750D01*
X11193096Y-11475750D02*
X11212144Y-11485274D01*
X11212144Y-11485274D02*
X11221668Y-11504322D01*
X11221668Y-11504322D02*
X11221668Y-11523369D01*
X11221668Y-11523369D02*
X11126430Y-11542417D01*
X11297858Y-11599560D02*
X11316906Y-11609084D01*
X11316906Y-11609084D02*
X11355001Y-11609084D01*
X11355001Y-11609084D02*
X11374049Y-11599560D01*
X11374049Y-11599560D02*
X11383572Y-11580512D01*
X11383572Y-11580512D02*
X11383572Y-11570988D01*
X11383572Y-11570988D02*
X11374049Y-11551941D01*
X11374049Y-11551941D02*
X11355001Y-11542417D01*
X11355001Y-11542417D02*
X11326430Y-11542417D01*
X11326430Y-11542417D02*
X11307382Y-11532893D01*
X11307382Y-11532893D02*
X11297858Y-11513846D01*
X11297858Y-11513846D02*
X11297858Y-11504322D01*
X11297858Y-11504322D02*
X11307382Y-11485274D01*
X11307382Y-11485274D02*
X11326430Y-11475750D01*
X11326430Y-11475750D02*
X11355001Y-11475750D01*
X11355001Y-11475750D02*
X11374049Y-11485274D01*
X11450239Y-11685274D02*
X11459763Y-11675750D01*
X11459763Y-11675750D02*
X11478811Y-11647179D01*
X11478811Y-11647179D02*
X11488334Y-11628131D01*
X11488334Y-11628131D02*
X11497858Y-11599560D01*
X11497858Y-11599560D02*
X11507382Y-11551941D01*
X11507382Y-11551941D02*
X11507382Y-11513846D01*
X11507382Y-11513846D02*
X11497858Y-11466227D01*
X11497858Y-11466227D02*
X11488334Y-11437655D01*
X11488334Y-11437655D02*
X11478811Y-11418608D01*
X11478811Y-11418608D02*
X11459763Y-11390036D01*
X11459763Y-11390036D02*
X11450239Y-11380512D01*
D10*
X6484700Y-11781600D02*
G75*
G03*
X6484700Y-11781600I-45000J0D01*
G01*
D11*
X6783572Y-11673084D02*
X6802620Y-11673084D01*
X6802620Y-11673084D02*
X6821667Y-11682608D01*
X6821667Y-11682608D02*
X6831191Y-11692131D01*
X6831191Y-11692131D02*
X6840715Y-11711179D01*
X6840715Y-11711179D02*
X6850239Y-11749274D01*
X6850239Y-11749274D02*
X6850239Y-11796893D01*
X6850239Y-11796893D02*
X6840715Y-11834988D01*
X6840715Y-11834988D02*
X6831191Y-11854036D01*
X6831191Y-11854036D02*
X6821667Y-11863560D01*
X6821667Y-11863560D02*
X6802620Y-11873084D01*
X6802620Y-11873084D02*
X6783572Y-11873084D01*
X6783572Y-11873084D02*
X6764524Y-11863560D01*
X6764524Y-11863560D02*
X6755001Y-11854036D01*
X6755001Y-11854036D02*
X6745477Y-11834988D01*
X6745477Y-11834988D02*
X6735953Y-11796893D01*
X6735953Y-11796893D02*
X6735953Y-11749274D01*
X6735953Y-11749274D02*
X6745477Y-11711179D01*
X6745477Y-11711179D02*
X6755001Y-11692131D01*
X6755001Y-11692131D02*
X6764524Y-11682608D01*
X6764524Y-11682608D02*
X6783572Y-11673084D01*
X6935953Y-11854036D02*
X6945477Y-11863560D01*
X6945477Y-11863560D02*
X6935953Y-11873084D01*
X6935953Y-11873084D02*
X6926429Y-11863560D01*
X6926429Y-11863560D02*
X6935953Y-11854036D01*
X6935953Y-11854036D02*
X6935953Y-11873084D01*
X7040715Y-11873084D02*
X7078810Y-11873084D01*
X7078810Y-11873084D02*
X7097858Y-11863560D01*
X7097858Y-11863560D02*
X7107382Y-11854036D01*
X7107382Y-11854036D02*
X7126429Y-11825465D01*
X7126429Y-11825465D02*
X7135953Y-11787369D01*
X7135953Y-11787369D02*
X7135953Y-11711179D01*
X7135953Y-11711179D02*
X7126429Y-11692131D01*
X7126429Y-11692131D02*
X7116905Y-11682608D01*
X7116905Y-11682608D02*
X7097858Y-11673084D01*
X7097858Y-11673084D02*
X7059762Y-11673084D01*
X7059762Y-11673084D02*
X7040715Y-11682608D01*
X7040715Y-11682608D02*
X7031191Y-11692131D01*
X7031191Y-11692131D02*
X7021667Y-11711179D01*
X7021667Y-11711179D02*
X7021667Y-11758798D01*
X7021667Y-11758798D02*
X7031191Y-11777846D01*
X7031191Y-11777846D02*
X7040715Y-11787369D01*
X7040715Y-11787369D02*
X7059762Y-11796893D01*
X7059762Y-11796893D02*
X7097858Y-11796893D01*
X7097858Y-11796893D02*
X7116905Y-11787369D01*
X7116905Y-11787369D02*
X7126429Y-11777846D01*
X7126429Y-11777846D02*
X7135953Y-11758798D01*
X7259762Y-11673084D02*
X7278810Y-11673084D01*
X7278810Y-11673084D02*
X7297858Y-11682608D01*
X7297858Y-11682608D02*
X7307382Y-11692131D01*
X7307382Y-11692131D02*
X7316905Y-11711179D01*
X7316905Y-11711179D02*
X7326429Y-11749274D01*
X7326429Y-11749274D02*
X7326429Y-11796893D01*
X7326429Y-11796893D02*
X7316905Y-11834988D01*
X7316905Y-11834988D02*
X7307382Y-11854036D01*
X7307382Y-11854036D02*
X7297858Y-11863560D01*
X7297858Y-11863560D02*
X7278810Y-11873084D01*
X7278810Y-11873084D02*
X7259762Y-11873084D01*
X7259762Y-11873084D02*
X7240715Y-11863560D01*
X7240715Y-11863560D02*
X7231191Y-11854036D01*
X7231191Y-11854036D02*
X7221667Y-11834988D01*
X7221667Y-11834988D02*
X7212143Y-11796893D01*
X7212143Y-11796893D02*
X7212143Y-11749274D01*
X7212143Y-11749274D02*
X7221667Y-11711179D01*
X7221667Y-11711179D02*
X7231191Y-11692131D01*
X7231191Y-11692131D02*
X7240715Y-11682608D01*
X7240715Y-11682608D02*
X7259762Y-11673084D01*
X7450239Y-11673084D02*
X7469286Y-11673084D01*
X7469286Y-11673084D02*
X7488334Y-11682608D01*
X7488334Y-11682608D02*
X7497858Y-11692131D01*
X7497858Y-11692131D02*
X7507382Y-11711179D01*
X7507382Y-11711179D02*
X7516905Y-11749274D01*
X7516905Y-11749274D02*
X7516905Y-11796893D01*
X7516905Y-11796893D02*
X7507382Y-11834988D01*
X7507382Y-11834988D02*
X7497858Y-11854036D01*
X7497858Y-11854036D02*
X7488334Y-11863560D01*
X7488334Y-11863560D02*
X7469286Y-11873084D01*
X7469286Y-11873084D02*
X7450239Y-11873084D01*
X7450239Y-11873084D02*
X7431191Y-11863560D01*
X7431191Y-11863560D02*
X7421667Y-11854036D01*
X7421667Y-11854036D02*
X7412143Y-11834988D01*
X7412143Y-11834988D02*
X7402620Y-11796893D01*
X7402620Y-11796893D02*
X7402620Y-11749274D01*
X7402620Y-11749274D02*
X7412143Y-11711179D01*
X7412143Y-11711179D02*
X7421667Y-11692131D01*
X7421667Y-11692131D02*
X7431191Y-11682608D01*
X7431191Y-11682608D02*
X7450239Y-11673084D01*
X7602620Y-11873084D02*
X7602620Y-11739750D01*
X7602620Y-11758798D02*
X7612143Y-11749274D01*
X7612143Y-11749274D02*
X7631191Y-11739750D01*
X7631191Y-11739750D02*
X7659763Y-11739750D01*
X7659763Y-11739750D02*
X7678810Y-11749274D01*
X7678810Y-11749274D02*
X7688334Y-11768322D01*
X7688334Y-11768322D02*
X7688334Y-11873084D01*
X7688334Y-11768322D02*
X7697858Y-11749274D01*
X7697858Y-11749274D02*
X7716905Y-11739750D01*
X7716905Y-11739750D02*
X7745477Y-11739750D01*
X7745477Y-11739750D02*
X7764524Y-11749274D01*
X7764524Y-11749274D02*
X7774048Y-11768322D01*
X7774048Y-11768322D02*
X7774048Y-11873084D01*
X7869286Y-11873084D02*
X7869286Y-11739750D01*
X7869286Y-11758798D02*
X7878810Y-11749274D01*
X7878810Y-11749274D02*
X7897858Y-11739750D01*
X7897858Y-11739750D02*
X7926429Y-11739750D01*
X7926429Y-11739750D02*
X7945477Y-11749274D01*
X7945477Y-11749274D02*
X7955001Y-11768322D01*
X7955001Y-11768322D02*
X7955001Y-11873084D01*
X7955001Y-11768322D02*
X7964524Y-11749274D01*
X7964524Y-11749274D02*
X7983572Y-11739750D01*
X7983572Y-11739750D02*
X8012143Y-11739750D01*
X8012143Y-11739750D02*
X8031191Y-11749274D01*
X8031191Y-11749274D02*
X8040715Y-11768322D01*
X8040715Y-11768322D02*
X8040715Y-11873084D01*
X8431191Y-11663560D02*
X8259763Y-11920703D01*
X8688334Y-11673084D02*
X8707382Y-11673084D01*
X8707382Y-11673084D02*
X8726429Y-11682608D01*
X8726429Y-11682608D02*
X8735953Y-11692131D01*
X8735953Y-11692131D02*
X8745477Y-11711179D01*
X8745477Y-11711179D02*
X8755001Y-11749274D01*
X8755001Y-11749274D02*
X8755001Y-11796893D01*
X8755001Y-11796893D02*
X8745477Y-11834988D01*
X8745477Y-11834988D02*
X8735953Y-11854036D01*
X8735953Y-11854036D02*
X8726429Y-11863560D01*
X8726429Y-11863560D02*
X8707382Y-11873084D01*
X8707382Y-11873084D02*
X8688334Y-11873084D01*
X8688334Y-11873084D02*
X8669287Y-11863560D01*
X8669287Y-11863560D02*
X8659763Y-11854036D01*
X8659763Y-11854036D02*
X8650239Y-11834988D01*
X8650239Y-11834988D02*
X8640715Y-11796893D01*
X8640715Y-11796893D02*
X8640715Y-11749274D01*
X8640715Y-11749274D02*
X8650239Y-11711179D01*
X8650239Y-11711179D02*
X8659763Y-11692131D01*
X8659763Y-11692131D02*
X8669287Y-11682608D01*
X8669287Y-11682608D02*
X8688334Y-11673084D01*
X8840715Y-11854036D02*
X8850239Y-11863560D01*
X8850239Y-11863560D02*
X8840715Y-11873084D01*
X8840715Y-11873084D02*
X8831191Y-11863560D01*
X8831191Y-11863560D02*
X8840715Y-11854036D01*
X8840715Y-11854036D02*
X8840715Y-11873084D01*
X8974048Y-11673084D02*
X8993096Y-11673084D01*
X8993096Y-11673084D02*
X9012144Y-11682608D01*
X9012144Y-11682608D02*
X9021668Y-11692131D01*
X9021668Y-11692131D02*
X9031191Y-11711179D01*
X9031191Y-11711179D02*
X9040715Y-11749274D01*
X9040715Y-11749274D02*
X9040715Y-11796893D01*
X9040715Y-11796893D02*
X9031191Y-11834988D01*
X9031191Y-11834988D02*
X9021668Y-11854036D01*
X9021668Y-11854036D02*
X9012144Y-11863560D01*
X9012144Y-11863560D02*
X8993096Y-11873084D01*
X8993096Y-11873084D02*
X8974048Y-11873084D01*
X8974048Y-11873084D02*
X8955001Y-11863560D01*
X8955001Y-11863560D02*
X8945477Y-11854036D01*
X8945477Y-11854036D02*
X8935953Y-11834988D01*
X8935953Y-11834988D02*
X8926429Y-11796893D01*
X8926429Y-11796893D02*
X8926429Y-11749274D01*
X8926429Y-11749274D02*
X8935953Y-11711179D01*
X8935953Y-11711179D02*
X8945477Y-11692131D01*
X8945477Y-11692131D02*
X8955001Y-11682608D01*
X8955001Y-11682608D02*
X8974048Y-11673084D01*
X9107382Y-11673084D02*
X9231191Y-11673084D01*
X9231191Y-11673084D02*
X9164525Y-11749274D01*
X9164525Y-11749274D02*
X9193096Y-11749274D01*
X9193096Y-11749274D02*
X9212144Y-11758798D01*
X9212144Y-11758798D02*
X9221668Y-11768322D01*
X9221668Y-11768322D02*
X9231191Y-11787369D01*
X9231191Y-11787369D02*
X9231191Y-11834988D01*
X9231191Y-11834988D02*
X9221668Y-11854036D01*
X9221668Y-11854036D02*
X9212144Y-11863560D01*
X9212144Y-11863560D02*
X9193096Y-11873084D01*
X9193096Y-11873084D02*
X9135953Y-11873084D01*
X9135953Y-11873084D02*
X9116906Y-11863560D01*
X9116906Y-11863560D02*
X9107382Y-11854036D01*
X9412144Y-11673084D02*
X9316906Y-11673084D01*
X9316906Y-11673084D02*
X9307382Y-11768322D01*
X9307382Y-11768322D02*
X9316906Y-11758798D01*
X9316906Y-11758798D02*
X9335953Y-11749274D01*
X9335953Y-11749274D02*
X9383572Y-11749274D01*
X9383572Y-11749274D02*
X9402620Y-11758798D01*
X9402620Y-11758798D02*
X9412144Y-11768322D01*
X9412144Y-11768322D02*
X9421668Y-11787369D01*
X9421668Y-11787369D02*
X9421668Y-11834988D01*
X9421668Y-11834988D02*
X9412144Y-11854036D01*
X9412144Y-11854036D02*
X9402620Y-11863560D01*
X9402620Y-11863560D02*
X9383572Y-11873084D01*
X9383572Y-11873084D02*
X9335953Y-11873084D01*
X9335953Y-11873084D02*
X9316906Y-11863560D01*
X9316906Y-11863560D02*
X9307382Y-11854036D01*
X9593096Y-11739750D02*
X9593096Y-11873084D01*
X9545477Y-11663560D02*
X9497858Y-11806417D01*
X9497858Y-11806417D02*
X9621668Y-11806417D01*
X9688334Y-11673084D02*
X9688334Y-11711179D01*
X9764525Y-11673084D02*
X9764525Y-11711179D01*
X10059763Y-11949274D02*
X10050239Y-11939750D01*
X10050239Y-11939750D02*
X10031191Y-11911179D01*
X10031191Y-11911179D02*
X10021668Y-11892131D01*
X10021668Y-11892131D02*
X10012144Y-11863560D01*
X10012144Y-11863560D02*
X10002620Y-11815941D01*
X10002620Y-11815941D02*
X10002620Y-11777846D01*
X10002620Y-11777846D02*
X10012144Y-11730227D01*
X10012144Y-11730227D02*
X10021668Y-11701655D01*
X10021668Y-11701655D02*
X10031191Y-11682608D01*
X10031191Y-11682608D02*
X10050239Y-11654036D01*
X10050239Y-11654036D02*
X10059763Y-11644512D01*
X10240715Y-11873084D02*
X10126430Y-11873084D01*
X10183572Y-11873084D02*
X10183572Y-11673084D01*
X10183572Y-11673084D02*
X10164525Y-11701655D01*
X10164525Y-11701655D02*
X10145477Y-11720703D01*
X10145477Y-11720703D02*
X10126430Y-11730227D01*
X10307382Y-11673084D02*
X10431191Y-11673084D01*
X10431191Y-11673084D02*
X10364525Y-11749274D01*
X10364525Y-11749274D02*
X10393096Y-11749274D01*
X10393096Y-11749274D02*
X10412144Y-11758798D01*
X10412144Y-11758798D02*
X10421668Y-11768322D01*
X10421668Y-11768322D02*
X10431191Y-11787369D01*
X10431191Y-11787369D02*
X10431191Y-11834988D01*
X10431191Y-11834988D02*
X10421668Y-11854036D01*
X10421668Y-11854036D02*
X10412144Y-11863560D01*
X10412144Y-11863560D02*
X10393096Y-11873084D01*
X10393096Y-11873084D02*
X10335953Y-11873084D01*
X10335953Y-11873084D02*
X10316906Y-11863560D01*
X10316906Y-11863560D02*
X10307382Y-11854036D01*
X10669287Y-11873084D02*
X10669287Y-11673084D01*
X10755001Y-11873084D02*
X10755001Y-11768322D01*
X10755001Y-11768322D02*
X10745477Y-11749274D01*
X10745477Y-11749274D02*
X10726430Y-11739750D01*
X10726430Y-11739750D02*
X10697858Y-11739750D01*
X10697858Y-11739750D02*
X10678811Y-11749274D01*
X10678811Y-11749274D02*
X10669287Y-11758798D01*
X10878811Y-11873084D02*
X10859763Y-11863560D01*
X10859763Y-11863560D02*
X10850239Y-11854036D01*
X10850239Y-11854036D02*
X10840715Y-11834988D01*
X10840715Y-11834988D02*
X10840715Y-11777846D01*
X10840715Y-11777846D02*
X10850239Y-11758798D01*
X10850239Y-11758798D02*
X10859763Y-11749274D01*
X10859763Y-11749274D02*
X10878811Y-11739750D01*
X10878811Y-11739750D02*
X10907382Y-11739750D01*
X10907382Y-11739750D02*
X10926430Y-11749274D01*
X10926430Y-11749274D02*
X10935953Y-11758798D01*
X10935953Y-11758798D02*
X10945477Y-11777846D01*
X10945477Y-11777846D02*
X10945477Y-11834988D01*
X10945477Y-11834988D02*
X10935953Y-11854036D01*
X10935953Y-11854036D02*
X10926430Y-11863560D01*
X10926430Y-11863560D02*
X10907382Y-11873084D01*
X10907382Y-11873084D02*
X10878811Y-11873084D01*
X11059763Y-11873084D02*
X11040715Y-11863560D01*
X11040715Y-11863560D02*
X11031192Y-11844512D01*
X11031192Y-11844512D02*
X11031192Y-11673084D01*
X11212144Y-11863560D02*
X11193096Y-11873084D01*
X11193096Y-11873084D02*
X11155001Y-11873084D01*
X11155001Y-11873084D02*
X11135953Y-11863560D01*
X11135953Y-11863560D02*
X11126430Y-11844512D01*
X11126430Y-11844512D02*
X11126430Y-11768322D01*
X11126430Y-11768322D02*
X11135953Y-11749274D01*
X11135953Y-11749274D02*
X11155001Y-11739750D01*
X11155001Y-11739750D02*
X11193096Y-11739750D01*
X11193096Y-11739750D02*
X11212144Y-11749274D01*
X11212144Y-11749274D02*
X11221668Y-11768322D01*
X11221668Y-11768322D02*
X11221668Y-11787369D01*
X11221668Y-11787369D02*
X11126430Y-11806417D01*
X11297858Y-11863560D02*
X11316906Y-11873084D01*
X11316906Y-11873084D02*
X11355001Y-11873084D01*
X11355001Y-11873084D02*
X11374049Y-11863560D01*
X11374049Y-11863560D02*
X11383572Y-11844512D01*
X11383572Y-11844512D02*
X11383572Y-11834988D01*
X11383572Y-11834988D02*
X11374049Y-11815941D01*
X11374049Y-11815941D02*
X11355001Y-11806417D01*
X11355001Y-11806417D02*
X11326430Y-11806417D01*
X11326430Y-11806417D02*
X11307382Y-11796893D01*
X11307382Y-11796893D02*
X11297858Y-11777846D01*
X11297858Y-11777846D02*
X11297858Y-11768322D01*
X11297858Y-11768322D02*
X11307382Y-11749274D01*
X11307382Y-11749274D02*
X11326430Y-11739750D01*
X11326430Y-11739750D02*
X11355001Y-11739750D01*
X11355001Y-11739750D02*
X11374049Y-11749274D01*
X11450239Y-11949274D02*
X11459763Y-11939750D01*
X11459763Y-11939750D02*
X11478811Y-11911179D01*
X11478811Y-11911179D02*
X11488334Y-11892131D01*
X11488334Y-11892131D02*
X11497858Y-11863560D01*
X11497858Y-11863560D02*
X11507382Y-11815941D01*
X11507382Y-11815941D02*
X11507382Y-11777846D01*
X11507382Y-11777846D02*
X11497858Y-11730227D01*
X11497858Y-11730227D02*
X11488334Y-11701655D01*
X11488334Y-11701655D02*
X11478811Y-11682608D01*
X11478811Y-11682608D02*
X11459763Y-11654036D01*
X11459763Y-11654036D02*
X11450239Y-11644512D01*
D10*
X6434700Y-11995600D02*
X6434700Y-12095600D01*
X6384700Y-12045600D02*
X6484700Y-12045600D01*
D11*
X6850239Y-12137084D02*
X6735953Y-12137084D01*
X6793096Y-12137084D02*
X6793096Y-11937084D01*
X6793096Y-11937084D02*
X6774048Y-11965655D01*
X6774048Y-11965655D02*
X6755001Y-11984703D01*
X6755001Y-11984703D02*
X6735953Y-11994227D01*
X6935953Y-12118036D02*
X6945477Y-12127560D01*
X6945477Y-12127560D02*
X6935953Y-12137084D01*
X6935953Y-12137084D02*
X6926429Y-12127560D01*
X6926429Y-12127560D02*
X6935953Y-12118036D01*
X6935953Y-12118036D02*
X6935953Y-12137084D01*
X7069286Y-11937084D02*
X7088334Y-11937084D01*
X7088334Y-11937084D02*
X7107382Y-11946608D01*
X7107382Y-11946608D02*
X7116905Y-11956131D01*
X7116905Y-11956131D02*
X7126429Y-11975179D01*
X7126429Y-11975179D02*
X7135953Y-12013274D01*
X7135953Y-12013274D02*
X7135953Y-12060893D01*
X7135953Y-12060893D02*
X7126429Y-12098988D01*
X7126429Y-12098988D02*
X7116905Y-12118036D01*
X7116905Y-12118036D02*
X7107382Y-12127560D01*
X7107382Y-12127560D02*
X7088334Y-12137084D01*
X7088334Y-12137084D02*
X7069286Y-12137084D01*
X7069286Y-12137084D02*
X7050239Y-12127560D01*
X7050239Y-12127560D02*
X7040715Y-12118036D01*
X7040715Y-12118036D02*
X7031191Y-12098988D01*
X7031191Y-12098988D02*
X7021667Y-12060893D01*
X7021667Y-12060893D02*
X7021667Y-12013274D01*
X7021667Y-12013274D02*
X7031191Y-11975179D01*
X7031191Y-11975179D02*
X7040715Y-11956131D01*
X7040715Y-11956131D02*
X7050239Y-11946608D01*
X7050239Y-11946608D02*
X7069286Y-11937084D01*
X7259762Y-11937084D02*
X7278810Y-11937084D01*
X7278810Y-11937084D02*
X7297858Y-11946608D01*
X7297858Y-11946608D02*
X7307382Y-11956131D01*
X7307382Y-11956131D02*
X7316905Y-11975179D01*
X7316905Y-11975179D02*
X7326429Y-12013274D01*
X7326429Y-12013274D02*
X7326429Y-12060893D01*
X7326429Y-12060893D02*
X7316905Y-12098988D01*
X7316905Y-12098988D02*
X7307382Y-12118036D01*
X7307382Y-12118036D02*
X7297858Y-12127560D01*
X7297858Y-12127560D02*
X7278810Y-12137084D01*
X7278810Y-12137084D02*
X7259762Y-12137084D01*
X7259762Y-12137084D02*
X7240715Y-12127560D01*
X7240715Y-12127560D02*
X7231191Y-12118036D01*
X7231191Y-12118036D02*
X7221667Y-12098988D01*
X7221667Y-12098988D02*
X7212143Y-12060893D01*
X7212143Y-12060893D02*
X7212143Y-12013274D01*
X7212143Y-12013274D02*
X7221667Y-11975179D01*
X7221667Y-11975179D02*
X7231191Y-11956131D01*
X7231191Y-11956131D02*
X7240715Y-11946608D01*
X7240715Y-11946608D02*
X7259762Y-11937084D01*
X7450239Y-11937084D02*
X7469286Y-11937084D01*
X7469286Y-11937084D02*
X7488334Y-11946608D01*
X7488334Y-11946608D02*
X7497858Y-11956131D01*
X7497858Y-11956131D02*
X7507382Y-11975179D01*
X7507382Y-11975179D02*
X7516905Y-12013274D01*
X7516905Y-12013274D02*
X7516905Y-12060893D01*
X7516905Y-12060893D02*
X7507382Y-12098988D01*
X7507382Y-12098988D02*
X7497858Y-12118036D01*
X7497858Y-12118036D02*
X7488334Y-12127560D01*
X7488334Y-12127560D02*
X7469286Y-12137084D01*
X7469286Y-12137084D02*
X7450239Y-12137084D01*
X7450239Y-12137084D02*
X7431191Y-12127560D01*
X7431191Y-12127560D02*
X7421667Y-12118036D01*
X7421667Y-12118036D02*
X7412143Y-12098988D01*
X7412143Y-12098988D02*
X7402620Y-12060893D01*
X7402620Y-12060893D02*
X7402620Y-12013274D01*
X7402620Y-12013274D02*
X7412143Y-11975179D01*
X7412143Y-11975179D02*
X7421667Y-11956131D01*
X7421667Y-11956131D02*
X7431191Y-11946608D01*
X7431191Y-11946608D02*
X7450239Y-11937084D01*
X7602620Y-12137084D02*
X7602620Y-12003750D01*
X7602620Y-12022798D02*
X7612143Y-12013274D01*
X7612143Y-12013274D02*
X7631191Y-12003750D01*
X7631191Y-12003750D02*
X7659763Y-12003750D01*
X7659763Y-12003750D02*
X7678810Y-12013274D01*
X7678810Y-12013274D02*
X7688334Y-12032322D01*
X7688334Y-12032322D02*
X7688334Y-12137084D01*
X7688334Y-12032322D02*
X7697858Y-12013274D01*
X7697858Y-12013274D02*
X7716905Y-12003750D01*
X7716905Y-12003750D02*
X7745477Y-12003750D01*
X7745477Y-12003750D02*
X7764524Y-12013274D01*
X7764524Y-12013274D02*
X7774048Y-12032322D01*
X7774048Y-12032322D02*
X7774048Y-12137084D01*
X7869286Y-12137084D02*
X7869286Y-12003750D01*
X7869286Y-12022798D02*
X7878810Y-12013274D01*
X7878810Y-12013274D02*
X7897858Y-12003750D01*
X7897858Y-12003750D02*
X7926429Y-12003750D01*
X7926429Y-12003750D02*
X7945477Y-12013274D01*
X7945477Y-12013274D02*
X7955001Y-12032322D01*
X7955001Y-12032322D02*
X7955001Y-12137084D01*
X7955001Y-12032322D02*
X7964524Y-12013274D01*
X7964524Y-12013274D02*
X7983572Y-12003750D01*
X7983572Y-12003750D02*
X8012143Y-12003750D01*
X8012143Y-12003750D02*
X8031191Y-12013274D01*
X8031191Y-12013274D02*
X8040715Y-12032322D01*
X8040715Y-12032322D02*
X8040715Y-12137084D01*
X8431191Y-11927560D02*
X8259763Y-12184703D01*
X8688334Y-11937084D02*
X8707382Y-11937084D01*
X8707382Y-11937084D02*
X8726429Y-11946608D01*
X8726429Y-11946608D02*
X8735953Y-11956131D01*
X8735953Y-11956131D02*
X8745477Y-11975179D01*
X8745477Y-11975179D02*
X8755001Y-12013274D01*
X8755001Y-12013274D02*
X8755001Y-12060893D01*
X8755001Y-12060893D02*
X8745477Y-12098988D01*
X8745477Y-12098988D02*
X8735953Y-12118036D01*
X8735953Y-12118036D02*
X8726429Y-12127560D01*
X8726429Y-12127560D02*
X8707382Y-12137084D01*
X8707382Y-12137084D02*
X8688334Y-12137084D01*
X8688334Y-12137084D02*
X8669287Y-12127560D01*
X8669287Y-12127560D02*
X8659763Y-12118036D01*
X8659763Y-12118036D02*
X8650239Y-12098988D01*
X8650239Y-12098988D02*
X8640715Y-12060893D01*
X8640715Y-12060893D02*
X8640715Y-12013274D01*
X8640715Y-12013274D02*
X8650239Y-11975179D01*
X8650239Y-11975179D02*
X8659763Y-11956131D01*
X8659763Y-11956131D02*
X8669287Y-11946608D01*
X8669287Y-11946608D02*
X8688334Y-11937084D01*
X8840715Y-12118036D02*
X8850239Y-12127560D01*
X8850239Y-12127560D02*
X8840715Y-12137084D01*
X8840715Y-12137084D02*
X8831191Y-12127560D01*
X8831191Y-12127560D02*
X8840715Y-12118036D01*
X8840715Y-12118036D02*
X8840715Y-12137084D01*
X8974048Y-11937084D02*
X8993096Y-11937084D01*
X8993096Y-11937084D02*
X9012144Y-11946608D01*
X9012144Y-11946608D02*
X9021668Y-11956131D01*
X9021668Y-11956131D02*
X9031191Y-11975179D01*
X9031191Y-11975179D02*
X9040715Y-12013274D01*
X9040715Y-12013274D02*
X9040715Y-12060893D01*
X9040715Y-12060893D02*
X9031191Y-12098988D01*
X9031191Y-12098988D02*
X9021668Y-12118036D01*
X9021668Y-12118036D02*
X9012144Y-12127560D01*
X9012144Y-12127560D02*
X8993096Y-12137084D01*
X8993096Y-12137084D02*
X8974048Y-12137084D01*
X8974048Y-12137084D02*
X8955001Y-12127560D01*
X8955001Y-12127560D02*
X8945477Y-12118036D01*
X8945477Y-12118036D02*
X8935953Y-12098988D01*
X8935953Y-12098988D02*
X8926429Y-12060893D01*
X8926429Y-12060893D02*
X8926429Y-12013274D01*
X8926429Y-12013274D02*
X8935953Y-11975179D01*
X8935953Y-11975179D02*
X8945477Y-11956131D01*
X8945477Y-11956131D02*
X8955001Y-11946608D01*
X8955001Y-11946608D02*
X8974048Y-11937084D01*
X9107382Y-11937084D02*
X9231191Y-11937084D01*
X9231191Y-11937084D02*
X9164525Y-12013274D01*
X9164525Y-12013274D02*
X9193096Y-12013274D01*
X9193096Y-12013274D02*
X9212144Y-12022798D01*
X9212144Y-12022798D02*
X9221668Y-12032322D01*
X9221668Y-12032322D02*
X9231191Y-12051369D01*
X9231191Y-12051369D02*
X9231191Y-12098988D01*
X9231191Y-12098988D02*
X9221668Y-12118036D01*
X9221668Y-12118036D02*
X9212144Y-12127560D01*
X9212144Y-12127560D02*
X9193096Y-12137084D01*
X9193096Y-12137084D02*
X9135953Y-12137084D01*
X9135953Y-12137084D02*
X9116906Y-12127560D01*
X9116906Y-12127560D02*
X9107382Y-12118036D01*
X9326429Y-12137084D02*
X9364525Y-12137084D01*
X9364525Y-12137084D02*
X9383572Y-12127560D01*
X9383572Y-12127560D02*
X9393096Y-12118036D01*
X9393096Y-12118036D02*
X9412144Y-12089465D01*
X9412144Y-12089465D02*
X9421668Y-12051369D01*
X9421668Y-12051369D02*
X9421668Y-11975179D01*
X9421668Y-11975179D02*
X9412144Y-11956131D01*
X9412144Y-11956131D02*
X9402620Y-11946608D01*
X9402620Y-11946608D02*
X9383572Y-11937084D01*
X9383572Y-11937084D02*
X9345477Y-11937084D01*
X9345477Y-11937084D02*
X9326429Y-11946608D01*
X9326429Y-11946608D02*
X9316906Y-11956131D01*
X9316906Y-11956131D02*
X9307382Y-11975179D01*
X9307382Y-11975179D02*
X9307382Y-12022798D01*
X9307382Y-12022798D02*
X9316906Y-12041846D01*
X9316906Y-12041846D02*
X9326429Y-12051369D01*
X9326429Y-12051369D02*
X9345477Y-12060893D01*
X9345477Y-12060893D02*
X9383572Y-12060893D01*
X9383572Y-12060893D02*
X9402620Y-12051369D01*
X9402620Y-12051369D02*
X9412144Y-12041846D01*
X9412144Y-12041846D02*
X9421668Y-12022798D01*
X9593096Y-12003750D02*
X9593096Y-12137084D01*
X9545477Y-11927560D02*
X9497858Y-12070417D01*
X9497858Y-12070417D02*
X9621668Y-12070417D01*
X9688334Y-11937084D02*
X9688334Y-11975179D01*
X9764525Y-11937084D02*
X9764525Y-11975179D01*
X10059763Y-12213274D02*
X10050239Y-12203750D01*
X10050239Y-12203750D02*
X10031191Y-12175179D01*
X10031191Y-12175179D02*
X10021668Y-12156131D01*
X10021668Y-12156131D02*
X10012144Y-12127560D01*
X10012144Y-12127560D02*
X10002620Y-12079941D01*
X10002620Y-12079941D02*
X10002620Y-12041846D01*
X10002620Y-12041846D02*
X10012144Y-11994227D01*
X10012144Y-11994227D02*
X10021668Y-11965655D01*
X10021668Y-11965655D02*
X10031191Y-11946608D01*
X10031191Y-11946608D02*
X10050239Y-11918036D01*
X10050239Y-11918036D02*
X10059763Y-11908512D01*
X10221668Y-12003750D02*
X10221668Y-12137084D01*
X10174049Y-11927560D02*
X10126430Y-12070417D01*
X10126430Y-12070417D02*
X10250239Y-12070417D01*
X10307382Y-11937084D02*
X10431191Y-11937084D01*
X10431191Y-11937084D02*
X10364525Y-12013274D01*
X10364525Y-12013274D02*
X10393096Y-12013274D01*
X10393096Y-12013274D02*
X10412144Y-12022798D01*
X10412144Y-12022798D02*
X10421668Y-12032322D01*
X10421668Y-12032322D02*
X10431191Y-12051369D01*
X10431191Y-12051369D02*
X10431191Y-12098988D01*
X10431191Y-12098988D02*
X10421668Y-12118036D01*
X10421668Y-12118036D02*
X10412144Y-12127560D01*
X10412144Y-12127560D02*
X10393096Y-12137084D01*
X10393096Y-12137084D02*
X10335953Y-12137084D01*
X10335953Y-12137084D02*
X10316906Y-12127560D01*
X10316906Y-12127560D02*
X10307382Y-12118036D01*
X10669287Y-12137084D02*
X10669287Y-11937084D01*
X10755001Y-12137084D02*
X10755001Y-12032322D01*
X10755001Y-12032322D02*
X10745477Y-12013274D01*
X10745477Y-12013274D02*
X10726430Y-12003750D01*
X10726430Y-12003750D02*
X10697858Y-12003750D01*
X10697858Y-12003750D02*
X10678811Y-12013274D01*
X10678811Y-12013274D02*
X10669287Y-12022798D01*
X10878811Y-12137084D02*
X10859763Y-12127560D01*
X10859763Y-12127560D02*
X10850239Y-12118036D01*
X10850239Y-12118036D02*
X10840715Y-12098988D01*
X10840715Y-12098988D02*
X10840715Y-12041846D01*
X10840715Y-12041846D02*
X10850239Y-12022798D01*
X10850239Y-12022798D02*
X10859763Y-12013274D01*
X10859763Y-12013274D02*
X10878811Y-12003750D01*
X10878811Y-12003750D02*
X10907382Y-12003750D01*
X10907382Y-12003750D02*
X10926430Y-12013274D01*
X10926430Y-12013274D02*
X10935953Y-12022798D01*
X10935953Y-12022798D02*
X10945477Y-12041846D01*
X10945477Y-12041846D02*
X10945477Y-12098988D01*
X10945477Y-12098988D02*
X10935953Y-12118036D01*
X10935953Y-12118036D02*
X10926430Y-12127560D01*
X10926430Y-12127560D02*
X10907382Y-12137084D01*
X10907382Y-12137084D02*
X10878811Y-12137084D01*
X11059763Y-12137084D02*
X11040715Y-12127560D01*
X11040715Y-12127560D02*
X11031192Y-12108512D01*
X11031192Y-12108512D02*
X11031192Y-11937084D01*
X11212144Y-12127560D02*
X11193096Y-12137084D01*
X11193096Y-12137084D02*
X11155001Y-12137084D01*
X11155001Y-12137084D02*
X11135953Y-12127560D01*
X11135953Y-12127560D02*
X11126430Y-12108512D01*
X11126430Y-12108512D02*
X11126430Y-12032322D01*
X11126430Y-12032322D02*
X11135953Y-12013274D01*
X11135953Y-12013274D02*
X11155001Y-12003750D01*
X11155001Y-12003750D02*
X11193096Y-12003750D01*
X11193096Y-12003750D02*
X11212144Y-12013274D01*
X11212144Y-12013274D02*
X11221668Y-12032322D01*
X11221668Y-12032322D02*
X11221668Y-12051369D01*
X11221668Y-12051369D02*
X11126430Y-12070417D01*
X11297858Y-12127560D02*
X11316906Y-12137084D01*
X11316906Y-12137084D02*
X11355001Y-12137084D01*
X11355001Y-12137084D02*
X11374049Y-12127560D01*
X11374049Y-12127560D02*
X11383572Y-12108512D01*
X11383572Y-12108512D02*
X11383572Y-12098988D01*
X11383572Y-12098988D02*
X11374049Y-12079941D01*
X11374049Y-12079941D02*
X11355001Y-12070417D01*
X11355001Y-12070417D02*
X11326430Y-12070417D01*
X11326430Y-12070417D02*
X11307382Y-12060893D01*
X11307382Y-12060893D02*
X11297858Y-12041846D01*
X11297858Y-12041846D02*
X11297858Y-12032322D01*
X11297858Y-12032322D02*
X11307382Y-12013274D01*
X11307382Y-12013274D02*
X11326430Y-12003750D01*
X11326430Y-12003750D02*
X11355001Y-12003750D01*
X11355001Y-12003750D02*
X11374049Y-12013274D01*
X11450239Y-12213274D02*
X11459763Y-12203750D01*
X11459763Y-12203750D02*
X11478811Y-12175179D01*
X11478811Y-12175179D02*
X11488334Y-12156131D01*
X11488334Y-12156131D02*
X11497858Y-12127560D01*
X11497858Y-12127560D02*
X11507382Y-12079941D01*
X11507382Y-12079941D02*
X11507382Y-12041846D01*
X11507382Y-12041846D02*
X11497858Y-11994227D01*
X11497858Y-11994227D02*
X11488334Y-11965655D01*
X11488334Y-11965655D02*
X11478811Y-11946608D01*
X11478811Y-11946608D02*
X11459763Y-11918036D01*
X11459763Y-11918036D02*
X11450239Y-11908512D01*
D12*
X6468591Y-12348491D02*
X6468591Y-12270709D01*
X6390809Y-12270709D01*
X6390809Y-12348491D01*
X6468591Y-12348491D01*
D11*
X6850239Y-12401084D02*
X6735953Y-12401084D01*
X6793096Y-12401084D02*
X6793096Y-12201084D01*
X6793096Y-12201084D02*
X6774048Y-12229655D01*
X6774048Y-12229655D02*
X6755001Y-12248703D01*
X6755001Y-12248703D02*
X6735953Y-12258227D01*
X6935953Y-12382036D02*
X6945477Y-12391560D01*
X6945477Y-12391560D02*
X6935953Y-12401084D01*
X6935953Y-12401084D02*
X6926429Y-12391560D01*
X6926429Y-12391560D02*
X6935953Y-12382036D01*
X6935953Y-12382036D02*
X6935953Y-12401084D01*
X7135953Y-12401084D02*
X7021667Y-12401084D01*
X7078810Y-12401084D02*
X7078810Y-12201084D01*
X7078810Y-12201084D02*
X7059762Y-12229655D01*
X7059762Y-12229655D02*
X7040715Y-12248703D01*
X7040715Y-12248703D02*
X7021667Y-12258227D01*
X7259762Y-12201084D02*
X7278810Y-12201084D01*
X7278810Y-12201084D02*
X7297858Y-12210608D01*
X7297858Y-12210608D02*
X7307382Y-12220131D01*
X7307382Y-12220131D02*
X7316905Y-12239179D01*
X7316905Y-12239179D02*
X7326429Y-12277274D01*
X7326429Y-12277274D02*
X7326429Y-12324893D01*
X7326429Y-12324893D02*
X7316905Y-12362988D01*
X7316905Y-12362988D02*
X7307382Y-12382036D01*
X7307382Y-12382036D02*
X7297858Y-12391560D01*
X7297858Y-12391560D02*
X7278810Y-12401084D01*
X7278810Y-12401084D02*
X7259762Y-12401084D01*
X7259762Y-12401084D02*
X7240715Y-12391560D01*
X7240715Y-12391560D02*
X7231191Y-12382036D01*
X7231191Y-12382036D02*
X7221667Y-12362988D01*
X7221667Y-12362988D02*
X7212143Y-12324893D01*
X7212143Y-12324893D02*
X7212143Y-12277274D01*
X7212143Y-12277274D02*
X7221667Y-12239179D01*
X7221667Y-12239179D02*
X7231191Y-12220131D01*
X7231191Y-12220131D02*
X7240715Y-12210608D01*
X7240715Y-12210608D02*
X7259762Y-12201084D01*
X7450239Y-12201084D02*
X7469286Y-12201084D01*
X7469286Y-12201084D02*
X7488334Y-12210608D01*
X7488334Y-12210608D02*
X7497858Y-12220131D01*
X7497858Y-12220131D02*
X7507382Y-12239179D01*
X7507382Y-12239179D02*
X7516905Y-12277274D01*
X7516905Y-12277274D02*
X7516905Y-12324893D01*
X7516905Y-12324893D02*
X7507382Y-12362988D01*
X7507382Y-12362988D02*
X7497858Y-12382036D01*
X7497858Y-12382036D02*
X7488334Y-12391560D01*
X7488334Y-12391560D02*
X7469286Y-12401084D01*
X7469286Y-12401084D02*
X7450239Y-12401084D01*
X7450239Y-12401084D02*
X7431191Y-12391560D01*
X7431191Y-12391560D02*
X7421667Y-12382036D01*
X7421667Y-12382036D02*
X7412143Y-12362988D01*
X7412143Y-12362988D02*
X7402620Y-12324893D01*
X7402620Y-12324893D02*
X7402620Y-12277274D01*
X7402620Y-12277274D02*
X7412143Y-12239179D01*
X7412143Y-12239179D02*
X7421667Y-12220131D01*
X7421667Y-12220131D02*
X7431191Y-12210608D01*
X7431191Y-12210608D02*
X7450239Y-12201084D01*
X7602620Y-12401084D02*
X7602620Y-12267750D01*
X7602620Y-12286798D02*
X7612143Y-12277274D01*
X7612143Y-12277274D02*
X7631191Y-12267750D01*
X7631191Y-12267750D02*
X7659763Y-12267750D01*
X7659763Y-12267750D02*
X7678810Y-12277274D01*
X7678810Y-12277274D02*
X7688334Y-12296322D01*
X7688334Y-12296322D02*
X7688334Y-12401084D01*
X7688334Y-12296322D02*
X7697858Y-12277274D01*
X7697858Y-12277274D02*
X7716905Y-12267750D01*
X7716905Y-12267750D02*
X7745477Y-12267750D01*
X7745477Y-12267750D02*
X7764524Y-12277274D01*
X7764524Y-12277274D02*
X7774048Y-12296322D01*
X7774048Y-12296322D02*
X7774048Y-12401084D01*
X7869286Y-12401084D02*
X7869286Y-12267750D01*
X7869286Y-12286798D02*
X7878810Y-12277274D01*
X7878810Y-12277274D02*
X7897858Y-12267750D01*
X7897858Y-12267750D02*
X7926429Y-12267750D01*
X7926429Y-12267750D02*
X7945477Y-12277274D01*
X7945477Y-12277274D02*
X7955001Y-12296322D01*
X7955001Y-12296322D02*
X7955001Y-12401084D01*
X7955001Y-12296322D02*
X7964524Y-12277274D01*
X7964524Y-12277274D02*
X7983572Y-12267750D01*
X7983572Y-12267750D02*
X8012143Y-12267750D01*
X8012143Y-12267750D02*
X8031191Y-12277274D01*
X8031191Y-12277274D02*
X8040715Y-12296322D01*
X8040715Y-12296322D02*
X8040715Y-12401084D01*
X8431191Y-12191560D02*
X8259763Y-12448703D01*
X8688334Y-12201084D02*
X8707382Y-12201084D01*
X8707382Y-12201084D02*
X8726429Y-12210608D01*
X8726429Y-12210608D02*
X8735953Y-12220131D01*
X8735953Y-12220131D02*
X8745477Y-12239179D01*
X8745477Y-12239179D02*
X8755001Y-12277274D01*
X8755001Y-12277274D02*
X8755001Y-12324893D01*
X8755001Y-12324893D02*
X8745477Y-12362988D01*
X8745477Y-12362988D02*
X8735953Y-12382036D01*
X8735953Y-12382036D02*
X8726429Y-12391560D01*
X8726429Y-12391560D02*
X8707382Y-12401084D01*
X8707382Y-12401084D02*
X8688334Y-12401084D01*
X8688334Y-12401084D02*
X8669287Y-12391560D01*
X8669287Y-12391560D02*
X8659763Y-12382036D01*
X8659763Y-12382036D02*
X8650239Y-12362988D01*
X8650239Y-12362988D02*
X8640715Y-12324893D01*
X8640715Y-12324893D02*
X8640715Y-12277274D01*
X8640715Y-12277274D02*
X8650239Y-12239179D01*
X8650239Y-12239179D02*
X8659763Y-12220131D01*
X8659763Y-12220131D02*
X8669287Y-12210608D01*
X8669287Y-12210608D02*
X8688334Y-12201084D01*
X8840715Y-12382036D02*
X8850239Y-12391560D01*
X8850239Y-12391560D02*
X8840715Y-12401084D01*
X8840715Y-12401084D02*
X8831191Y-12391560D01*
X8831191Y-12391560D02*
X8840715Y-12382036D01*
X8840715Y-12382036D02*
X8840715Y-12401084D01*
X8974048Y-12201084D02*
X8993096Y-12201084D01*
X8993096Y-12201084D02*
X9012144Y-12210608D01*
X9012144Y-12210608D02*
X9021668Y-12220131D01*
X9021668Y-12220131D02*
X9031191Y-12239179D01*
X9031191Y-12239179D02*
X9040715Y-12277274D01*
X9040715Y-12277274D02*
X9040715Y-12324893D01*
X9040715Y-12324893D02*
X9031191Y-12362988D01*
X9031191Y-12362988D02*
X9021668Y-12382036D01*
X9021668Y-12382036D02*
X9012144Y-12391560D01*
X9012144Y-12391560D02*
X8993096Y-12401084D01*
X8993096Y-12401084D02*
X8974048Y-12401084D01*
X8974048Y-12401084D02*
X8955001Y-12391560D01*
X8955001Y-12391560D02*
X8945477Y-12382036D01*
X8945477Y-12382036D02*
X8935953Y-12362988D01*
X8935953Y-12362988D02*
X8926429Y-12324893D01*
X8926429Y-12324893D02*
X8926429Y-12277274D01*
X8926429Y-12277274D02*
X8935953Y-12239179D01*
X8935953Y-12239179D02*
X8945477Y-12220131D01*
X8945477Y-12220131D02*
X8955001Y-12210608D01*
X8955001Y-12210608D02*
X8974048Y-12201084D01*
X9212144Y-12267750D02*
X9212144Y-12401084D01*
X9164525Y-12191560D02*
X9116906Y-12334417D01*
X9116906Y-12334417D02*
X9240715Y-12334417D01*
X9297858Y-12201084D02*
X9421668Y-12201084D01*
X9421668Y-12201084D02*
X9355001Y-12277274D01*
X9355001Y-12277274D02*
X9383572Y-12277274D01*
X9383572Y-12277274D02*
X9402620Y-12286798D01*
X9402620Y-12286798D02*
X9412144Y-12296322D01*
X9412144Y-12296322D02*
X9421668Y-12315369D01*
X9421668Y-12315369D02*
X9421668Y-12362988D01*
X9421668Y-12362988D02*
X9412144Y-12382036D01*
X9412144Y-12382036D02*
X9402620Y-12391560D01*
X9402620Y-12391560D02*
X9383572Y-12401084D01*
X9383572Y-12401084D02*
X9326429Y-12401084D01*
X9326429Y-12401084D02*
X9307382Y-12391560D01*
X9307382Y-12391560D02*
X9297858Y-12382036D01*
X9488334Y-12201084D02*
X9612144Y-12201084D01*
X9612144Y-12201084D02*
X9545477Y-12277274D01*
X9545477Y-12277274D02*
X9574049Y-12277274D01*
X9574049Y-12277274D02*
X9593096Y-12286798D01*
X9593096Y-12286798D02*
X9602620Y-12296322D01*
X9602620Y-12296322D02*
X9612144Y-12315369D01*
X9612144Y-12315369D02*
X9612144Y-12362988D01*
X9612144Y-12362988D02*
X9602620Y-12382036D01*
X9602620Y-12382036D02*
X9593096Y-12391560D01*
X9593096Y-12391560D02*
X9574049Y-12401084D01*
X9574049Y-12401084D02*
X9516906Y-12401084D01*
X9516906Y-12401084D02*
X9497858Y-12391560D01*
X9497858Y-12391560D02*
X9488334Y-12382036D01*
X9688334Y-12201084D02*
X9688334Y-12239179D01*
X9764525Y-12201084D02*
X9764525Y-12239179D01*
X10059763Y-12477274D02*
X10050239Y-12467750D01*
X10050239Y-12467750D02*
X10031191Y-12439179D01*
X10031191Y-12439179D02*
X10021668Y-12420131D01*
X10021668Y-12420131D02*
X10012144Y-12391560D01*
X10012144Y-12391560D02*
X10002620Y-12343941D01*
X10002620Y-12343941D02*
X10002620Y-12305846D01*
X10002620Y-12305846D02*
X10012144Y-12258227D01*
X10012144Y-12258227D02*
X10021668Y-12229655D01*
X10021668Y-12229655D02*
X10031191Y-12210608D01*
X10031191Y-12210608D02*
X10050239Y-12182036D01*
X10050239Y-12182036D02*
X10059763Y-12172512D01*
X10126430Y-12220131D02*
X10135953Y-12210608D01*
X10135953Y-12210608D02*
X10155001Y-12201084D01*
X10155001Y-12201084D02*
X10202620Y-12201084D01*
X10202620Y-12201084D02*
X10221668Y-12210608D01*
X10221668Y-12210608D02*
X10231191Y-12220131D01*
X10231191Y-12220131D02*
X10240715Y-12239179D01*
X10240715Y-12239179D02*
X10240715Y-12258227D01*
X10240715Y-12258227D02*
X10231191Y-12286798D01*
X10231191Y-12286798D02*
X10116906Y-12401084D01*
X10116906Y-12401084D02*
X10240715Y-12401084D01*
X10478811Y-12401084D02*
X10478811Y-12201084D01*
X10564525Y-12401084D02*
X10564525Y-12296322D01*
X10564525Y-12296322D02*
X10555001Y-12277274D01*
X10555001Y-12277274D02*
X10535953Y-12267750D01*
X10535953Y-12267750D02*
X10507382Y-12267750D01*
X10507382Y-12267750D02*
X10488334Y-12277274D01*
X10488334Y-12277274D02*
X10478811Y-12286798D01*
X10688334Y-12401084D02*
X10669287Y-12391560D01*
X10669287Y-12391560D02*
X10659763Y-12382036D01*
X10659763Y-12382036D02*
X10650239Y-12362988D01*
X10650239Y-12362988D02*
X10650239Y-12305846D01*
X10650239Y-12305846D02*
X10659763Y-12286798D01*
X10659763Y-12286798D02*
X10669287Y-12277274D01*
X10669287Y-12277274D02*
X10688334Y-12267750D01*
X10688334Y-12267750D02*
X10716906Y-12267750D01*
X10716906Y-12267750D02*
X10735953Y-12277274D01*
X10735953Y-12277274D02*
X10745477Y-12286798D01*
X10745477Y-12286798D02*
X10755001Y-12305846D01*
X10755001Y-12305846D02*
X10755001Y-12362988D01*
X10755001Y-12362988D02*
X10745477Y-12382036D01*
X10745477Y-12382036D02*
X10735953Y-12391560D01*
X10735953Y-12391560D02*
X10716906Y-12401084D01*
X10716906Y-12401084D02*
X10688334Y-12401084D01*
X10869287Y-12401084D02*
X10850239Y-12391560D01*
X10850239Y-12391560D02*
X10840715Y-12372512D01*
X10840715Y-12372512D02*
X10840715Y-12201084D01*
X11021668Y-12391560D02*
X11002620Y-12401084D01*
X11002620Y-12401084D02*
X10964525Y-12401084D01*
X10964525Y-12401084D02*
X10945477Y-12391560D01*
X10945477Y-12391560D02*
X10935953Y-12372512D01*
X10935953Y-12372512D02*
X10935953Y-12296322D01*
X10935953Y-12296322D02*
X10945477Y-12277274D01*
X10945477Y-12277274D02*
X10964525Y-12267750D01*
X10964525Y-12267750D02*
X11002620Y-12267750D01*
X11002620Y-12267750D02*
X11021668Y-12277274D01*
X11021668Y-12277274D02*
X11031192Y-12296322D01*
X11031192Y-12296322D02*
X11031192Y-12315369D01*
X11031192Y-12315369D02*
X10935953Y-12334417D01*
X11107382Y-12391560D02*
X11126430Y-12401084D01*
X11126430Y-12401084D02*
X11164525Y-12401084D01*
X11164525Y-12401084D02*
X11183573Y-12391560D01*
X11183573Y-12391560D02*
X11193096Y-12372512D01*
X11193096Y-12372512D02*
X11193096Y-12362988D01*
X11193096Y-12362988D02*
X11183573Y-12343941D01*
X11183573Y-12343941D02*
X11164525Y-12334417D01*
X11164525Y-12334417D02*
X11135953Y-12334417D01*
X11135953Y-12334417D02*
X11116906Y-12324893D01*
X11116906Y-12324893D02*
X11107382Y-12305846D01*
X11107382Y-12305846D02*
X11107382Y-12296322D01*
X11107382Y-12296322D02*
X11116906Y-12277274D01*
X11116906Y-12277274D02*
X11135953Y-12267750D01*
X11135953Y-12267750D02*
X11164525Y-12267750D01*
X11164525Y-12267750D02*
X11183573Y-12277274D01*
X11259763Y-12477274D02*
X11269287Y-12467750D01*
X11269287Y-12467750D02*
X11288334Y-12439179D01*
X11288334Y-12439179D02*
X11297858Y-12420131D01*
X11297858Y-12420131D02*
X11307382Y-12391560D01*
X11307382Y-12391560D02*
X11316906Y-12343941D01*
X11316906Y-12343941D02*
X11316906Y-12305846D01*
X11316906Y-12305846D02*
X11307382Y-12258227D01*
X11307382Y-12258227D02*
X11297858Y-12229655D01*
X11297858Y-12229655D02*
X11288334Y-12210608D01*
X11288334Y-12210608D02*
X11269287Y-12182036D01*
X11269287Y-12182036D02*
X11259763Y-12172512D01*
D13*
X6424700Y-12633600D02*
X6484700Y-12573600D01*
X6424700Y-12513600D01*
X6364700Y-12573600D01*
X6424700Y-12633600D01*
D11*
X6850239Y-12665084D02*
X6735953Y-12665084D01*
X6793096Y-12665084D02*
X6793096Y-12465084D01*
X6793096Y-12465084D02*
X6774048Y-12493655D01*
X6774048Y-12493655D02*
X6755001Y-12512703D01*
X6755001Y-12512703D02*
X6735953Y-12522227D01*
X6935953Y-12646036D02*
X6945477Y-12655560D01*
X6945477Y-12655560D02*
X6935953Y-12665084D01*
X6935953Y-12665084D02*
X6926429Y-12655560D01*
X6926429Y-12655560D02*
X6935953Y-12646036D01*
X6935953Y-12646036D02*
X6935953Y-12665084D01*
X7021667Y-12484131D02*
X7031191Y-12474608D01*
X7031191Y-12474608D02*
X7050239Y-12465084D01*
X7050239Y-12465084D02*
X7097858Y-12465084D01*
X7097858Y-12465084D02*
X7116905Y-12474608D01*
X7116905Y-12474608D02*
X7126429Y-12484131D01*
X7126429Y-12484131D02*
X7135953Y-12503179D01*
X7135953Y-12503179D02*
X7135953Y-12522227D01*
X7135953Y-12522227D02*
X7126429Y-12550798D01*
X7126429Y-12550798D02*
X7012143Y-12665084D01*
X7012143Y-12665084D02*
X7135953Y-12665084D01*
X7259762Y-12465084D02*
X7278810Y-12465084D01*
X7278810Y-12465084D02*
X7297858Y-12474608D01*
X7297858Y-12474608D02*
X7307382Y-12484131D01*
X7307382Y-12484131D02*
X7316905Y-12503179D01*
X7316905Y-12503179D02*
X7326429Y-12541274D01*
X7326429Y-12541274D02*
X7326429Y-12588893D01*
X7326429Y-12588893D02*
X7316905Y-12626988D01*
X7316905Y-12626988D02*
X7307382Y-12646036D01*
X7307382Y-12646036D02*
X7297858Y-12655560D01*
X7297858Y-12655560D02*
X7278810Y-12665084D01*
X7278810Y-12665084D02*
X7259762Y-12665084D01*
X7259762Y-12665084D02*
X7240715Y-12655560D01*
X7240715Y-12655560D02*
X7231191Y-12646036D01*
X7231191Y-12646036D02*
X7221667Y-12626988D01*
X7221667Y-12626988D02*
X7212143Y-12588893D01*
X7212143Y-12588893D02*
X7212143Y-12541274D01*
X7212143Y-12541274D02*
X7221667Y-12503179D01*
X7221667Y-12503179D02*
X7231191Y-12484131D01*
X7231191Y-12484131D02*
X7240715Y-12474608D01*
X7240715Y-12474608D02*
X7259762Y-12465084D01*
X7450239Y-12465084D02*
X7469286Y-12465084D01*
X7469286Y-12465084D02*
X7488334Y-12474608D01*
X7488334Y-12474608D02*
X7497858Y-12484131D01*
X7497858Y-12484131D02*
X7507382Y-12503179D01*
X7507382Y-12503179D02*
X7516905Y-12541274D01*
X7516905Y-12541274D02*
X7516905Y-12588893D01*
X7516905Y-12588893D02*
X7507382Y-12626988D01*
X7507382Y-12626988D02*
X7497858Y-12646036D01*
X7497858Y-12646036D02*
X7488334Y-12655560D01*
X7488334Y-12655560D02*
X7469286Y-12665084D01*
X7469286Y-12665084D02*
X7450239Y-12665084D01*
X7450239Y-12665084D02*
X7431191Y-12655560D01*
X7431191Y-12655560D02*
X7421667Y-12646036D01*
X7421667Y-12646036D02*
X7412143Y-12626988D01*
X7412143Y-12626988D02*
X7402620Y-12588893D01*
X7402620Y-12588893D02*
X7402620Y-12541274D01*
X7402620Y-12541274D02*
X7412143Y-12503179D01*
X7412143Y-12503179D02*
X7421667Y-12484131D01*
X7421667Y-12484131D02*
X7431191Y-12474608D01*
X7431191Y-12474608D02*
X7450239Y-12465084D01*
X7602620Y-12665084D02*
X7602620Y-12531750D01*
X7602620Y-12550798D02*
X7612143Y-12541274D01*
X7612143Y-12541274D02*
X7631191Y-12531750D01*
X7631191Y-12531750D02*
X7659763Y-12531750D01*
X7659763Y-12531750D02*
X7678810Y-12541274D01*
X7678810Y-12541274D02*
X7688334Y-12560322D01*
X7688334Y-12560322D02*
X7688334Y-12665084D01*
X7688334Y-12560322D02*
X7697858Y-12541274D01*
X7697858Y-12541274D02*
X7716905Y-12531750D01*
X7716905Y-12531750D02*
X7745477Y-12531750D01*
X7745477Y-12531750D02*
X7764524Y-12541274D01*
X7764524Y-12541274D02*
X7774048Y-12560322D01*
X7774048Y-12560322D02*
X7774048Y-12665084D01*
X7869286Y-12665084D02*
X7869286Y-12531750D01*
X7869286Y-12550798D02*
X7878810Y-12541274D01*
X7878810Y-12541274D02*
X7897858Y-12531750D01*
X7897858Y-12531750D02*
X7926429Y-12531750D01*
X7926429Y-12531750D02*
X7945477Y-12541274D01*
X7945477Y-12541274D02*
X7955001Y-12560322D01*
X7955001Y-12560322D02*
X7955001Y-12665084D01*
X7955001Y-12560322D02*
X7964524Y-12541274D01*
X7964524Y-12541274D02*
X7983572Y-12531750D01*
X7983572Y-12531750D02*
X8012143Y-12531750D01*
X8012143Y-12531750D02*
X8031191Y-12541274D01*
X8031191Y-12541274D02*
X8040715Y-12560322D01*
X8040715Y-12560322D02*
X8040715Y-12665084D01*
X8431191Y-12455560D02*
X8259763Y-12712703D01*
X8688334Y-12465084D02*
X8707382Y-12465084D01*
X8707382Y-12465084D02*
X8726429Y-12474608D01*
X8726429Y-12474608D02*
X8735953Y-12484131D01*
X8735953Y-12484131D02*
X8745477Y-12503179D01*
X8745477Y-12503179D02*
X8755001Y-12541274D01*
X8755001Y-12541274D02*
X8755001Y-12588893D01*
X8755001Y-12588893D02*
X8745477Y-12626988D01*
X8745477Y-12626988D02*
X8735953Y-12646036D01*
X8735953Y-12646036D02*
X8726429Y-12655560D01*
X8726429Y-12655560D02*
X8707382Y-12665084D01*
X8707382Y-12665084D02*
X8688334Y-12665084D01*
X8688334Y-12665084D02*
X8669287Y-12655560D01*
X8669287Y-12655560D02*
X8659763Y-12646036D01*
X8659763Y-12646036D02*
X8650239Y-12626988D01*
X8650239Y-12626988D02*
X8640715Y-12588893D01*
X8640715Y-12588893D02*
X8640715Y-12541274D01*
X8640715Y-12541274D02*
X8650239Y-12503179D01*
X8650239Y-12503179D02*
X8659763Y-12484131D01*
X8659763Y-12484131D02*
X8669287Y-12474608D01*
X8669287Y-12474608D02*
X8688334Y-12465084D01*
X8840715Y-12646036D02*
X8850239Y-12655560D01*
X8850239Y-12655560D02*
X8840715Y-12665084D01*
X8840715Y-12665084D02*
X8831191Y-12655560D01*
X8831191Y-12655560D02*
X8840715Y-12646036D01*
X8840715Y-12646036D02*
X8840715Y-12665084D01*
X8974048Y-12465084D02*
X8993096Y-12465084D01*
X8993096Y-12465084D02*
X9012144Y-12474608D01*
X9012144Y-12474608D02*
X9021668Y-12484131D01*
X9021668Y-12484131D02*
X9031191Y-12503179D01*
X9031191Y-12503179D02*
X9040715Y-12541274D01*
X9040715Y-12541274D02*
X9040715Y-12588893D01*
X9040715Y-12588893D02*
X9031191Y-12626988D01*
X9031191Y-12626988D02*
X9021668Y-12646036D01*
X9021668Y-12646036D02*
X9012144Y-12655560D01*
X9012144Y-12655560D02*
X8993096Y-12665084D01*
X8993096Y-12665084D02*
X8974048Y-12665084D01*
X8974048Y-12665084D02*
X8955001Y-12655560D01*
X8955001Y-12655560D02*
X8945477Y-12646036D01*
X8945477Y-12646036D02*
X8935953Y-12626988D01*
X8935953Y-12626988D02*
X8926429Y-12588893D01*
X8926429Y-12588893D02*
X8926429Y-12541274D01*
X8926429Y-12541274D02*
X8935953Y-12503179D01*
X8935953Y-12503179D02*
X8945477Y-12484131D01*
X8945477Y-12484131D02*
X8955001Y-12474608D01*
X8955001Y-12474608D02*
X8974048Y-12465084D01*
X9212144Y-12531750D02*
X9212144Y-12665084D01*
X9164525Y-12455560D02*
X9116906Y-12598417D01*
X9116906Y-12598417D02*
X9240715Y-12598417D01*
X9297858Y-12465084D02*
X9431191Y-12465084D01*
X9431191Y-12465084D02*
X9345477Y-12665084D01*
X9497858Y-12484131D02*
X9507382Y-12474608D01*
X9507382Y-12474608D02*
X9526429Y-12465084D01*
X9526429Y-12465084D02*
X9574049Y-12465084D01*
X9574049Y-12465084D02*
X9593096Y-12474608D01*
X9593096Y-12474608D02*
X9602620Y-12484131D01*
X9602620Y-12484131D02*
X9612144Y-12503179D01*
X9612144Y-12503179D02*
X9612144Y-12522227D01*
X9612144Y-12522227D02*
X9602620Y-12550798D01*
X9602620Y-12550798D02*
X9488334Y-12665084D01*
X9488334Y-12665084D02*
X9612144Y-12665084D01*
X9688334Y-12465084D02*
X9688334Y-12503179D01*
X9764525Y-12465084D02*
X9764525Y-12503179D01*
X10059763Y-12741274D02*
X10050239Y-12731750D01*
X10050239Y-12731750D02*
X10031191Y-12703179D01*
X10031191Y-12703179D02*
X10021668Y-12684131D01*
X10021668Y-12684131D02*
X10012144Y-12655560D01*
X10012144Y-12655560D02*
X10002620Y-12607941D01*
X10002620Y-12607941D02*
X10002620Y-12569846D01*
X10002620Y-12569846D02*
X10012144Y-12522227D01*
X10012144Y-12522227D02*
X10021668Y-12493655D01*
X10021668Y-12493655D02*
X10031191Y-12474608D01*
X10031191Y-12474608D02*
X10050239Y-12446036D01*
X10050239Y-12446036D02*
X10059763Y-12436512D01*
X10126430Y-12484131D02*
X10135953Y-12474608D01*
X10135953Y-12474608D02*
X10155001Y-12465084D01*
X10155001Y-12465084D02*
X10202620Y-12465084D01*
X10202620Y-12465084D02*
X10221668Y-12474608D01*
X10221668Y-12474608D02*
X10231191Y-12484131D01*
X10231191Y-12484131D02*
X10240715Y-12503179D01*
X10240715Y-12503179D02*
X10240715Y-12522227D01*
X10240715Y-12522227D02*
X10231191Y-12550798D01*
X10231191Y-12550798D02*
X10116906Y-12665084D01*
X10116906Y-12665084D02*
X10240715Y-12665084D01*
X10478811Y-12665084D02*
X10478811Y-12465084D01*
X10564525Y-12665084D02*
X10564525Y-12560322D01*
X10564525Y-12560322D02*
X10555001Y-12541274D01*
X10555001Y-12541274D02*
X10535953Y-12531750D01*
X10535953Y-12531750D02*
X10507382Y-12531750D01*
X10507382Y-12531750D02*
X10488334Y-12541274D01*
X10488334Y-12541274D02*
X10478811Y-12550798D01*
X10688334Y-12665084D02*
X10669287Y-12655560D01*
X10669287Y-12655560D02*
X10659763Y-12646036D01*
X10659763Y-12646036D02*
X10650239Y-12626988D01*
X10650239Y-12626988D02*
X10650239Y-12569846D01*
X10650239Y-12569846D02*
X10659763Y-12550798D01*
X10659763Y-12550798D02*
X10669287Y-12541274D01*
X10669287Y-12541274D02*
X10688334Y-12531750D01*
X10688334Y-12531750D02*
X10716906Y-12531750D01*
X10716906Y-12531750D02*
X10735953Y-12541274D01*
X10735953Y-12541274D02*
X10745477Y-12550798D01*
X10745477Y-12550798D02*
X10755001Y-12569846D01*
X10755001Y-12569846D02*
X10755001Y-12626988D01*
X10755001Y-12626988D02*
X10745477Y-12646036D01*
X10745477Y-12646036D02*
X10735953Y-12655560D01*
X10735953Y-12655560D02*
X10716906Y-12665084D01*
X10716906Y-12665084D02*
X10688334Y-12665084D01*
X10869287Y-12665084D02*
X10850239Y-12655560D01*
X10850239Y-12655560D02*
X10840715Y-12636512D01*
X10840715Y-12636512D02*
X10840715Y-12465084D01*
X11021668Y-12655560D02*
X11002620Y-12665084D01*
X11002620Y-12665084D02*
X10964525Y-12665084D01*
X10964525Y-12665084D02*
X10945477Y-12655560D01*
X10945477Y-12655560D02*
X10935953Y-12636512D01*
X10935953Y-12636512D02*
X10935953Y-12560322D01*
X10935953Y-12560322D02*
X10945477Y-12541274D01*
X10945477Y-12541274D02*
X10964525Y-12531750D01*
X10964525Y-12531750D02*
X11002620Y-12531750D01*
X11002620Y-12531750D02*
X11021668Y-12541274D01*
X11021668Y-12541274D02*
X11031192Y-12560322D01*
X11031192Y-12560322D02*
X11031192Y-12579369D01*
X11031192Y-12579369D02*
X10935953Y-12598417D01*
X11107382Y-12655560D02*
X11126430Y-12665084D01*
X11126430Y-12665084D02*
X11164525Y-12665084D01*
X11164525Y-12665084D02*
X11183573Y-12655560D01*
X11183573Y-12655560D02*
X11193096Y-12636512D01*
X11193096Y-12636512D02*
X11193096Y-12626988D01*
X11193096Y-12626988D02*
X11183573Y-12607941D01*
X11183573Y-12607941D02*
X11164525Y-12598417D01*
X11164525Y-12598417D02*
X11135953Y-12598417D01*
X11135953Y-12598417D02*
X11116906Y-12588893D01*
X11116906Y-12588893D02*
X11107382Y-12569846D01*
X11107382Y-12569846D02*
X11107382Y-12560322D01*
X11107382Y-12560322D02*
X11116906Y-12541274D01*
X11116906Y-12541274D02*
X11135953Y-12531750D01*
X11135953Y-12531750D02*
X11164525Y-12531750D01*
X11164525Y-12531750D02*
X11183573Y-12541274D01*
X11259763Y-12741274D02*
X11269287Y-12731750D01*
X11269287Y-12731750D02*
X11288334Y-12703179D01*
X11288334Y-12703179D02*
X11297858Y-12684131D01*
X11297858Y-12684131D02*
X11307382Y-12655560D01*
X11307382Y-12655560D02*
X11316906Y-12607941D01*
X11316906Y-12607941D02*
X11316906Y-12569846D01*
X11316906Y-12569846D02*
X11307382Y-12522227D01*
X11307382Y-12522227D02*
X11297858Y-12493655D01*
X11297858Y-12493655D02*
X11288334Y-12474608D01*
X11288334Y-12474608D02*
X11269287Y-12446036D01*
X11269287Y-12446036D02*
X11259763Y-12436512D01*
D14*
X6354700Y-12772600D02*
X6484700Y-12902600D01*
X6484700Y-12772600D02*
X6354700Y-12902600D01*
X6484700Y-12837600D02*
G75*
G03*
X6484700Y-12837600I-65000J0D01*
G01*
D11*
X6850239Y-12929084D02*
X6735953Y-12929084D01*
X6793096Y-12929084D02*
X6793096Y-12729084D01*
X6793096Y-12729084D02*
X6774048Y-12757655D01*
X6774048Y-12757655D02*
X6755001Y-12776703D01*
X6755001Y-12776703D02*
X6735953Y-12786227D01*
X6935953Y-12910036D02*
X6945477Y-12919560D01*
X6945477Y-12919560D02*
X6935953Y-12929084D01*
X6935953Y-12929084D02*
X6926429Y-12919560D01*
X6926429Y-12919560D02*
X6935953Y-12910036D01*
X6935953Y-12910036D02*
X6935953Y-12929084D01*
X7012143Y-12729084D02*
X7135953Y-12729084D01*
X7135953Y-12729084D02*
X7069286Y-12805274D01*
X7069286Y-12805274D02*
X7097858Y-12805274D01*
X7097858Y-12805274D02*
X7116905Y-12814798D01*
X7116905Y-12814798D02*
X7126429Y-12824322D01*
X7126429Y-12824322D02*
X7135953Y-12843369D01*
X7135953Y-12843369D02*
X7135953Y-12890988D01*
X7135953Y-12890988D02*
X7126429Y-12910036D01*
X7126429Y-12910036D02*
X7116905Y-12919560D01*
X7116905Y-12919560D02*
X7097858Y-12929084D01*
X7097858Y-12929084D02*
X7040715Y-12929084D01*
X7040715Y-12929084D02*
X7021667Y-12919560D01*
X7021667Y-12919560D02*
X7012143Y-12910036D01*
X7259762Y-12729084D02*
X7278810Y-12729084D01*
X7278810Y-12729084D02*
X7297858Y-12738608D01*
X7297858Y-12738608D02*
X7307382Y-12748131D01*
X7307382Y-12748131D02*
X7316905Y-12767179D01*
X7316905Y-12767179D02*
X7326429Y-12805274D01*
X7326429Y-12805274D02*
X7326429Y-12852893D01*
X7326429Y-12852893D02*
X7316905Y-12890988D01*
X7316905Y-12890988D02*
X7307382Y-12910036D01*
X7307382Y-12910036D02*
X7297858Y-12919560D01*
X7297858Y-12919560D02*
X7278810Y-12929084D01*
X7278810Y-12929084D02*
X7259762Y-12929084D01*
X7259762Y-12929084D02*
X7240715Y-12919560D01*
X7240715Y-12919560D02*
X7231191Y-12910036D01*
X7231191Y-12910036D02*
X7221667Y-12890988D01*
X7221667Y-12890988D02*
X7212143Y-12852893D01*
X7212143Y-12852893D02*
X7212143Y-12805274D01*
X7212143Y-12805274D02*
X7221667Y-12767179D01*
X7221667Y-12767179D02*
X7231191Y-12748131D01*
X7231191Y-12748131D02*
X7240715Y-12738608D01*
X7240715Y-12738608D02*
X7259762Y-12729084D01*
X7450239Y-12729084D02*
X7469286Y-12729084D01*
X7469286Y-12729084D02*
X7488334Y-12738608D01*
X7488334Y-12738608D02*
X7497858Y-12748131D01*
X7497858Y-12748131D02*
X7507382Y-12767179D01*
X7507382Y-12767179D02*
X7516905Y-12805274D01*
X7516905Y-12805274D02*
X7516905Y-12852893D01*
X7516905Y-12852893D02*
X7507382Y-12890988D01*
X7507382Y-12890988D02*
X7497858Y-12910036D01*
X7497858Y-12910036D02*
X7488334Y-12919560D01*
X7488334Y-12919560D02*
X7469286Y-12929084D01*
X7469286Y-12929084D02*
X7450239Y-12929084D01*
X7450239Y-12929084D02*
X7431191Y-12919560D01*
X7431191Y-12919560D02*
X7421667Y-12910036D01*
X7421667Y-12910036D02*
X7412143Y-12890988D01*
X7412143Y-12890988D02*
X7402620Y-12852893D01*
X7402620Y-12852893D02*
X7402620Y-12805274D01*
X7402620Y-12805274D02*
X7412143Y-12767179D01*
X7412143Y-12767179D02*
X7421667Y-12748131D01*
X7421667Y-12748131D02*
X7431191Y-12738608D01*
X7431191Y-12738608D02*
X7450239Y-12729084D01*
X7602620Y-12929084D02*
X7602620Y-12795750D01*
X7602620Y-12814798D02*
X7612143Y-12805274D01*
X7612143Y-12805274D02*
X7631191Y-12795750D01*
X7631191Y-12795750D02*
X7659763Y-12795750D01*
X7659763Y-12795750D02*
X7678810Y-12805274D01*
X7678810Y-12805274D02*
X7688334Y-12824322D01*
X7688334Y-12824322D02*
X7688334Y-12929084D01*
X7688334Y-12824322D02*
X7697858Y-12805274D01*
X7697858Y-12805274D02*
X7716905Y-12795750D01*
X7716905Y-12795750D02*
X7745477Y-12795750D01*
X7745477Y-12795750D02*
X7764524Y-12805274D01*
X7764524Y-12805274D02*
X7774048Y-12824322D01*
X7774048Y-12824322D02*
X7774048Y-12929084D01*
X7869286Y-12929084D02*
X7869286Y-12795750D01*
X7869286Y-12814798D02*
X7878810Y-12805274D01*
X7878810Y-12805274D02*
X7897858Y-12795750D01*
X7897858Y-12795750D02*
X7926429Y-12795750D01*
X7926429Y-12795750D02*
X7945477Y-12805274D01*
X7945477Y-12805274D02*
X7955001Y-12824322D01*
X7955001Y-12824322D02*
X7955001Y-12929084D01*
X7955001Y-12824322D02*
X7964524Y-12805274D01*
X7964524Y-12805274D02*
X7983572Y-12795750D01*
X7983572Y-12795750D02*
X8012143Y-12795750D01*
X8012143Y-12795750D02*
X8031191Y-12805274D01*
X8031191Y-12805274D02*
X8040715Y-12824322D01*
X8040715Y-12824322D02*
X8040715Y-12929084D01*
X8431191Y-12719560D02*
X8259763Y-12976703D01*
X8688334Y-12729084D02*
X8707382Y-12729084D01*
X8707382Y-12729084D02*
X8726429Y-12738608D01*
X8726429Y-12738608D02*
X8735953Y-12748131D01*
X8735953Y-12748131D02*
X8745477Y-12767179D01*
X8745477Y-12767179D02*
X8755001Y-12805274D01*
X8755001Y-12805274D02*
X8755001Y-12852893D01*
X8755001Y-12852893D02*
X8745477Y-12890988D01*
X8745477Y-12890988D02*
X8735953Y-12910036D01*
X8735953Y-12910036D02*
X8726429Y-12919560D01*
X8726429Y-12919560D02*
X8707382Y-12929084D01*
X8707382Y-12929084D02*
X8688334Y-12929084D01*
X8688334Y-12929084D02*
X8669287Y-12919560D01*
X8669287Y-12919560D02*
X8659763Y-12910036D01*
X8659763Y-12910036D02*
X8650239Y-12890988D01*
X8650239Y-12890988D02*
X8640715Y-12852893D01*
X8640715Y-12852893D02*
X8640715Y-12805274D01*
X8640715Y-12805274D02*
X8650239Y-12767179D01*
X8650239Y-12767179D02*
X8659763Y-12748131D01*
X8659763Y-12748131D02*
X8669287Y-12738608D01*
X8669287Y-12738608D02*
X8688334Y-12729084D01*
X8840715Y-12910036D02*
X8850239Y-12919560D01*
X8850239Y-12919560D02*
X8840715Y-12929084D01*
X8840715Y-12929084D02*
X8831191Y-12919560D01*
X8831191Y-12919560D02*
X8840715Y-12910036D01*
X8840715Y-12910036D02*
X8840715Y-12929084D01*
X8974048Y-12729084D02*
X8993096Y-12729084D01*
X8993096Y-12729084D02*
X9012144Y-12738608D01*
X9012144Y-12738608D02*
X9021668Y-12748131D01*
X9021668Y-12748131D02*
X9031191Y-12767179D01*
X9031191Y-12767179D02*
X9040715Y-12805274D01*
X9040715Y-12805274D02*
X9040715Y-12852893D01*
X9040715Y-12852893D02*
X9031191Y-12890988D01*
X9031191Y-12890988D02*
X9021668Y-12910036D01*
X9021668Y-12910036D02*
X9012144Y-12919560D01*
X9012144Y-12919560D02*
X8993096Y-12929084D01*
X8993096Y-12929084D02*
X8974048Y-12929084D01*
X8974048Y-12929084D02*
X8955001Y-12919560D01*
X8955001Y-12919560D02*
X8945477Y-12910036D01*
X8945477Y-12910036D02*
X8935953Y-12890988D01*
X8935953Y-12890988D02*
X8926429Y-12852893D01*
X8926429Y-12852893D02*
X8926429Y-12805274D01*
X8926429Y-12805274D02*
X8935953Y-12767179D01*
X8935953Y-12767179D02*
X8945477Y-12748131D01*
X8945477Y-12748131D02*
X8955001Y-12738608D01*
X8955001Y-12738608D02*
X8974048Y-12729084D01*
X9221668Y-12729084D02*
X9126429Y-12729084D01*
X9126429Y-12729084D02*
X9116906Y-12824322D01*
X9116906Y-12824322D02*
X9126429Y-12814798D01*
X9126429Y-12814798D02*
X9145477Y-12805274D01*
X9145477Y-12805274D02*
X9193096Y-12805274D01*
X9193096Y-12805274D02*
X9212144Y-12814798D01*
X9212144Y-12814798D02*
X9221668Y-12824322D01*
X9221668Y-12824322D02*
X9231191Y-12843369D01*
X9231191Y-12843369D02*
X9231191Y-12890988D01*
X9231191Y-12890988D02*
X9221668Y-12910036D01*
X9221668Y-12910036D02*
X9212144Y-12919560D01*
X9212144Y-12919560D02*
X9193096Y-12929084D01*
X9193096Y-12929084D02*
X9145477Y-12929084D01*
X9145477Y-12929084D02*
X9126429Y-12919560D01*
X9126429Y-12919560D02*
X9116906Y-12910036D01*
X9421668Y-12929084D02*
X9307382Y-12929084D01*
X9364525Y-12929084D02*
X9364525Y-12729084D01*
X9364525Y-12729084D02*
X9345477Y-12757655D01*
X9345477Y-12757655D02*
X9326429Y-12776703D01*
X9326429Y-12776703D02*
X9307382Y-12786227D01*
X9497858Y-12748131D02*
X9507382Y-12738608D01*
X9507382Y-12738608D02*
X9526429Y-12729084D01*
X9526429Y-12729084D02*
X9574049Y-12729084D01*
X9574049Y-12729084D02*
X9593096Y-12738608D01*
X9593096Y-12738608D02*
X9602620Y-12748131D01*
X9602620Y-12748131D02*
X9612144Y-12767179D01*
X9612144Y-12767179D02*
X9612144Y-12786227D01*
X9612144Y-12786227D02*
X9602620Y-12814798D01*
X9602620Y-12814798D02*
X9488334Y-12929084D01*
X9488334Y-12929084D02*
X9612144Y-12929084D01*
X9688334Y-12729084D02*
X9688334Y-12767179D01*
X9764525Y-12729084D02*
X9764525Y-12767179D01*
X10059763Y-13005274D02*
X10050239Y-12995750D01*
X10050239Y-12995750D02*
X10031191Y-12967179D01*
X10031191Y-12967179D02*
X10021668Y-12948131D01*
X10021668Y-12948131D02*
X10012144Y-12919560D01*
X10012144Y-12919560D02*
X10002620Y-12871941D01*
X10002620Y-12871941D02*
X10002620Y-12833846D01*
X10002620Y-12833846D02*
X10012144Y-12786227D01*
X10012144Y-12786227D02*
X10021668Y-12757655D01*
X10021668Y-12757655D02*
X10031191Y-12738608D01*
X10031191Y-12738608D02*
X10050239Y-12710036D01*
X10050239Y-12710036D02*
X10059763Y-12700512D01*
X10126430Y-12748131D02*
X10135953Y-12738608D01*
X10135953Y-12738608D02*
X10155001Y-12729084D01*
X10155001Y-12729084D02*
X10202620Y-12729084D01*
X10202620Y-12729084D02*
X10221668Y-12738608D01*
X10221668Y-12738608D02*
X10231191Y-12748131D01*
X10231191Y-12748131D02*
X10240715Y-12767179D01*
X10240715Y-12767179D02*
X10240715Y-12786227D01*
X10240715Y-12786227D02*
X10231191Y-12814798D01*
X10231191Y-12814798D02*
X10116906Y-12929084D01*
X10116906Y-12929084D02*
X10240715Y-12929084D01*
X10431191Y-12929084D02*
X10316906Y-12929084D01*
X10374049Y-12929084D02*
X10374049Y-12729084D01*
X10374049Y-12729084D02*
X10355001Y-12757655D01*
X10355001Y-12757655D02*
X10335953Y-12776703D01*
X10335953Y-12776703D02*
X10316906Y-12786227D01*
X10669287Y-12929084D02*
X10669287Y-12729084D01*
X10755001Y-12929084D02*
X10755001Y-12824322D01*
X10755001Y-12824322D02*
X10745477Y-12805274D01*
X10745477Y-12805274D02*
X10726430Y-12795750D01*
X10726430Y-12795750D02*
X10697858Y-12795750D01*
X10697858Y-12795750D02*
X10678811Y-12805274D01*
X10678811Y-12805274D02*
X10669287Y-12814798D01*
X10878811Y-12929084D02*
X10859763Y-12919560D01*
X10859763Y-12919560D02*
X10850239Y-12910036D01*
X10850239Y-12910036D02*
X10840715Y-12890988D01*
X10840715Y-12890988D02*
X10840715Y-12833846D01*
X10840715Y-12833846D02*
X10850239Y-12814798D01*
X10850239Y-12814798D02*
X10859763Y-12805274D01*
X10859763Y-12805274D02*
X10878811Y-12795750D01*
X10878811Y-12795750D02*
X10907382Y-12795750D01*
X10907382Y-12795750D02*
X10926430Y-12805274D01*
X10926430Y-12805274D02*
X10935953Y-12814798D01*
X10935953Y-12814798D02*
X10945477Y-12833846D01*
X10945477Y-12833846D02*
X10945477Y-12890988D01*
X10945477Y-12890988D02*
X10935953Y-12910036D01*
X10935953Y-12910036D02*
X10926430Y-12919560D01*
X10926430Y-12919560D02*
X10907382Y-12929084D01*
X10907382Y-12929084D02*
X10878811Y-12929084D01*
X11059763Y-12929084D02*
X11040715Y-12919560D01*
X11040715Y-12919560D02*
X11031192Y-12900512D01*
X11031192Y-12900512D02*
X11031192Y-12729084D01*
X11212144Y-12919560D02*
X11193096Y-12929084D01*
X11193096Y-12929084D02*
X11155001Y-12929084D01*
X11155001Y-12929084D02*
X11135953Y-12919560D01*
X11135953Y-12919560D02*
X11126430Y-12900512D01*
X11126430Y-12900512D02*
X11126430Y-12824322D01*
X11126430Y-12824322D02*
X11135953Y-12805274D01*
X11135953Y-12805274D02*
X11155001Y-12795750D01*
X11155001Y-12795750D02*
X11193096Y-12795750D01*
X11193096Y-12795750D02*
X11212144Y-12805274D01*
X11212144Y-12805274D02*
X11221668Y-12824322D01*
X11221668Y-12824322D02*
X11221668Y-12843369D01*
X11221668Y-12843369D02*
X11126430Y-12862417D01*
X11297858Y-12919560D02*
X11316906Y-12929084D01*
X11316906Y-12929084D02*
X11355001Y-12929084D01*
X11355001Y-12929084D02*
X11374049Y-12919560D01*
X11374049Y-12919560D02*
X11383572Y-12900512D01*
X11383572Y-12900512D02*
X11383572Y-12890988D01*
X11383572Y-12890988D02*
X11374049Y-12871941D01*
X11374049Y-12871941D02*
X11355001Y-12862417D01*
X11355001Y-12862417D02*
X11326430Y-12862417D01*
X11326430Y-12862417D02*
X11307382Y-12852893D01*
X11307382Y-12852893D02*
X11297858Y-12833846D01*
X11297858Y-12833846D02*
X11297858Y-12824322D01*
X11297858Y-12824322D02*
X11307382Y-12805274D01*
X11307382Y-12805274D02*
X11326430Y-12795750D01*
X11326430Y-12795750D02*
X11355001Y-12795750D01*
X11355001Y-12795750D02*
X11374049Y-12805274D01*
X11450239Y-13005274D02*
X11459763Y-12995750D01*
X11459763Y-12995750D02*
X11478811Y-12967179D01*
X11478811Y-12967179D02*
X11488334Y-12948131D01*
X11488334Y-12948131D02*
X11497858Y-12919560D01*
X11497858Y-12919560D02*
X11507382Y-12871941D01*
X11507382Y-12871941D02*
X11507382Y-12833846D01*
X11507382Y-12833846D02*
X11497858Y-12786227D01*
X11497858Y-12786227D02*
X11488334Y-12757655D01*
X11488334Y-12757655D02*
X11478811Y-12738608D01*
X11478811Y-12738608D02*
X11459763Y-12710036D01*
X11459763Y-12710036D02*
X11450239Y-12700512D01*
X6284700Y-13001600D02*
X6484700Y-13201600D01*
X6484700Y-13001600D02*
X6284700Y-13201600D01*
X6384700Y-13001600D02*
X6384700Y-13201600D01*
X6284700Y-13101600D02*
X6484700Y-13101600D01*
X6735953Y-13012131D02*
X6745477Y-13002608D01*
X6745477Y-13002608D02*
X6764524Y-12993084D01*
X6764524Y-12993084D02*
X6812143Y-12993084D01*
X6812143Y-12993084D02*
X6831191Y-13002608D01*
X6831191Y-13002608D02*
X6840715Y-13012131D01*
X6840715Y-13012131D02*
X6850239Y-13031179D01*
X6850239Y-13031179D02*
X6850239Y-13050227D01*
X6850239Y-13050227D02*
X6840715Y-13078798D01*
X6840715Y-13078798D02*
X6726429Y-13193084D01*
X6726429Y-13193084D02*
X6850239Y-13193084D01*
X6935953Y-13174036D02*
X6945477Y-13183560D01*
X6945477Y-13183560D02*
X6935953Y-13193084D01*
X6935953Y-13193084D02*
X6926429Y-13183560D01*
X6926429Y-13183560D02*
X6935953Y-13174036D01*
X6935953Y-13174036D02*
X6935953Y-13193084D01*
X7021667Y-13012131D02*
X7031191Y-13002608D01*
X7031191Y-13002608D02*
X7050239Y-12993084D01*
X7050239Y-12993084D02*
X7097858Y-12993084D01*
X7097858Y-12993084D02*
X7116905Y-13002608D01*
X7116905Y-13002608D02*
X7126429Y-13012131D01*
X7126429Y-13012131D02*
X7135953Y-13031179D01*
X7135953Y-13031179D02*
X7135953Y-13050227D01*
X7135953Y-13050227D02*
X7126429Y-13078798D01*
X7126429Y-13078798D02*
X7012143Y-13193084D01*
X7012143Y-13193084D02*
X7135953Y-13193084D01*
X7259762Y-12993084D02*
X7278810Y-12993084D01*
X7278810Y-12993084D02*
X7297858Y-13002608D01*
X7297858Y-13002608D02*
X7307382Y-13012131D01*
X7307382Y-13012131D02*
X7316905Y-13031179D01*
X7316905Y-13031179D02*
X7326429Y-13069274D01*
X7326429Y-13069274D02*
X7326429Y-13116893D01*
X7326429Y-13116893D02*
X7316905Y-13154988D01*
X7316905Y-13154988D02*
X7307382Y-13174036D01*
X7307382Y-13174036D02*
X7297858Y-13183560D01*
X7297858Y-13183560D02*
X7278810Y-13193084D01*
X7278810Y-13193084D02*
X7259762Y-13193084D01*
X7259762Y-13193084D02*
X7240715Y-13183560D01*
X7240715Y-13183560D02*
X7231191Y-13174036D01*
X7231191Y-13174036D02*
X7221667Y-13154988D01*
X7221667Y-13154988D02*
X7212143Y-13116893D01*
X7212143Y-13116893D02*
X7212143Y-13069274D01*
X7212143Y-13069274D02*
X7221667Y-13031179D01*
X7221667Y-13031179D02*
X7231191Y-13012131D01*
X7231191Y-13012131D02*
X7240715Y-13002608D01*
X7240715Y-13002608D02*
X7259762Y-12993084D01*
X7450239Y-12993084D02*
X7469286Y-12993084D01*
X7469286Y-12993084D02*
X7488334Y-13002608D01*
X7488334Y-13002608D02*
X7497858Y-13012131D01*
X7497858Y-13012131D02*
X7507382Y-13031179D01*
X7507382Y-13031179D02*
X7516905Y-13069274D01*
X7516905Y-13069274D02*
X7516905Y-13116893D01*
X7516905Y-13116893D02*
X7507382Y-13154988D01*
X7507382Y-13154988D02*
X7497858Y-13174036D01*
X7497858Y-13174036D02*
X7488334Y-13183560D01*
X7488334Y-13183560D02*
X7469286Y-13193084D01*
X7469286Y-13193084D02*
X7450239Y-13193084D01*
X7450239Y-13193084D02*
X7431191Y-13183560D01*
X7431191Y-13183560D02*
X7421667Y-13174036D01*
X7421667Y-13174036D02*
X7412143Y-13154988D01*
X7412143Y-13154988D02*
X7402620Y-13116893D01*
X7402620Y-13116893D02*
X7402620Y-13069274D01*
X7402620Y-13069274D02*
X7412143Y-13031179D01*
X7412143Y-13031179D02*
X7421667Y-13012131D01*
X7421667Y-13012131D02*
X7431191Y-13002608D01*
X7431191Y-13002608D02*
X7450239Y-12993084D01*
X7602620Y-13193084D02*
X7602620Y-13059750D01*
X7602620Y-13078798D02*
X7612143Y-13069274D01*
X7612143Y-13069274D02*
X7631191Y-13059750D01*
X7631191Y-13059750D02*
X7659763Y-13059750D01*
X7659763Y-13059750D02*
X7678810Y-13069274D01*
X7678810Y-13069274D02*
X7688334Y-13088322D01*
X7688334Y-13088322D02*
X7688334Y-13193084D01*
X7688334Y-13088322D02*
X7697858Y-13069274D01*
X7697858Y-13069274D02*
X7716905Y-13059750D01*
X7716905Y-13059750D02*
X7745477Y-13059750D01*
X7745477Y-13059750D02*
X7764524Y-13069274D01*
X7764524Y-13069274D02*
X7774048Y-13088322D01*
X7774048Y-13088322D02*
X7774048Y-13193084D01*
X7869286Y-13193084D02*
X7869286Y-13059750D01*
X7869286Y-13078798D02*
X7878810Y-13069274D01*
X7878810Y-13069274D02*
X7897858Y-13059750D01*
X7897858Y-13059750D02*
X7926429Y-13059750D01*
X7926429Y-13059750D02*
X7945477Y-13069274D01*
X7945477Y-13069274D02*
X7955001Y-13088322D01*
X7955001Y-13088322D02*
X7955001Y-13193084D01*
X7955001Y-13088322D02*
X7964524Y-13069274D01*
X7964524Y-13069274D02*
X7983572Y-13059750D01*
X7983572Y-13059750D02*
X8012143Y-13059750D01*
X8012143Y-13059750D02*
X8031191Y-13069274D01*
X8031191Y-13069274D02*
X8040715Y-13088322D01*
X8040715Y-13088322D02*
X8040715Y-13193084D01*
X8431191Y-12983560D02*
X8259763Y-13240703D01*
X8688334Y-12993084D02*
X8707382Y-12993084D01*
X8707382Y-12993084D02*
X8726429Y-13002608D01*
X8726429Y-13002608D02*
X8735953Y-13012131D01*
X8735953Y-13012131D02*
X8745477Y-13031179D01*
X8745477Y-13031179D02*
X8755001Y-13069274D01*
X8755001Y-13069274D02*
X8755001Y-13116893D01*
X8755001Y-13116893D02*
X8745477Y-13154988D01*
X8745477Y-13154988D02*
X8735953Y-13174036D01*
X8735953Y-13174036D02*
X8726429Y-13183560D01*
X8726429Y-13183560D02*
X8707382Y-13193084D01*
X8707382Y-13193084D02*
X8688334Y-13193084D01*
X8688334Y-13193084D02*
X8669287Y-13183560D01*
X8669287Y-13183560D02*
X8659763Y-13174036D01*
X8659763Y-13174036D02*
X8650239Y-13154988D01*
X8650239Y-13154988D02*
X8640715Y-13116893D01*
X8640715Y-13116893D02*
X8640715Y-13069274D01*
X8640715Y-13069274D02*
X8650239Y-13031179D01*
X8650239Y-13031179D02*
X8659763Y-13012131D01*
X8659763Y-13012131D02*
X8669287Y-13002608D01*
X8669287Y-13002608D02*
X8688334Y-12993084D01*
X8840715Y-13174036D02*
X8850239Y-13183560D01*
X8850239Y-13183560D02*
X8840715Y-13193084D01*
X8840715Y-13193084D02*
X8831191Y-13183560D01*
X8831191Y-13183560D02*
X8840715Y-13174036D01*
X8840715Y-13174036D02*
X8840715Y-13193084D01*
X8974048Y-12993084D02*
X8993096Y-12993084D01*
X8993096Y-12993084D02*
X9012144Y-13002608D01*
X9012144Y-13002608D02*
X9021668Y-13012131D01*
X9021668Y-13012131D02*
X9031191Y-13031179D01*
X9031191Y-13031179D02*
X9040715Y-13069274D01*
X9040715Y-13069274D02*
X9040715Y-13116893D01*
X9040715Y-13116893D02*
X9031191Y-13154988D01*
X9031191Y-13154988D02*
X9021668Y-13174036D01*
X9021668Y-13174036D02*
X9012144Y-13183560D01*
X9012144Y-13183560D02*
X8993096Y-13193084D01*
X8993096Y-13193084D02*
X8974048Y-13193084D01*
X8974048Y-13193084D02*
X8955001Y-13183560D01*
X8955001Y-13183560D02*
X8945477Y-13174036D01*
X8945477Y-13174036D02*
X8935953Y-13154988D01*
X8935953Y-13154988D02*
X8926429Y-13116893D01*
X8926429Y-13116893D02*
X8926429Y-13069274D01*
X8926429Y-13069274D02*
X8935953Y-13031179D01*
X8935953Y-13031179D02*
X8945477Y-13012131D01*
X8945477Y-13012131D02*
X8955001Y-13002608D01*
X8955001Y-13002608D02*
X8974048Y-12993084D01*
X9155001Y-13078798D02*
X9135953Y-13069274D01*
X9135953Y-13069274D02*
X9126429Y-13059750D01*
X9126429Y-13059750D02*
X9116906Y-13040703D01*
X9116906Y-13040703D02*
X9116906Y-13031179D01*
X9116906Y-13031179D02*
X9126429Y-13012131D01*
X9126429Y-13012131D02*
X9135953Y-13002608D01*
X9135953Y-13002608D02*
X9155001Y-12993084D01*
X9155001Y-12993084D02*
X9193096Y-12993084D01*
X9193096Y-12993084D02*
X9212144Y-13002608D01*
X9212144Y-13002608D02*
X9221668Y-13012131D01*
X9221668Y-13012131D02*
X9231191Y-13031179D01*
X9231191Y-13031179D02*
X9231191Y-13040703D01*
X9231191Y-13040703D02*
X9221668Y-13059750D01*
X9221668Y-13059750D02*
X9212144Y-13069274D01*
X9212144Y-13069274D02*
X9193096Y-13078798D01*
X9193096Y-13078798D02*
X9155001Y-13078798D01*
X9155001Y-13078798D02*
X9135953Y-13088322D01*
X9135953Y-13088322D02*
X9126429Y-13097846D01*
X9126429Y-13097846D02*
X9116906Y-13116893D01*
X9116906Y-13116893D02*
X9116906Y-13154988D01*
X9116906Y-13154988D02*
X9126429Y-13174036D01*
X9126429Y-13174036D02*
X9135953Y-13183560D01*
X9135953Y-13183560D02*
X9155001Y-13193084D01*
X9155001Y-13193084D02*
X9193096Y-13193084D01*
X9193096Y-13193084D02*
X9212144Y-13183560D01*
X9212144Y-13183560D02*
X9221668Y-13174036D01*
X9221668Y-13174036D02*
X9231191Y-13154988D01*
X9231191Y-13154988D02*
X9231191Y-13116893D01*
X9231191Y-13116893D02*
X9221668Y-13097846D01*
X9221668Y-13097846D02*
X9212144Y-13088322D01*
X9212144Y-13088322D02*
X9193096Y-13078798D01*
X9402620Y-12993084D02*
X9364525Y-12993084D01*
X9364525Y-12993084D02*
X9345477Y-13002608D01*
X9345477Y-13002608D02*
X9335953Y-13012131D01*
X9335953Y-13012131D02*
X9316906Y-13040703D01*
X9316906Y-13040703D02*
X9307382Y-13078798D01*
X9307382Y-13078798D02*
X9307382Y-13154988D01*
X9307382Y-13154988D02*
X9316906Y-13174036D01*
X9316906Y-13174036D02*
X9326429Y-13183560D01*
X9326429Y-13183560D02*
X9345477Y-13193084D01*
X9345477Y-13193084D02*
X9383572Y-13193084D01*
X9383572Y-13193084D02*
X9402620Y-13183560D01*
X9402620Y-13183560D02*
X9412144Y-13174036D01*
X9412144Y-13174036D02*
X9421668Y-13154988D01*
X9421668Y-13154988D02*
X9421668Y-13107369D01*
X9421668Y-13107369D02*
X9412144Y-13088322D01*
X9412144Y-13088322D02*
X9402620Y-13078798D01*
X9402620Y-13078798D02*
X9383572Y-13069274D01*
X9383572Y-13069274D02*
X9345477Y-13069274D01*
X9345477Y-13069274D02*
X9326429Y-13078798D01*
X9326429Y-13078798D02*
X9316906Y-13088322D01*
X9316906Y-13088322D02*
X9307382Y-13107369D01*
X9593096Y-12993084D02*
X9555001Y-12993084D01*
X9555001Y-12993084D02*
X9535953Y-13002608D01*
X9535953Y-13002608D02*
X9526429Y-13012131D01*
X9526429Y-13012131D02*
X9507382Y-13040703D01*
X9507382Y-13040703D02*
X9497858Y-13078798D01*
X9497858Y-13078798D02*
X9497858Y-13154988D01*
X9497858Y-13154988D02*
X9507382Y-13174036D01*
X9507382Y-13174036D02*
X9516906Y-13183560D01*
X9516906Y-13183560D02*
X9535953Y-13193084D01*
X9535953Y-13193084D02*
X9574049Y-13193084D01*
X9574049Y-13193084D02*
X9593096Y-13183560D01*
X9593096Y-13183560D02*
X9602620Y-13174036D01*
X9602620Y-13174036D02*
X9612144Y-13154988D01*
X9612144Y-13154988D02*
X9612144Y-13107369D01*
X9612144Y-13107369D02*
X9602620Y-13088322D01*
X9602620Y-13088322D02*
X9593096Y-13078798D01*
X9593096Y-13078798D02*
X9574049Y-13069274D01*
X9574049Y-13069274D02*
X9535953Y-13069274D01*
X9535953Y-13069274D02*
X9516906Y-13078798D01*
X9516906Y-13078798D02*
X9507382Y-13088322D01*
X9507382Y-13088322D02*
X9497858Y-13107369D01*
X9688334Y-12993084D02*
X9688334Y-13031179D01*
X9764525Y-12993084D02*
X9764525Y-13031179D01*
X10059763Y-13269274D02*
X10050239Y-13259750D01*
X10050239Y-13259750D02*
X10031191Y-13231179D01*
X10031191Y-13231179D02*
X10021668Y-13212131D01*
X10021668Y-13212131D02*
X10012144Y-13183560D01*
X10012144Y-13183560D02*
X10002620Y-13135941D01*
X10002620Y-13135941D02*
X10002620Y-13097846D01*
X10002620Y-13097846D02*
X10012144Y-13050227D01*
X10012144Y-13050227D02*
X10021668Y-13021655D01*
X10021668Y-13021655D02*
X10031191Y-13002608D01*
X10031191Y-13002608D02*
X10050239Y-12974036D01*
X10050239Y-12974036D02*
X10059763Y-12964512D01*
X10221668Y-13059750D02*
X10221668Y-13193084D01*
X10174049Y-12983560D02*
X10126430Y-13126417D01*
X10126430Y-13126417D02*
X10250239Y-13126417D01*
X10478811Y-13193084D02*
X10478811Y-12993084D01*
X10564525Y-13193084D02*
X10564525Y-13088322D01*
X10564525Y-13088322D02*
X10555001Y-13069274D01*
X10555001Y-13069274D02*
X10535953Y-13059750D01*
X10535953Y-13059750D02*
X10507382Y-13059750D01*
X10507382Y-13059750D02*
X10488334Y-13069274D01*
X10488334Y-13069274D02*
X10478811Y-13078798D01*
X10688334Y-13193084D02*
X10669287Y-13183560D01*
X10669287Y-13183560D02*
X10659763Y-13174036D01*
X10659763Y-13174036D02*
X10650239Y-13154988D01*
X10650239Y-13154988D02*
X10650239Y-13097846D01*
X10650239Y-13097846D02*
X10659763Y-13078798D01*
X10659763Y-13078798D02*
X10669287Y-13069274D01*
X10669287Y-13069274D02*
X10688334Y-13059750D01*
X10688334Y-13059750D02*
X10716906Y-13059750D01*
X10716906Y-13059750D02*
X10735953Y-13069274D01*
X10735953Y-13069274D02*
X10745477Y-13078798D01*
X10745477Y-13078798D02*
X10755001Y-13097846D01*
X10755001Y-13097846D02*
X10755001Y-13154988D01*
X10755001Y-13154988D02*
X10745477Y-13174036D01*
X10745477Y-13174036D02*
X10735953Y-13183560D01*
X10735953Y-13183560D02*
X10716906Y-13193084D01*
X10716906Y-13193084D02*
X10688334Y-13193084D01*
X10869287Y-13193084D02*
X10850239Y-13183560D01*
X10850239Y-13183560D02*
X10840715Y-13164512D01*
X10840715Y-13164512D02*
X10840715Y-12993084D01*
X11021668Y-13183560D02*
X11002620Y-13193084D01*
X11002620Y-13193084D02*
X10964525Y-13193084D01*
X10964525Y-13193084D02*
X10945477Y-13183560D01*
X10945477Y-13183560D02*
X10935953Y-13164512D01*
X10935953Y-13164512D02*
X10935953Y-13088322D01*
X10935953Y-13088322D02*
X10945477Y-13069274D01*
X10945477Y-13069274D02*
X10964525Y-13059750D01*
X10964525Y-13059750D02*
X11002620Y-13059750D01*
X11002620Y-13059750D02*
X11021668Y-13069274D01*
X11021668Y-13069274D02*
X11031192Y-13088322D01*
X11031192Y-13088322D02*
X11031192Y-13107369D01*
X11031192Y-13107369D02*
X10935953Y-13126417D01*
X11107382Y-13183560D02*
X11126430Y-13193084D01*
X11126430Y-13193084D02*
X11164525Y-13193084D01*
X11164525Y-13193084D02*
X11183573Y-13183560D01*
X11183573Y-13183560D02*
X11193096Y-13164512D01*
X11193096Y-13164512D02*
X11193096Y-13154988D01*
X11193096Y-13154988D02*
X11183573Y-13135941D01*
X11183573Y-13135941D02*
X11164525Y-13126417D01*
X11164525Y-13126417D02*
X11135953Y-13126417D01*
X11135953Y-13126417D02*
X11116906Y-13116893D01*
X11116906Y-13116893D02*
X11107382Y-13097846D01*
X11107382Y-13097846D02*
X11107382Y-13088322D01*
X11107382Y-13088322D02*
X11116906Y-13069274D01*
X11116906Y-13069274D02*
X11135953Y-13059750D01*
X11135953Y-13059750D02*
X11164525Y-13059750D01*
X11164525Y-13059750D02*
X11183573Y-13069274D01*
X11259763Y-13269274D02*
X11269287Y-13259750D01*
X11269287Y-13259750D02*
X11288334Y-13231179D01*
X11288334Y-13231179D02*
X11297858Y-13212131D01*
X11297858Y-13212131D02*
X11307382Y-13183560D01*
X11307382Y-13183560D02*
X11316906Y-13135941D01*
X11316906Y-13135941D02*
X11316906Y-13097846D01*
X11316906Y-13097846D02*
X11307382Y-13050227D01*
X11307382Y-13050227D02*
X11297858Y-13021655D01*
X11297858Y-13021655D02*
X11288334Y-13002608D01*
X11288334Y-13002608D02*
X11269287Y-12974036D01*
X11269287Y-12974036D02*
X11259763Y-12964512D01*
M02*
